<?xml version="1.0" encoding="UTF-8"?>
<svg id="Common-loon" xmlns="http://www.w3.org/2000/svg" xmlns:xlink="http://www.w3.org/1999/xlink" viewBox="0 0 612 792">
  <defs>
    <style>
      .cls-1 {
        fill: url(#radial-gradient);
      }

      .cls-2 {
        fill: none;
        stroke: #000;
        stroke-linecap: round;
        stroke-linejoin: round;
        stroke-width: 0px;
      }
    </style>
    <radialGradient id="radial-gradient" cx="317.08" cy="396" fx="317.08" fy="396" r="281.47" gradientTransform="translate(0 -66.72) scale(1 1.17)" gradientUnits="userSpaceOnUse">
      <stop offset="0" stop-color="#d9ae6f"/>
      <stop offset=".22" stop-color="#d4aa6b"/>
      <stop offset=".46" stop-color="#c79e62"/>
      <stop offset=".72" stop-color="#b08b53"/>
      <stop offset=".98" stop-color="#91703e"/>
      <stop offset="1" stop-color="#8f6e3d"/>
    </radialGradient>
  </defs>
  <path id="Egg" class="cls-1" d="m104.13,438.27c6.39-163.21,120.91-378.41,210.64-378.41,98.91,0,200.24,209.78,214.37,378.41,13.5,161.07-93.06,303.44-212.51,292.66-113.53,16.04-218.83-131.15-212.51-292.66Z"/>
  <g id="Dots">
    <path d="m411.35,192.31c-.02-.36-.08-.71-.12-1.07,1.18-5.63-.73-12.02-5.27-15.12-.41-1.16-.96-2.33-1.74-3.47-1.92-3.05-5.21-5.4-8.81-6.53-1.43-.87-2.9-1.63-4.39-2.25-1.12-1.3-2.37-2.48-3.74-3.45-1.48-1.05-3.23-1.62-5-1.77-.25-.38-.47-.73-.74-1.12-2.36-3.01-4.86-6.41-8.67-7.58-.79-.22-1.57-.27-2.3-.16-.84-.77-1.55-1.33-2.06-1.58-2.5-1.51-5.81-1.1-7.89.95-2.17,2.21-2.3,5.59-1.6,8.52-.73,4.5,1.26,10.39,3.78,14.31.13,2.94.72,5.86,1.37,8.22,2.19,7.42,6.37,15.05,13.32,18.69.3.5.6.95.89,1.34,3.66,5.09,7.73,7.98,11.57,8.63,2.54,1.41,5.65,2.12,9.36,1.81,5.73-.6,9.27-5.02,10.93-10.17.2-.42.42-.83.57-1.3.58-1.18.78-3.18.54-5.55,0-.46,0-.91-.02-1.35Z"/>
    <path d="m195.5,246.7c-1.31-.6-2.91-.83-4.85-.53-7.41,2.22-11.08,14.49-10.52,21.49.22,7.57,8.47,15.24,15.93,11.2,3.58-1.6,5.8-5.11,7.15-8.66,1.52-3.54,2.6-7.23,2.91-11.08.77-6.69-4.9-11.8-10.61-12.42Z"/>
    <path d="m317.51,673.55c2.46-6.84,3.08-18.11-3.69-21.76-6.06-3.33-12.29,1.62-15.48,6.66-1.51,2.09-2.41,4.49-2.88,7-.13.27-.26.54-.37.82-4.99,5.98-6.62,15.18.45,19.91.45.26.9.46,1.34.68,1.6,1.69,4.09,2.26,6.36,1.67.34-.03.68-.09,1.02-.16,6.97-.55,12.4-6.76,13.26-14.81Z"/>
    <path d="m232.41,541.92c-6.12.1-6.11,9.2,0,9.32,6.12-.1,6.11-9.2,0-9.32Z"/>
    <path d="m240.16,469.05c-6.12.1-6.11,9.2,0,9.32,6.12-.1,6.11-9.2,0-9.32Z"/>
    <path d="m193.65,391.53c-6.12.1-6.11,9.2,0,9.32,6.12-.1,6.11-9.2,0-9.32Z"/>
    <path d="m432.42,456.65c-6.12.1-6.11,9.2,0,9.32,6.12-.1,6.11-9.2,0-9.32Z"/>
    <path d="m365.75,323.31c-6.12.1-6.11,9.2,0,9.32,6.12-.1,6.11-9.2,0-9.32Z"/>
    <path d="m331.64,255.09c-6.12.1-6.11,9.2,0,9.32,6.12-.1,6.11-9.2,0-9.32Z"/>
    <path d="m269.62,117.1c-6.12.1-6.11,9.2,0,9.32,6.12-.1,6.11-9.2,0-9.32Z"/>
    <path d="m446.38,327.96c-6.12.1-6.11,9.2,0,9.32,6.12-.1,6.11-9.2,0-9.32Z"/>
    <path d="m406.34,565.64c-.09-.18-.19-.35-.28-.52-.14-2.76-.89-5.36-2.38-7.55-.25-.87-.54-1.72-.89-2.53-.51-1.44-1.26-2.96-2.16-4.47.09.01.16.05.25.05,2.44,0,2.43-3.71,0-3.73-1.02,0-1.58.66-1.75,1.41-1.92-2.65-4.32-5.09-6.96-6.76-.06-1.06-.18-2.1-.39-3.06-1.76-6.78-7.28-16.29-14.95-14.62-4.29-.94-8.71,1.73-9.74,6.4-1.18,4.22-.51,9.82,1.53,14.81.03,1.36.12,2.71.37,4.06.34,2.8,1.76,5.49,3.73,7.42.17.43.37.84.59,1.23,0,.09,0,.18,0,.27-.29-.23-.65-.4-1.12-.41-2.44,0-2.43,3.71,0,3.73.47,0,.83-.17,1.12-.4-.16.78-.3,1.56-.42,2.36-2.79,5.92-2.21,13.46.18,19.37,1.97,4.68,5.05,10.04,9.36,13.25,1.01,2.16,2.27,4.2,3.91,6.02,4.2,4.48,11.87,5.65,16.41,1.05,3.1-3.72,4.35-8.39,4.28-13.32.17-.5.36-.98.5-1.53,1.35-7.36,2.06-15.59-1.2-22.55Z"/>
    <path d="m243.24,141.53c-.39-.62-.88-1.12-1.41-1.56,1.89-.51,1.73-3.61-.51-3.63-.77,0-1.26.39-1.55.89-.34-.3-.71-.58-1.14-.84-.5-.28-.99-.47-1.47-.62-1.37-1.56-3.08-2.19-4.96-2.13.48-1.1-.05-2.67-1.64-2.68-1.9,0-2.29,2.24-1.23,3.24-3.45,1.19-7.17,4.14-10.36,7.8-.26-.16-.57-.28-.96-.28-1.84,0-2.28,2.13-1.33,3.17-2.14,2.96-3.86,6.16-4.83,9.19-4.49,6.17-8.08,13.08-7.54,18.26-.2-.07-.4-.13-.64-.13-2.44,0-2.43,3.71,0,3.73.39,0,.7-.12.96-.28-.15.81-.31,1.61-.42,2.43,0,0,0,0-.01,0,.02-.17.05-.34.06-.43-.02.14-.04.29-.06.43-.35.34-.53.81-.55,1.29-2.42.02-2.41,3.71.01,3.73.52,0,.91-.2,1.21-.47.43.65,1.05,1.26,1.9,1.8.43.26.89.43,1.37.55-1.46.8-1.17,3.48.9,3.49,1.97,0,2.31-2.39,1.11-3.33,1.27-.13,2.49-.67,3.42-1.59.7-.67,1.1-1.5,1.39-2.37,2.58-4.59,4.14-6.59,5.89-8.87.55-.66,1.07-1.34,1.61-2.02.26.15.55.25.92.25,1.64,0,2.15-1.68,1.57-2.78.18-.35.26-.75.2-1.15.55-.87,1.07-1.77,1.51-2.71,1.64.08,3.32-.22,4.75-.92,6.04-2.33,9.88-8.29,12.07-14.14.04-.16.05-.31.08-.47.74-2.25.76-4.67-.33-6.85Z"/>
    <path d="m234.09,643.56c4.83-6.4,7.59-17.01,1.5-23.44-.77-.78-1.65-1.46-2.58-2.03-3.85-4.82-10.8-5.27-15.36-.69-3.84,3.97-6.01,9.29-7.31,14.72-1.36,2.47-2.39,5.32-2.9,8.21-3.89,2.89-6.37,8.29-6.45,13.2-1.16,5.48.37,11.04,6.72,13.26,6.22,2.37,10.95.31,13.94-3.78,4.32-1.77,7.57-5.49,9.53-9.71,1.18-2.29,1.88-4.99,1.93-7.6.1-.36.19-.72.28-1.08.24-.34.48-.7.7-1.06Z"/>
    <path d="m396.45,695.95c.01-.57-.03-1.14-.17-1.72-1.76-6.48-9.62-5.69-14.1-2.55-1.23.85-2.48,1.71-3.68,2.64-3.65-1.26-7.73-.59-11.54,1.05-1.45-.56-3.19-.72-5.25-.29-2.37.77-4.48,2.08-6.35,3.71-2.59,1.43-4.95,3.41-6.93,5.42-2.36,2.59-4.66,5.63-4.82,9.26-.02,2.13,1.01,4.02,2.55,5.28,1.01,3.43,4.25,5.8,9.2,5.67,1.43-.08,2.78-.47,4.04-1.03.15.04.3.07.45.11-.02,0-.02,0-.04,0,.02,0,.04,0,.06,0,.65.13,1.22.19,1.3.18.68.08,1.37.14,2.06.1.35-.03.71-.09,1.07-.15,1.55.22,3.17.2,4.71.19,5.79-.12,10.73-3.53,14.52-7.68,1.44-1.72,2.98-3.58,4.21-5.59.35-.3.69-.61,1-.93,1.6-1.47,2.99-3.11,4.18-4.9,2.76-2.35,4.94-5.16,3.53-8.78Z"/>
    <path d="m370.28,644.24c-1.96.1-3.69.93-5.27,2.03-2.01,1.06-3.88,2.37-5.55,3.86-1.47.39-2.77,1.18-3.72,2.59-.65,1.02-1.07,2.17-1.32,3.36-.27.44-.51.87-.74,1.31-.2.33-.39.66-.58.99-4.16,5.93-6.02,15.16,2.84,17.59,2.53.34,5.08,0,7.49-.82-.55,1.1-.04,2.75,1.59,2.76,2.24,0,2.39-3.11.51-3.62,2.88-1.4,5.45-3.54,7.31-6.14,2.34-2.33,4.28-4.92,5.57-7.29,1.22-2.82,2.52-5.72,2.54-8.84-.05-5.5-5.61-8.83-10.68-7.78Z"/>
    <path d="m328.41,592.3c-.31-.57-.69-1.09-1.1-1.55-.04-2.69-.77-5.19-3.26-6.77-5.93-2.71-9.19,2.4-10.98,7.94-2.37,2.71-4.1,6.59-4.94,10.62-.27-.41-.5-.82-.8-1.22-.98-1.47-2-2.67-3.04-3.66-.32-1.8-1.06-3.49-2.45-4.92-1.16-1.29-2.6-2.21-4.18-2.85,1.15-4.79.82-10.25-2.57-14.01-3.23-3.75-8.42-5.87-13.25-4.19-1.15.34-2.26.88-3.32,1.56-2.99.44-5.77,2.17-7.41,4.92-1.81,3.17-2.62,6.79-3.17,10.4-.44.52-.86,1.07-1.23,1.64-3.73,6.34-3.19,6.52-5.16,11.48-1.05,3.69.13,6.92,2.53,8.99-.15,2.9-.05,5.79.67,8.59.58,1.95,1.74,3.5,3.21,4.65-.13,2.89.48,5.61,2.93,7.12,2.11,1.08,4.2,1.02,6.08.26.36.51.76,1.01,1.2,1.45.02.32.05.64.1.94-.05,1.83.16,3.67.66,5.39.2,1.63.7,3.21,1.7,4.59,2.33,3.55,7.03,4.75,10.75,3.16,5.75-1.57,9.31-7.95,11.39-13.97,3.77-2.65,6.49-6.24,7.99-10.27,1.58.71,3.37.93,5.21.44,7.81-2.73,11.72-11.74,13.15-19.34.54-3.8,1.23-7.88-.71-11.4Z"/>
    <path d="m464.49,589.82c-5.69-3.04-11.18,1.29-15.54,6.41-.24.1-.48.18-.73.3-4.45,2.47-7.17,6.97-10.16,10.92-2.37,3.9-5.64,7.2-7.67,11.3-.24.44-.46.89-.66,1.36-1.17,1.67-2.27,3.53-3.22,5.56-6.4,6.8-10.27,16.71-4.01,23.77.46.54.98,1.03,1.51,1.49.42.97.91,1.9,1.53,2.72,2.63,3.87,8.25,5.55,12.24,2.77,5.06-3.84,9-8.97,13.06-13.81,2.26-3.12,4.09-7.13,4.44-11.13,3.17-6.21,5.79-12.7,7.38-19.45,5.24-8.31,8.5-17.52,1.82-22.22Z"/>
    <path d="m450.17,553.89c-6.12.1-6.11,9.2,0,9.32,6.12-.1,6.11-9.2,0-9.32Z"/>
    <path d="m489.15,563.64c-6.12.1-6.11,9.2,0,9.32,6.12-.1,6.11-9.2,0-9.32Z"/>
    <path d="m274.63,691.5c-1.42-4.58-4.99-7.04-8.93-7.47-1.89-.61-4.03-.64-6.24.14-1.27.52-2.48,1.27-3.61,2.16-2.69,1.31-5,3.56-6.2,6.32-1.25,2.48-1.63,4.95-1.29,7.09-.43,3.89.5,7.75,3.38,10.65,11.65,9.81,26.28-6.69,22.89-18.88Z"/>
    <path d="m187.66,583.45c.21-.81.39-1.64.49-2.48,3.1-17.75-21.43-26.93-23.34-7.97-4.83,6.37-4.88,17.18,2.64,21.22.94.51,1.87.85,2.79,1.12,4.96,11.37,16.89,9.85,18.58-3.15.44-2.92,0-6-1.16-8.75Z"/>
    <path d="m324.79,488.6c-.83-3.52-4.75-5.68-8.18-4.74-5.54,2.17-8.73,9.62-10.11,15.79-.12.12-.24.23-.35.36-1.78,2.17-3.52,5.48-4.37,8.85-2.73,3.7-4.39,8.53-4.36,12.48.05,4.91,4.49,8.34,9.06,8.23,1.3.26,2.67.22,3.92-.22,5.49-2.36,9.8-9.69,9.76-16.21.31-2.08.37-4.16.19-6.12.65-1.71,1.24-3.33,1.82-4.68,1.48-4.36,3.29-9.11,2.63-13.76Z"/>
    <path d="m163.23,470.15c-.98-.93-1.91-1.52-2.81-1.87-.3-.78-.8-1.46-1.63-1.92-.06-.04-.13-.05-.19-.08-.77-.8-1.72-1.32-2.71-1.44.33-3.54.71-7.08.09-10.6-.87,5.01-2.76,8.51-4.43,13.36-.43,1.34.13,2.38,1,2.82-.12.69-.21,1.4-.26,2.11-.38.62-.71,1.26-1,1.89-1.12,1.76-2,4.5-2.23,8.31-.11,2.99,2.35,5.76,5.35,5.91,3.81,0,7.18-2.95,8.85-6.21,1.54-3.75,2.92-8.89-.03-12.29Z"/>
    <path d="m478.77,429.98c-.41-1.59-1.6-2.73-3.03-3.28-1.68-1.55-4.27-2.05-6.36-.79-1.85,1.15-2.88,2.99-3.6,4.97,0,0,0,.02-.01.02-.29.6-.44,1.25-.59,1.9-.13.46-.25.92-.37,1.37-.04.12-.07.25-.12.37-.18.45-.28.9-.34,1.36-.44,1.51-.8,2.77-.29,4.17-.3,1.61-.49,3.24-.16,4.84.82,3.31,4.98,5.01,7.88,3.2,3.47-2.49,5.47-6.82,6.45-10.89.07-.55.15-1.1.22-1.66.54-1.95.7-3.54.32-5.59Z"/>
    <path d="m375.12,429.72c-1.06-1.53-2.38-2.38-3.77-2.72-2.2-2.95-6.26-4-10.01-.69-6.91,6.56-11.1,23.53,3.76,20.85,6.82-1.98,13.57-10.35,10.02-17.45Z"/>
    <path d="m284.52,313.9c-.02-1.01-.05-2.03-.12-3.06.16-2.71.13-5.43-.13-8.12-1.37-6.33-7.06-7.7-11.27-5.13-11.02,1.24-14.14,25.3-12.68,34.13.26,1.18.75,2.26,1.4,3.22.06,2.51.64,4.9,2.36,6.89,1.47,1.51,3.53,2.1,5.55,1.92.2.32.42.63.66.91.01.09.02.19.04.28.39,1.75,2.01,2.72,3.45,1.97,2.6.81,5.6.29,7.66-1.89,1.59-1.67,2.53-3.78,3.18-5.97,1.14-3.21,2.01-6.49,2.3-9.89.49-5.13.72-10.96-2.4-15.26Z"/>
    <path d="m344.87,73.02c-.75-2.96-4.66-4.92-9.55-3.45-3.26.91-6.18,2.73-8.93,4.66-1.54,1.13-3.27,2.33-3.99,4.17-1.17,2.49.22,5.84,2.81,6.77,1.12.54,2.6.6,4.18.39.61.04,1.25-.02,1.89-.23.23-.08.48-.18.74-.3.45.25.94.4,1.42.42-.09,1.11.87,2.38,1.1,3.46,1.65-2.29,2.78-3.87,3.58-4.97,2.27-1.04,4.45-2.27,6.29-3.96,2.43-2.41,2.83-5.57.45-6.96Z"/>
    <path d="m413.43,255.46c-6.12.1-6.11,9.2,0,9.32,6.12-.1,6.11-9.2,0-9.32Z"/>
    <path d="m467.21,309.24c-6.12.1-6.11,9.2,0,9.32,6.12-.1,6.11-9.2,0-9.32Z"/>
    <path d="m391.92,493.11c-2.44,0-2.43,3.71,0,3.73,2.44,0,2.43-3.71,0-3.73Z"/>
    <path d="m474.38,518.21c-2.44,0-2.43,3.71,0,3.73,2.44,0,2.43-3.71,0-3.73Z"/>
    <path d="m442.11,426.78c-2.44,0-2.43,3.71,0,3.73,2.44,0,2.43-3.71,0-3.73Z"/>
    <path d="m418.81,392.72c-2.44,0-2.43,3.71,0,3.73,2.44,0,2.43-3.71,0-3.73Z"/>
    <path d="m503.07,396.3c-2.44,0-2.43,3.71,0,3.73,2.44,0,2.43-3.71,0-3.73Z"/>
    <path d="m515.62,414.23c-2.44,0-2.43,3.71,0,3.73,2.44,0,2.43-3.71,0-3.73Z"/>
    <path d="m282.56,274.39c-2.44,0-2.43,3.71,0,3.73,2.44,0,2.43-3.71,0-3.73Z"/>
    <path d="m264.63,251.09c-2.44,0-2.43,3.71,0,3.73,2.44,0,2.43-3.71,0-3.73Z"/>
    <path d="m278.07,248.47c.21.06.58.14.7.14-.23-.06-.46-.11-.7-.14Z"/>
    <path d="m307.65,247.5c-2.44,0-2.43,3.71,0,3.73,2.44,0,2.43-3.71,0-3.73Z"/>
    <path d="m289.73,220.61c-2.44,0-2.43,3.71,0,3.73,2.44,0,2.43-3.71,0-3.73Z"/>
    <path d="m286.14,236.74c-2.44,0-2.43,3.71,0,3.73,2.44,0,2.43-3.71,0-3.73Z"/>
    <path d="m282.56,243.91c-2.44,0-2.43,3.71,0,3.73,2.44,0,2.43-3.71,0-3.73Z"/>
    <path d="m282.56,251.09c-2.44,0-2.43,3.71,0,3.73,2.44,0,2.43-3.71,0-3.73Z"/>
    <path d="m264.63,245.71c-2.44,0-2.43,3.71,0,3.73,2.44,0,2.43-3.71,0-3.73Z"/>
    <path d="m253.87,240.33c-2.44,0-2.43,3.71,0,3.73,2.44,0,2.43-3.71,0-3.73Z"/>
    <path d="m234.15,220.61c-2.44,0-2.43,3.71,0,3.73,2.44,0,2.43-3.71,0-3.73Z"/>
    <path d="m241.32,168.62c-2.44,0-2.43,3.71,0,3.73,2.44,0,2.43-3.71,0-3.73Z"/>
    <path d="m234.15,170.41c-2.44,0-2.43,3.71,0,3.73,2.44,0,2.43-3.71,0-3.73Z"/>
    <path d="m228.77,170.41c-2.44,0-2.43,3.71,0,3.73,2.44,0,2.43-3.71,0-3.73Z"/>
    <path d="m216.22,181.17c-2.44,0-2.43,3.71,0,3.73,2.44,0,2.43-3.71,0-3.73Z"/>
    <path d="m250.29,141.73c-2.44,0-2.43,3.71,0,3.73,2.44,0,2.43-3.71,0-3.73Z"/>
    <path d="m252.08,130.97c-2.44,0-2.43,3.71,0,3.73,2.44,0,2.43-3.71,0-3.73Z"/>
    <path d="m223.39,130.97c-2.44,0-2.43,3.71,0,3.73,2.44,0,2.43-3.71,0-3.73Z"/>
    <path d="m200.09,188.34c-1.13,0-1.72.81-1.79,1.67-.08-.86-.66-1.67-1.79-1.67-2.44,0-2.43,3.71,0,3.73,1.13,0,1.72-.81,1.79-1.67.02.25.1.48.21.7-.56,1.1-.04,2.76,1.59,2.77,1.63,0,2.14-1.65,1.59-2.76.55-1.1.04-2.75-1.59-2.76Z"/>
    <path d="m235.94,656.26c-.36,0-.65.1-.9.24-.25-.14-.54-.23-.89-.24-2.44,0-2.43,3.71,0,3.73.36,0,.65-.1.9-.24.25.14.54.23.89.24,2.44,0,2.43-3.71,0-3.73Z"/>
    <path d="m259.25,636.54c-2.44,0-2.43,3.71,0,3.73,2.44,0,2.43-3.71,0-3.73Z"/>
    <path d="m268.21,631.16c-2.44,0-2.43,3.71,0,3.73,2.44,0,2.43-3.71,0-3.73Z"/>
    <path d="m264.63,640.12c-2.44,0-2.43,3.71,0,3.73,2.44,0,2.43-3.71,0-3.73Z"/>
    <path d="m261.94,632.13c.8.57,1.77,1.13,2.61,1.51-.82-.58-1.69-1.08-2.61-1.51Z"/>
    <path d="m291.52,654.46c-2.44,0-2.43,3.71,0,3.73,2.44,0,2.43-3.71,0-3.73Z"/>
    <path d="m300.48,643.71c-2.44,0-2.43,3.71,0,3.73,2.44,0,2.43-3.71,0-3.73Z"/>
    <path d="m309.45,632.95c-2.44,0-2.43,3.71,0,3.73,2.44,0,2.43-3.71,0-3.73Z"/>
    <path d="m311.24,627.57c-2.44,0-2.43,3.71,0,3.73,2.44,0,2.43-3.71,0-3.73Z"/>
    <path d="m325.58,637.5c1.74,1.95,3.72,3.68,5.84,5.21-1.73-1.96-3.7-3.71-5.84-5.21Z"/>
    <path d="m335.44,659.02c.86.33,1.74.6,2.64.79-.86-.33-1.74-.6-2.64-.79Z"/>
    <path d="m348.89,636.54c-2.44,0-2.43,3.71,0,3.73,2.44,0,2.43-3.71,0-3.73Z"/>
    <path d="m338.13,634.74c-2.44,0-2.43,3.71,0,3.73,2.44,0,2.43-3.71,0-3.73Z"/>
    <path d="m344.41,663.5c.08.17.22.42.29.51-.08-.18-.18-.34-.29-.51Z"/>
    <path d="m352.47,677.77c-2.44,0-2.43,3.71,0,3.73,2.44,0,2.43-3.71,0-3.73Z"/>
    <path d="m363.23,677.77c-2.44,0-2.43,3.71,0,3.73,2.44,0,2.43-3.71,0-3.73Z"/>
    <path d="m361.44,683.15c-2.44,0-2.43,3.71,0,3.73,2.44,0,2.43-3.71,0-3.73Z"/>
    <path d="m356.06,684.94c-2.44,0-2.43,3.71,0,3.73,2.44,0,2.43-3.71,0-3.73Z"/>
    <path d="m347.1,697.49c-2.44,0-2.43,3.71,0,3.73,2.44,0,2.43-3.71,0-3.73Z"/>
    <path d="m300.48,693.91c-2.44,0-2.43,3.71,0,3.73,2.44,0,2.43-3.71,0-3.73Z"/>
    <path d="m280.76,699.28c-2.44,0-2.43,3.71,0,3.73,2.44,0,2.43-3.71,0-3.73Z"/>
    <path d="m252.08,681.36c-2.44,0-2.43,3.71,0,3.73,2.44,0,2.43-3.71,0-3.73Z"/>
    <path d="m243.11,677.77c-2.44,0-2.43,3.71,0,3.73,2.44,0,2.43-3.71,0-3.73Z"/>
    <path d="m268.21,678.74c7.62,7.52,15.26,15.41,23.28,22.32-6.85-8.33-14.38-16.16-23.28-22.32Z"/>
    <path d="m344.41,687.7c5.15,2.33,9.54,4.22,14.68,6.33-4.5-2.95-9.43-5.12-14.68-6.33Z"/>
    <path d="m388.33,681.36c-2.44,0-2.43,3.71,0,3.73,2.44,0,2.43-3.71,0-3.73Z"/>
    <path d="m382.95,647.29c-2.44,0-2.43,3.71,0,3.73,2.44,0,2.43-3.71,0-3.73Z"/>
    <path d="m370.4,620.4c-2.44,0-2.43,3.71,0,3.73,2.44,0,2.43-3.71,0-3.73Z"/>
    <path d="m372.19,606.06c-2.44,0-2.43,3.71,0,3.73,2.44,0,2.43-3.71,0-3.73Z"/>
    <path d="m372.19,588.13c-2.44,0-2.43,3.71,0,3.73,2.44,0,2.43-3.71,0-3.73Z"/>
    <path class="cls-2" d="m380.66,578.54c-.14-.05-.27-.12-.39-.2"/>
    <path d="m365.02,554.07c-2.44,0-2.43,3.71,0,3.73,2.44,0,2.43-3.71,0-3.73Z"/>
    <path class="cls-2" d="m406.81,563.48c-.2-.11-.38-.23-.55-.38"/>
    <path d="m425.98,568.41c-2.44,0-2.43,3.71,0,3.73,2.44,0,2.43-3.71,0-3.73Z"/>
    <path d="m405.36,550.55c5.55,7.22,10.11,15.22,14.66,23.05-2.96-8.74-7.64-16.96-14.66-23.05Z"/>
    <path d="m424.19,602.47c-2.44,0-2.43,3.71,0,3.73,2.44,0,2.43-3.71,0-3.73Z"/>
    <path d="m425.98,607.85c-2.44,0-2.43,3.71,0,3.73,2.44,0,2.43-3.71,0-3.73Z"/>
    <path d="m418.81,606.06c-2.44,0-2.43,3.71,0,3.73,2.44,0,2.43-3.71,0-3.73Z"/>
    <path d="m402.67,604.27c-2.44,0-2.43,3.71,0,3.73,2.44,0,2.43-3.71,0-3.73Z"/>
    <path d="m406.26,600.68c-2.44,0-2.43,3.71,0,3.73,2.44,0,2.43-3.71,0-3.73Z"/>
    <path d="m415.22,625.78c-2.44,0-2.43,3.71,0,3.73,2.44,0,2.43-3.71,0-3.73Z"/>
    <path class="cls-2" d="m454.54,616.76c-.28-.23-.54-.49-.77-.77"/>
    <path d="m460.04,575.58c-2.44,0-2.43,3.71,0,3.73,2.44,0,2.43-3.71,0-3.73Z"/>
    <path d="m477.97,572c-2.44,0-2.43,3.71,0,3.73,2.44,0,2.43-3.71,0-3.73Z"/>
    <path d="m485.14,561.24c-2.44,0-2.43,3.71,0,3.73,2.44,0,2.43-3.71,0-3.73Z"/>
  </g>
</svg>