<?xml version="1.0" encoding="utf-8"?>
<!-- Generator: Adobe Illustrator 28.2.0, SVG Export Plug-In . SVG Version: 6.00 Build 0)  -->
<svg version="1.1" xmlns="http://www.w3.org/2000/svg" xmlns:xlink="http://www.w3.org/1999/xlink" x="0px" y="0px"
	 viewBox="0 0 612 792" style="enable-background:new 0 0 612 792;" xml:space="preserve">
<style type="text/css">
	.st0{fill:url(#Egg_00000125562330378397782030000006508645354035476361_);}
	.st1{fill:#762B1E;}
	.st2{fill:#B17B5C;}
	.st3{fill:#A66A49;}
	.st4{fill:url(#Egg_00000137827240105197694870000000849382537423734920_);}
	.st5{fill:none;stroke:#000000;stroke-width:0;stroke-linecap:round;stroke-linejoin:round;}
	.st6{fill:url(#Egg_00000147929910361501728680000011494531255982948542_);}
	.st7{fill:#492B13;}
	.st8{fill:#785B43;}
	.st9{fill:url(#SVGID_1_);}
	.st10{fill:url(#Egg_00000163768836255184988810000016104960362267499686_);}
	.st11{fill:#634F4D;}
	.st12{fill:#191923;}
	.st13{fill:none;stroke:#191923;stroke-width:0;stroke-linecap:round;stroke-linejoin:round;}
	.st14{fill:#755F4A;}
	.st15{fill:none;stroke:#755F4A;stroke-width:0;stroke-linecap:round;stroke-linejoin:round;}
	.st16{fill:url(#Egg_00000158003819881718697720000005302911862655637657_);}
</style>
<g id="Great-tit">
</g>
<g id="Common-loon">
</g>
<g id="Layer_4">
</g>
<g id="Layer_5">
</g>
<g id="Layer_8">
</g>
<g id="Rock-bunting_1_">
</g>
<g id="Robin">
</g>
<g id="Common-murre">
	
		<radialGradient id="Egg_00000012463420879856867070000011687299202515011456_" cx="317.56" cy="367.5343" r="184.7141" gradientUnits="userSpaceOnUse">
		<stop  offset="0" style="stop-color:#4B939C"/>
		<stop  offset="0.3753" style="stop-color:#499099"/>
		<stop  offset="0.7042" style="stop-color:#43858E"/>
		<stop  offset="1" style="stop-color:#39757D"/>
	</radialGradient>
	<path id="Egg_2_" style="fill:url(#Egg_00000012463420879856867070000011687299202515011456_);" d="M178.4,396
		c3.7-59.6,70.4-249.3,145-249.3S453,354.8,456.4,396c7.7,95.2-47.1,192.4-141,192.4C233,588.4,173,482,178.4,396z"/>
	<g id="Dots_2_">
		<g>
			<path class="st11" d="M427.3,451.5c-1.6,1.1-3.2,2.2-4.9,3.2c-0.2-0.1-0.3-0.1-0.2,0.1c-2.7,1.7-5.4,3.3-8.1,4.8
				c-2.6,1.5-5.9,2.9-7,2.3c-0.8-0.4-1.6-0.7-2.5-0.8c-0.2,0-0.4,0-0.7,0c-0.1,0-0.3,0-0.5,0c-0.1,0-0.2,0-0.3-0.1
				c-0.5-0.2-1-0.5-1.5-0.6c-0.9-0.1-0.8-0.4-2-0.8c-1.2-0.4-2.1-0.2-2.7-0.4c-0.6-0.4-1.1-0.7-1.7-1.1c-1.3-0.8-2.8-1-4.2-1.5
				c-0.4-0.1-0.8-0.4-2.5-0.9c0,0-0.1,0-0.1-0.1c-0.6-2.6-0.6-3.7-1-6.6c0,0,0,0,0,0c0,0,0,0,0,0v0c0,0,0,0,0.1,0
				c0.6-0.3,1.4-0.1,1.9-0.5c0.7-0.8-0.6-1.5-0.9-2.1c-0.5-0.6-1.6-3.7-1.3-2.5c0.2,1.1,0.3,2.3,0.6,3.3c-1.6,0-2.7,0.7-2.8,2.9
				c-0.1,1.5-0.5,3.1-0.6,4.6c-1.2-1.4-2-3-2.1-4c-0.2-2-0.1-0.8,0.6-2.8c0.8-2.7-2-2.9-3.9-2.9c-1.8,0-3.7-0.2-5.5,0
				c-2.6,0.6-3.4,0.7-6.1,0.8c-7.2,1.5-10.4,3.7-13.8,10.8c-0.9,1.6-1.2,1.9-2.6,3.3c-1.2,0.9-2.6,1.5-3.5,2.6
				c-1.1,1.1-2.2,2.3-3,3.7c-0.4,0.9-1.6,3.7-1.4,3.3c-2.5,6.6-9.4,5.4-17.1,5.4c-0.4-0.3-0.9-0.5-1.3-0.8c-3.5-2.3-5.7-3.9-8.4-6.2
				c-3-2.5-6.4-4.8-10.4-5.2c-1.8-0.1-3.5-0.1-5.3,0c-0.7-0.4-1.5-0.7-2.4-0.9c-2.9-0.9-6-1.2-8.9-0.8c-3.3,0.4-6.3,1.8-9,3.7
				c-0.9-0.6-1.9-0.9-3.1-0.9c-2.8-0.4-5.7-0.2-8.4,0.5c-2.5,0.8-5,1.7-7.6,2.2c-2.6,0.9-7.6-0.5-10.9-1.9c-0.3-0.2-0.5-0.5-0.8-0.7
				c-3.1-2.5-5.9-4.7-9-7.3c-0.4-1-0.9-2.1-1.6-3.4c-0.8-2.1-1.9-2.7-2.8-4.1c-1.5-2-3.7-3.3-5.4-5.1c-1.2-1.1-2.3-2.2-3.4-3.4
				c-1.2-4.2-1.3-8.6-2.8-12.6c-1-3-2.4-5.9-4.1-8.6c-0.7-0.9-1.1-1.9-1.6-2.8c-0.8-1.5-0.6-0.6-0.6-2.5c-0.2-5.2,1.1-9,2-14.1
				c0.3-0.2,3.5-1,4.8-1.9c1.1-0.8,2.1-1.8,3-2.9c1.5-2.2,2.9-4.6,4-7c0.4-1.6-0.1-3.4-1.4-4.4c-1.1-0.8-2.5-0.9-3.7-1.3
				c-2.3-0.5-4.4-0.7-6-1.2c0-0.2,0-0.3,0-0.5c0-3.3,0-6.5,0.3-9.8c0-1.6,0.5-1.4,0.6-3.6c0-0.9,0.2-2.1-0.9-2.5
				c-0.6-0.3-1.4,0-1.8,0.6c-0.1,0.2-0.1,0.5-0.2,0.7c0,0,0,0,0,0c0,0,0,0,0,0c-1,4-2.9,8-2.5,12.2c0.1,1.6,0.3,3.5,1.6,4.6
				c0,4.9,0.1,9.8-0.2,13.3c-0.1,0.7-0.2,1.3-0.3,2c-1,1.1-1.5,2.6-1.7,4.1c-0.6,1.9-0.5,3.9-0.6,5.8c0,3.1-0.3,5.4-0.6,7.6
				c-0.7,4.6-1.7,8.3-0.6,13.3c0.4,1.7,1.6,3.1,2.5,4.6c1.2,1.6,2.8,2.8,4.2,4.1c1.4,1.3,2.7,2.7,4.1,4.1c0.1,0.2,0.1,0.4,0.2,0.6
				c2.5,6.5,8,11.1,13.1,15.6c0.4,0.9,0.8,1.7,1.2,2.7c0.6,1.2,1.6,2.3,2.8,3c0.3,0.4,4,1.6,3.1,1.3c1.1,0.5,2.2,1.1,3.4,1.6
				c1.4,1.1,2.8,2.3,4.4,3.2c2.2,1.2,4.6,1.8,7,2.1c3.7,0.8,5.7,0.6,9,1.7c0.6,0.2,1.5,0.6,2.6,1.2c-0.9,1.8-1.9,3.3-2,6
				c-0.2,5.1-0.3,9.9,0.4,14c0.3,1.9,0.7,3.8,1.4,5.6c0,4.8,1.4,10,6,11.4c1.6,0.2,3.5,0,4.9-0.8c0.7-0.5,1.1-1.2,1.5-1.9
				c5.1-0.7,5.9-8.4,6.1-12.9c0.5-7.1-2.1-13.7-4.1-20.4c3.8-6.8,7.4-9.9,14-10.6c0.2,0.2,0.5,0.5,1,1.1c0,0.1,0.1,0.1,0.1,0.2
				c0.8,1.5,1.5,3.1,2.5,4.5c1.4,2,3.3,3.6,5.5,4.8c3.8,1.9,8,1.7,12.1,1.6c1.4,0,2.9,0,4.3,0c3.8,2.1,7.8,3.2,12.5,2.1
				c4.1-1.1,8.5-1.8,12.3-3.8c4.6-2.8,8-7.2,10.5-11.9c3.2-5.5,2.8-6.6,7.9-7.9c5-1.4,10.2-0.6,15.6,1.2c0.2,0.1,0.3,0.3,0.5,0.4
				c0.2,0.2,0.5,0.3,0.7,0.5c0.6,0.9,1.7,1.5,2.6,2.1c0.2,0.2,0.5,0.4,0.6,0.5c1,0.7,2.1,1.2,3.2,1.8c0.6,0.6,1.3,1.2,1.9,1.9
				c0.1,0.1,0.2,0.3,0.4,0.5c0.1,0.1,0.2,0.3,0.3,0.4c0.7,1.1,1.5,2.1,2.3,3.1c0.1,0.1,0.1,0.2,0.2,0.4c-0.1,1.1-0.2,2.1-0.1,3.2
				c-0.1,0.8,0.4,3.1,0.6,3.9c0,0.1,0,0.2,0,0.3c-1.4,3-2.7,6.1-3.8,9.3c1.4-2,2.7-4.2,3.7-6.4c-0.1,4-0.1,8-0.3,12.1
				c-2.5,2.2-4.7,4.8-6.1,7.9c-0.9,1.8-1.3,2.7-1.6,3.3c-0.2,0.3-0.8,1.7-1,2.2c-0.6,1.6-0.6,3.3-1.1,5c0,0,0,0,0,0.1
				c-0.2,0.2-0.4,0.3-0.6,0.5c-1.6,1.1-2.4,3.2-2.9,5.2c-0.3,0.6-0.6,1.2-0.7,1.8c0-0.1-0.1,0-0.2,0c0.1,0,0.2,0,0.3,0
				c0.3-0.6,1-1.1,1.5-1.6c0.4-0.7,1-1.3,1.5-2c0.3-0.2,0.6-0.5,0.8-0.7c-0.1,2.6,0.1,5.2,0.1,7.8c0.2,5.6,0.4,11.2,0.5,16.9
				c1.8-7.9,2.9-15.9,4.3-23.9c0.4-1.6,0.6-2.2,0.9-2.7c5.6-2.3,10.8-6.5,13.2-12.1c-0.2,0.4-0.2,0.5,0.1-0.2c1.2-2.5,1.9-5.3,1.7-8
				c-0.3-2.4-0.8-4.7-1.4-7c0-2.1-0.1-4.1-0.2-6.2c0.1-2.4-0.6-3.8-1.2-6c0,0,0-0.1,0-0.1c-0.2-1.6,0-3.2-0.6-4.7
				c0.6,0.1,1.1,0.1,1.7,0.1c2.5,0,5,0.1,7.4-0.3c2-0.7,3-1,5-2.3c1.9-1.6,3.4-3.7,4.2-6c0.3-1,0.4-2,0.3-3
				C424.3,454.1,425.9,452.9,427.3,451.5z M220.6,384.2c3.2,0.8,7,1,8.2,2c0,0.1,0.1,0.2,0.1,0.2c0.2,0.7,0.2,0.3,0.2,0.9
				c0,0.1-0.1,0.2-0.1,0.3c0,0.1-0.1,0.2-0.1,0.2c-1,1.5-1.7,3.2-2.7,4.7c-1.2,2-3.1,3.5-4.7,4c-0.3,0.2-0.7,0.3-1.1,0.4
				C220.8,392.7,220.7,388.4,220.6,384.2z M220.8,434.4c-1.9-1.7-2.4-2.5-3.9-4.9c-0.6-1.1-0.9-3.7-0.6-6.5c0.1-0.9,0.4-2.3,0.6-3.9
				c2.4,4.1,4.1,7.1,5.5,11.6c0.5,2.1,0.8,4.2,1.2,6.3C222.6,436.1,221.7,435.3,220.8,434.4z M268.8,471c-3.5-0.9-5.4-0.7-8.5-1.5
				c-0.2,0-0.3,0-0.5-0.1c3.7-0.4,7.1-1.9,10.7-2.8c2.3-0.4,5.2-0.5,7.2,0.1c-1.9,1.8-3.5,3.8-4.8,6
				C271.6,472,270.2,471.4,268.8,471z M272.2,485.6c0.1-2.5-0.1-4.4,0.4-6.1c0.4-0.9,0.8-1.9,1.3-2.9c0.4,0.3,0.8,0.6,1.2,0.8
				c1.3,0.9,3.3,1.6,3.9,2c0.1,0.1,0.1,0.1,0.2,0.2c0,0.1,0.3,0.4,0.5,0.7c-1,1.3-2.2,2.4-2.6,2.8c-0.8,0.6-1.8,1.1-2.2,2.1
				c-0.2,2.1,0,4-0.5,5.2c-0.2,0.5-1.2,1.9-1.9,3.4C272.2,491.4,272.2,489,272.2,485.6z M280.3,509.3c-1.4,0.3-1.8,0.3-2.6,0.1
				c-0.3,0-0.8-0.4-0.2,0c-1-0.4-1.9-1.7-2.4-3.1c1.6,1.3,3.5,2.3,5.5,2.9C280.5,509.2,280.4,509.3,280.3,509.3z M281.9,506.7
				c-1.6-0.4-3.7-1.4-4.4-1.9c-2-1.5-2.8-3-3.4-4.4c0-3.4,0.7-5.4,2.8-8.7c0.7-1.7,0.6-3.6,0.6-5.4c0,0,0,0,0,0
				c0.2-0.2,0.8-0.6,0.9-0.7c0.9-0.7,1.7-1.5,2.5-2.3c1,2.8,1.7,6.6,1.7,10C282.9,497.6,282.8,503.3,281.9,506.7z M281.4,477.9
				c-0.7-0.7-1.5-1.2-2.5-1.5c0.1,0,0,0-0.2-0.1c0,0-0.1,0-0.1,0c0,0,0,0,0.1,0c0,0,0,0,0,0c-1.2-0.6-2.4-1.2-3.4-2.1c0,0,0,0,0,0
				c1.3-2.1,2.9-4.1,4.7-5.8c0,0.1,0.1,0.1,0.1,0.2c1.3,2.2,2,4.5,2.7,7.1C282.4,476.5,281.9,477.2,281.4,477.9z M286.9,499.4
				c-0.1,2.1-0.9,5-1.9,6.4c0.6-3.2,0.6-6.5,0.6-9.8c0.1-5.3-0.6-11.2-2.6-15.5c0.3-0.4,0.6-0.9,0.9-1.3c0,0.1,0.1,0.2,0.1,0.3
				C286.2,486.7,287.8,492.2,286.9,499.4z M290.4,466.1c-2.3,1.7-4,4-5.6,6.4c0-0.1,0-0.2-0.1-0.3c-0.6-1.9-1.4-3.9-2.6-5.6
				c2.1-1.5,4.6-2.5,7.4-2.9c1.1-0.3,3.1-0.2,5.1,0.1C293.1,464.5,291.7,465.2,290.4,466.1z M313.1,474.7c-4.7-1.1-7.1-3.7-9.4-8.5
				c-0.1-0.2-0.2-0.5-0.4-0.7c0.2,0,0.4,0,0.7,0c5.2-0.1,8.8,3.2,13.3,6.9c1.2,0.9,2.5,1.8,3.7,2.7
				C318,475.1,315.1,475.2,313.1,474.7z M379.7,453.6c-2.6-0.3-5.2-0.8-7.8-0.5c-2.4,0-6.7,1.4-7.6,1.9c-2.6,1-3.7,3.8-5,6.1
				c-2.2,4.1-3.7,6.5-6.9,9.9c-3,3.1-6.1,4.1-10.9,5.2c-0.4,0.1-0.8,0.2-1.2,0.3c0.4-0.2,0.9-0.4,1.3-0.7c4-2.6,4.2-6.3,5.9-8.9
				c0.6-0.7,0.1-0.4,1-1.2c0.7-0.7,1.3-1.4,2-2c2.2-1.2,4-2.9,5.3-5.1c2.4-4.4,3.7-7.4,8.1-9c-0.7,0.3,1.2-0.5,1.7-0.5
				c0.5-0.1,1.1-0.2,1.6-0.4c0.2-0.1,0.6-0.2,0.7-0.2c1.3-0.1,2.6-0.1,3.8-0.4c2.6-0.9,6.8-0.6,8.8-0.6c0,0,0,0,0,0
				c-0.1,0.5-0.1,0.3-0.5,1.1c-0.4,1.8,0.2,3.7,1.1,5.3C380.7,453.8,380.2,453.7,379.7,453.6z M422.5,456.2
				c-0.3,1.8-1.3,3.3-2.5,4.6c-2.2,2.5-4.2,3.1-7.3,3.8c-0.2,0-0.4,0-0.5,0c-0.7,0-1.3,0-2-0.1c-1.8-0.1-3.6-0.1-5.4-0.3
				c-0.2,0-0.7-0.1-1-0.2c-0.2-0.1-0.6-0.3-0.8-0.3c-0.5-0.2-1-0.4-1.4-0.5c-0.1,0-0.1,0-0.2-0.1c-0.1-0.1-0.3-0.1-0.4-0.2
				c-0.2-0.1-0.3-0.3-0.4-0.4c0.2,0.1,0.4,0.1,0.6,0.2c0.2,0.1,0.4,0.1,0.7,0.2c0,0,0,0,0,0c0.4,0.2,0.7,0.4,1.1,0.4
				c0.4,0.1,0.9,0,1.3,0.1c0.8,0.1,0.5-0.1,1.2,0.2c0,0,0,0,0.1,0c0,0,0,0,0.1,0c0,0,0.1,0,0.1,0.1c0,0-0.1,0-0.1,0c0,0,0,0,0,0
				c0.3,0.1,0.5,0.2,0.8,0.4c0.6,0.3,1.4,0.2,2,0.1c2.8-0.5,5.1-2.2,7.5-3.7c2.2-1.5,4.4-3.1,6.5-4.8
				C422.5,455.9,422.6,456.1,422.5,456.2z"/>
			<path class="st11" d="M278.8,476.3c0.1,0,0.1,0,0.2,0.1C278.9,476.4,278.8,476.4,278.8,476.3
				C278.7,476.3,278.7,476.3,278.8,476.3z"/>
			<path class="st11" d="M405.7,463.6C405.6,463.6,405.6,463.6,405.7,463.6c-0.1,0-0.1,0-0.1,0C405.6,463.5,405.6,463.6,405.7,463.6
				z"/>
		</g>
		<path class="st11" d="M416.2,336.5c-0.2-1-0.9-1.9-1.3-2.8c-0.2-0.5-0.2-0.4-0.1-0.2c-0.2-0.5-0.5-1-0.8-1.5
			c-0.2-0.6-0.5-1.1-0.8-1.5c0-0.4,0-0.8,0-1.2c0-2.5,0.3-5,0.1-7.4c-0.4-2.9-1.5-5.6-3.5-7.6c-0.2-0.3-0.5-0.6-0.7-0.9
			c-0.1-0.1-0.2-0.3-0.4-0.5c-0.3-0.4-0.7-0.9-1-1.3c-0.1-0.1-0.3-0.5-0.6-1.1c-1.6-2.8-3-5.7-4.5-8.5c-0.8-1-1.4-2.2-2.1-3.3
			c-1.3-1.9-2.8-3.6-3.8-5.7c-0.5-0.9-0.9-1.7-1.3-2.6c-0.1-0.2-0.1-0.5-0.2-0.7c-0.2-3.6-0.6-5.2-0.9-7.6c0.1-0.3,0.2-0.6,0.2-0.8
			c0.3-0.8,0.6-1.7,0.8-2.6c1-2.4,1.2-5,1.2-7.5c0-2.2,0.2-4.5-0.2-6.7c-0.5-2.4-1.2-5-2.9-6.8c-2.5-2.5-6.6-2.9-8.6,0.4
			c-1.3,2.5-0.5,5.5-0.7,8.2c0,4.4-0.1,8.7,0.1,13.1c0.1,0.6,0.1,1.1,0.2,1.7c-0.2,0.7-0.3,1.4-0.3,2.1c0.2,3.7,0.9,7.6,2.2,11
			c0.6,5,0,3.9,1.4,9.5c0.1,0.5,0.2,1.1,0.3,1.6c-2.6-0.5-4.5-0.6-7.8-1.7c-2-0.8-4-1.7-6.1-2.2c-0.3-0.1-0.7,0-1,0c0,0,0,0,0,0
			c-1.2-1.1-3.7-0.3-5.3-0.3c-0.3-0.1-0.5-0.3-0.9-0.4c-0.4-0.2-0.8-0.1-1.2-0.3c-0.4-0.3-0.7-0.6-1.2-0.6c0.5,0.1,0.7,0.5,1.1,0.8
			c0.3,0.3,0.8,0.3,1.1,0.5c0.9,0.9,1.8,0.8,2.9,0.9c0.4,0.1,1.7,0,2.3,0.7c0.4,0.4,0.9,0.6,1.4,0.6c0.1,0,0.1,0,0.2,0
			c0.3,0.1,0.6,0.3,0.8,0.4c2.6,1.4,4.9,3.3,7.7,4.3c0.2,0.1,0.1,0-0.4-0.2c3.4,1.5,5.5,1.8,7.9,2.8c0.4,3.5,5.1,4.2,7.3,2.7
			c0.2-0.1,0.3-0.3,0.4-0.4c0.1,0.1,0.1,0.3,0.2,0.4c0.7,1.1,1.2,2.3,1.9,3.4c0.3,0.3,0.7,0.9,1,1.3c0.1,0.1,0.1,0.2,0.2,0.3
			c1.9,2.5,0.5,0.8,2.6,3.2c0,0,0,0,0,0.1c0.1,0.4,0.4,1.1,0.5,1.6c0,0,0,0.1,0,0.1c0,0.7,0.1,2.8,0.1,3.6c0.2,2.5-0.3,5.3,1.2,7.6
			c0.3,0.4,0.6,0.8,0.9,1.2c0.1,0.1,0.2,0.3,0.2,0.4c-0.5,0.1-0.9,0.3-1.4,0.6c-2.8,2-3.4,6-2.9,9.2c0.2,2.1,0.4,4.3,1,6.3
			c0.8,2,1.5,4.1,3,5.7c3,2.8,5.9,0.2,6.8-3c1-3.8,0.4-7.6-0.4-11.4c1.6-0.2,3-0.9,3.6-3C416.3,339.2,416.5,337.8,416.2,336.5z
			 M409.2,354.2c-0.1,0.1-0.1,0.1-0.2,0.2c-0.8-2.8-0.9-3-1-5.2c0.2-3.1,0.1-4.5,0.5-5.9c0.9,0.1,1.8,0.2,2.7,0.2
			C411.2,347.4,411,351.5,409.2,354.2z"/>
		<g>
			<path class="st11" d="M349.5,558.8c0.1-0.2,0.1-0.3,0.2-0.4C349.6,558.5,349.6,558.7,349.5,558.8z"/>
			<path class="st11" d="M356.9,541.7c2.1-2.6,4.8-5.8,7.3-9.3c-5.2,3.9-13.6,9.9-16.1,13.4c-1.2,1.5-1.9,3.2-2.9,4.8
				c-1.1,2.6-0.6,1.6-1.3,3.3c-0.2,0.3-0.4,1-0.5,1.3c-0.1,0.1-0.1,0.2-0.2,0.3c-0.2,0.3-0.4,0.6-0.6,0.9c-0.1,0.1-0.2,0.2-0.3,0.3
				c-0.3,0.2-0.6,0.3-1,0.5c-0.2,0-0.3,0.1-0.5,0.1c0,0,0,0,0,0c-2.8,0-5.5,0.2-8.1,1c0,0,0-0.1,0-0.1c-2.2-4.3-7.7-4.9-12-4.6
				c-7.1,1-4.1,0.9-11.4,1.4c-0.4,0.1-0.9,0-1.2,0c-0.4-0.1-0.8-0.2-1.1-0.3c-0.8-0.4-1.6-0.9-2.4-1.5c-0.1-0.1-0.2-0.2-0.3-0.2
				c-1.6-1.3-3.1-2.8-4.5-4.3c-1.1-0.9-1.2-1.3-2.4-2.3c0.1,0.1-0.2-0.2-0.3-0.3c0,0-0.1-0.1-0.1-0.1c0,0,0,0,0,0
				c-0.4-0.7-1.3-1.5-1.3-1.6c-0.3-0.9-1.3-2.3-1.4-3.6c0,0,0-0.2,0-0.1c0.1-0.3,0.2-0.6,0.4-1c0.1-0.2,0.3-0.3,0.5-0.3
				c1.4-0.5,3-0.5,4.5-0.9c0.5-0.2,1.1-0.5,1.5-0.8c-0.2,0.1-0.5,0.2-0.8,0.3c-2.1,0.6-4.5-0.8-6.6,0.1c-2.8,1.7-1.7,5.6-1.3,7.6
				c0.1,0.7,0.8,1.7,0.8,1.7c0.3,1,0.9,1.9,1.5,2.8c0.2,0.4,0.1,0.1,0-0.1c0.9,2,2.3,3.7,3.5,5.5c2.2,3,5,6,8.8,6.9
				c3.2,0.5,6.6,0.6,9.8,0.4c3.8-0.4,6.4-0.4,8,0c0.1,0.2,0.1,0.3,0.2,0.5c0.1,0.5,0.7,1.3,1.1,1.8c0.8,1.2,1.9,2.2,3.3,2.5
				c2.2,0.4,4.5-0.2,6.5-1.1c0,0,0.1,0,0.1-0.1c0.3-0.1,1.8-0.5,2.4-0.7c0.1,0,0.2,0,0.3-0.1c2.4-0.2,5-0.5,7-2
				c1.8-1.1,3.1-2.8,3.8-4.7c0-0.1,0.1-0.2,0.1-0.4c0,0.1-0.1,0.1-0.1,0.2c0.7-1.4,0.8-2.9,1.2-4.4c0.2-1.9,0.4-1.6,1.5-5.5
				c0.2-0.3,0.4-0.9,0.6-1.3C354.1,545.3,356,543,356.9,541.7z"/>
		</g>
		<path class="st11" d="M353.1,336.6c-0.1,0-0.2,0-0.4,0c-0.1-0.2-0.1-0.5-0.1-0.7c0,0,0,0,0-0.1c-0.3-1.9-0.3-3.6,0.2-5.4
			c0.3-1.3,1.2-2.5,1.2-4c0.1-1-0.2-1.6-1.3-1.4c-0.9,0.3-3.2,1-3.6,1.3c1.2-0.2,2.5-0.5,3.7-0.4c0,0,0,0.1,0,0.1
			c-0.4,1.6-1.8,2.6-2.4,4.2c-1.1,2.2-1.4,4.7-1.4,7.2c0,0.2,0,0.4,0,0.6c-0.9,0-1.9,0.2-2.8,0.4c-0.1,0-0.3,0-0.4,0
			c-7.3-0.9-13,0.1-17.7,6.1c-0.1,0.1-0.2,0.2-0.3,0.3c-0.9-2.8-0.5-2.1-0.5-6.4c0.5-0.8,0.7-1.8,0.8-2.7c0-0.4,0-1.1,0-1.6
			c1-1.6,1-3.8-0.3-5.3c-1.5-2.2-4.6-2.3-6.7-0.9c-0.5,0.3-0.9,0.5-1.4,0.8c-3.5,1.3-3.8,1.6-6.5,2.4c-0.1-0.3-0.1-0.7-0.2-1
			c-0.2-0.5-0.3-1.1-0.4-1.7c1.5-3,0.9-6.3-2.1-7.9c-2.1-1.3-4.9-0.9-5.4,1.9c-0.2,0.8-0.2,1.7,0,2.5c0,0.2,0,0.4,0.1,0.6
			c-1.7-1-3.5-1.2-5,0.4c-2.1,2.6-0.1,6.5,2.9,7.2c0.8,0.3,1.7,0.4,2.6,0.3c0.2,2.3,0.5,4.7,2.9,5.8c1.8,1,4,0.9,6,0.5
			c1-0.2,2-0.4,3-0.7c-0.1,2.2,0,4.4,0.4,6.5c1.3,6.2,3.9,9.1,7.4,10.5c1.3,1.6,3.6,1.9,5.4,1c0.2,0,0.3,0,0.5,0
			c0.2,0,0.3,0.1,0.5,0.2c2.2,1.1,4,2.7,6.3,3.5c2.6,0.9,5.7,1.3,8.3,0.3c2.9-1,3.9-4.9,2.2-7.4c-0.5-0.8-1.1-1.5-1.8-2
			c-0.2-0.2-0.3-0.3-0.5-0.5c-0.4-0.3-0.9-0.7-1.2-0.9c-0.7-0.6-1.5-1.2-2.4-1.8c-0.2-0.1-0.4-0.3-0.6-0.4c-1.4-0.8-3.1-0.7-4.7-0.7
			c-0.3,0-0.6,0-0.9,0c0.5-0.6,0.4-0.4,2.2-1.6c2.8-1.1,3.3-0.7,8.8-1.5c2.2-0.9,1-0.7,3.3-1.1c0,0,0,0,0,0c1.1-0.1,2.4-0.1,3.1-1.1
			C355.3,340.4,355.4,337.3,353.1,336.6z M304.6,329.3c-0.1,0-0.6,0-0.9,0c-0.2-0.1-1-0.2-0.8-0.2c0.1,0,0.1,0,0,0
			c-0.6-0.3-0.9-0.8-1-1.3c-0.1-1.8,1.5-1.7,3.3-1c0,0.7,0,1.5,0,2.2C305.1,329.2,304.9,329.3,304.6,329.3z"/>
		<path class="st11" d="M308.2,200.6c-0.4-0.8-0.8-1.5-1.1-2.3c0-0.1-0.1-0.3-0.1-0.5c-0.1-0.2-0.1-0.4-0.1-0.5
			c-0.1-0.4-0.1-0.4-0.1-1.7c0.4-0.1,0.8-0.2,1.2-0.4c0.2-0.1,0.5-0.3,0.8-0.5c0.7-0.1,1.3-0.5,1.9-1c1.4-1.2,1.3-3.2,1.1-4.9
			c-0.3-3.3-1-4.6-1.1-6.2c-0.2-0.5,0.3-0.7-1.1-2.5c-1.5-1.6-4.2-1-5.2,0.9c-0.7,1.7-1,4.7-1.3,7.8c-1,0.4-1.8,1.1-2.4,2
			c-1.5,1.8-1.8,4.1-1.5,6.4c0,0.9,0.2,1.8,0.4,2.7c-6,1.1-9.1,5.2-4.8,10.6c2,3,6.6,5.9,9.4,2.3c0.7-1.1,0.6-2.6,0.3-3.8
			c-0.1-0.4-0.2-0.8-0.3-1.2c2.4,1.7,5.6,1.8,6.9-1.6C311.4,203.8,310.1,201.8,308.2,200.6z M302.4,211.1c-0.5,0.7-1.5,0.6-2,0.2
			c-1.5-1-2.4-3-2.9-5c0,0,0,0,0,0c0.2-0.1,0.3-0.2,0.5-0.3c1.5-0.4,0.5-0.3,2.8-0.3c0.1,0,0.1,0,0.2,0c0,0,0,0,0,0
			c-0.1,0-0.1,0-0.1,0c0,0,0,0,0,0c0,0,0,0,0,0c-0.1,0.1-0.2,0.2-0.2,0.3c0,0,0,0.1,0,0.2c-0.1,0.2-0.4,0.4-0.6,0.5
			c-0.4,0.1-0.8,0.2-1.3,0.3c0.6,0,1.2,0.2,1.8,0c0,0,0,0.1,0,0.1c0,0.6-0.3,1.2,0,1.7c1,1.1,1.5-0.8,1.8-1.4
			c0.1-0.2,0.2-0.4,0.2-0.5C302.8,208.3,302.8,209.7,302.4,211.1z"/>
		<path class="st11" d="M272.2,231.2c-0.3-0.2-0.6-0.4-1-0.4c0.2,0.1,0.3,0.2,0.4,0.4c2,1.7-6.8,4.7-8,5.5
			c-5.4,2.2-12.4,5.8-9.1,12.7c0.1,0.1,0.1,0.2,0.2,0.3c0.2,0.6,0.4,1.2,0.7,1.7c1.7,2.3,1.3,1.6,2.8,2.8c1.8,0.9,4,0.4,5.9,0.4
			c1.3-0.1,2.1-1.1,2.7-2.1c0.9-1.3,1-2.8,1.2-4.3c0-0.2,0.1-0.6,0.1-0.9c0.3-1.6,0.5-3.1,0.6-4.7c0.1-1.5,0.4-3.7-0.2-5.2
			C271.1,235,273.5,232.4,272.2,231.2z M261.8,242.5c0.5-0.4,0.2-0.2,0.1-0.1c0.2-0.2,0.8-0.6,1.2-0.9c-0.2,0.7-0.4,1.5-0.2,2.2
			c-0.3,0.9-0.5,1.8-0.8,2.7c-0.1,0.3-0.2,1.2-0.4,1.9c-0.3,0-0.6,0-0.9,0c-0.1-0.1-0.2-0.2-0.3-0.3c-0.2-0.7-0.5-1.3-1-1.9
			c0-0.1,0-0.1-0.1-0.2c0-0.1,0-0.2,0-0.3c0-0.1,0-0.3,0-0.4c0.2-0.3,0.4-0.6,0.6-0.9C260.4,243.9,261.5,242.8,261.8,242.5z"/>
		<path class="st11" d="M353.5,196.4c-4.6,0.1-4.6,6.9,0,7C358.1,203.3,358.1,196.5,353.5,196.4z"/>
		<path class="st11" d="M424.6,415.1c-4.6,0.1-4.6,6.9,0,7C429.3,422,429.2,415.3,424.6,415.1z"/>
		<path class="st11" d="M424.6,377.8c-4.6,0.1-4.6,6.9,0,7C429.3,384.7,429.2,377.9,424.6,377.8z"/>
		<path class="st12" d="M401.3,490.4c-0.1-0.9-0.3-1.9-0.5-2.8c-0.1-0.5-0.1-1.2-0.5-1.6c0.1,0.2,0.2,0.4,0.1,0.7
			c-0.1,1.1-0.4,2.4-0.6,3.3c-1,0.2-1.7,1-2.3,1.8c-0.8,1-1.5,2.1-2.3,3.1c0-0.5-0.4-0.9-1-0.9c-1.3,0-1.3,2,0,2c0.1,0,0.1,0,0.2,0
			c-0.2,0.2-0.3,0.4-0.5,0.6c-0.4,0.5-1.1,1.3-1.9,2.2c0.1-1.7,0.1-3.4,0.3-5.2c0.2-0.8-0.2-3.4,1-3.1c-0.1-0.6-1.1,0.1-1.2,0.5
			c-1.4,3-2.2,6.3-3.3,9.4c-0.4,0.9-0.8,1.8-1.2,2.7c-1.6,1.4-3,2.6-3.7,2.9c-2.3,1.5-4.3,3.3-5.9,5.6c0,0,0,0-0.1,0.1
			c-0.7,0.7-1.2,1.5-1.6,2.4c0.1-0.1,0,0-0.1,0.2c0,0.1-0.1,0.2-0.1,0.3c0-0.1,0.1-0.2,0.1-0.3c0,0.1-0.1,0.2-0.1,0.3
			c-3.7,0.4-4.1,5.3-1.1,6.6c-2,5.5-3.9,10.6-6.4,15.6c-3.6,6.4-8.7,8.2-14.3,8.3c-3.2,0-6.5-0.1-9.7-0.2c0,0,0,0,0-0.1l0,0
			c-0.2-0.8-0.6-1.5-1.3-2c-2.2-1.9-5.5-0.3-6.1,2.3c-0.1,0.1-0.2,0.3-0.2,0.4c0,0,0,0,0,0c0,0,0,0,0,0c-0.4,0.1-0.8,0.2-1.2,0.3
			c-0.3,0-0.7,0.1-1,0.1c-0.4,0-0.8,0-1.2,0c-2.4-0.7-0.6-0.1-3.3-1.4c-3.5-2.2-7.7-3.5-11.9-2.9c-2.4,0.3-4.5,1.6-6.3,3.1
			c-0.1,0.1-0.1,0.1-0.2,0.2c-2.3,1.7-4.8,3-7.3,4.2c-1.1-1.1-3.6-4.3-5.6-7.9c-1.9-3.2-2-5.5-3.3-10.4c-0.1-0.5-0.3-1.8-0.4-2.6
			c0,0,0,0,0,0c0,0,0,0,0.1,0c0.1,0,0.3-0.1,0.4-0.1c1.5-0.5,3.4-0.1,5.8-0.9c1.2-0.4,2.2-1.5,2.6-2.7c0.7-1.1,1.2-2.5,1.1-3.8
			c1-1,3.2-2.1,4.9-2.4c0.7-0.1,0.2-0.1-0.2-0.1c-1.2,0-2.4,0.3-3.6,0.7c-0.9,0.2-2,0.6-2.4,1.5c-0.1,1.1-1,2.3-1.8,3.3
			c-0.4,0.7-1.2,0.9-1.8,0.9c-2.6-0.1-5.6-0.9-7.9,0.7c-1.7,0.8-1.6,2.7-1.6,4.3c0,5.5,0.4,11.2,2.8,16.2
			c3.3,6.4,6.8,14.9,15.4,10.4c2.2-1,4.5-2.1,6.5-3.5c2.9-2,2.1-1.8,3.8-2.7c0.2-0.1,0.4-0.1,0.7-0.2c0.5,0,1.6,0,2.2,0.1
			c0.1,0,0.2,0,0.3,0c0.1,0,0.1,0,0.2,0c0.3,0.1,0.7,0.2,0.9,0.2c2.5,1.2,4.8,2.7,7.5,3.4c3.5,0.6,7.6,0.4,10.5-1.7
			c0.1-0.1,0.2-0.2,0.4-0.3c3,0.3,6-0.2,8.9-0.3c5.5-0.2,11.2-1.3,15.4-5c4.5-3.6,6.3-9.3,7.4-14.7c0.7-3.3,1.5-6.7,2.1-10.1
			c0.2,0,0.5,0.1,0.7,0.1c1.2,0,2-0.5,2.6-1.1c0.8,0,1.5-0.2,2.1-0.7c0.5-0.3,0.8-0.8,1.1-1.3c0.1-0.2,0.3-0.3,0.5-0.5
			c2.5-2.1,3.9-5.2,5-6.7c3-2.1,5.1-5.5,6.2-6.8c2.1-2.8,3.7-6,4.8-9.3c0.7-1.4,0.6-3.3,2.1-4C401.3,491.1,401.4,490.7,401.3,490.4z
			"/>
		<path class="st12" d="M399.7,452.8c-2.3-1.5-5.1-2.1-7.8-2.3c-3.4-0.5-6.9,0-10,1.6c-2.8,1.2-4.9,3.5-7.2,5.5
			c-0.3-0.1-0.6-0.2-0.9-0.2c-0.7-0.3-1.5-0.6-2.3-0.8c-2.7-1.4-7.5-1.9-13.1,3.4c-0.1,0.1-0.5,0.5-2.4,1.8
			c-0.3,0.2-0.6,0.5-0.9,0.7c-2.2,1.5-4.1,3.2-6,4.9c-2.2,1.6-3.5,1.7-7.1,3.6c-2.8,1.7-5.8,3.6-8.5,4.3c0.9-2-0.2-4.9-3.1-5
			c-1.8,0-2.9,1.2-3.3,2.5c-3.1-1.9-7.1-3.6-9.7-4.6c3.6,2.2,6.4,4.1,9.2,7.1c1.3,1.2,2.3,2.7,4,3.3c4.4,1.3,8.9-0.7,12.8-2.4
			c2.6-0.9,5.3-1.5,7.8-2.5c1.9-1,3.7-2.2,5.4-3.5c0,0,0,0,0.1-0.1c1.4-0.8,2.8-1.7,4.2-2.5c1.8-1,3.2-2.5,5.1-3.4c0,0,0,0,0,0
			c0.4-0.2,0.8-0.3,1.2-0.4c0.1,0,0.2,0.1,0.4,0.1c0.2,0.1,0.4,0.1,0.5,0.2c0,0,0.1,0,0.1,0.1c0.5,0.2,1.9,0.7,2.4,0.9
			c0.5,0.2,1,0.4,1.6,0.5c1.8,1.2,4.3,0.8,6.2-0.3c1.9-1.3,3.4-3.2,5.2-4.7c3.1-1.9,1.8-1.4,5.1-2.3c1.1-0.2,4.4-0.5,7,0.4
			c0.3,0.2,1,0.5,1.4,0.7c0.3,0.2,0.8,0.5,1.1,0.7c0.9,0.7,1.6,1.5,2.3,2.3c0,0,0,0,0,0.1c2.2,2.9,4,8.4,4.4,9.8
			c0.2,4.2-0.6,5.8-1.5,10.5c-1.6,6.8-3.3,13.5-4.6,20.3c2.5-6.3,5.7-13.8,7.8-19c1.4-4,3.5-8,3.5-12.3
			C409.2,464.6,406.4,456.7,399.7,452.8z"/>
		<path class="st12" d="M302.8,463.4c-2.3-0.6-4.6-0.9-7-1c-1.8,0.2-3.6,0.4-5.3,0.8c-0.9,0.1-4,0.5-6.2,1.8c-1.1,0.7-1.9,1.8-2.6,3
			c-1.4,2.4-2.9,4.9-3.2,7.7c0,0.1,0,0.3,0,0.4c-1.4,5.2-1.8,11-0.2,16.2c2.4,6.4,2,4.9,4.2,10.5c0.9,1.7,1.5,4.9,1.1,6.5
			c0,0-0.1,0.1-0.1,0.1c-0.2,0.2-0.4,0.4-0.6,0.5c-0.3,0.2-0.9,0.5-1.3,0.7c-1,0.4-0.2,0.1,0.3-0.1c-0.5,0.4-2.5,0.8-3.3,1
			c-1.8,0.2-3.7,0.4-5.5,0.3c-0.4-0.1-0.8-0.2-1.2-0.4c-4.6-2.4-7.4-9.4-5.1-12.8c1.1-1.4,0.2-0.5,2.8-2.4c3.7-3.5,3.3-8.2,4.6-12.4
			c0.5-2.8,1.3-5.4,1-8.4c0-1-0.2-2-1-2.6c-1-0.7-1.3-1.7-1.3-2.8c-0.1-0.9-0.2-1.7,0.3-2.5c0.3-1,0.3-2,0.2-3
			c-0.1,0.9-0.2,1.9-0.6,2.8c-0.2,0.4-0.5,0.8-0.5,1.2c-0.1,1.3-0.2,2.6,0.1,3.8c0.1,0.6,0.7,1.1,0.9,1.6c0.3,0.6,0,1.4,0,2
			c-0.1,0.6-0.2,1.3-0.6,2.4c-1,2.8-1.8,5.1-2.9,7.9c-0.8,2.5-1.5,4.7-3.2,6c-5.2,1.5-9.5,9.6-4.5,18.9c0.2,0.3,0.4,0.5,0.5,0.8
			c-1.2,0.1-1.2,2,0.1,2c0.5,0,0.8-0.3,0.9-0.6c2.2,2.8,5.1,5.2,8.6,5.8c6,0.8,14-0.5,17.5-5.2c0.4-0.2,0.6-0.5,0.6-0.9
			c1-1.8,1.4-4.1,0.8-6.8c-0.2-3-1.5-5.7-2.8-8.5c-0.7-1.9-1.6-3.7-2.5-5.5c-1.1-2.2-2-4.8-2-7.7c0-1.7-0.1-3.5,0.1-5.2
			c0.3-1.5,0.3-2.5,0.4-4c0.6-2.5,0.6-1.8,1.8-4.4c0.8-1.5,0.6-1.3,1.1-1.8c0,0,0,0,0.1,0c2.3-1.2,1.8-0.9,4-1.7
			c1.6-0.7,3.3-1.3,5-1.7c1.8-0.1,5-0.4,7.3,0c3.6,0.7,6.6,2.1,9.7,3.6C310.2,466.9,306.8,464.5,302.8,463.4z"/>
		<path class="st12" d="M309.1,388.5c-4.6,0.1-4.6,6.9,0,7C313.7,395.4,313.7,388.6,309.1,388.5z"/>
		<path class="st12" d="M324.2,351.6c0-3.8-2-7.7-5.3-9.7c-0.6-1.9-1.5-3.6-2.9-5c-1.8-1.8-4.5-2.5-6.8-1.8c0.3-0.8,0.4-1.7,0.5-2.5
			c0.1-0.6,0.1-1.1,0.1-1.7c-0.1,0.5-0.2,1-0.3,1.5c-0.2,0.9-0.8,2-1.1,2.6c0,0,0,0,0,0c0-0.1-0.1-0.2-0.1-0.3c0,0,0-0.1,0-0.1
			c0-0.8-0.1-1.7-0.2-2.5c0,0,0,0,0,0c0-0.1,0-0.2,0-0.3c-0.2-0.6-1.1-0.7-1.5-0.1c-0.4,1.7-0.2,1.9-0.5,3.5c-0.2,1-0.5,2.3-0.8,3.1
			c-1,1.2-2.1,2.4-2.4,3.9c0,1.2,1.2,2.1,2.3,1.7c0.7-0.3,1.2-0.8,1.6-1.5c1.1-1.1,2.3-2.1,3.1-2.6c0.1,0,0.1-0.1,0.2-0.1
			c0,0,0.1,0,0.2-0.1c0,0,0.1,0,0.1,0c0.8,0.2,1.3,0.7,1.7,1.4c-1.8,0.3-3.5,1.2-4.7,2.8c-0.2,0.3-0.5,0.6-0.7,0.9
			c-2.2,1.9-3.6,4.8-3.8,7.7c0.1,1.6,0.7,2.9,1.8,4c0.7,2.5,2.3,4.7,5,5.9c1.1,0.5,2.3,0.9,3.5,1.1c0.5,1,1.5,1.8,3,1.8
			c1.9,0,3-1.2,3.3-2.6c0.5-0.3,1-0.7,1.5-1.2C323.2,358.7,323.9,355,324.2,351.6z"/>
		<path class="st12" d="M341.1,235.4c-0.3-0.3-0.6-0.5-0.9-0.6c-0.4-2.2-1.6-4.3-3.2-5.8c-1.2-0.7-1.9,0.2-2.2,1.2
			c-1,2-0.6,4.3-0.9,6.5c0.6-1.5,0.8-3.2,1.4-4.8c0.2-0.5,0.5-1,0.8-1.4c0,0,0,0,0.1-0.1c0.7,1,1.2,2.3,1.6,3.5
			c0.2,0.9,0.4,1.7,0.5,2.6c0.1,0.6-0.1,1.2,0.1,1.8c0.1,0.4,0.6,0.7,1,0.7c-0.7,0.4-1.9,0.3-2.6,0c0.9,0.9,2.6,1.3,3.7,0.5
			C341.5,238.6,342.3,236.6,341.1,235.4z"/>
		<path class="st12" d="M333.1,236.4c0.3,0.8,0.8,1.5,1.5,2C334.1,237.7,333.5,237,333.1,236.4z"/>
		<path class="st12" d="M405.4,389.6c0.4-0.8,0.8-1.6,0.6-2.5c-0.1-0.3-0.3-0.6-0.5-0.8c0-1.2-0.2-2.2-0.8-2.7
			c-3.2-2.6-5.6,2.4-6,5.1c-0.1,0.5-0.2,1-0.2,1.6c-0.2,0.4-0.4,0.8-0.4,1.2c-0.6,1.8-2.2,5.1,0.4,5.9c1.2,0.4,2.6-0.6,3.8-2.3
			c0.5,1.9,0.8,4,1,5.7c0.3-2.5,0.7-5.2,0.3-7.8c0.3-0.7,0.7-1.4,0.9-2.1C404.8,390.5,405.1,390,405.4,389.6z"/>
		<path class="st12" d="M440.2,452.2c-1.2-0.4-2,0.3-2.6,1.4c-0.1-1.6-0.2-3.1-0.5-4.7c-0.4,2.9-1.2,5.7-1.6,8.6
			c-0.1,1.4-1.4,4,0.7,4.4c0.7,0.2,1.2-0.4,1.5-0.9c0,0.2,0,0.5,0,0.7c-0.3,1.3-0.6,2.9-0.4,4.3c0,1.1,0.4,2.2,0.2,3.2
			c-0.1,0.4-0.2,0.8-0.5,1.2c-0.2,0.3-0.3,0.3,0.1,0.1c2.1-1.7,1.3-4.9,2.5-7.1c0.5-0.9,0.7-2.6,1.1-4c0.5-1.5,0.8-3,0.7-4.6
			C441.4,453.8,441.2,452.6,440.2,452.2z"/>
		<path class="st12" d="M408.5,426.2c-0.2,0-0.3,0.2-0.4,0.4c-1.7,2.9-2.9,6.1-4.9,8.8c-0.2,0.2-0.4,0.5-0.6,0.5
			c0.1,0-0.1-0.1-0.2-0.1c0,0,0,0,0,0c-0.1-1.2-0.2-2.3-0.4-3.6c-0.1-0.5-0.2-1.2-0.6-1.6c-0.4-0.3-0.8,0.1-1.1,0.4
			c-0.4,0.4-0.9,0.8-1.5,0.9c0.8,0.1,1.4-0.4,2-0.7c0,0.2,0.1,0.4,0,0.5c-0.1,1.5-0.2,2.5-0.3,3.8c-0.4,2.3,2.7,3.3,4.1,1.7
			c2.1-2.1,2.6-5.1,3.4-7.8c0.2-0.8,0.4-1.6,0.5-2.4C408.7,426.8,408.9,426.3,408.5,426.2z"/>
		<path class="st12" d="M403.1,412.4c-0.4-1.7-2.1-2.5-3.7-2.4c-0.9-2.9-1.2-6.1-1.4-9.2c-0.6,3.2-1.3,6.9-0.8,10.2
			c-0.5,0.5-0.8,1-1.1,1.6c-0.2-0.7-0.4-1.5-0.7-2.2c-0.5-1-1.4-1.7-2.3-2.4c1.1,1.2,1.7,2.8,1.5,4.5c-0.1,1-0.3,2.1-0.4,3.3
			c-0.1,0.7-0.3,1.5,0.1,2.2c0.4,0.7,1.3,0.9,1.9,0.4c0.8-0.8,0.4-0.9,0.8-1.5c0.4-0.8,0.9-1.5,1.4-2.2c0.3,0.5,0.6,1,1,1.5
			c0.9,1,2.6,1,3.3-0.2C403.2,415,403.3,413.6,403.1,412.4z"/>
		<path class="st12" d="M325.7,529.9c-0.2-1.1-0.1-2.5-1-3.3c-1.1-0.6-2.1,1.1-3.2,0.6c0.6,0.6,1.7,0.1,2.4,0.1
			c0.5,0.1,0.3,0.9,0.4,1.3c0,1.3-0.1,2.7,0,4c0,2.3-0.6,4.6-0.1,6.9c0.3-1.3,0.5-2.5,0.9-3.7C325.8,533.8,325.9,531.8,325.7,529.9z
			"/>
		<path class="st12" d="M268.7,398.1c-2.1-2.9-2.6-3-4.7-6.9c-0.7-1.2-1.5-3.6-1.7-4.8c0.4-0.5,1.2-1.5,1.4-1.8c0,0,0,0,0-0.1
			c0.4-0.5,0.8-0.9,1.1-1.5c0.5-0.3,0.8-0.8,1-1.4c0,0,0,0,0,0c0.7-1,1.5-2.1,2.2-3.8c1.4-3.1,2.8-6.5,1.9-9.9
			c-0.2,2.3-1.4,4.2-2.8,6c-0.3,0.5-1.9,2.4-3,3.6c-0.9,0.9-1.2,0.9-1.9,1.7c-0.4,0.1-0.8,0.4-1,0.7c-0.3,0.3-0.4,0.6-0.5,0.7
			c-0.6,0.4-1,0.9-1.5,1.4c-0.7,0.6-1.4,1.1-1.9,1.9c-1,1.5-0.6,3.4-0.4,5c0.7,4.7,3.2,9.1,6.5,12.4c2.8,2.7,2.6,16.5,3.1,25.9
			C268.5,419.2,272.8,406.2,268.7,398.1z"/>
		<path class="st12" d="M419.1,345.9c-2.4-3.8-1.1-0.7-3.4-5.7c-0.4-0.4-1.8-5.6-4-8c-0.2-0.2-0.4-0.4-0.5-0.5
			c-1.3-2.8-2.5-5.6-3.8-8.4c-0.9-1.9-1.8-3.7-2.6-5.4c-0.6-3.4-1.5-6.9-2.2-10.3c-0.5-2.2-1.3-4.4-2-6.6c-0.8-2.5-2.1-5.4-4.7-6.4
			c-0.2-0.1-0.4-0.1-0.7-0.1c-1.2-3.7-2.2-7.5-3.3-11.3c-1.7-4.8-3.9-8.2-4.5-13.9c-0.1-1.4-0.5-2.9-0.2-4.3
			c0.4-2.2,0.3-4.8,0.1-7.1c0,2.7-0.4,5.2-1.3,7.7c-0.3,1.7-0.2,3.4-0.2,5.2c-0.1,4.6,1.5,8.9,2.4,13.3c0.7,3.3,1,6.8,1.9,10.1
			c0.2,0.8,0.4,1.5,0.6,2.3c-0.6,0.5-1.2,1.1-1.7,1.6c-2.1,2.2-4.2,4.4-6.1,6.7c2.8-2,5.6-4.1,8.6-5.9c0.6,1.9,1.2,3.9,1.8,5.8
			c1.1,3.4,2.5,6.7,4.1,9.9c0.4,1,0.8,1.8,1.1,2.6c0,0.2,0.1,0.5,0.1,0.7c-0.2-1.6,0,0.3,0.1,1c0.5,3.5,0.1,7.1,0.5,10.6
			c0.4,1.4,1.5,2.3,2.8,2.6c0.8,0.7,1.2,1.1,3,2.4c0.5,0.5,1.1,0.9,1.5,1.4c0,0,0,0,0.1,0.1c1.4,3.4,2.8,6.7,4.1,9.7
			c0.3,1.5,0.9,2.9,1.5,4.2C415.5,356.4,422.9,352.1,419.1,345.9z"/>
		<path class="st12" d="M312.5,202.3c-0.1-4.1-0.1-8.2,1-12.2c-2.5,4.2-3.6,9.3-3.2,14.1c-0.8,0-1.6-0.1-2.3,0.3
			c-1.7,1.3-2.2,3.5-2.9,4.9c-0.5,1.1-0.7,3.1-1.9,3.5c-0.1,0-0.2,0.1-0.4,0.1c0.2,0,0.4,0,0.6,0c0.9-0.2,1.3-1.2,1.8-1.8
			c1.1-1.7,2.1-3.7,3.6-5.1c0.9-0.1,1.2,0.1,1.9,0.2c0,0,0,0,0,0c0.1,0.1,0.4,0.4,0.5,0.4c0.9,0.3,1.7-0.8,1.4-1.3
			C312.7,204.8,312.6,203.3,312.5,202.3z"/>
		<path class="st12" d="M356.8,172.4c-1,0.6-2.3,1-2.6,2.2c-0.8,2.4-0.8,5.3,0.2,7.7c0.3,0.6,0.8,1.6,1.6,1.6
			c0.2-0.1,0.4-0.2,0.4-0.5c0-0.7,0-1.5-0.3-2.1c0,0.5-0.1,1.1-0.2,1.6c-0.5-0.9-0.5-1.9-0.6-2.9c0.1-1.7,0.2-3.4,0.6-5.1
			c0.1-0.5,0.6-0.7,1-0.9c2-1.4,3.6-3.7,3.7-6.1C359.9,169.8,358.4,171.3,356.8,172.4z"/>
		<path class="st12" d="M235.3,301.3c0-0.4-0.1-1.5-0.7-1.1c-0.1,0.1-0.2,0.4-0.4,0.5c-0.1-0.7-0.1-1.4-0.2-2
			c-0.3-2.2-1-10.2-4.4-8.8c-1,0.6-1.3,1.8-1.6,2.9c-0.5,1.4-0.7,2.9-0.5,4.3c0.4-1.7,1.3-3.2,2.3-4.7c0.1-0.2,0.3-0.5,0.5-0.6
			c0.9,1.9,1.2,4,2,5.9c0.4,1.2,0.8,2.5,1.4,3.7c0.5,0.5,1.2-0.2,1.4-0.7C234.9,300.7,235.2,301,235.3,301.3z"/>
		<path class="st12" d="M342.2,506.2c-0.5,0.5-1.1,0.5-1.7,0.7c-1.1,0.3-2.2,0-3.4,0.3c-0.5,0.1-1,0.1-1.5,0.2
			c-0.6-1.3-2.4-1.7-3.7-1.5c-1.4,0-3.1-0.1-4.1,1.1c-1.7,2.4,1.3,3.8,3.4,3.7c0.5,0,1,0,1.5-0.1c-0.7,0.9-1.5,1.6-2.3,2.3
			c1.5-0.6,3.4-1.5,4.6-2.8c0.8-0.2,1.6-0.5,2.1-0.8c1.3-0.6,3.2-0.9,4.8-2.2c0.5-0.4,0.8-0.9,0.8-1.5
			C342.8,505.2,342.4,506.1,342.2,506.2z"/>
		<path class="st12" d="M367.7,364.4c-0.2,3.7-0.6,7.3-1.4,10.5c-0.1-0.4-0.2-0.7-0.4-1c-0.9-1.3-3-1.1-3.7,0.2
			c-0.6,1.6-1.1,3.3-1.4,5c-1.4,2-3.7,3.8-5.7,5.3c-0.5,0.4-1.1,0.7-1.7,1.1c2-0.5,4.1-1.2,6-2.1c0.2-0.1,0.5-0.2,0.7-0.3
			c-0.4,2-0.5,4-0.2,5.9c0.1,1.4,1.4,2.7,2.9,2.7c1.5,0,2.4-1.2,3.1-2.3c1.2-1.8,2.1-3.8,2.7-5.9C370,377.3,369.8,370.5,367.7,364.4
			z"/>
		<path class="st12" d="M241.1,491.5c-0.7-1.2-1.9-1.8-3.1-1.7c-2.1-2.4-3.8,3.4-4.5,5.2c0.1-0.1,0.2-0.3,0.4-0.4
			c-0.8,2.1-1.5,3.8-2.1,5.5c-0.7,0-1.3,0.3-1.8,1.1c-0.3,0.3-0.4,2.1-0.3,1.5c-0.2,1.2-0.5,2.4-0.9,3.5c0,0.1-0.1,0.2-0.1,0.3
			c-0.5,0.2-0.6,0.9-0.4,1.3c-0.2,0.5-0.4,1-0.7,1.3c-1.3-1.7-1.3-4-2.1-5.8c0.1,1.1,0,2.2,0,3.3c-0.2,2.9,1,6.9,4.4,4
			c0.1-0.1,0.1-0.2,0.2-0.2c0,0.2,0.1,0.3,0.1,0.5c0.7,1.9,3.3,2.3,4.6,0.9c1.1-1.2,1-3,1.7-4.4c0.5-1.7,1-3,1.5-4.3
			c1.9-0.4,2.5-3.2,3.1-4.9C241.4,496.2,242.3,493.7,241.1,491.5z"/>
		<path class="st12" d="M209.9,350.3c-1.2,0.1-2.2,0.9-3.2,2.1c-1.4-1-3.7-0.7-4.5,1.1c0,0.3-0.9,1.6-1.7,3.7
			c-0.7,1.9-1,3.9-1.4,5.9c-0.3,2-1.7,5.4,0.9,6.4c0.8,0.2,1.8-0.1,2.2-0.9c0.4,0,0.8,0,1.2-0.2c1.7-0.7,1.8-2.9,2.3-4.5
			c0.4-1.9,0.7-3.8,1.1-5.7c0.6-1.3,1.3-2.7,1-4.1c0,0,0,0,0,0c0.3-1.2,0.7-2.5,1.7-3.3c0,0,0.1-0.1,0.1-0.1c0.1-0.1,0.4,0,0.4,0.1
			c0.1,0.2,0.2,0.7,0.2,0.3C210.4,350.9,210.3,350.4,209.9,350.3z"/>
		<path class="st12" d="M289.7,267.3c-0.6,1.4-1,2.7-1.5,3.8c0-0.9,0-1.7,0-2.6c-0.1-2.1-0.1-4.2-1.1-6.1c-1.1-1.9-3.8-2.6-5.4-0.9
			c-2.3,2.7-1.4,6.7-1.3,10c0.4,2.9,0.4,5.9,1.5,8.6c0.2,0.3,0.4,0.6,0.7,0.8c0.1,1,0.1,2,0.8,2.7c1.1,1.1,3,0.8,3.8-0.5
			c1.2-1.5,1.5-4.3,1.7-5.6c0.6-3.2,0.9-6.5,0.9-9.8C289.8,267.4,289.9,266.4,289.7,267.3z"/>
		<path class="st12" d="M340.9,258.7c-0.5-0.5-1.3-0.4-1.8,0.1c-0.1,0.1-0.1,0.1-0.1,0.2c-0.2,0.1-0.5,0.4-0.9,1c0,0,0,0,0,0.1
			c-0.4,0.4-0.8,0.9-1.1,1.3c-1.6,1.8-3.5,3.5-4.6,3.8c0.3-3.4,1.4-7.8,1.5-11.9c-1.3,2.9-2.7,5.7-3.9,8.6c-0.5,1.6-1.5,3.3-1,5.1
			c1.9,4.1,7.2,1.2,9-1.6c1.3-1.6,2.1-3.5,3.1-5.2C341.4,259.7,341.3,259.1,340.9,258.7z"/>
		<path class="st13" d="M356.2,350.4c0-0.1,0-0.2,0-0.3"/>
		<path class="st12" d="M322.5,420.3c0.4-2.1-2.3-2.7-3-0.7c0,0.1,0,0.1,0,0.2c-0.2,0.3-0.5,0.6-0.7,1c-0.5-0.1-1,0-1.7,0.3
			c-2.2,1.5-5.1,5.7-2,7.6c1.5,0.6,2.7,0,3.7-1c0.1,0,0.2,0,0.2-0.1c0,0,0.1-0.1,0.1-0.1c0,0,0,0,0,0c0-0.1,0-0.1,0.1-0.2
			c0.4-0.5,0.8-1.1,1.1-1.7c0.9,1.5,1.5,3.1,2.1,4.7c0.1-1.7-0.1-4.8-1.1-7c0.1-0.3,0.2-0.6,0.3-0.8
			C321.8,421.6,322.2,421.3,322.5,420.3z"/>
		<path class="st12" d="M262,332.6c-1.3-2-3.5-1.6-4.8,0c-0.4-1-1-2-1.5-2.9c0.3,1.5,0.4,3.1,0.5,4.6c-0.8,1.9-1.1,3.9-1,5.9
			c0.2,1.8-0.2,3.9,1.1,5.4c0.3,0.4,0.9,0.5,1.4,0.2c0.8,0.8,2.2,0.9,3,0c0.8-0.8,1.2-2,1.4-3.1c0.4-2.2,0.5-4.4,0.5-6.6
			C262.5,335,262.7,333.7,262,332.6z"/>
		<path class="st12" d="M273.4,206.5c2-3.8,4.6-7.8,6.3-11.9c-3.9,4.6-8.7,8.5-11.9,13.7c-0.1,0.2-0.3,0.5-0.4,0.7
			c-1.3,1.6-2.1,3.6-2.9,5.5c-1.8,3.9-3.5,7.9-4.2,12.2c-0.3,1.6,1.6,2.7,2.9,1.9c0.5-0.3,0.8-0.8,1-1.4c-0.3,0.7,0.6-1.2,0.9-2.1
			c0.7-1.3,1.5-2.7,2.3-4c1.1,0.3,2.2,0.1,3.2-0.4c2.1-1.2,3.4-3.4,4.3-5.6c0.7-1.9,1.2-4.1,0.6-6
			C275.1,207.7,274.4,206.9,273.4,206.5z"/>
		<path class="st12" d="M216.6,441.8c-0.7-3.5-2.4-12.5-5.7-16.1c-0.1-0.5-0.1-0.9-0.2-1.4c-0.3-2.6-1.1-5.1-2.3-7.4
			c-1-1.9-3.5-3-5-1c-1.1,1.8-0.8,4.2-0.5,6.2c0.4,1.4,0.9,2.9,1.7,4.2c-0.3,0.4-0.5,0.8-0.8,1.2c-1.2,1.7-1.4,4.3,0.2,5.9
			c1.9,1.9,4.8,1.2,6-1.1c0.2-0.4,0.4-0.8,0.5-1.3C212.7,434.1,214.8,438.4,216.6,441.8z"/>
		<path class="st12" d="M267.5,252.5c-0.1-0.9-0.2-1.9-1-2.5c-0.5-0.4-1.3-0.5-1.8,0c-1.3,1.3-1,3.5-1.3,5.2c0.5-1.1,1-2.4,1.7-3.4
			c-0.1,1.1-0.4,2.2-0.6,3.3c-0.4,1.8-0.9,3.6-1.5,5.2c-0.3-1.7-0.6-3.4-1.7-4.8c-1.6-2.2-4.3,0.2-4.9,2.2c0.7-0.9,1.7-1.8,2.9-1.8
			c0.3,0,0.5,0.2,0.6,0.4c0.9,2.2,0,4.6,0.5,6.9c0.4,3.1,3.7,2.7,4.9,0.4c1.4-2.2,1.9-4.9,2-7.4C267.7,255,267.6,253.7,267.5,252.5z
			"/>
		<path class="st12" d="M237.9,336.9c-4.6,0.1-4.6,6.9,0,7C242.5,343.8,242.5,337,237.9,336.9z"/>
		<path class="st12" d="M227.3,324.5c-4.6,0.1-4.6,6.9,0,7C231.9,331.3,231.9,324.6,227.3,324.5z"/>
		<path class="st12" d="M376.6,212.4c-4.6,0.1-4.6,6.9,0,7C381.2,219.3,381.2,212.6,376.6,212.4z"/>
		<path class="st12" d="M390.8,249.8c-4.6,0.1-4.6,6.9,0,7C395.5,256.7,395.5,249.9,390.8,249.8z"/>
		<path class="st12" d="M435.3,360c-4.6,0.1-4.6,6.9,0,7C439.9,366.9,439.9,360.1,435.3,360z"/>
		<path class="st12" d="M430,438.3c-4.6,0.1-4.6,6.9,0,7C434.6,445.1,434.6,438.4,430,438.3z"/>
		<path class="st12" d="M424.6,480.9c-4.6,0.1-4.6,6.9,0,7C429.3,487.8,429.2,481.1,424.6,480.9z"/>
		<path class="st12" d="M394.4,539.6c-4.6,0.1-4.6,6.9,0,7C399,546.5,399,539.8,394.4,539.6z"/>
		<path class="st12" d="M380.2,539.6c-4.6,0.1-4.6,6.9,0,7C384.8,546.5,384.8,539.8,380.2,539.6z"/>
		<path class="st12" d="M369.5,502.3c-4.6,0.1-4.6,6.9,0,7C374.1,509.2,374.1,502.4,369.5,502.3z"/>
		<path class="st12" d="M355.3,495.2c-4.6,0.1-4.6,6.9,0,7C359.9,502.1,359.9,495.3,355.3,495.2z"/>
		<path class="st12" d="M346.4,488.1c-4.6,0.1-4.6,6.9,0,7C351,494.9,351,488.2,346.4,488.1z"/>
		<path class="st12" d="M341.1,441.8c-4.6,0.1-4.6,6.9,0,7C345.7,448.7,345.7,441.9,341.1,441.8z"/>
		<path class="st12" d="M369.5,415.1c-4.6,0.1-4.6,6.9,0,7C374.1,422,374.1,415.3,369.5,415.1z"/>
		<path class="st12" d="M362.4,393.8c-4.6,0.1-4.6,6.9,0,7C367,400.7,367,393.9,362.4,393.8z"/>
		<path class="st12" d="M293,332.3c-1.3,0-1.3,2,0,2C294.4,334.3,294.3,332.3,293,332.3z"/>
		<path class="st12" d="M291.3,353.6c-1.3,0-1.3,2,0,2C292.6,355.6,292.6,353.6,291.3,353.6z"/>
		<path class="st12" d="M305.5,403.4c-1.3,0-1.3,2,0,2C306.8,405.4,306.8,403.4,305.5,403.4z"/>
		<path class="st12" d="M309.1,407c-1.3,0-1.3,2,0,2C310.4,409,310.4,407,309.1,407z"/>
		<path class="st12" d="M333.9,403.4c-1.3,0-1.3,2,0,2C335.3,405.4,335.2,403.4,333.9,403.4z"/>
		<path class="st12" d="M332.2,383.9c-1.3,0-1.3,2,0,2C333.5,385.9,333.5,383.9,332.2,383.9z"/>
		<path class="st12" d="M339.3,380.3c-1.3,0-1.3,2,0,2C340.6,382.3,340.6,380.3,339.3,380.3z"/>
		<path class="st12" d="M374.8,373.2c-1.3,0-1.3,2,0,2C376.2,375.2,376.1,373.2,374.8,373.2z"/>
		<path class="st12" d="M367.7,353.6c-1.3,0-1.3,2,0,2C369,355.6,369,353.6,367.7,353.6z"/>
		<path class="st12" d="M358.8,330.5c-1.3,0-1.3,2,0,2C360.1,332.5,360.1,330.5,358.8,330.5z"/>
		<path class="st12" d="M367.7,323.4c-1.3,0-1.3,2,0,2C369,325.4,369,323.4,367.7,323.4z"/>
		<path class="st12" d="M369.5,321.6c-1.3,0-1.3,2,0,2C370.8,323.6,370.8,321.6,369.5,321.6z"/>
		<path class="st12" d="M335.7,449.7c-1.3,0-1.3,2,0,2C337,451.6,337,449.7,335.7,449.7z"/>
		<path class="st12" d="M287.7,451.4c-1.3,0-1.3,2,0,2C289,453.4,289,451.4,287.7,451.4z"/>
		<path class="st12" d="M259.3,478.1c-1.3,0-1.3,2,0,2C260.6,480.1,260.6,478.1,259.3,478.1z"/>
		<path class="st12" d="M252.1,435.4c-1.3,0-1.3,2,0,2C253.5,437.4,253.4,435.4,252.1,435.4z"/>
		<path class="st12" d="M312.6,403.4c-1.3,0-1.3,2,0,2C313.9,405.4,313.9,403.4,312.6,403.4z"/>
		<path class="st12" d="M245,403.4c-1.3,0-1.3,2,0,2C246.3,405.4,246.3,403.4,245,403.4z"/>
		<path class="st12" d="M236.1,426.5c-1.3,0-1.3,2,0,2C237.4,428.5,237.4,426.5,236.1,426.5z"/>
		<path class="st12" d="M211.2,401.6c-1.3,0-1.3,2,0,2C212.6,403.6,212.6,401.6,211.2,401.6z"/>
		<path class="st12" d="M195.2,394.5c-1.3,0-1.3,2,0,2C196.5,396.5,196.5,394.5,195.2,394.5z"/>
		<path class="st12" d="M209.5,460.3c-1.3,0-1.3,2,0,2C210.8,462.3,210.8,460.3,209.5,460.3z"/>
		<path class="st12" d="M243.3,520.8c-1.3,0-1.3,2,0,2C244.6,522.8,244.6,520.8,243.3,520.8z"/>
		<path class="st12" d="M261,520.8c-1.3,0-1.3,2,0,2C262.3,522.8,262.3,520.8,261,520.8z"/>
		<path class="st12" d="M310.8,501.2c-1.3,0-1.3,2,0,2C312.1,503.2,312.1,501.2,310.8,501.2z"/>
		<path class="st12" d="M346.4,433.7c-1.3,0-1.3,2,0,2C347.7,435.6,347.7,433.7,346.4,433.7z"/>
		<path class="st12" d="M319.7,366.1c-1.3,0-1.3,2,0,2C321,368.1,321,366.1,319.7,366.1z"/>
		<path class="st12" d="M357.1,314.5c-1.3,0-1.3,2,0,2C358.4,316.5,358.4,314.5,357.1,314.5z"/>
		<path class="st14" d="M305.5,421.2c-1.3,0-1.3,2,0,2C306.8,423.2,306.8,421.2,305.5,421.2z"/>
		<path class="st14" d="M307.3,444.3c-1.3,0-1.3,2,0,2C308.6,446.3,308.6,444.3,307.3,444.3z"/>
		<path class="st14" d="M333.9,476.4c0.2-0.3,0.5-0.6,0.7-0.8C334.4,475.9,334.1,476.1,333.9,476.4z"/>
		<path class="st14" d="M355.3,433.7c-1.3,0-1.3,2,0,2C356.6,435.6,356.6,433.7,355.3,433.7z"/>
		<path class="st14" d="M367.7,412.3c-1.3,0-1.3,2,0,2C369,414.3,369,412.3,367.7,412.3z"/>
		<path class="st14" d="M374.8,403.4c-1.3,0-1.3,2,0,2C376.2,405.4,376.1,403.4,374.8,403.4z"/>
		<path class="st14" d="M382.8,427.5c1,2.2,2.3,4.4,3.4,6.6C385.5,431.7,384.2,429.6,382.8,427.5z"/>
		<path class="st14" d="M382.8,441.8c0,0.1,0.1,0.2,0.1,0.2C382.9,441.9,382.9,441.8,382.8,441.8z"/>
		<path class="st14" d="M393.5,440c0,0,0.1,0,0.1,0C393.6,440,393.6,440,393.5,440z"/>
		<path class="st14" d="M394.4,411.5c-0.2-1.9-0.4-4.2,0.4-5.6c0,0,0,0,0,0c0.4,0.4,0.4,1.1,0.6,1.9c1.1,4.7,3.2,11.5,4.9,14.9
			c-1.7-5.4-2.9-10.9-4.1-16.4c-0.1-0.7-0.7-1.4-1.1-1.6c-0.2-0.3-0.7-0.2-0.9,0.1c-1,0.9-1.1,2.4-1.2,3.6c0,6,3,11.6,7.5,15.6
			C397.5,420.6,394.9,416.1,394.4,411.5z"/>
		<path class="st14" d="M424.6,396.3c-1.3,0-1.3,2,0,2C425.9,398.3,425.9,396.3,424.6,396.3z"/>
		<path class="st14" d="M431.7,394.5c-1.3,0-1.3,2,0,2C433.1,396.5,433.1,394.5,431.7,394.5z"/>
		<path class="st14" d="M422.9,375c-1.3,0-1.3,2,0,2C424.2,377,424.2,375,422.9,375z"/>
		<path class="st14" d="M412.2,348.3c-1.3,0-1.3,2,0,2C413.5,350.3,413.5,348.3,412.2,348.3z"/>
		<path class="st14" d="M392.6,303.8c-1.3,0-1.3,2,0,2C393.9,305.8,393.9,303.8,392.6,303.8z"/>
		<path class="st14" d="M290.4,263.9c2.7,3.7,7,7.7,9.7,10.6C298,270.3,294.1,266.8,290.4,263.9z"/>
		<path class="st14" d="M293.9,302.2c4.4,5.6,8.3,10,12.4,16C303.7,311.8,299.2,306.5,293.9,302.2z"/>
		<path class="st14" d="M323.3,320c4.2,2.6,8.7,4.4,13.3,6.2C332.5,323.3,327.9,321.5,323.3,320z"/>
		<path class="st15" d="M335,318.2c0,0-0.1,0-0.1-0.1"/>
		<path class="st14" d="M347.3,223c1.3,0.4,2.6,0.7,3.9,0.8C349.9,223.4,348.6,223.2,347.3,223z"/>
		<path class="st14" d="M364.2,214.9c-1.3,0-1.3,2,0,2C365.5,216.9,365.5,214.9,364.2,214.9z"/>
		<path class="st14" d="M277,287.8c-1.3,0-1.3,2,0,2C278.3,289.8,278.3,287.8,277,287.8z"/>
		<path class="st14" d="M254.1,315.7c-1.1-1-2.5-1.9-3.7-2.8c2.8,2.8,5.6,5.6,6.3,9.7C256.7,320,255.7,317.5,254.1,315.7z"/>
		<path class="st14" d="M239.3,352.4c-1.2-1.4-2.9-2.1-4.6-2.9c-2.1-1-4.3-2-6.6-2.9c2.7,1.9,5.4,3.8,8.3,5.2
			c0.9,0.5,1.5,0.8,2.1,1.6c0.2,0,0.9,1.9,1.3,2.4c-0.8,0.4-1.7,0.8-2.5,1.2c1.1-0.2,2.1-0.5,3.1-0.7c0.1,0,0.2-0.1,0.2-0.2
			C240.4,354.8,240.1,353.4,239.3,352.4z"/>
		<path class="st15" d="M221.2,376.1c0,0-0.1-0.1-0.1-0.1"/>
		<path class="st14" d="M214.8,399.9c-1.3,0-1.3,2,0,2C216.1,401.9,216.1,399.9,214.8,399.9z"/>
		<path class="st14" d="M214.8,407c-1.3,0-1.3,2,0,2C216.1,409,216.1,407,214.8,407z"/>
		<path class="st14" d="M214.8,430.1c-1.3,0-1.3,2,0,2C216.1,432.1,216.1,430.1,214.8,430.1z"/>
		<path class="st14" d="M218.4,453.2c-1.3,0-1.3,2,0,2C219.7,455.2,219.7,453.2,218.4,453.2z"/>
		<path class="st14" d="M223.7,481.7c-1.3,0-1.3,2,0,2C225,483.7,225,481.7,223.7,481.7z"/>
		<path class="st14" d="M241.5,517.2c-1.3,0-1.3,2,0,2C242.8,519.2,242.8,517.2,241.5,517.2z"/>
		<path class="st14" d="M257.5,545.7c-1.3,0-1.3,2,0,2C258.8,547.7,258.8,545.7,257.5,545.7z"/>
		<path class="st14" d="M293,559.9c-1.3,0-1.3,2,0,2C294.4,561.9,294.3,559.9,293,559.9z"/>
		<path class="st14" d="M323.3,561.7c-1.3,0-1.3,2,0,2C324.6,563.7,324.6,561.7,323.3,561.7z"/>
		<path class="st14" d="M342.8,567.1c1.8,0.6,3.8,1,5.7,1.1C346.7,567.6,344.8,567.3,342.8,567.1z"/>
	</g>
</g>
<g id="Song-thrush">
</g>
</svg>
