<?xml version="1.0" encoding="utf-8"?>
<!-- Generator: Adobe Illustrator 28.2.0, SVG Export Plug-In . SVG Version: 6.00 Build 0)  -->
<svg version="1.1" xmlns="http://www.w3.org/2000/svg" xmlns:xlink="http://www.w3.org/1999/xlink" x="0px" y="0px"
	 viewBox="0 0 612 792" style="enable-background:new 0 0 612 792;" xml:space="preserve">
<style type="text/css">
	.st0{fill:url(#Egg_00000061443301945421503310000010102542335304345522_);}
	.st1{fill:#762B1E;}
	.st2{fill:#B17B5C;}
	.st3{fill:#A66A49;}
	.st4{fill:url(#Egg_00000150092960605035406540000016256525258875803776_);}
	.st5{fill:none;stroke:#000000;stroke-width:0;stroke-linecap:round;stroke-linejoin:round;}
	.st6{fill:url(#Egg_00000142899203458423828500000008684307629676536707_);}
	.st7{fill:#492B13;}
	.st8{fill:#785B43;}
	.st9{fill:url(#SVGID_1_);}
	.st10{fill:url(#Egg_00000173153260599340795730000009741688854965491126_);}
	.st11{fill:#634F4D;}
	.st12{fill:#191923;}
	.st13{fill:none;stroke:#191923;stroke-width:0;stroke-linecap:round;stroke-linejoin:round;}
	.st14{fill:#755F4A;}
	.st15{fill:none;stroke:#755F4A;stroke-width:0;stroke-linecap:round;stroke-linejoin:round;}
	.st16{fill:url(#Egg_00000152984905538746949590000003563582578103359632_);}
</style>
<g id="Great-tit">
</g>
<g id="Common-loon">
	
		<radialGradient id="Egg_00000002379002649488207440000017907444208006138754_" cx="317.077" cy="396" r="281.472" gradientTransform="matrix(1 0 0 1.1685 0 -66.7247)" gradientUnits="userSpaceOnUse">
		<stop  offset="0" style="stop-color:#D9AE6F"/>
		<stop  offset="0.2185" style="stop-color:#D4AA6C"/>
		<stop  offset="0.4618" style="stop-color:#C79E63"/>
		<stop  offset="0.717" style="stop-color:#B18B54"/>
		<stop  offset="0.979" style="stop-color:#92703F"/>
		<stop  offset="1" style="stop-color:#8F6E3D"/>
	</radialGradient>
	<path id="Egg_1_" style="fill:url(#Egg_00000002379002649488207440000017907444208006138754_);" d="M104.1,438.3
		C110.5,275.1,225,59.9,314.8,59.9c98.9,0,200.2,209.8,214.4,378.4c13.5,161.1-93.1,303.4-212.5,292.7
		C203.1,747,97.8,599.8,104.1,438.3z"/>
	<g id="Dots_1_">
		<path d="M411.4,192.3c0-0.4-0.1-0.7-0.1-1.1c1.2-5.6-0.7-12-5.3-15.1c-0.4-1.2-1-2.3-1.7-3.5c-1.9-3.1-5.2-5.4-8.8-6.5
			c-1.4-0.9-2.9-1.6-4.4-2.2c-1.1-1.3-2.4-2.5-3.7-3.5c-1.5-1.1-3.2-1.6-5-1.8c-0.3-0.4-0.5-0.7-0.7-1.1c-2.4-3-4.9-6.4-8.7-7.6
			c-0.8-0.2-1.6-0.3-2.3-0.2c-0.8-0.8-1.6-1.3-2.1-1.6c-2.5-1.5-5.8-1.1-7.9,0.9c-2.2,2.2-2.3,5.6-1.6,8.5
			c-0.7,4.5,1.3,10.4,3.8,14.3c0.1,2.9,0.7,5.9,1.4,8.2c2.2,7.4,6.4,15,13.3,18.7c0.3,0.5,0.6,1,0.9,1.3c3.7,5.1,7.7,8,11.6,8.6
			c2.5,1.4,5.7,2.1,9.4,1.8c5.7-0.6,9.3-5,10.9-10.2c0.2-0.4,0.4-0.8,0.6-1.3c0.6-1.2,0.8-3.2,0.5-5.5
			C411.4,193.2,411.4,192.8,411.4,192.3z"/>
		<path d="M195.5,246.7c-1.3-0.6-2.9-0.8-4.9-0.5c-7.4,2.2-11.1,14.5-10.5,21.5c0.2,7.6,8.5,15.2,15.9,11.2c3.6-1.6,5.8-5.1,7.1-8.7
			c1.5-3.5,2.6-7.2,2.9-11.1C206.9,252.4,201.2,247.3,195.5,246.7z"/>
		<path d="M317.5,673.6c2.5-6.8,3.1-18.1-3.7-21.8c-6.1-3.3-12.3,1.6-15.5,6.7c-1.5,2.1-2.4,4.5-2.9,7c-0.1,0.3-0.3,0.5-0.4,0.8
			c-5,6-6.6,15.2,0.4,19.9c0.5,0.3,0.9,0.5,1.3,0.7c1.6,1.7,4.1,2.3,6.4,1.7c0.3,0,0.7-0.1,1-0.2
			C311.2,687.8,316.6,681.6,317.5,673.6z"/>
		<path d="M232.4,541.9c-6.1,0.1-6.1,9.2,0,9.3C238.5,551.1,238.5,542,232.4,541.9z"/>
		<path d="M240.2,469.1c-6.1,0.1-6.1,9.2,0,9.3C246.3,478.3,246.3,469.2,240.2,469.1z"/>
		<path d="M193.7,391.5c-6.1,0.1-6.1,9.2,0,9.3C199.8,400.7,199.8,391.6,193.7,391.5z"/>
		<path d="M432.4,456.6c-6.1,0.1-6.1,9.2,0,9.3C438.5,465.9,438.5,456.8,432.4,456.6z"/>
		<path d="M365.8,323.3c-6.1,0.1-6.1,9.2,0,9.3C371.9,332.5,371.9,323.4,365.8,323.3z"/>
		<path d="M331.6,255.1c-6.1,0.1-6.1,9.2,0,9.3C337.8,264.3,337.7,255.2,331.6,255.1z"/>
		<path d="M269.6,117.1c-6.1,0.1-6.1,9.2,0,9.3C275.7,126.3,275.7,117.2,269.6,117.1z"/>
		<path d="M446.4,328c-6.1,0.1-6.1,9.2,0,9.3C452.5,337.2,452.5,328.1,446.4,328z"/>
		<path d="M406.3,565.6c-0.1-0.2-0.2-0.3-0.3-0.5c-0.1-2.8-0.9-5.4-2.4-7.6c-0.3-0.9-0.5-1.7-0.9-2.5c-0.5-1.4-1.3-3-2.2-4.5
			c0.1,0,0.2,0.1,0.3,0.1c2.4,0,2.4-3.7,0-3.7c-1,0-1.6,0.7-1.7,1.4c-1.9-2.6-4.3-5.1-7-6.8c-0.1-1.1-0.2-2.1-0.4-3.1
			c-1.8-6.8-7.3-16.3-14.9-14.6c-4.3-0.9-8.7,1.7-9.7,6.4c-1.2,4.2-0.5,9.8,1.5,14.8c0,1.4,0.1,2.7,0.4,4.1c0.3,2.8,1.8,5.5,3.7,7.4
			c0.2,0.4,0.4,0.8,0.6,1.2c0,0.1,0,0.2,0,0.3c-0.3-0.2-0.6-0.4-1.1-0.4c-2.4,0-2.4,3.7,0,3.7c0.5,0,0.8-0.2,1.1-0.4
			c-0.2,0.8-0.3,1.6-0.4,2.4c-2.8,5.9-2.2,13.5,0.2,19.4c2,4.7,5,10,9.4,13.3c1,2.2,2.3,4.2,3.9,6c4.2,4.5,11.9,5.7,16.4,1
			c3.1-3.7,4.4-8.4,4.3-13.3c0.2-0.5,0.4-1,0.5-1.5C408.9,580.8,409.6,572.6,406.3,565.6z"/>
		<path d="M243.2,141.5c-0.4-0.6-0.9-1.1-1.4-1.6c1.9-0.5,1.7-3.6-0.5-3.6c-0.8,0-1.3,0.4-1.5,0.9c-0.3-0.3-0.7-0.6-1.1-0.8
			c-0.5-0.3-1-0.5-1.5-0.6c-1.4-1.6-3.1-2.2-5-2.1c0.5-1.1-0.1-2.7-1.6-2.7c-1.9,0-2.3,2.2-1.2,3.2c-3.4,1.2-7.2,4.1-10.4,7.8
			c-0.3-0.2-0.6-0.3-1-0.3c-1.8,0-2.3,2.1-1.3,3.2c-2.1,3-3.9,6.2-4.8,9.2c-4.5,6.2-8.1,13.1-7.5,18.3c-0.2-0.1-0.4-0.1-0.6-0.1
			c-2.4,0-2.4,3.7,0,3.7c0.4,0,0.7-0.1,1-0.3c-0.2,0.8-0.3,1.6-0.4,2.4c0,0,0,0,0,0c0-0.2,0-0.3,0.1-0.4c0,0.1,0,0.3-0.1,0.4
			c-0.3,0.3-0.5,0.8-0.5,1.3c-2.4,0-2.4,3.7,0,3.7c0.5,0,0.9-0.2,1.2-0.5c0.4,0.7,1,1.3,1.9,1.8c0.4,0.3,0.9,0.4,1.4,0.6
			c-1.5,0.8-1.2,3.5,0.9,3.5c2,0,2.3-2.4,1.1-3.3c1.3-0.1,2.5-0.7,3.4-1.6c0.7-0.7,1.1-1.5,1.4-2.4c2.6-4.6,4.1-6.6,5.9-8.9
			c0.6-0.7,1.1-1.3,1.6-2c0.3,0.1,0.5,0.3,0.9,0.3c1.6,0,2.1-1.7,1.6-2.8c0.2-0.3,0.3-0.7,0.2-1.1c0.6-0.9,1.1-1.8,1.5-2.7
			c1.6,0.1,3.3-0.2,4.8-0.9c6-2.3,9.9-8.3,12.1-14.1c0-0.2,0.1-0.3,0.1-0.5C244.3,146.1,244.3,143.7,243.2,141.5z"/>
		<path d="M234.1,643.6c4.8-6.4,7.6-17,1.5-23.4c-0.8-0.8-1.6-1.5-2.6-2c-3.8-4.8-10.8-5.3-15.4-0.7c-3.8,4-6,9.3-7.3,14.7
			c-1.4,2.5-2.4,5.3-2.9,8.2c-3.9,2.9-6.4,8.3-6.4,13.2c-1.2,5.5,0.4,11,6.7,13.3c6.2,2.4,10.9,0.3,13.9-3.8
			c4.3-1.8,7.6-5.5,9.5-9.7c1.2-2.3,1.9-5,1.9-7.6c0.1-0.4,0.2-0.7,0.3-1.1C233.6,644.3,233.9,643.9,234.1,643.6z"/>
		<path d="M396.5,696c0-0.6,0-1.1-0.2-1.7c-1.8-6.5-9.6-5.7-14.1-2.6c-1.2,0.8-2.5,1.7-3.7,2.6c-3.7-1.3-7.7-0.6-11.5,1.1
			c-1.4-0.6-3.2-0.7-5.3-0.3c-2.4,0.8-4.5,2.1-6.4,3.7c-2.6,1.4-4.9,3.4-6.9,5.4c-2.4,2.6-4.7,5.6-4.8,9.3c0,2.1,1,4,2.5,5.3
			c1,3.4,4.2,5.8,9.2,5.7c1.4-0.1,2.8-0.5,4-1c0.2,0,0.3,0.1,0.5,0.1c0,0,0,0,0,0c0,0,0,0,0.1,0c0.7,0.1,1.2,0.2,1.3,0.2
			c0.7,0.1,1.4,0.1,2.1,0.1c0.4,0,0.7-0.1,1.1-0.1c1.6,0.2,3.2,0.2,4.7,0.2c5.8-0.1,10.7-3.5,14.5-7.7c1.4-1.7,3-3.6,4.2-5.6
			c0.4-0.3,0.7-0.6,1-0.9c1.6-1.5,3-3.1,4.2-4.9C395.7,702.4,397.9,699.6,396.5,696z"/>
		<path d="M370.3,644.2c-2,0.1-3.7,0.9-5.3,2c-2,1.1-3.9,2.4-5.5,3.9c-1.5,0.4-2.8,1.2-3.7,2.6c-0.7,1-1.1,2.2-1.3,3.4
			c-0.3,0.4-0.5,0.9-0.7,1.3c-0.2,0.3-0.4,0.7-0.6,1c-4.2,5.9-6,15.2,2.8,17.6c2.5,0.3,5.1,0,7.5-0.8c-0.6,1.1,0,2.8,1.6,2.8
			c2.2,0,2.4-3.1,0.5-3.6c2.9-1.4,5.4-3.5,7.3-6.1c2.3-2.3,4.3-4.9,5.6-7.3c1.2-2.8,2.5-5.7,2.5-8.8
			C380.9,646.5,375.3,643.2,370.3,644.2z"/>
		<path d="M328.4,592.3c-0.3-0.6-0.7-1.1-1.1-1.6c0-2.7-0.8-5.2-3.3-6.8c-5.9-2.7-9.2,2.4-11,7.9c-2.4,2.7-4.1,6.6-4.9,10.6
			c-0.3-0.4-0.5-0.8-0.8-1.2c-1-1.5-2-2.7-3-3.7c-0.3-1.8-1.1-3.5-2.5-4.9c-1.2-1.3-2.6-2.2-4.2-2.8c1.2-4.8,0.8-10.3-2.6-14
			c-3.2-3.7-8.4-5.9-13.3-4.2c-1.1,0.3-2.3,0.9-3.3,1.6c-3,0.4-5.8,2.2-7.4,4.9c-1.8,3.2-2.6,6.8-3.2,10.4c-0.4,0.5-0.9,1.1-1.2,1.6
			c-3.7,6.3-3.2,6.5-5.2,11.5c-1.1,3.7,0.1,6.9,2.5,9c-0.2,2.9-0.1,5.8,0.7,8.6c0.6,2,1.7,3.5,3.2,4.6c-0.1,2.9,0.5,5.6,2.9,7.1
			c2.1,1.1,4.2,1,6.1,0.3c0.4,0.5,0.8,1,1.2,1.5c0,0.3,0,0.6,0.1,0.9c0,1.8,0.2,3.7,0.7,5.4c0.2,1.6,0.7,3.2,1.7,4.6
			c2.3,3.5,7,4.8,10.8,3.2c5.8-1.6,9.3-7.9,11.4-14c3.8-2.6,6.5-6.2,8-10.3c1.6,0.7,3.4,0.9,5.2,0.4c7.8-2.7,11.7-11.7,13.1-19.3
			C329.7,599.9,330.4,595.8,328.4,592.3z"/>
		<path d="M464.5,589.8c-5.7-3-11.2,1.3-15.5,6.4c-0.2,0.1-0.5,0.2-0.7,0.3c-4.4,2.5-7.2,7-10.2,10.9c-2.4,3.9-5.6,7.2-7.7,11.3
			c-0.2,0.4-0.5,0.9-0.7,1.4c-1.2,1.7-2.3,3.5-3.2,5.6c-6.4,6.8-10.3,16.7-4,23.8c0.5,0.5,1,1,1.5,1.5c0.4,1,0.9,1.9,1.5,2.7
			c2.6,3.9,8.2,5.5,12.2,2.8c5.1-3.8,9-9,13.1-13.8c2.3-3.1,4.1-7.1,4.4-11.1c3.2-6.2,5.8-12.7,7.4-19.5
			C467.9,603.7,471.2,594.5,464.5,589.8z"/>
		<path d="M450.2,553.9c-6.1,0.1-6.1,9.2,0,9.3C456.3,563.1,456.3,554,450.2,553.9z"/>
		<path d="M489.1,563.6c-6.1,0.1-6.1,9.2,0,9.3C495.3,572.9,495.3,563.8,489.1,563.6z"/>
		<path d="M274.6,691.5c-1.4-4.6-5-7-8.9-7.5c-1.9-0.6-4-0.6-6.2,0.1c-1.3,0.5-2.5,1.3-3.6,2.2c-2.7,1.3-5,3.6-6.2,6.3
			c-1.2,2.5-1.6,4.9-1.3,7.1c-0.4,3.9,0.5,7.8,3.4,10.7C263.4,720.2,278,703.7,274.6,691.5z"/>
		<path d="M187.7,583.4c0.2-0.8,0.4-1.6,0.5-2.5c3.1-17.8-21.4-26.9-23.3-8c-4.8,6.4-4.9,17.2,2.6,21.2c0.9,0.5,1.9,0.9,2.8,1.1
			c5,11.4,16.9,9.8,18.6-3.1C189.3,589.3,188.8,586.2,187.7,583.4z"/>
		<path d="M324.8,488.6c-0.8-3.5-4.8-5.7-8.2-4.7c-5.5,2.2-8.7,9.6-10.1,15.8c-0.1,0.1-0.2,0.2-0.4,0.4c-1.8,2.2-3.5,5.5-4.4,8.9
			c-2.7,3.7-4.4,8.5-4.4,12.5c0,4.9,4.5,8.3,9.1,8.2c1.3,0.3,2.7,0.2,3.9-0.2c5.5-2.4,9.8-9.7,9.8-16.2c0.3-2.1,0.4-4.2,0.2-6.1
			c0.7-1.7,1.2-3.3,1.8-4.7C323.6,498,325.5,493.3,324.8,488.6z"/>
		<path d="M163.2,470.1c-1-0.9-1.9-1.5-2.8-1.9c-0.3-0.8-0.8-1.5-1.6-1.9c-0.1,0-0.1-0.1-0.2-0.1c-0.8-0.8-1.7-1.3-2.7-1.4
			c0.3-3.5,0.7-7.1,0.1-10.6c-0.9,5-2.8,8.5-4.4,13.4c-0.4,1.3,0.1,2.4,1,2.8c-0.1,0.7-0.2,1.4-0.3,2.1c-0.4,0.6-0.7,1.3-1,1.9
			c-1.1,1.8-2,4.5-2.2,8.3c-0.1,3,2.4,5.8,5.4,5.9c3.8,0,7.2-3,8.9-6.2C164.8,478.7,166.2,473.5,163.2,470.1z"/>
		<path d="M478.8,430c-0.4-1.6-1.6-2.7-3-3.3c-1.7-1.5-4.3-2.1-6.4-0.8c-1.8,1.2-2.9,3-3.6,5c0,0,0,0,0,0c-0.3,0.6-0.4,1.2-0.6,1.9
			c-0.1,0.5-0.3,0.9-0.4,1.4c0,0.1-0.1,0.2-0.1,0.4c-0.2,0.4-0.3,0.9-0.3,1.4c-0.4,1.5-0.8,2.8-0.3,4.2c-0.3,1.6-0.5,3.2-0.2,4.8
			c0.8,3.3,5,5,7.9,3.2c3.5-2.5,5.5-6.8,6.5-10.9c0.1-0.5,0.2-1.1,0.2-1.7C479,433.6,479.2,432,478.8,430z"/>
		<path d="M375.1,429.7c-1.1-1.5-2.4-2.4-3.8-2.7c-2.2-2.9-6.3-4-10-0.7c-6.9,6.6-11.1,23.5,3.8,20.9
			C371.9,445.2,378.7,436.8,375.1,429.7z"/>
		<path d="M284.5,313.9c0-1-0.1-2-0.1-3.1c0.2-2.7,0.1-5.4-0.1-8.1c-1.4-6.3-7.1-7.7-11.3-5.1c-11,1.2-14.1,25.3-12.7,34.1
			c0.3,1.2,0.8,2.3,1.4,3.2c0.1,2.5,0.6,4.9,2.4,6.9c1.5,1.5,3.5,2.1,5.5,1.9c0.2,0.3,0.4,0.6,0.7,0.9c0,0.1,0,0.2,0,0.3
			c0.4,1.7,2,2.7,3.4,2c2.6,0.8,5.6,0.3,7.7-1.9c1.6-1.7,2.5-3.8,3.2-6c1.1-3.2,2-6.5,2.3-9.9C287.4,324,287.6,318.2,284.5,313.9z"
			/>
		<path d="M344.9,73c-0.8-3-4.7-4.9-9.6-3.5c-3.3,0.9-6.2,2.7-8.9,4.7c-1.5,1.1-3.3,2.3-4,4.2c-1.2,2.5,0.2,5.8,2.8,6.8
			c1.1,0.5,2.6,0.6,4.2,0.4c0.6,0,1.2,0,1.9-0.2c0.2-0.1,0.5-0.2,0.7-0.3c0.4,0.2,0.9,0.4,1.4,0.4c-0.1,1.1,0.9,2.4,1.1,3.5
			c1.6-2.3,2.8-3.9,3.6-5c2.3-1,4.4-2.3,6.3-4C346.9,77.6,347.2,74.4,344.9,73z"/>
		<path d="M413.4,255.5c-6.1,0.1-6.1,9.2,0,9.3C419.6,264.7,419.5,255.6,413.4,255.5z"/>
		<path d="M467.2,309.2c-6.1,0.1-6.1,9.2,0,9.3C473.3,318.5,473.3,309.4,467.2,309.2z"/>
		<path d="M391.9,493.1c-2.4,0-2.4,3.7,0,3.7C394.4,496.8,394.3,493.1,391.9,493.1z"/>
		<path d="M474.4,518.2c-2.4,0-2.4,3.7,0,3.7C476.8,521.9,476.8,518.2,474.4,518.2z"/>
		<path d="M442.1,426.8c-2.4,0-2.4,3.7,0,3.7C444.5,430.5,444.5,426.8,442.1,426.8z"/>
		<path d="M418.8,392.7c-2.4,0-2.4,3.7,0,3.7C421.2,396.4,421.2,392.7,418.8,392.7z"/>
		<path d="M503.1,396.3c-2.4,0-2.4,3.7,0,3.7C505.5,400,505.5,396.3,503.1,396.3z"/>
		<path d="M515.6,414.2c-2.4,0-2.4,3.7,0,3.7C518.1,417.9,518,414.2,515.6,414.2z"/>
		<path d="M282.6,274.4c-2.4,0-2.4,3.7,0,3.7C285,278.1,285,274.4,282.6,274.4z"/>
		<path d="M264.6,251.1c-2.4,0-2.4,3.7,0,3.7C267.1,254.8,267.1,251.1,264.6,251.1z"/>
		<path d="M278.1,248.5c0.2,0.1,0.6,0.1,0.7,0.1C278.5,248.5,278.3,248.5,278.1,248.5z"/>
		<path d="M307.7,247.5c-2.4,0-2.4,3.7,0,3.7C310.1,251.2,310.1,247.5,307.7,247.5z"/>
		<path d="M289.7,220.6c-2.4,0-2.4,3.7,0,3.7C292.2,224.3,292.2,220.6,289.7,220.6z"/>
		<path d="M286.1,236.7c-2.4,0-2.4,3.7,0,3.7C288.6,240.5,288.6,236.8,286.1,236.7z"/>
		<path d="M282.6,243.9c-2.4,0-2.4,3.7,0,3.7C285,247.6,285,243.9,282.6,243.9z"/>
		<path d="M282.6,251.1c-2.4,0-2.4,3.7,0,3.7C285,254.8,285,251.1,282.6,251.1z"/>
		<path d="M264.6,245.7c-2.4,0-2.4,3.7,0,3.7C267.1,249.4,267.1,245.7,264.6,245.7z"/>
		<path d="M253.9,240.3c-2.4,0-2.4,3.7,0,3.7C256.3,244,256.3,240.3,253.9,240.3z"/>
		<path d="M234.1,220.6c-2.4,0-2.4,3.7,0,3.7C236.6,224.3,236.6,220.6,234.1,220.6z"/>
		<path d="M241.3,168.6c-2.4,0-2.4,3.7,0,3.7C243.8,172.3,243.8,168.6,241.3,168.6z"/>
		<path d="M234.1,170.4c-2.4,0-2.4,3.7,0,3.7C236.6,174.1,236.6,170.4,234.1,170.4z"/>
		<path d="M228.8,170.4c-2.4,0-2.4,3.7,0,3.7C231.2,174.1,231.2,170.4,228.8,170.4z"/>
		<path d="M216.2,181.2c-2.4,0-2.4,3.7,0,3.7C218.7,184.9,218.7,181.2,216.2,181.2z"/>
		<path d="M250.3,141.7c-2.4,0-2.4,3.7,0,3.7C252.7,145.4,252.7,141.7,250.3,141.7z"/>
		<path d="M252.1,131c-2.4,0-2.4,3.7,0,3.7C254.5,134.7,254.5,131,252.1,131z"/>
		<path d="M223.4,131c-2.4,0-2.4,3.7,0,3.7C225.8,134.7,225.8,131,223.4,131z"/>
		<path d="M200.1,188.3c-1.1,0-1.7,0.8-1.8,1.7c-0.1-0.9-0.7-1.7-1.8-1.7c-2.4,0-2.4,3.7,0,3.7c1.1,0,1.7-0.8,1.8-1.7
			c0,0.2,0.1,0.5,0.2,0.7c-0.6,1.1,0,2.8,1.6,2.8c1.6,0,2.1-1.7,1.6-2.8C202.2,190,201.7,188.3,200.1,188.3z"/>
		<path d="M235.9,656.3c-0.4,0-0.6,0.1-0.9,0.2c-0.3-0.1-0.5-0.2-0.9-0.2c-2.4,0-2.4,3.7,0,3.7c0.4,0,0.6-0.1,0.9-0.2
			c0.3,0.1,0.5,0.2,0.9,0.2C238.4,660,238.4,656.3,235.9,656.3z"/>
		<path d="M259.2,636.5c-2.4,0-2.4,3.7,0,3.7C261.7,640.3,261.7,636.6,259.2,636.5z"/>
		<path d="M268.2,631.2c-2.4,0-2.4,3.7,0,3.7C270.6,634.9,270.6,631.2,268.2,631.2z"/>
		<path d="M264.6,640.1c-2.4,0-2.4,3.7,0,3.7C267.1,643.8,267.1,640.1,264.6,640.1z"/>
		<path d="M261.9,632.1c0.8,0.6,1.8,1.1,2.6,1.5C263.7,633.1,262.9,632.5,261.9,632.1z"/>
		<path d="M291.5,654.5c-2.4,0-2.4,3.7,0,3.7C294,658.2,293.9,654.5,291.5,654.5z"/>
		<path d="M300.5,643.7c-2.4,0-2.4,3.7,0,3.7C302.9,647.4,302.9,643.7,300.5,643.7z"/>
		<path d="M309.4,633c-2.4,0-2.4,3.7,0,3.7C311.9,636.7,311.9,633,309.4,633z"/>
		<path d="M311.2,627.6c-2.4,0-2.4,3.7,0,3.7C313.7,631.3,313.7,627.6,311.2,627.6z"/>
		<path d="M325.6,637.5c1.7,2,3.7,3.7,5.8,5.2C329.7,640.8,327.7,639,325.6,637.5z"/>
		<path d="M335.4,659c0.9,0.3,1.7,0.6,2.6,0.8C337.2,659.5,336.3,659.2,335.4,659z"/>
		<path d="M348.9,636.5c-2.4,0-2.4,3.7,0,3.7C351.3,640.3,351.3,636.6,348.9,636.5z"/>
		<path d="M338.1,634.7c-2.4,0-2.4,3.7,0,3.7C340.6,638.5,340.6,634.8,338.1,634.7z"/>
		<path d="M344.4,663.5c0.1,0.2,0.2,0.4,0.3,0.5C344.6,663.8,344.5,663.7,344.4,663.5z"/>
		<path d="M352.5,677.8c-2.4,0-2.4,3.7,0,3.7C354.9,681.5,354.9,677.8,352.5,677.8z"/>
		<path d="M363.2,677.8c-2.4,0-2.4,3.7,0,3.7C365.7,681.5,365.7,677.8,363.2,677.8z"/>
		<path d="M361.4,683.1c-2.4,0-2.4,3.7,0,3.7C363.9,686.9,363.9,683.2,361.4,683.1z"/>
		<path d="M356.1,684.9c-2.4,0-2.4,3.7,0,3.7C358.5,688.7,358.5,685,356.1,684.9z"/>
		<path d="M347.1,697.5c-2.4,0-2.4,3.7,0,3.7C349.5,701.2,349.5,697.5,347.1,697.5z"/>
		<path d="M300.5,693.9c-2.4,0-2.4,3.7,0,3.7C302.9,697.6,302.9,693.9,300.5,693.9z"/>
		<path d="M280.8,699.3c-2.4,0-2.4,3.7,0,3.7C283.2,703,283.2,699.3,280.8,699.3z"/>
		<path d="M252.1,681.4c-2.4,0-2.4,3.7,0,3.7C254.5,685.1,254.5,681.4,252.1,681.4z"/>
		<path d="M243.1,677.8c-2.4,0-2.4,3.7,0,3.7C245.5,681.5,245.5,677.8,243.1,677.8z"/>
		<path d="M268.2,678.7c7.6,7.5,15.3,15.4,23.3,22.3C284.6,692.7,277.1,684.9,268.2,678.7z"/>
		<path d="M344.4,687.7c5.2,2.3,9.5,4.2,14.7,6.3C354.6,691.1,349.7,688.9,344.4,687.7z"/>
		<path d="M388.3,681.4c-2.4,0-2.4,3.7,0,3.7C390.8,685.1,390.8,681.4,388.3,681.4z"/>
		<path d="M383,647.3c-2.4,0-2.4,3.7,0,3.7C385.4,651,385.4,647.3,383,647.3z"/>
		<path d="M370.4,620.4c-2.4,0-2.4,3.7,0,3.7C372.8,624.1,372.8,620.4,370.4,620.4z"/>
		<path d="M372.2,606.1c-2.4,0-2.4,3.7,0,3.7C374.6,609.8,374.6,606.1,372.2,606.1z"/>
		<path d="M372.2,588.1c-2.4,0-2.4,3.7,0,3.7C374.6,591.9,374.6,588.1,372.2,588.1z"/>
		<path class="st5" d="M380.7,578.5c-0.1-0.1-0.3-0.1-0.4-0.2"/>
		<path d="M365,554.1c-2.4,0-2.4,3.7,0,3.7C367.5,557.8,367.5,554.1,365,554.1z"/>
		<path class="st5" d="M406.8,563.5c-0.2-0.1-0.4-0.2-0.6-0.4"/>
		<path d="M426,568.4c-2.4,0-2.4,3.7,0,3.7C428.4,572.1,428.4,568.4,426,568.4z"/>
		<path d="M405.4,550.6c5.6,7.2,10.1,15.2,14.7,23C417.1,564.9,412.4,556.6,405.4,550.6z"/>
		<path d="M424.2,602.5c-2.4,0-2.4,3.7,0,3.7C426.6,606.2,426.6,602.5,424.2,602.5z"/>
		<path d="M426,607.9c-2.4,0-2.4,3.7,0,3.7C428.4,611.6,428.4,607.9,426,607.9z"/>
		<path d="M418.8,606.1c-2.4,0-2.4,3.7,0,3.7C421.2,609.8,421.2,606.1,418.8,606.1z"/>
		<path d="M402.7,604.3c-2.4,0-2.4,3.7,0,3.7C405.1,608,405.1,604.3,402.7,604.3z"/>
		<path d="M406.3,600.7c-2.4,0-2.4,3.7,0,3.7C408.7,604.4,408.7,600.7,406.3,600.7z"/>
		<path d="M415.2,625.8c-2.4,0-2.4,3.7,0,3.7C417.7,629.5,417.7,625.8,415.2,625.8z"/>
		<path class="st5" d="M454.5,616.8c-0.3-0.2-0.5-0.5-0.8-0.8"/>
		<path d="M460,575.6c-2.4,0-2.4,3.7,0,3.7C462.5,579.3,462.5,575.6,460,575.6z"/>
		<path d="M478,572c-2.4,0-2.4,3.7,0,3.7C480.4,575.7,480.4,572,478,572z"/>
		<path d="M485.1,561.2c-2.4,0-2.4,3.7,0,3.7C487.6,565,487.6,561.3,485.1,561.2z"/>
	</g>
</g>
<g id="Layer_4">
</g>
<g id="Layer_5">
</g>
<g id="Layer_8">
</g>
<g id="Rock-bunting_1_">
</g>
<g id="Robin">
</g>
<g id="Common-murre">
</g>
<g id="Song-thrush">
</g>
</svg>
