<?xml version="1.0" encoding="UTF-8"?>
<svg id="Common-murre" xmlns="http://www.w3.org/2000/svg" xmlns:xlink="http://www.w3.org/1999/xlink" viewBox="0 0 612 792">
  <defs>
    <style>
      .cls-1 {
        fill: #755f4a;
      }

      .cls-2 {
        fill: url(#radial-gradient);
      }

      .cls-3 {
        stroke: #191923;
      }

      .cls-3, .cls-4 {
        fill: none;
        stroke-linecap: round;
        stroke-linejoin: round;
        stroke-width: 0px;
      }

      .cls-4 {
        stroke: #755f4a;
      }

      .cls-5 {
        fill: #634f4d;
      }

      .cls-6 {
        fill: #191923;
      }
    </style>
    <radialGradient id="radial-gradient" cx="333.81" cy="393.26" fx="333.81" fy="393.26" r="279.71" gradientUnits="userSpaceOnUse">
      <stop offset="0" stop-color="#4b939c"/>
      <stop offset=".38" stop-color="#488f98"/>
      <stop offset=".7" stop-color="#42858d"/>
      <stop offset="1" stop-color="#39757d"/>
    </radialGradient>
  </defs>
  <path id="Egg" class="cls-2" d="m123.03,436.36c5.63-90.26,106.67-377.53,219.57-377.53s196.35,315.2,201.4,377.53c11.68,144.21-71.36,291.31-213.52,291.31-124.71,0-215.58-161.12-207.46-291.31Z"/>
  <g id="Dots">
    <g>
      <path class="cls-5" d="m500,520.47c-2.43,1.7-4.91,3.32-7.42,4.91-.35-.22-.41-.11-.32.2-4.02,2.53-8.12,4.94-12.28,7.23-3.9,2.21-8.94,4.41-10.61,3.45-1.17-.62-2.38-1.12-3.72-1.17-.33-.03-.66-.05-.99-.06-.18,0-.53-.02-.76-.03-.14-.02-.28-.06-.42-.12-.72-.36-1.44-.69-2.22-.9-1.35-.2-1.2-.64-3.05-1.18-1.84-.6-3.11-.34-4.06-.6-.85-.57-1.71-1.12-2.54-1.72-1.94-1.2-4.25-1.51-6.37-2.27-.63-.21-1.19-.58-3.73-1.37-.06-.03-.13-.07-.2-.11-.93-4-.89-5.59-1.5-10.04.01-.02.02-.03,0-.03-.01,0-.01,0,0,0h0s.04-.01.08-.02c.91-.44,2.08-.19,2.89-.77,1.05-1.2-.85-2.23-1.34-3.24-.69-.98-2.37-5.62-2.02-3.85.32,1.68.4,3.41.88,5.04-2.5-.05-4.12,1.12-4.18,4.41-.13,2.26-.69,4.65-.85,6.98-1.74-2.12-3.01-4.54-3.25-6.03-.36-3-.1-1.17.87-4.2,1.28-4.09-2.96-4.46-5.97-4.42-2.76.01-5.55-.24-8.3.05-3.88.97-5.16.99-9.18,1.22-10.88,2.22-15.81,5.57-20.91,16.35-1.31,2.36-1.86,2.85-3.98,5.01-1.81,1.32-3.9,2.27-5.37,4.01-1.67,1.73-3.39,3.43-4.56,5.55-.68,1.31-2.4,5.64-2.17,5.05-3.83,9.93-14.28,8.24-25.92,8.24-.65-.39-1.32-.82-2.03-1.28-5.25-3.44-8.58-5.92-12.76-9.44-4.57-3.78-9.75-7.2-15.79-7.83-2.65-.16-5.37-.19-8.05.02-1.1-.61-2.3-1.08-3.61-1.44-4.34-1.31-9.05-1.78-13.55-1.14-5.02.64-9.6,2.65-13.6,5.55-1.31-.84-2.85-1.37-4.69-1.44-4.25-.57-8.59-.32-12.75.73-3.81,1.27-7.63,2.54-11.56,3.37-3.93,1.32-11.54-.76-16.5-2.85-.42-.36-.83-.71-1.25-1.09-4.76-3.8-8.87-7.05-13.58-11.13-.67-1.51-1.37-3.16-2.36-5.2-1.24-3.18-2.84-4.12-4.19-6.18-2.2-3.03-5.54-4.96-8.11-7.66-1.77-1.66-3.48-3.37-5.19-5.09-1.83-6.29-1.93-13.03-4.31-19.16-1.53-4.59-3.66-8.96-6.2-13.07-1-1.31-1.66-2.83-2.47-4.26-1.16-2.28-.87-.92-.96-3.84-.27-7.91,1.66-13.58,2.96-21.32.5-.25,5.23-1.51,7.27-2.86,1.71-1.22,3.22-2.74,4.55-4.36,2.29-3.35,4.35-6.91,6.07-10.57.63-2.36-.16-5.15-2.17-6.61-1.62-1.22-3.75-1.34-5.63-1.93-3.5-.82-6.59-1.06-9.02-1.74,0-.25,0-.51.01-.76.06-4.94-.06-9.9.46-14.82.02-2.35.71-2.18.85-5.38-.02-1.37.26-3.17-1.31-3.75-.93-.44-2.14-.01-2.65.89-.08.35-.17.7-.25,1.05,0,0-.01,0-.02,0,0,.03,0,.04,0,.07-1.56,6.1-4.43,12.09-3.73,18.53.19,2.36.53,5.27,2.41,6.89.06,7.45.19,14.91-.29,20.13-.11,1.01-.25,2.02-.41,3.02-1.5,1.67-2.21,3.94-2.57,6.17-.96,2.85-.78,5.86-.84,8.82.01,4.7-.39,8.15-.87,11.57-1.02,6.91-2.6,12.52-.98,20.21.64,2.64,2.46,4.67,3.83,6.94,1.76,2.43,4.24,4.19,6.38,6.26,2.08,2.04,4.13,4.1,6.19,6.16.09.29.18.59.28.87,3.83,9.83,12.07,16.86,19.9,23.65.6,1.35,1.17,2.65,1.82,4.09.95,1.89,2.5,3.44,4.24,4.61.52.56,6.08,2.44,4.75,2.01,1.66.81,3.36,1.62,5.09,2.38,2.13,1.74,4.28,3.5,6.65,4.88,3.31,1.81,6.9,2.76,10.62,3.24,5.62,1.21,8.67.93,13.7,2.54.86.26,2.3.98,3.88,1.88-1.36,2.78-2.88,4.99-3.09,9.13-.32,7.65-.4,15.02.67,21.21.47,2.85,1.07,5.78,2.11,8.52-.02,7.34,2.1,15.15,9.11,17.21,2.48.32,5.28.04,7.44-1.27,1.02-.7,1.68-1.75,2.23-2.85,7.71-1.08,8.98-12.74,9.22-19.53.69-10.69-3.15-20.79-6.15-30.94,5.8-10.35,11.21-14.98,21.21-16.03.37.35.7.82,1.47,1.7.07.09.14.2.21.3,1.28,2.25,2.22,4.7,3.75,6.8,2.18,2.96,5.06,5.47,8.3,7.21,5.69,2.92,12.14,2.5,18.34,2.47,2.17,0,4.34,0,6.5,0,5.71,3.13,11.84,4.92,18.99,3.25,6.25-1.64,12.81-2.77,18.57-5.82,6.93-4.17,12.13-10.91,15.93-17.94,4.91-8.32,4.3-10.05,11.92-11.95,7.53-2.06,15.37-.85,23.66,1.79.25.22.49.45.76.65.34.27.69.52,1.05.75.98,1.42,2.56,2.23,3.98,3.14.32.25.7.54.93.71,1.55,1.01,3.24,1.76,4.83,2.68.94.96,1.95,1.86,2.85,2.85.17.22.36.48.55.71.13.21.26.42.41.61,1.01,1.7,2.29,3.2,3.56,4.71.08.18.16.37.24.57-.08,1.61-.24,3.22-.21,4.83-.1,1.17.58,4.74.89,5.98,0,.15,0,.31-.01.46-2.09,4.61-4.04,9.21-5.81,14.03,2.13-3.07,4.03-6.29,5.67-9.62-.16,6.09-.21,12.19-.44,18.27-3.85,3.27-7.18,7.29-9.28,11.9-1.4,2.68-1.97,4.02-2.35,4.97-.23.41-1.26,2.57-1.55,3.33-.9,2.42-.98,5.03-1.62,7.52,0,.04-.01.07-.02.11-.32.24-.64.49-.94.76-2.37,1.63-3.65,4.85-4.35,7.84-.48.87-.89,1.8-1.13,2.77-.05-.11-.17-.02-.3-.02.13.01.26.07.39.05.52-.84,1.54-1.6,2.23-2.42.66-1.09,1.58-1.98,2.28-3.03.38-.31.86-.76,1.22-1.05-.22,3.94.1,7.91.21,11.87.27,8.52.54,17.03.77,25.55,2.8-11.96,4.41-24.15,6.53-36.22.68-2.46.96-3.28,1.3-4.1,8.44-3.43,16.39-9.79,20-18.29-.27.62-.28.73.14-.28,1.82-3.79,2.95-7.95,2.58-12.19-.45-3.57-1.21-7.07-2.15-10.53-.06-3.14-.19-6.28-.29-9.42.14-3.58-.97-5.83-1.78-9.11,0-.06-.01-.09-.02-.14-.24-2.37-.04-4.86-.86-7.09.86.13,1.74.18,2.6.22,3.74-.01,7.53.13,11.23-.46,3.06-1.01,4.55-1.58,7.59-3.49,2.88-2.36,5.19-5.58,6.43-9.09.4-1.49.62-3.08.47-4.61,2.33-1.86,4.63-3.76,6.82-5.78Zm-312.97-101.94c4.9,1.18,10.64,1.5,12.41,2.96.07.11.14.23.2.32.34,1.06.28.51.23,1.34-.05.13-.11.3-.16.47-.06.12-.11.24-.17.34-1.45,2.33-2.61,4.82-4.12,7.12-1.8,2.98-4.68,5.35-7.16,6-.51.27-1.06.44-1.62.59.7-6.34.42-12.75.38-19.14Zm.27,76.04c-2.91-2.57-3.62-3.8-5.83-7.41-.93-1.7-1.3-5.62-.97-9.87.19-1.43.53-3.54.9-5.95,3.59,6.18,6.25,10.73,8.26,17.59.76,3.12,1.23,6.31,1.79,9.48-1.35-1.31-2.72-2.6-4.14-3.84Zm72.62,55.38c-5.25-1.32-8.19-1.12-12.88-2.22-.24-.02-.46-.07-.69-.1,5.6-.57,10.8-2.88,16.21-4.21,3.54-.58,7.85-.81,10.91.08-2.84,2.67-5.29,5.79-7.29,9.11-1.98-1.13-4.05-2.1-6.26-2.66Zm5.23,22.15c.11-3.85-.12-6.67.59-9.19.55-1.41,1.22-2.89,1.97-4.38.63.42,1.24.85,1.78,1.26,1.95,1.33,5,2.41,5.96,3,.1.1.21.21.33.33.07.11.41.57.72,1.03-1.49,1.95-3.28,3.71-4,4.24-1.19.96-2.79,1.64-3.36,3.16-.36,3.16.05,6.03-.7,7.81-.29.72-1.79,2.87-2.82,5.08-.5-3.67-.52-7.3-.48-12.34Zm12.21,35.85c-2.12.49-2.76.48-3.99.22-.5-.02-1.14-.54-.26-.07-1.5-.64-2.81-2.54-3.69-4.7,2.38,2.04,5.32,3.45,8.33,4.33-.13.08-.26.17-.4.22Zm2.48-4.01c-2.41-.64-5.67-2.12-6.61-2.85-3-2.31-4.25-4.48-5.17-6.72-.05-5.13,1.08-8.22,4.17-13.18,1.06-2.56.96-5.4.97-8.13,0,0,.02-.02.02-.02.37-.26,1.19-.84,1.41-1.01,1.37-1.05,2.64-2.24,3.81-3.5,1.5,4.31,2.6,9.93,2.56,15.12.25,6.54.16,15.26-1.17,20.3Zm-.82-43.53c-.99-1.11-2.29-1.85-3.74-2.31.1.06.02.05-.24-.09-.04-.01-.08-.03-.13-.05.05.01.07.02.1.03-.03-.01-.04-.02-.07-.03-1.79-.93-3.56-1.88-5.15-3.13,0,0,0,0-.01,0,1.94-3.14,4.33-6.2,7.17-8.79.05.1.11.19.14.29,1.99,3.28,3.03,6.83,4.09,10.76-.7,1.13-1.42,2.24-2.17,3.32Zm8.36,32.45c-.18,3.12-1.39,7.51-2.95,9.75.96-4.83.91-9.87.86-14.77.2-8.03-.97-16.89-3.92-23.41.43-.65.87-1.3,1.3-1.96.05.17.09.33.14.51,3.45,10.66,5.92,19.1,4.56,29.88Zm5.23-50.3c-3.55,2.56-6.09,6.03-8.42,9.68-.03-.13-.07-.26-.1-.39-.94-2.85-2.1-5.98-3.88-8.44,3.25-2.25,6.97-3.86,11.17-4.37,1.68-.45,4.75-.27,7.68.19-2.27.79-4.44,1.87-6.44,3.32Zm34.39,12.98c-7.09-1.65-10.8-5.59-14.27-12.94-.18-.37-.38-.72-.58-1.06.34,0,.67,0,1.02,0,7.89-.22,13.36,4.89,20.08,10.42,1.86,1.36,3.71,2.74,5.59,4.07-4.42.06-8.78.22-11.84-.49Zm100.96-32.04c-3.94-.52-7.89-1.25-11.88-.82-3.57.05-10.14,2.06-11.52,2.94-4,1.54-5.62,5.82-7.62,9.26-3.4,6.22-5.66,9.87-10.5,14.92-4.55,4.71-9.17,6.21-16.5,7.95-.66.18-1.28.35-1.87.52.68-.32,1.35-.67,1.99-1.1,6.03-3.87,6.32-9.59,8.87-13.44.88-1.11.22-.56,1.57-1.89,1.01-1.01,1.93-2.12,3.03-3.03,3.3-1.83,6.12-4.41,8.07-7.65,3.57-6.6,5.61-11.27,12.32-13.67-1.06.44,1.89-.71,2.61-.79.82-.17,1.65-.32,2.44-.61.24-.12.92-.29,1.11-.35,1.93-.17,3.89-.13,5.8-.54,3.88-1.35,10.25-.87,13.27-.85.01,0,.02,0,.04,0-.22.69-.22.51-.74,1.64-.61,2.71.28,5.62,1.73,7.97-.73-.17-1.47-.33-2.21-.47Zm64.74,4.06c-.47,2.66-2,4.95-3.81,6.9-3.32,3.71-6.4,4.71-11.05,5.76-.25.03-.59.06-.76.04-1.01,0-2.03-.07-3.04-.1-2.73-.13-5.47-.15-8.18-.48-.27-.06-1.02-.2-1.46-.34-.25-.11-.97-.42-1.22-.53-.7-.34-1.45-.53-2.19-.75-.09-.03-.18-.07-.28-.1-.21-.11-.42-.22-.63-.34-.23-.22-.45-.44-.67-.67.31.09.63.16.95.23.34.09.68.2,1.01.32.02,0,.02.01.04.02.56.25,1.1.59,1.72.66.67.12,1.36.08,2.04.1,1.15.1.7-.08,1.76.28.04.02.08.03.11.05-.03-.01,0,0,.08.03.07.03.15.06.22.09-.05-.02-.1-.04-.14-.06,0,0,0,0,.01,0,.39.17.75.37,1.14.53.96.44,2.08.24,3.1.19,4.17-.7,7.76-3.36,11.3-5.55,3.37-2.28,6.67-4.68,9.87-7.2.11.36.18.7.08.9Z"/>
      <path class="cls-5" d="m275.05,558.03c.08.02.16.06.24.09-.05-.03-.13-.06-.26-.1,0,0,.01,0,.02.01Z"/>
      <path class="cls-5" d="m467.22,538.71s-.05-.02-.08-.04c-.03-.01-.05-.02-.08-.03.02.01.08.04.15.07Z"/>
    </g>
    <path class="cls-5" d="m483.18,346.3c-.31-1.52-1.36-2.82-2.02-4.22-.36-.83-.29-.66-.14-.3-.3-.82-.74-1.57-1.17-2.33-.31-.84-.71-1.62-1.21-2.34.02-.6.04-1.19.05-1.79.01-3.73.5-7.5.08-11.2-.57-4.32-2.22-8.47-5.36-11.57-.34-.46-.7-.91-1.07-1.35-.14-.19-.32-.43-.55-.74-.49-.65-1-1.3-1.51-1.95-.08-.14-.49-.78-.86-1.67-2.48-4.19-4.51-8.63-6.83-12.9-1.19-1.56-2.1-3.31-3.14-4.96-2.03-2.8-4.26-5.51-5.78-8.64-.71-1.29-1.33-2.62-1.96-3.95-.1-.37-.19-.74-.29-1.11-.28-5.43-.93-7.84-1.35-11.46.12-.42.24-.85.36-1.27.52-1.27.95-2.56,1.2-3.91,1.53-3.59,1.83-7.53,1.84-11.43-.01-3.37.27-6.77-.29-10.11-.72-3.68-1.8-7.54-4.39-10.35-3.73-3.8-9.98-4.44-12.99.57-1.95,3.77-.75,8.3-1.07,12.39.05,6.61-.13,13.23.16,19.83.09.89.18,1.72.27,2.53-.28,1.01-.43,2.06-.43,3.12.31,5.61,1.38,11.44,3.38,16.71.96,7.62-.01,5.86,2.18,14.33.21.8.34,1.61.46,2.43-3.88-.71-6.75-.85-11.87-2.61-3.06-1.16-6.05-2.52-9.24-3.32-.39-.15-1.09.05-1.55.04-.02,0-.01,0-.02,0-1.78-1.64-5.56-.46-8.03-.53-.46-.13-.83-.46-1.3-.56-.58-.23-1.26-.13-1.81-.41-.56-.42-1.08-.9-1.83-.87.79.11,1.13.76,1.64,1.26.49.38,1.16.44,1.67.79,1.31,1.29,2.74,1.22,4.45,1.42.66.17,2.55.07,3.47,1.04.54.62,1.31.87,2.11.9.11.01.2.02.28.03.42.22.84.43,1.26.66,3.89,2.16,7.4,4.99,11.65,6.47.33.14.13.05-.61-.26,5.17,2.22,8.37,2.77,11.95,4.3.66,5.26,7.65,6.37,10.99,4.15.25-.18.46-.4.66-.62.1.2.2.4.3.59,1.11,1.64,1.82,3.5,2.92,5.13.4.53,1.06,1.37,1.51,1.95.1.14.2.27.3.41,2.86,3.77.81,1.27,3.9,4.88.02.03.04.06.06.09.19.64.55,1.73.79,2.44.02.07.04.14.06.21,0,1.1.17,4.31.16,5.39.31,3.84-.39,8.1,1.76,11.5.42.61.86,1.2,1.33,1.77.11.21.24.42.36.64-.73.2-1.43.47-2.1.86-4.31,3.1-5.08,9.09-4.38,14,.34,3.21.53,6.48,1.47,9.57,1.23,2.98,2.27,6.28,4.5,8.68,4.48,4.19,8.86.36,10.31-4.5,1.55-5.69.67-11.55-.54-17.31,2.46-.28,4.54-1.36,5.51-4.56.44-1.93.77-4,.32-5.96Zm-10.55,26.81c-.11.1-.19.19-.27.28-1.16-4.2-1.43-4.53-1.45-7.82.26-4.63.1-6.78.69-8.89,1.35.1,2.74.23,4.07.23-.06,5.92-.4,12.03-3.05,16.2Z"/>
    <g>
      <path class="cls-5" d="m382.24,682.87c.11-.24.21-.49.25-.62-.08.21-.16.41-.25.62Z"/>
      <path class="cls-5" d="m393.36,657.05c3.13-4.01,7.21-8.84,11.05-14.06-7.85,5.97-20.65,14.93-24.34,20.35-1.78,2.23-2.92,4.89-4.39,7.32-1.65,3.9-.84,2.48-1.97,5.02-.24.52-.59,1.44-.79,1.99-.09.15-.19.29-.28.44-.29.47-.56.95-.86,1.4-.12.14-.26.29-.42.46-.49.26-.98.52-1.47.77-.24.07-.47.17-.72.22-.03,0-.04,0-.07.01-4.18-.05-8.35.26-12.34,1.49-.02-.05-.05-.11-.07-.16-3.38-6.57-11.59-7.35-18.19-6.93-10.78,1.52-6.24,1.41-17.2,2.15-.63.09-1.43.07-1.84.07-.58-.1-1.15-.24-1.71-.43-1.26-.63-2.43-1.44-3.59-2.25-.21-.17-.37-.29-.48-.38-2.49-1.97-4.66-4.3-6.88-6.57-1.71-1.32-1.77-1.99-3.69-3.48.13.1-.3-.3-.4-.41-.05-.07-.08-.09-.1-.11-.01-.02-.03-.04-.04-.07-.59-1.12-1.91-2.2-1.9-2.36-.48-1.43-1.95-3.48-2.13-5.49,0-.03-.01-.23-.03-.18.14-.5.33-.96.56-1.44.17-.26.44-.42.73-.52,2.17-.81,4.54-.74,6.76-1.3.82-.27,1.6-.7,2.24-1.28-.37.21-.77.37-1.17.49-3.25.9-6.81-1.23-9.96.17-4.24,2.51-2.53,8.48-1.92,11.48.12.99,1.21,2.64,1.15,2.51.4,1.58,1.4,2.85,2.22,4.22.34.67.11.15-.04-.18,1.42,2.97,3.45,5.64,5.28,8.37,3.38,4.55,7.6,9.03,13.29,10.42,4.91.74,9.94.85,14.9.61,5.73-.67,9.66-.64,12.09,0,.09.24.18.48.29.71.16.72,1,1.96,1.59,2.76,1.16,1.75,2.86,3.36,4.95,3.74,3.31.57,6.77-.28,9.79-1.67.07-.03.14-.06.21-.09.45-.1,2.66-.83,3.59-1.06.17-.05.35-.08.53-.11,3.69-.34,7.62-.73,10.63-3.09,2.73-1.61,4.7-4.2,5.77-7.17.07-.18.15-.37.22-.55-.04.09-.08.17-.11.25,1.02-2.08,1.19-4.44,1.76-6.66.36-2.94.6-2.43,2.33-8.26.28-.49.66-1.36.92-1.95,2.01-3.8,4.84-7.23,6.23-9.2Z"/>
    </g>
    <path class="cls-5" d="m387.7,346.38c-.2-.03-.38-.05-.53-.07-.08-.38-.15-.75-.21-1.13,0-.04,0-.06-.02-.1-.48-2.81-.46-5.52.28-8.15.51-2.04,1.82-3.86,1.82-6.02.13-1.48-.28-2.45-1.99-2.16-1.43.44-4.91,1.59-5.38,1.96,1.83-.34,3.77-.7,5.62-.57-.01.06-.03.13-.06.2-.61,2.42-2.8,4-3.69,6.31-1.69,3.36-2.1,7.14-2.1,10.85,0,.31.02.62.07.92-1.42.06-2.84.27-4.22.67-.23,0-.45,0-.68-.02-11-1.33-19.67.13-26.85,9.25-.15.16-.28.34-.42.51-1.37-4.31-.78-3.23-.79-9.76.76-1.24,1.12-2.68,1.22-4.13-.05-.59-.02-1.6.02-2.45,1.49-2.49,1.53-5.82-.43-8.09-2.31-3.35-6.96-3.48-10.1-1.39-.7.39-1.4.78-2.1,1.18-5.3,1.93-5.68,2.48-9.82,3.67-.12-.5-.22-1-.36-1.5-.27-.77-.45-1.66-.61-2.6,2.27-4.49,1.38-9.58-3.19-12-3.19-1.9-7.47-1.29-8.15,2.87-.31,1.26-.25,2.51-.03,3.76.02.28.07.56.11.85-2.57-1.5-5.31-1.89-7.63.61-3.25,3.91-.21,9.86,4.4,10.93,1.29.49,2.62.59,3.93.43.23,3.54.81,7.1,4.4,8.84,2.8,1.51,5.99,1.43,9.02.82,1.54-.23,3.04-.6,4.53-1-.21,3.27,0,6.59.54,9.77,1.98,9.44,5.9,13.82,11.27,15.83,1.94,2.36,5.48,2.81,8.2,1.53.24.01.48.03.73.04.23.07.46.16.69.24,3.27,1.63,6.11,4.03,9.58,5.24,3.94,1.36,8.57,1.95,12.54.53,4.41-1.53,5.94-7.47,3.28-11.17-.78-1.16-1.67-2.2-2.73-3.08-.26-.25-.51-.52-.79-.75-.57-.48-1.32-1.04-1.75-1.34-1.13-.97-2.31-1.89-3.56-2.7-.27-.21-.55-.39-.85-.56-2.12-1.28-4.68-1.12-7.07-1.12-.48,0-.96,0-1.44,0,.7-.85.66-.62,3.33-2.39,4.16-1.72,4.98-1.03,13.27-2.29,3.39-1.32,1.58-.99,5.07-1.64.02,0,.03,0,.05,0,1.68-.18,3.57-.22,4.7-1.65,2.05-2.22,2.18-6.91-1.15-7.94Zm-73.47-10.95c-.18-.02-.94,0-1.33-.07-.37-.09-1.47-.35-1.2-.31.14.06.15.06.02,0-.93-.42-1.29-1.18-1.44-1.9-.16-2.78,2.22-2.61,4.94-1.48.03,1.1.04,2.2.07,3.31-.35.17-.7.33-1.07.45Z"/>
    <path class="cls-5" d="m319.68,140.53c-.6-1.15-1.17-2.31-1.71-3.48-.06-.19-.14-.42-.22-.71-.08-.34-.13-.59-.17-.79-.08-.6-.12-.65-.13-2.64.64-.15,1.26-.36,1.85-.67.3-.18.74-.49,1.15-.81,1.06-.2,2.03-.7,2.8-1.48,2.08-1.8,1.9-4.88,1.68-7.39-.45-5.05-1.56-7.03-1.74-9.39-.28-.78.45-1.02-1.6-3.72-2.28-2.39-6.39-1.5-7.89,1.32-1,2.51-1.57,7.18-1.97,11.85-1.46.65-2.75,1.62-3.68,2.96-2.29,2.66-2.7,6.26-2.34,9.63.03,1.41.27,2.78.63,4.11-9.13,1.7-13.76,7.86-7.28,16.1,3.03,4.62,9.92,8.97,14.27,3.49,1.13-1.72.85-3.89.42-5.79-.13-.62-.31-1.22-.48-1.82,3.59,2.64,8.5,2.71,10.41-2.49.78-3.43-1.18-6.51-3.99-8.27Zm-8.87,15.84c-.69,1.01-2.25.85-2.97.32-2.23-1.59-3.64-4.58-4.33-7.54,0,0,0,0,0,0,.25-.14.5-.26.75-.38,2.21-.59.79-.43,4.24-.47.09,0,.19,0,.3,0,0,.02,0,.04-.01.05-.08,0-.15.02-.22.06-.01,0-.02,0-.04,0,0,0-.01.02-.02.03-.14.09-.24.24-.24.42-.02.07-.03.15-.04.23-.22.34-.53.63-.94.71-.62.19-1.26.28-1.9.38.88.07,1.86.27,2.71,0,0,.05-.01.11-.02.16-.05.85-.39,1.78,0,2.59,1.47,1.66,2.21-1.14,2.75-2.18.13-.27.24-.56.37-.83.23,2.18.23,4.35-.38,6.43Z"/>
    <path class="cls-5" d="m265.15,186.81c-.44-.34-.98-.53-1.51-.67.24.16.48.33.68.54,3.02,2.63-10.27,7.14-12.13,8.31-8.17,3.29-18.8,8.77-13.79,19.24.1.17.18.3.24.41.27.89.54,1.79,1,2.61,2.55,3.5,1.95,2.47,4.25,4.24,2.69,1.44,6,.66,8.92.57,1.94-.1,3.2-1.69,4.13-3.23,1.4-1.91,1.52-4.26,1.75-6.53.05-.37.12-.86.16-1.3.44-2.35.8-4.71.93-7.1.1-2.2.64-5.64-.35-7.85,4.01-3.47,7.62-7.39,5.7-9.22Zm-15.73,17.19c.82-.67.38-.33.14-.16.3-.23,1.22-.93,1.83-1.41-.25,1.09-.56,2.27-.35,3.32-.38,1.38-.77,2.76-1.19,4.13-.16.5-.38,1.85-.53,2.93-.45-.02-.9-.03-1.35-.04-.15-.15-.3-.3-.45-.45-.37-1.02-.83-1.99-1.49-2.86-.03-.11-.07-.21-.09-.32-.02-.16-.04-.31-.05-.47-.01-.19-.02-.38-.03-.57.26-.49.54-.97.85-1.43.57-.61,2.14-2.33,2.7-2.69Z"/>
    <path class="cls-5" d="m388.25,134.14c-6.99.17-6.97,10.41,0,10.6,6.99-.17,6.97-10.41,0-10.6Z"/>
    <path class="cls-5" d="m495.96,465.36c-6.99.17-6.97,10.41,0,10.6,6.99-.17,6.97-10.41,0-10.6Z"/>
    <path class="cls-5" d="m495.96,408.81c-6.99.17-6.97,10.41,0,10.6,6.99-.17,6.97-10.41,0-10.6Z"/>
    <path class="cls-6" d="m460.69,579.31c-.16-1.41-.45-2.81-.69-4.21-.18-.83-.12-1.77-.75-2.41.15.32.23.67.19,1.02-.22,1.59-.6,3.57-.89,5.04-1.55.35-2.62,1.5-3.5,2.76-1.17,1.56-2.28,3.16-3.41,4.75-.07-.69-.54-1.33-1.45-1.34-1.98,0-1.97,3.02,0,3.03.1,0,.18-.04.27-.06-.24.32-.46.65-.7.97-.57.75-1.61,1.94-2.91,3.3.15-2.6.16-5.21.41-7.8.29-1.21-.26-5.12,1.58-4.67-.21-.96-1.6.08-1.87.81-2.19,4.56-3.28,9.53-5.06,14.25-.59,1.36-1.17,2.73-1.84,4.04-2.38,2.16-4.54,3.91-5.64,4.36-3.47,2.28-6.55,5.03-8.88,8.48-.03.03-.05.06-.09.1-1,1.07-1.84,2.25-2.41,3.59.08-.21.01-.06-.12.29-.06.16-.14.32-.2.49.07-.16.12-.29.17-.41-.05.14-.11.3-.17.48-5.64.59-6.21,8.08-1.7,10.06-3.02,8.37-5.88,16.02-9.66,23.57-5.4,9.7-13.14,12.46-21.67,12.61-4.9.04-9.81-.1-14.71-.33,0-.03,0-.07-.01-.1h-.04c-.28-1.19-.9-2.27-2.04-3.01-3.4-2.83-8.3-.51-9.22,3.42-.12.21-.23.41-.37.61,0,.01-.02.02-.03.03,0,0,0,0-.01.01-.62.19-1.25.34-1.88.44-.44.04-1.01.09-1.5.1-.59.02-1.17.01-1.76-.02-3.67-1-.98-.13-5.03-2.12-5.37-3.26-11.71-5.26-18.03-4.32-3.59.51-6.76,2.4-9.47,4.73-.12.09-.21.17-.3.24-3.43,2.51-7.2,4.5-11.01,6.38-1.63-1.69-5.41-6.49-8.45-11.9-2.82-4.89-3.07-8.36-5.04-15.75-.2-.73-.51-2.79-.68-3.93.01,0,.02-.02.03-.03.02-.01.05-.03.08-.05.17-.06.46-.16.61-.19,2.32-.82,5.14-.17,8.83-1.38,1.85-.64,3.37-2.23,3.95-4.02,1-1.67,1.8-3.72,1.65-5.77,1.58-1.58,4.8-3.11,7.37-3.7,1.13-.18.31-.18-.33-.14-1.89.02-3.71.51-5.5,1.06-1.35.34-3.01.92-3.62,2.26-.08,1.66-1.51,3.47-2.71,4.95-.61,1.07-1.85,1.39-2.71,1.38-3.95-.14-8.44-1.41-11.92,1.05-2.58,1.17-2.46,4.12-2.48,6.54,0,8.35.62,16.97,4.27,24.61,4.94,9.72,10.23,22.59,23.34,15.78,3.39-1.59,6.84-3.12,9.91-5.29,4.42-3.02,3.22-2.78,5.73-4.09.29-.1.66-.21,1.03-.31.82-.01,2.48-.06,3.27.08.15.01.29.03.44.05.1.02.21.04.37.06.48.1.98.25,1.37.38,3.72,1.82,7.28,4.09,11.31,5.19,5.26.97,11.44.6,15.88-2.62.19-.15.37-.33.55-.5,4.48.4,9.04-.36,13.53-.48,8.33-.35,16.92-1.97,23.39-7.61,6.78-5.41,9.47-14.14,11.25-22.3,1.12-5.06,2.23-10.13,3.15-15.23.34.07.7.12,1.08.13,1.74-.04,3.05-.71,3.92-1.7,1.15.03,2.29-.28,3.15-1.03.77-.45,1.18-1.23,1.66-1.95.22-.26.46-.5.73-.71,3.8-3.14,5.85-7.84,7.63-10.2,4.5-3.25,7.71-8.26,9.37-10.34,3.22-4.21,5.54-9.05,7.26-14.05.99-2.06.98-4.99,3.24-6.09.42-.3.56-.88.48-1.37Z"/>
    <path class="cls-6" d="m458.24,522.43c-3.51-2.26-7.67-3.12-11.76-3.52-5.19-.74-10.5.06-15.21,2.4-4.29,1.88-7.5,5.28-10.89,8.4-.43-.15-.87-.26-1.32-.35-1.13-.51-2.28-.97-3.48-1.27-4.05-2.06-11.36-2.86-19.83,5.11-.18.13-.74.82-3.62,2.71-.38.29-.96.75-1.39,1.09-3.27,2.22-6.15,4.89-9.15,7.45-3.36,2.38-5.32,2.54-10.78,5.46-4.31,2.51-8.78,5.43-12.8,6.47,1.33-3.09-.25-7.41-4.76-7.54-2.8.07-4.45,1.76-5.01,3.77-4.72-2.89-10.76-5.45-14.7-6.9,5.39,3.4,9.62,6.17,13.9,10.76,1.93,1.8,3.51,4.16,6.11,5.05,6.59,1.91,13.42-1.11,19.46-3.61,3.88-1.4,7.96-2.24,11.78-3.78,2.92-1.46,5.62-3.35,8.19-5.35.01,0,.06-.04.19-.14,2.13-1.19,4.17-2.54,6.29-3.76,2.71-1.48,4.9-3.76,7.68-5.11.02,0,.04-.02.06-.02.53-.27,1.28-.49,1.8-.64.16.04.34.08.55.13.33.1.56.17.75.23.07.03.13.06.2.09.78.37,2.82,1.09,3.56,1.32.77.33,1.57.58,2.39.78,2.79,1.81,6.58,1.22,9.4-.44,2.91-2.03,5.14-4.81,7.84-7.07,4.63-2.92,2.77-2.08,7.77-3.46,1.64-.24,6.59-.75,10.59.65.5.24,1.55.76,2.05,1.11.43.23,1.16.74,1.66,1.08,1.3,1.06,2.48,2.25,3.54,3.55.02.03.03.05.05.08,3.37,4.43,6.05,12.72,6.73,14.77.35,6.29-.98,8.85-2.25,15.84-2.36,10.26-4.96,20.46-6.92,30.8,3.82-9.58,8.65-20.9,11.83-28.78,2.19-6.04,5.24-12.06,5.3-18.61-1.51-10.99-5.63-22.97-15.8-28.75Z"/>
    <path class="cls-6" d="m311.48,538.44c-3.45-.84-7.01-1.37-10.56-1.58-2.69.24-5.38.57-8.01,1.17-1.29.21-6.07.78-9.45,2.76-1.71,1.1-2.94,2.75-3.97,4.47-2.16,3.61-4.42,7.4-4.78,11.67-.01.21-.02.39-.03.55-2.16,7.95-2.69,16.6-.31,24.57,3.61,9.66,2.99,7.42,6.33,15.94,1.32,2.65,2.32,7.35,1.74,9.87-.03.06-.08.13-.12.2-.27.29-.54.57-.84.82-.45.27-1.32.79-1.93.99-1.49.6-.27.17.52-.2-.78.54-3.83,1.22-4.95,1.47-2.77.28-5.57.59-8.35.43-.63-.13-1.25-.3-1.86-.53-6.9-3.57-11.22-14.21-7.78-19.33,1.61-2.12.32-.74,4.17-3.57,5.57-5.23,5.05-12.48,6.93-18.84.72-4.2,1.94-8.2,1.54-12.72,0-1.46-.29-2.97-1.45-3.97-1.54-1-1.93-2.52-1.99-4.28-.08-1.3-.3-2.61.39-3.79.48-1.47.38-3.06.31-4.59-.17,1.42-.35,2.88-.93,4.19-.3.59-.74,1.16-.79,1.84-.09,1.92-.28,3.91.2,5.79.22.96.99,1.61,1.42,2.45.45.96,0,2.07-.05,3.07-.11.85-.3,1.92-.86,3.64-1.49,4.27-2.76,7.75-4.37,11.91-1.16,3.77-2.32,7.19-4.84,9.15-7.93,2.24-14.43,14.56-6.83,28.63.26.41.54.82.82,1.23-1.84.14-1.8,2.99.13,3,.74,0,1.19-.42,1.38-.95,3.33,4.26,7.66,7.93,13.1,8.75,9.13,1.2,21.27-.77,26.48-7.91.62-.23.92-.82.92-1.42,1.5-2.75,2.07-6.15,1.26-10.31-.25-4.6-2.33-8.7-4.17-12.83-1.11-2.83-2.44-5.56-3.77-8.29-1.63-3.34-2.99-7.33-3.04-11.63-.07-2.64-.1-5.29.16-7.92.5-2.29.52-3.73.54-6.04.85-3.82.94-2.8,2.66-6.69,1.21-2.27.98-2.01,1.72-2.68.04-.02.07-.04.11-.07,3.46-1.77,2.7-1.42,6.05-2.5,2.46-.99,4.97-1.92,7.55-2.54,2.75-.17,7.65-.55,11.06.07,5.38,1.07,9.98,3.18,14.75,5.48-4.97-3.64-10.19-7.27-16.18-8.96Z"/>
    <path class="cls-6" d="m320.93,424.96c-6.99.17-6.97,10.41,0,10.6,6.99-.17,6.97-10.41,0-10.6Z"/>
    <path class="cls-6" d="m343.86,369.06c-.05-5.78-3.01-11.67-8.01-14.72-.87-2.82-2.26-5.44-4.43-7.57-2.68-2.65-6.77-3.75-10.28-2.74.5-1.15.62-2.57.81-3.72.08-.87.12-1.74.14-2.6-.14.76-.32,1.51-.52,2.26-.27,1.32-1.23,3-1.72,3.95,0,0,0-.01-.01-.02-.04-.13-.1-.26-.15-.4,0-.07,0-.14,0-.21-.05-1.28-.13-2.56-.23-3.84-.01,0-.03,0-.04,0-.01-.16-.02-.33-.07-.48-.32-.93-1.74-1.01-2.2-.15-.55,2.54-.32,2.81-.8,5.27-.26,1.46-.7,3.48-1.16,4.68-1.58,1.75-3.17,3.57-3.58,5.87-.04,1.75,1.77,3.15,3.45,2.64,1.08-.39,1.83-1.23,2.41-2.21,1.6-1.68,3.47-3.17,4.63-3.89.08-.04.17-.08.26-.12.06-.02.18-.06.32-.1.05,0,.09,0,.12,0,1.16.3,2.03,1,2.62,2.08-2.72.47-5.27,1.82-7.12,4.17-.37.45-.71.92-1.03,1.41-3.35,2.91-5.49,7.25-5.69,11.68.12,2.4,1.13,4.42,2.69,6.04,1.12,3.8,3.53,7.09,7.51,8.98,1.62.73,3.44,1.34,5.31,1.71.78,1.53,2.31,2.7,4.61,2.77,2.89-.07,4.56-1.87,5.06-3.96.8-.48,1.55-1.08,2.21-1.83,3.36-4.14,4.47-9.73,4.89-14.94Z"/>
    <path class="cls-6" d="m369.53,193.12c-.44-.42-.93-.7-1.41-.85-.67-3.34-2.38-6.57-4.91-8.75-1.75-1.1-2.81.29-3.37,1.86-1.45,3.1-.92,6.57-1.43,9.85.98-2.33,1.15-4.91,2.18-7.22.35-.74.7-1.5,1.22-2.14.04-.04.07-.07.1-.11,1.11,1.54,1.78,3.47,2.35,5.28.36,1.38.66,2.61.69,3.94.1.9-.1,1.87.21,2.72.22.64.84.99,1.48,1.01-1.13.65-2.87.48-3.98-.02,1.39,1.34,3.95,1.96,5.63.82,1.71-1.43,2.93-4.52,1.24-6.38Z"/>
    <path class="cls-6" d="m357.28,194.65c.42,1.22,1.24,2.26,2.24,3.05-.71-1.04-1.5-2.03-2.24-3.05Z"/>
    <path class="cls-6" d="m466.8,426.72c.56-1.15,1.27-2.42.9-3.73-.12-.51-.38-.91-.7-1.24.06-1.83-.29-3.31-1.17-4.08-4.78-3.88-8.45,3.7-9.08,7.67-.12.7-.26,1.54-.3,2.39-.32.58-.54,1.22-.65,1.89-.96,2.7-3.28,7.75.64,9,1.89.58,3.94-.96,5.73-3.46.75,2.81,1.24,6.04,1.48,8.58.48-3.8,1.12-7.92.43-11.76.52-1.04.99-2.14,1.4-3.24.51-.69.94-1.39,1.33-2.01Z"/>
    <path class="cls-6" d="m519.47,521.45c-1.77-.62-3.01.47-3.96,2.11-.11-2.39-.3-4.77-.71-7.12-.61,4.36-1.76,8.62-2.49,12.97-.13,2.11-2.09,6,1.06,6.63,1.03.25,1.83-.55,2.32-1.34-.01.37-.02.74-.03,1.09-.46,1.97-.85,4.36-.58,6.51.04,1.62.64,3.26.3,4.87-.1.64-.32,1.26-.72,1.78-.35.41-.46.5.12.12,3.21-2.55,1.92-7.37,3.78-10.72.78-1.36,1.14-3.89,1.64-6,.75-2.27,1.18-4.58,1.05-6.98.06-1.48-.2-3.34-1.79-3.92Z"/>
    <path class="cls-6" d="m471.59,482.14c-.35-.04-.5.31-.59.59-2.53,4.38-4.36,9.25-7.38,13.31-.36.37-.6.72-.97.78.11-.07-.21-.1-.3-.15-.02-.01-.03-.02-.03-.02-.15-1.89-.34-3.51-.66-5.47-.19-.81-.27-1.81-.94-2.38-.62-.4-1.24.2-1.61.67-.59.63-1.37,1.16-2.2,1.39,1.24.09,2.12-.56,3.1-.99.04.23.1.54.03.8-.12,2.28-.34,3.8-.51,5.73-.58,3.44,4.12,5,6.23,2.54,3.16-3.11,4-7.68,5.1-11.8.33-1.21.62-2.43.77-3.67.26-.45.43-1.21-.05-1.32Z"/>
    <path class="cls-6" d="m463.31,461.22c-.54-2.55-3.16-3.83-5.6-3.61-1.33-4.4-1.86-9.29-2.15-13.88-.94,4.82-1.91,10.37-1.15,15.45-.69.71-1.24,1.55-1.74,2.4-.23-1.12-.54-2.22-1.03-3.26-.82-1.51-2.15-2.65-3.52-3.64,1.63,1.87,2.61,4.27,2.24,6.77-.19,1.58-.43,3.14-.63,4.94-.1,1.13-.38,2.33.18,3.38.59,1,2.04,1.33,2.94.56,1.19-1.24.67-1.3,1.26-2.21.68-1.15,1.36-2.27,2.08-3.3.41.78.89,1.54,1.46,2.25,1.32,1.51,3.94,1.49,4.98-.31.81-1.68.96-3.72.66-5.55Z"/>
    <path class="cls-6" d="m346.1,639.1c-.29-1.69-.16-3.82-1.54-5.04-1.62-.94-3.16,1.67-4.78.85.97.93,2.51.22,3.67.09.78.1.42,1.37.54,1.95,0,2.02-.08,4.04,0,6.06.01,3.49-.85,6.94-.12,10.42.39-1.91.79-3.82,1.39-5.67,1.1-2.76,1.16-5.75.84-8.67Z"/>
    <path class="cls-6" d="m259.77,439.61c-3.21-4.42-3.91-4.55-7.11-10.39-1.05-1.78-2.2-5.46-2.57-7.2.68-.8,1.83-2.24,2.05-2.77.02-.04.04-.06.06-.09.62-.7,1.23-1.4,1.6-2.24.71-.5,1.25-1.23,1.46-2.09,0,0,0,0,0-.01,1.12-1.54,2.31-3.23,3.38-5.7,2.06-4.65,4.25-9.77,2.94-14.93-.23,3.43-2.1,6.42-4.2,9.03-.52.74-2.87,3.71-4.6,5.42-1.42,1.37-1.83,1.35-2.91,2.62-.6.22-1.16.54-1.57,1.02-.42.53-.66.88-.77,1.1-.86.64-1.58,1.42-2.34,2.17-1.08.86-2.15,1.73-2.92,2.89-1.46,2.27-.87,5.08-.58,7.6,1.05,7.15,4.8,13.79,9.92,18.82,4.29,4.1,3.89,25.01,4.68,39.27,3.24-12.66,9.79-32.37,3.47-44.51Z"/>
    <path class="cls-6" d="m487.56,360.47c-3.65-5.73-1.6-.99-5.19-8.58-.55-.65-2.77-8.51-6.08-12.16-.28-.3-.55-.57-.81-.83-1.92-4.2-3.86-8.5-5.78-12.66-1.38-2.88-2.7-5.57-3.97-8.18-.98-5.22-2.24-10.39-3.3-15.59-.77-3.38-1.91-6.66-2.99-9.96-1.2-3.82-3.14-8.21-7.18-9.66-.34-.09-.67-.13-1-.16-1.8-5.66-3.29-11.42-5.03-17.11-2.52-7.3-5.85-12.48-6.74-20.98-.21-2.15-.73-4.33-.29-6.49.54-3.33.52-7.21.09-10.7-.07,4.03-.66,7.81-1.9,11.69-.4,2.57-.3,5.2-.35,7.8-.16,6.93,2.23,13.48,3.64,20.16,1.08,5.06,1.58,10.23,2.89,15.24.3,1.15.63,2.3.96,3.44-.91.82-1.75,1.7-2.55,2.49-3.2,3.27-6.36,6.59-9.3,10.09,4.24-3.08,8.5-6.19,12.95-8.97.92,2.93,1.88,5.85,2.76,8.8,1.63,5.15,3.82,10.09,6.23,14.92.65,1.48,1.21,2.77,1.72,3.94.05.37.09.73.13,1.11-.33-2.43.06.46.18,1.47.82,5.32.21,10.72.74,16.04.57,2.15,2.3,3.43,4.31,3.89,1.15,1.09,1.77,1.74,4.62,3.67.81.69,1.62,1.39,2.32,2.19.03.04.06.07.09.11,2.18,5.15,4.31,10.14,6.28,14.71.46,2.22,1.29,4.39,2.24,6.43,4.89,9.75,16.02,3.24,10.31-6.16Z"/>
    <path class="cls-6" d="m326.16,143.06c-.22-6.14-.11-12.48,1.5-18.43-3.75,6.33-5.43,14.06-4.77,21.43-1.18-.04-2.41-.14-3.44.5-2.52,1.92-3.27,5.27-4.35,7.49-.79,1.67-1.04,4.63-2.9,5.36-.18.06-.37.11-.56.14.32.03.65.02.97-.03,1.3-.25,1.93-1.74,2.72-2.68,1.68-2.61,3.13-5.56,5.41-7.67,1.31-.22,1.84.12,2.81.27-.03-.03,0,0,.06.03.21.21.59.54.83.54,1.35.45,2.52-1.19,2.14-2.04-.11-1.13-.29-3.39-.42-4.9Z"/>
    <path class="cls-6" d="m393.18,97.69c-1.57.85-3.45,1.49-3.97,3.41-1.25,3.68-1.18,7.99.33,11.59.39.95,1.25,2.44,2.37,2.48.31-.1.53-.38.59-.69.06-1.07-.07-2.2-.46-3.21.07.81-.12,1.6-.31,2.38-.69-1.33-.69-2.91-.84-4.35.16-2.57.25-5.2.96-7.68.19-.71.94-.99,1.5-1.35,3.06-2.08,5.38-5.56,5.67-9.29-1.1,2.8-3.31,5.14-5.84,6.72Z"/>
    <path class="cls-6" d="m209.18,292.93c-.04-.61-.16-2.2-1.11-1.74-.22.22-.37.54-.63.7-.09-1.02-.21-2.06-.33-3.08-.47-3.3-1.45-15.4-6.69-13.29-1.52.93-1.92,2.75-2.48,4.32-.71,2.1-1.08,4.33-.8,6.55.57-2.6,2-4.86,3.42-7.06.21-.35.44-.69.74-.97,1.35,2.85,1.86,6.05,2.98,9,.65,1.88,1.2,3.86,2.12,5.6.79.77,1.89-.23,2.1-1.1.16.24.59.6.69,1.08Z"/>
    <path class="cls-6" d="m371.15,603.29c-.7.71-1.73.76-2.64,1.02-1.66.43-3.4.06-5.08.4-.72.1-1.48.22-2.24.32-.85-1.9-3.64-2.51-5.61-2.32-2.15.05-4.63-.09-6.16,1.69-2.61,3.58,1.93,5.7,5.08,5.6.69.02,1.44-.04,2.21-.15-1.03,1.29-2.29,2.45-3.45,3.52,2.31-.91,5.21-2.21,6.9-4.27,1.24-.36,2.36-.77,3.15-1.14,1.93-.93,4.88-1.34,7.3-3.26.69-.54,1.17-1.34,1.23-2.23.15-.75-.38.68-.67.82Z"/>
    <path class="cls-6" d="m409.79,388.53c-.31,5.66-.98,10.98-2.19,15.94-.1-.55-.29-1.07-.67-1.51-1.31-1.93-4.55-1.69-5.64.35-.96,2.44-1.63,4.99-2.17,7.57-2.12,3.01-5.55,5.73-8.67,8.06-.82.58-1.67,1.13-2.51,1.67,3.1-.81,6.14-1.85,9.04-3.2.36-.16.71-.33,1.06-.5-.55,2.97-.83,5.99-.34,9,.16,2.17,2.19,4.07,4.37,4.03,2.24.03,3.63-1.77,4.66-3.53,1.81-2.75,3.18-5.78,4.03-8.95,2.44-9.47,2.14-19.66-.96-28.93Z"/>
    <path class="cls-6" d="m218.09,581.05c-1.01-1.88-2.9-2.66-4.77-2.52-3.11-3.62-5.7,5.22-6.84,7.92.19-.21.37-.43.55-.65-1.24,3.13-2.29,5.69-3.18,8.34-1.03,0-2.04.47-2.8,1.65-.49.44-.6,3.22-.46,2.34-.28,1.81-.8,3.56-1.34,5.3-.06.17-.11.33-.16.49-.76.36-.97,1.3-.67,2.01-.29.78-.63,1.48-1.13,2.04-1.93-2.51-1.91-5.98-3.18-8.83.17,1.67.04,3.34-.03,5-.27,4.44,1.56,10.42,6.7,6.01.11-.11.21-.23.32-.34.05.23.08.47.16.69.99,2.81,4.98,3.51,7.01,1.39,1.62-1.8,1.58-4.49,2.56-6.65.8-2.56,1.53-4.56,2.22-6.44,2.84-.63,3.72-4.84,4.68-7.37.76-3.35,2.15-7.17.35-10.4Z"/>
    <path class="cls-6" d="m170.79,367.19c-1.77.21-3.39,1.44-4.86,3.23-2.15-1.45-5.56-1-6.76,1.68-.06.4-1.33,2.48-2.54,5.61-.99,2.92-1.58,5.96-2.14,8.99-.4,3.08-2.52,8.23,1.41,9.73,1.27.36,2.65-.22,3.35-1.32.61.06,1.23-.02,1.79-.3,2.64-1.05,2.68-4.41,3.43-6.76.68-2.87,1.13-5.79,1.68-8.68.9-2,1.93-4.05,1.51-6.26,0-.01,0-.02,0-.03.52-1.83,1.02-3.77,2.61-4.97.06-.06.13-.11.2-.16.18-.22.55.01.67.21.13.26.27,1.06.27.44.09-.54-.08-1.2-.66-1.37Z"/>
    <path class="cls-6" d="m291.55,241.49c-.86,2.17-1.56,4.05-2.27,5.82.03-1.29.05-2.58.03-3.87-.18-3.11-.11-6.43-1.6-9.24-1.61-2.87-5.75-3.89-8.15-1.39-3.44,4.06-2.15,10.19-1.93,15.12.57,4.33.55,8.94,2.21,13.02.27.49.63.86,1.02,1.16.1,1.5.2,3.05,1.28,4.16,1.63,1.71,4.48,1.15,5.69-.77,1.75-2.27,2.31-6.47,2.56-8.43.94-4.9,1.31-9.85,1.39-14.83-.02-.62.1-2.08-.23-.75Z"/>
    <path class="cls-6" d="m369.23,228.51c-.74-.73-2.01-.68-2.67.14-.08.11-.15.2-.21.28-.32.18-.73.63-1.34,1.47-.02.03-.05.06-.07.09-.6.64-1.16,1.32-1.68,2.03-2.36,2.66-5.27,5.25-6.95,5.79.52-5.17,2.16-11.86,2.32-18.09-1.91,4.37-4.05,8.64-5.85,13.06-.78,2.45-2.24,5.06-1.51,7.68,2.88,6.14,10.85,1.83,13.57-2.35,1.95-2.39,3.2-5.24,4.67-7.93.39-.69.3-1.61-.28-2.17Z"/>
    <path class="cls-3" d="m392.32,367.38c-.03-.13-.04-.26-.03-.39"/>
    <path class="cls-6" d="m341.32,473.23c.56-3.14-3.45-4.06-4.61-1.13-.03.08-.05.17-.07.26-.34.45-.69.95-1.03,1.48-.74-.1-1.58,0-2.51.38-3.3,2.25-7.72,8.66-2.96,11.55,2.29.91,4.14.06,5.62-1.51.13,0,.26-.04.35-.14.06-.07.09-.14.11-.22,0,0,0,0,.02,0,.03-.1.06-.2.08-.3.62-.78,1.18-1.68,1.66-2.61,1.37,2.21,2.25,4.75,3.15,7.18.16-2.5-.16-7.25-1.61-10.6.17-.44.34-.87.48-1.25.26-1.21.83-1.65,1.33-3.08Z"/>
    <path class="cls-6" d="m249.67,340.43c-1.95-3-5.27-2.35-7.2-.07-.68-1.56-1.44-3.04-2.32-4.34.47,2.31.68,4.67.82,7.03-1.16,2.81-1.6,5.88-1.5,8.93.3,2.69-.24,5.89,1.6,8.1.52.58,1.38.68,2.06.38,1.23,1.17,3.32,1.38,4.56.07,1.22-1.27,1.8-2.98,2.08-4.68.56-3.31.81-6.66.75-10.01-.1-1.8.19-3.81-.84-5.4Z"/>
    <path class="cls-6" d="m266.97,149.35c2.97-5.78,6.92-11.87,9.53-17.99-5.95,6.94-13.17,12.89-18.07,20.67-.19.35-.38.7-.58,1.05-1.91,2.46-3.14,5.43-4.41,8.26-2.8,5.92-5.36,12.02-6.35,18.53-.46,2.41,2.39,4.16,4.4,2.85.78-.43,1.21-1.24,1.49-2.05-.39,1,.87-1.85,1.36-3.11,1.06-1.99,2.26-4.07,3.52-6.12,1.61.39,3.39.2,4.89-.65,3.17-1.85,5.16-5.15,6.48-8.48,1.03-2.87,1.78-6.14.94-9.14-.58-1.95-1.77-3.21-3.2-3.83Z"/>
    <path class="cls-6" d="m180.9,505.66c-1.08-5.27-3.57-18.99-8.58-24.35-.08-.69-.17-1.38-.29-2.06-.43-3.95-1.59-7.78-3.5-11.26-1.57-2.87-5.34-4.48-7.65-1.49-1.72,2.75-1.16,6.38-.78,9.45.61,2.13,1.32,4.43,2.53,6.35-.43.58-.82,1.18-1.15,1.77-1.77,2.62-2.18,6.58.34,8.87,2.93,2.84,7.28,1.87,9.08-1.71.33-.62.58-1.27.8-1.93,3.27,4.74,6.52,11.25,9.21,16.37Z"/>
    <path class="cls-6" d="m258,219.11c-.11-1.34-.32-2.89-1.44-3.78-.74-.68-1.94-.78-2.67-.03-1.96,2.03-1.45,5.27-1.94,7.86.83-1.7,1.45-3.62,2.57-5.15-.16,1.64-.54,3.39-.83,5.04-.62,2.72-1.31,5.48-2.28,7.86-.44-2.56-.84-5.18-2.52-7.22-2.49-3.29-6.57.34-7.38,3.27,1.13-1.33,2.5-2.78,4.39-2.74.5-.07.81.23.97.67,1.38,3.3.02,6.98.71,10.4.54,4.7,5.54,4.03,7.48.58,2.09-3.33,2.88-7.35,3.09-11.24.12-1.84.03-3.69-.14-5.52Z"/>
    <path class="cls-6" d="m213.21,346.87c-6.99.17-6.97,10.41,0,10.6,6.99-.17,6.97-10.41,0-10.6Z"/>
    <path class="cls-6" d="m197.06,328.02c-6.99.17-6.97,10.41,0,10.6,6.99-.17,6.97-10.41,0-10.6Z"/>
    <path class="cls-6" d="m423.25,158.38c-6.99.17-6.97,10.41,0,10.6,6.99-.17,6.97-10.41,0-10.6Z"/>
    <path class="cls-6" d="m444.79,214.93c-6.99.17-6.97,10.41,0,10.6,6.99-.17,6.97-10.41,0-10.6Z"/>
    <path class="cls-6" d="m512.11,381.88c-6.99.17-6.97,10.41,0,10.6,6.99-.17,6.97-10.41,0-10.6Z"/>
    <path class="cls-6" d="m504.04,500.36c-6.99.17-6.97,10.41,0,10.6,6.99-.17,6.97-10.41,0-10.6Z"/>
    <path class="cls-6" d="m495.96,564.99c-6.99.17-6.97,10.41,0,10.6,6.99-.17,6.97-10.41,0-10.6Z"/>
    <path class="cls-6" d="m450.18,653.85c-6.99.17-6.97,10.41,0,10.6,6.99-.17,6.97-10.41,0-10.6Z"/>
    <path class="cls-6" d="m428.64,653.85c-6.99.17-6.97,10.41,0,10.6,6.99-.17,6.97-10.41,0-10.6Z"/>
    <path class="cls-6" d="m412.48,597.3c-6.99.17-6.97,10.41,0,10.6,6.99-.17,6.97-10.41,0-10.6Z"/>
    <path class="cls-6" d="m390.94,586.53c-6.99.17-6.97,10.41,0,10.6,6.99-.17,6.97-10.41,0-10.6Z"/>
    <path class="cls-6" d="m377.47,575.76c-6.99.17-6.97,10.41,0,10.6,6.99-.17,6.97-10.41,0-10.6Z"/>
    <path class="cls-6" d="m369.4,505.75c-6.99.17-6.97,10.41,0,10.6,6.99-.17,6.97-10.41,0-10.6Z"/>
    <path class="cls-6" d="m412.48,465.36c-6.99.17-6.97,10.41,0,10.6,6.99-.17,6.97-10.41,0-10.6Z"/>
    <path class="cls-6" d="m401.71,433.04c-6.99.17-6.97,10.41,0,10.6,6.99-.17,6.97-10.41,0-10.6Z"/>
    <path class="cls-6" d="m296.69,339.89c-1.98,0-1.97,3.02,0,3.03,1.98,0,1.97-3.02,0-3.03Z"/>
    <path class="cls-6" d="m294,372.2c-1.98,0-1.97,3.02,0,3.03,1.98,0,1.97-3.02,0-3.03Z"/>
    <path class="cls-6" d="m315.54,447.6c-1.98,0-1.97,3.02,0,3.03,1.98,0,1.97-3.02,0-3.03Z"/>
    <path class="cls-6" d="m320.93,452.99c-1.98,0-1.97,3.02,0,3.03,1.98,0,1.97-3.02,0-3.03Z"/>
    <path class="cls-6" d="m358.63,447.6c-1.98,0-1.97,3.02,0,3.03,1.98,0,1.97-3.02,0-3.03Z"/>
    <path class="cls-6" d="m355.93,417.98c-1.98,0-1.97,3.02,0,3.03,1.98,0,1.97-3.02,0-3.03Z"/>
    <path class="cls-6" d="m366.7,412.59c-1.98,0-1.97,3.02,0,3.03,1.98,0,1.97-3.02,0-3.03Z"/>
    <path class="cls-6" d="m420.56,401.82c-1.98,0-1.97,3.02,0,3.03,1.98,0,1.97-3.02,0-3.03Z"/>
    <path class="cls-6" d="m409.79,372.2c-1.98,0-1.97,3.02,0,3.03,1.98,0,1.97-3.02,0-3.03Z"/>
    <path class="cls-6" d="m396.32,337.2c-1.98,0-1.97,3.02,0,3.03,1.98,0,1.97-3.02,0-3.03Z"/>
    <path class="cls-6" d="m409.79,326.42c-1.98,0-1.97,3.02,0,3.03,1.98,0,1.97-3.02,0-3.03Z"/>
    <path class="cls-6" d="m412.48,323.73c-1.98,0-1.97,3.02,0,3.03,1.98,0,1.97-3.02,0-3.03Z"/>
    <path class="cls-6" d="m361.32,517.61c-1.98,0-1.97,3.02,0,3.03,1.98,0,1.97-3.02,0-3.03Z"/>
    <path class="cls-6" d="m288.61,520.31c-1.98,0-1.97,3.02,0,3.03,1.98,0,1.97-3.02,0-3.03Z"/>
    <path class="cls-6" d="m245.53,560.7c-1.98,0-1.97,3.02,0,3.03,1.98,0,1.97-3.02,0-3.03Z"/>
    <path class="cls-6" d="m234.76,496.07c-1.98,0-1.97,3.02,0,3.03,1.98,0,1.97-3.02,0-3.03Z"/>
    <path class="cls-6" d="m326.31,447.6c-1.98,0-1.97,3.02,0,3.03,1.98,0,1.97-3.02,0-3.03Z"/>
    <path class="cls-6" d="m223.99,447.6c-1.98,0-1.97,3.02,0,3.03,1.98,0,1.97-3.02,0-3.03Z"/>
    <path class="cls-6" d="m210.52,482.61c-1.98,0-1.97,3.02,0,3.03,1.98,0,1.97-3.02,0-3.03Z"/>
    <path class="cls-6" d="m172.82,444.91c-1.98,0-1.97,3.02,0,3.03,1.98,0,1.97-3.02,0-3.03Z"/>
    <path class="cls-6" d="m148.59,434.14c-1.98,0-1.97,3.02,0,3.03,1.98,0,1.97-3.02,0-3.03Z"/>
    <path class="cls-6" d="m170.13,533.77c-1.98,0-1.97,3.02,0,3.03,1.98,0,1.97-3.02,0-3.03Z"/>
    <path class="cls-6" d="m221.29,625.32c-1.98,0-1.97,3.02,0,3.03,1.98,0,1.97-3.02,0-3.03Z"/>
    <path class="cls-6" d="m248.22,625.32c-1.98,0-1.97,3.02,0,3.03,1.98,0,1.97-3.02,0-3.03Z"/>
    <path class="cls-6" d="m323.62,595.7c-1.98,0-1.97,3.02,0,3.03,1.98,0,1.97-3.02,0-3.03Z"/>
    <path class="cls-6" d="m377.47,493.38c-1.98,0-1.97,3.02,0,3.03,1.98,0,1.97-3.02,0-3.03Z"/>
    <path class="cls-6" d="m337.08,391.05c-1.98,0-1.97,3.02,0,3.03,1.98,0,1.97-3.02,0-3.03Z"/>
    <path class="cls-6" d="m393.63,312.96c-1.98,0-1.97,3.02,0,3.03,1.98,0,1.97-3.02,0-3.03Z"/>
    <path class="cls-1" d="m315.54,474.53c-1.98,0-1.97,3.02,0,3.03,1.98,0,1.97-3.02,0-3.03Z"/>
    <path class="cls-1" d="m318.23,509.53c-1.98,0-1.97,3.02,0,3.03,1.98,0,1.97-3.02,0-3.03Z"/>
    <path class="cls-1" d="m358.63,558.17c.37-.39.76-.86,1.03-1.29-.38.4-.72.83-1.03,1.29Z"/>
    <path class="cls-1" d="m390.94,493.38c-1.98,0-1.97,3.02,0,3.03,1.98,0,1.97-3.02,0-3.03Z"/>
    <path class="cls-1" d="m409.79,461.06c-1.98,0-1.97,3.02,0,3.03,1.98,0,1.97-3.02,0-3.03Z"/>
    <path class="cls-1" d="m420.56,447.6c-1.98,0-1.97,3.02,0,3.03,1.98,0,1.97-3.02,0-3.03Z"/>
    <path class="cls-1" d="m432.68,484.12c1.54,3.37,3.48,6.71,5.16,9.93-1.2-3.55-3.1-6.8-5.16-9.93Z"/>
    <path class="cls-1" d="m432.68,505.66c.05.1.14.25.18.31-.05-.11-.11-.21-.18-.31Z"/>
    <path class="cls-1" d="m448.83,502.97s.17-.04.17-.04c-.06,0-.11.02-.17.04Z"/>
    <path class="cls-1" d="m450.19,459.89c-.36-2.89-.68-6.41.57-8.54,0-.02.03-.05.05-.07.54.65.61,1.64.9,2.89,1.73,7.19,4.88,17.48,7.43,22.63-2.61-8.12-4.43-16.49-6.18-24.83-.14-1.04-1.03-2.13-1.64-2.45-.36-.38-1.04-.3-1.31.15-1.45,1.42-1.64,3.59-1.75,5.52,0,9.15,4.53,17.61,11.35,23.55-4.8-5.19-8.75-11.89-9.41-18.85Z"/>
    <path class="cls-1" d="m495.96,436.83c-1.98,0-1.97,3.02,0,3.03,1.98,0,1.97-3.02,0-3.03Z"/>
    <path class="cls-1" d="m506.73,434.14c-1.98,0-1.97,3.02,0,3.03,1.98,0,1.97-3.02,0-3.03Z"/>
    <path class="cls-1" d="m493.27,404.52c-1.98,0-1.97,3.02,0,3.03,1.98,0,1.97-3.02,0-3.03Z"/>
    <path class="cls-1" d="m477.11,364.12c-1.98,0-1.97,3.02,0,3.03,1.98,0,1.97-3.02,0-3.03Z"/>
    <path class="cls-1" d="m447.49,296.8c-1.98,0-1.97,3.02,0,3.03,1.98,0,1.97-3.02,0-3.03Z"/>
    <path class="cls-1" d="m292.65,236.38c4.11,5.66,10.56,11.61,14.75,16-3.18-6.41-9.13-11.61-14.75-16Z"/>
    <path class="cls-1" d="m298.04,294.28c6.68,8.54,12.54,15.13,18.72,24.15-3.99-9.58-10.71-17.65-18.72-24.15Z"/>
    <path class="cls-1" d="m342.47,321.21c6.33,3.92,13.23,6.66,20.15,9.32-6.12-4.21-13.12-7.01-20.15-9.32Z"/>
    <path class="cls-4" d="m360.16,318.61c-.07-.02-.13-.06-.19-.1"/>
    <path class="cls-1" d="m378.82,174.45c1.9.64,3.86,1.05,5.85,1.24-1.9-.64-3.86-1.05-5.85-1.24Z"/>
    <path class="cls-1" d="m404.4,162.16c-1.98,0-1.97,3.02,0,3.03,1.98,0,1.97-3.02,0-3.03Z"/>
    <path class="cls-1" d="m272.46,272.57c-1.98,0-1.97,3.02,0,3.03,1.98,0,1.97-3.02,0-3.03Z"/>
    <path class="cls-1" d="m237.68,314.72c-1.74-1.59-3.73-2.88-5.62-4.28,4.23,4.19,8.55,8.43,9.51,14.61.12-3.79-1.38-7.51-3.89-10.33Z"/>
    <path class="cls-1" d="m215.27,370.3c-1.77-2.18-4.45-3.25-6.94-4.37-3.26-1.56-6.56-3.02-9.92-4.33,4.04,2.9,8.18,5.68,12.63,7.91,1.38.79,2.22,1.26,3.19,2.39.36.07,1.38,2.84,1.99,3.68-1.27.61-2.52,1.28-3.82,1.82,1.6-.23,3.14-.7,4.7-1.08.18-.05.31-.19.37-.37-.48-1.91-1-4.02-2.21-5.64Z"/>
    <path class="cls-4" d="m187.84,406.16c-.07-.03-.14-.08-.2-.13"/>
    <path class="cls-1" d="m178.21,442.21c-1.98,0-1.97,3.02,0,3.03,1.98,0,1.97-3.02,0-3.03Z"/>
    <path class="cls-1" d="m178.21,452.99c-1.98,0-1.97,3.02,0,3.03,1.98,0,1.97-3.02,0-3.03Z"/>
    <path class="cls-1" d="m178.21,487.99c-1.98,0-1.97,3.02,0,3.03,1.98,0,1.97-3.02,0-3.03Z"/>
    <path class="cls-1" d="m183.59,523c-1.98,0-1.97,3.02,0,3.03,1.98,0,1.97-3.02,0-3.03Z"/>
    <path class="cls-1" d="m191.67,566.08c-1.98,0-1.97,3.02,0,3.03,1.98,0,1.97-3.02,0-3.03Z"/>
    <path class="cls-1" d="m218.6,619.94c-1.98,0-1.97,3.02,0,3.03,1.98,0,1.97-3.02,0-3.03Z"/>
    <path class="cls-1" d="m242.84,663.02c-1.98,0-1.97,3.02,0,3.03,1.98,0,1.97-3.02,0-3.03Z"/>
    <path class="cls-1" d="m296.69,684.57c-1.98,0-1.97,3.02,0,3.03,1.98,0,1.97-3.02,0-3.03Z"/>
    <path class="cls-1" d="m342.47,687.26c-1.98,0-1.97,3.02,0,3.03,1.98,0,1.97-3.02,0-3.03Z"/>
    <path class="cls-1" d="m372.09,695.51c2.79.94,5.69,1.51,8.62,1.72-2.79-.94-5.69-1.51-8.62-1.72Z"/>
  </g>
</svg>