<?xml version="1.0" encoding="UTF-8"?>
<svg id="Great-tit" xmlns="http://www.w3.org/2000/svg" xmlns:xlink="http://www.w3.org/1999/xlink" viewBox="0 0 612 792">
  <defs>
    <style>
      .cls-1 {
        fill: #b17b5c;
      }

      .cls-2 {
        fill: #a66a49;
      }

      .cls-3 {
        fill: #762b1e;
      }

      .cls-4 {
        fill: url(#radial-gradient);
      }
    </style>
    <radialGradient id="radial-gradient" cx="310.26" cy="386.3" fx="310.26" fy="386.3" r="303.76" gradientTransform="translate(0 -59.28) scale(1 1.16)" gradientUnits="userSpaceOnUse">
      <stop offset="0" stop-color="#c4b397"/>
      <stop offset=".51" stop-color="#c2b195"/>
      <stop offset=".69" stop-color="#bbaa8f"/>
      <stop offset=".83" stop-color="#af9f85"/>
      <stop offset=".94" stop-color="#9e8f77"/>
      <stop offset="1" stop-color="#91836c"/>
    </radialGradient>
  </defs>
  <path id="Egg" class="cls-4" d="m55.91,431.02c0-167.78,109.16-388.58,249.63-388.58s259.05,220.8,259.05,388.58-113.87,303.8-254.34,303.8S55.91,598.81,55.91,431.02Z"/>
  <path class="cls-3" d="m200.97,275.75c-1.23-1.26-2.85-2.03-4.58-2.35-1.24-1.07-2.91-1.56-4.72-1.5-.02-.2-.14-.34-.42-.33-.53.1-.99.31-1.42.56-2.93.65-5.91,2.59-7.69,5.7-3.65,4.65-3.21,10.5.09,14.01.14.7.46,1.34,1.09,1.75.2.13.41.19.61.29,4.89,8.12,20.18,4.2,21.61-6.46,1.36-5.53-.99-9.93-4.57-11.66Z"/>
  <g id="Spots">
    <path class="cls-1" d="m509.7,557.95c-.38-6.27-2.84-12.09-7.93-15.67,2.55-4.07,3.79-9.13,3.43-13.89,1.33-12.87-5.77-26.58-21.61-22.57-7.7,2.47-13.03,9.57-15.17,17.56-.11.28-.23.56-.32.84-.96,2.8-1.12,5.59-.68,8.24.24,5.52,2.07,10.82,5.81,14.75.16.15.36.25.52.39-1.06,1.54-1.94,3.18-2.68,4.83-.24-.67-.42-1.34-.75-2.01-5.58-8.88-14.43-9.06-21.35-4.79-2.86.86-5.9,2.42-9.02,4.86-7.97,6.16-12.23,19.11-2.87,26.06,6.08,4.61,13.8,4.43,20.45,1.46.8-.11,1.58-.28,2.34-.51-2.12,10.36,3.87,22.46,18.08,22.85,10.6-.26,16.62-7.03,18.14-14.76,10.27-4.05,17.21-16.87,13.61-27.62Z"/>
    <path class="cls-1" d="m406.65,601.3c-4.84-1.04-10.05.2-13.36,3.81-8.52,4.14-9.4,15.11-1.71,20.92,6.13,10.39,21.98,10.1,25.63-3.53,2.55-8.34-1.31-19.36-10.56-21.2Z"/>
    <path class="cls-1" d="m229.03,622.45c-4.88-3.28-9.91-3.75-14.31-2.53-12.61,1.65-21.55,18.54-9.35,27.8,6.44,5.08,16.76,6.69,23.39,1.13,8.58-6.09,9.7-20.56.27-26.4Z"/>
    <path class="cls-1" d="m285.65,668.24c-17.76.44-22.72,19.13-15.07,30.02.09,2,.59,4.09,1.58,6.25,1.29,2.5,3.49,4.44,6.02,5.69.49,1.19,1.19,2.33,2.35,3.27,12.19,9.42,25.2-6.62,22.25-18.85,4.41-10.94-1.28-25.95-17.11-26.39Z"/>
    <path class="cls-1" d="m333.12,550.59c-7.07-18.31-25.35-32.56-46.43-29.44-10.44-6.59-24.18-9.99-34.95-2.9-12.31,7.98-14.4,26.05-8.18,38.53.37.63.76,1.22,1.15,1.81.75,6.67,4.43,12.57,9.62,16.61,1.49,3.04,3.51,5.93,6.21,8.55,3.32,3.22,7.33,5.71,11.67,7.44.41.52.82,1.04,1.26,1.54,1.91,4.41,4.73,8.39,8.33,11.66,4.61,5.48,11.33,9.44,19.86,10.42,1.77,1.72,4.42,2.89,8.23,3.15.31.02.62,0,.93,0,3.16.53,6.46.12,9.48-1.56,1.06-.56,2.09-1.3,3.1-2.13,6.59-4.24,11.26-11.58,11.19-19.31,7.23-13.42,7.15-31.47-1.47-44.38Z"/>
    <path class="cls-1" d="m223.65,460.97c-2.66-9.23-9-16.55-16.85-20.89-1.4-10.08-7.79-18.16-16.3-21.72-12.6-10.03-33.26-7.11-41.98,7.94-5.73,10.2-3.17,19.75,3.26,26.76-.29,4.93.81,9.88,3.1,14.21-2.53,13.25,2.65,26.77,19.02,31.88,1.34.37,2.67.63,3.99.8,1.23.49,2.46.97,3.81,1.35,25.57,7.63,48.85-14.43,41.95-40.34Z"/>
    <path class="cls-1" d="m435.99,424.36c-1.47-6.44-5.12-11.89-9.91-16.07-5.89-14.47-17.69-19.2-27.71-13.92-.36-.85-.79-1.68-1.38-2.45-2.11-1.92-5-2.58-7.74-2.16-8.37-3.15-19.06,3.57-22.43,14.65-.46,1.18-.68,2.32-.71,3.42-1.05,5.91.06,11.92,3.92,15.74-10.41,2.48-17.63,11.29-20.06,21.51-5.1,5.49-8.42,13.01-8.36,22.24.16,8.91,3.59,16.15,8.78,21.31,7.69,10.62,22.82,15.74,34.56,8.36,3.45-2.17,6.21-5.04,8.48-8.27.83-.78,1.67-1.53,2.44-2.42,1.13-1.17,2.15-2.42,3.1-3.73,9.11-3.44,17.34-9.91,22.85-18.58,11.61-8.22,18.44-23.36,14.18-39.62Z"/>
    <path class="cls-1" d="m493.06,220.22c-14.18-13.61-37.49-14.77-46.29,5.13-5.3,11.81-2.13,24.27,4.59,34.71.58,3.95,2.04,7.71,4.12,11.15.08.38.09.75.19,1.13.86,4.15,2.67,7.78,5.07,10.81.79,8.15,4.66,15.91,11.83,19.7,12.96,7.22,27.75-2.69,31-16.06.82-3.23,1.21-6.56,1.22-9.9,12.38-16.86,3.18-43.38-11.73-56.66Z"/>
    <path class="cls-1" d="m197.9,238.04c-.55-.72-1.15-1.38-1.81-1.97-.55-2.4-1.49-4.69-3-6.73-.44-.65-1.19-1.16-2-1.03,1.13,1.4,1.52,3.37,1.38,5.59-1.14-.41-2.34-.69-3.69-.66-4.85.04-8.61,3.06-11.08,6.98-1.69.21-3.41,1.11-4.53,2.18-5.17,7.4-8.97,18.5-7.46,27.9,3.57,9.48,14.94,8.4,22.52,3.79,1.02.17,2.04.35,3.16.38,22.39-.56,24.47-30.11,6.52-36.43Z"/>
    <path class="cls-1" d="m267.78,205.66c8.09-10.79,3.19-30.01-14.77-30.51-24.83.62-24.77,37,0,37.68,5.38-.13,9.52-2.01,12.57-4.77,1.5,2.73,2.82,5.57,3.75,8.59.01-3.77-.55-7.44-1.55-10.99Z"/>
    <path class="cls-1" d="m254.9,308.36c-4.04-8.82-16.33-7.74-20.26.64-4.8,8.83-2.45,27.83,11.14,23.88,2.31-.62,4.34-2.53,5.89-5.02,5.01-4.79,6.41-13.21,3.23-19.5Z"/>
    <path class="cls-1" d="m351.11,323.52c.79-.68,1.63-1.29,2.52-1.73-.83,0-1.61.16-2.36.4.21-3.14-.78-5.87-3.73-6.64-5.17-3.63-11.32,2.36-12.55,7.99-1.37,2.6-2.1,5.46-1.69,8.15,1.73,5.79,9.52,5.91,13.27,1.99,2.24-2.21,3.85-5.53,4.28-8.89.1-.42.19-.85.26-1.27Z"/>
    <path class="cls-1" d="m501.83,380.46c-8.02-19.5-35.64,1.26-30.02,16.8,2.36,7.49,9.73,9.67,16.34,7.99,2.99.39,6.2-.69,8.48-3.24,4.57-5.89,6.61-14.22,5.19-21.54Z"/>
    <path class="cls-1" d="m140.04,514.56c-.45-1.83-1.41-3.39-2.65-4.67-.26-.41-.42-.87-.74-1.24-1.78-1.83-4.17-2.46-6.52-2.18-1.67-.12-3.38.11-5,.82-7.08,2.52-13.32,10-11.54,17.82.5,1.76,1.5,3.32,2.77,4.64,1.38,5.15,7.7,8.6,12.8,5.9,7.6-3.34,11.92-13.09,10.88-21.08Z"/>
    <path class="cls-1" d="m139.21,328.3c-.78-.47-1.62-.78-2.48-1-.19-.07-.41-.11-.61-.16-.08-.02-.16-.05-.25-.06-.48-.11-.98-.18-1.52-.21-1.94-1-4.21-1.36-6.4-.69-4.56,1.14-7.8,4.85-9.77,8.96-1.65,3.19-2.9,6.73-2.05,10.34.22.62.46,1.19.72,1.73.16.87.37,1.71.68,2.47-.04.43-.08.85-.07,1.27-.09,1.18-.2,2.35-.41,3.49.29-.42.53-.87.79-1.31,1.23,2.94,5.29,3.02,7.79,1.74.33-.18.56-.47.86-.69,1.24-.28,2.55-.71,4.02-1.49.36-.27.68-.59,1.01-.88,9.84-3.7,18.48-15.99,7.68-23.5Z"/>
    <path class="cls-1" d="m300.15,78.67c-2.76-8.55-13.14-6.97-17.16-.21-.08.15-.16.31-.24.47-1.23,1.62-2.21,3.58-2.87,5.76-3.28,7.19-5.56,15.62,1.15,20.89,9.19,6.6,21.03-2.32,23.25-11.94,1.4-5.12-.52-11.07-4.13-14.97Z"/>
    <path class="cls-1" d="m359.07,187.65c-.71-.26-1.82-.25-3.08-.05,1.53-5.04,1.44-12-4.44-11.28-3.38.69-5.33,3.54-6.22,6.69-1.4,4.07-2.4,8.03-2.23,11.48.33,1.45,1.63,2.54,3.05,2.85,1.29.31,2.59-.27,3.5-1.18.07-.08.12-.18.2-.26,2.45-.43,4.06-3.77,5.18-5.77.09-.19.17-.43.26-.63,1.23-.83,2.53-1.53,3.79-1.86Z"/>
    <path class="cls-1" d="m358.92,654.39c-1.86,1.1-3.52,2.73-4.88,4.65-20.77,14.36,2.76,33.9,19.06,19.8,11.45-11.07,2.26-32.73-14.19-24.45Z"/>
    <path class="cls-1" d="m234.92,672.42c-2.67.25-4.85,3.24-5.31,6.06-.26-.29-.53-.55-.76-.9-.76-1.04-.5-2.84-1.39-3.67-.13,0-.24.09-.28.21-.17.39-.12.87-.44,1.17.15-.05.22-.18.33-.28-.45,2.79-.05,5.84,2.46,7.53.78.56,1.6.82,2.41.86,1.83.97,4.13.63,5.16-1.81-.64.55-1.34.78-2,.83,3.97-2.59,6.1-9.53-.16-10.02Z"/>
    <path class="cls-1" d="m179.11,600.01c-.93-6.41-10.21-9.51-13.94-3.64-1.85,2.38-2.15,4.78-1.48,6.78-.66,1.33-.58,3.12.48,4.35,5.66,7.68,16.4.93,14.94-7.49Zm-7.08.8c.62.69.04,2.45-.76,3.54-.62-1.12-1.78-1.99-2.99-2.5,0,0,0,0,0,0,2.01-3.19,2.65-2.21,3.75-1.05Z"/>
    <path class="cls-1" d="m123.31,465.59c-1.51-2.44-3.64-3.32-5.86-3.21-.85-1.15-2.07-2.27-3.83-3.25-11.57-4.87-18.54,12.63-10.49,20.03,5.17,4.66,13.75,2.79,17.66-2.61,2.4-2.97,4.66-7.29,2.51-10.96Z"/>
    <path class="cls-1" d="m195.01,581.93c-.34.08-.75.16-1.16.24-.58-1.19-2.38-1.34-4.15.35-.24.23-.47.5-.71.75-3.07.85-6,2.14-6.64,4.47.09,1.05,1.02,1.46,1.95,1.64-.14.21-.3.45-.42.65.35-.08.77-.29,1.22-.55,3.24-.5,6.17-2.85,8.58-4.95.36-.78.44-1.45.32-1.98.33-.21.67-.4.99-.62Z"/>
    <path class="cls-1" d="m284.67,486.05c-2.22-11.34-16.22-9.52-21.53-.62-9.85,14.34,6.37,26.62,18.9,16.3,5.17-4.26,5.47-10.76,2.63-15.68Z"/>
    <path class="cls-1" d="m544.69,445.73c-3.78-10.18-13.63-6.85-16.88,1.12-3.49,2.93-6.14,10.26-6.34,13.27-1.51,9.68,5.17,14.39,11.57,11.85,4.37-.21,7.11-4.45,8.38-9.21,3.02-6.14,3.86-12.26,3.27-17.03Z"/>
    <path class="cls-1" d="m440.41,630.37c-8.74,2.9-15.52,11.74-16.47,20.84,1.43,15.2,19.69,10,23.81-.94.35-.63.61-1.26.82-1.88,1.17-2.49,2.09-5.07,2.72-7.47,1.74-6.34-4.66-12.33-10.89-10.56Z"/>
    <path class="cls-1" d="m177.71,643.31c-1.42-.94-2.91-1.41-4.34-1.5-1.41-.8-3.06-1.27-4.89-1.15-8.59.83-8.5,12.23-1.65,15.69,1.69,1.06,3.48,1.43,5.21,1.33.04,0,.07.03.11.03.05,0,.08-.04.12-.05,6.86-.58,12.45-8.9,5.44-14.34Z"/>
    <path class="cls-1" d="m190,382.96c2.37-8.87-3.37-17.6-11.72-16.85-1.1-1.82-2.59-3.37-4.33-4.25-1.07-.39-2.08-.57-3.06-.63-1.24-2.33-2.49-4.65-3.98-6.8.49,1.2.92,3.82,1.44,6.94-7.31,1.58-11.18,12.15-8.89,19.39.56,2.76,1.79,5.27,3.44,7.42,2.26,8.68,12.61,14.17,25.32,8.18,5.9-3.53,5.31-9.64,1.77-13.39Z"/>
    <path class="cls-1" d="m285.12,424.95c-2.18.68-3.35,2.78-4.17,4.78-1.74.43-2.82,2.33-4.13,3.47-1.41,1.3-3.24,2.95-2.63,5.07.26,1.27.89,2.16,1.82,2.49-.23.96-.16,1.93.54,2.87,3.77,4.1,6.74-2.14,8.25-5.15.55-.91,1.24-2.29,1.88-3.62.87-1.04,1.68-2.13,2.41-3.2,2.56-3.36.64-8.43-3.97-6.71Z"/>
    <path class="cls-1" d="m404.45,341.24c-1.36-.19-2.7.09-3.97.57.07-.64.05-1.08-.05-1.36.14-.75-.1-1.4-1.05-1.81-.4-.08-.8.09-1.09.36-.73,1.3-1.05,2.79-1.33,4.29-.41.87-.89,1.7-1.4,2.5.17-.1.41-.25.64-.42-.17.29-.41.52-.54.84-.76,1.68-1.2,3.7-.32,5.42.73,1.28,2.73,1.3,3.45,0,1.21-2.18,1.53-4.63,1.61-7.09.04-.04.06-.1.11-.14,1.37-1.25,4-3.38,5.71-1.76-.31-.79-.87-1.35-1.76-1.4Z"/>
    <path class="cls-3" d="m463.3,550.4c-24.83.62-24.77,37,0,37.68,24.83-.62,24.77-37,0-37.68Z"/>
    <path class="cls-3" d="m436.11,630.17c-24.83.62-24.77,37,0,37.68,24.83-.62,24.77-37,0-37.68Z"/>
    <path class="cls-3" d="m370.47,663.76c2.65-5.97.37-8.33-3.66-8.76,0-.05-.01-.11-.02-.16-.04-1.41-.82-2.71-1.94-3.5-.94-1.34-2.52-2.21-4.31-2.61-.75-.62-1.78-1.07-3.16-1.21-.89-.13-1.8-.14-2.69-.26.65.36,1.66.76,2.56,1.25-1.12.08-2.21.28-3.15.68-4.27,1.49-7.94,5.27-8.89,9.74-1.12,2.23-1.42,4.44-.93,6.23-9.4,10.5-4.75,31.19,13.88,31.71,19.59-.49,23.62-23.17,12.31-33.09Z"/>
    <path class="cls-3" d="m285.65,593.91c-24.83.62-24.77,37,0,37.68,24.83-.62,24.77-37,0-37.68Z"/>
    <path class="cls-3" d="m218.87,622.13c1.01-9.91-5.1-20.6-18.43-20.97-22.84.57-24.56,31.32-5.43,36.79-.4,1.83-.63,3.68-.63,5.51-.15.44-.3.89-.45,1.32-3.25,11.97,12.92,17.15,19.45,7.78,2.43-2.81,4.66-7.35,5.99-12.22,1.99-2.51,3.5-5.47,4.6-8.36,1.41-4.44-1.29-8.52-5.11-9.85Z"/>
    <path class="cls-3" d="m289.27,564.72c-15.47.25-15.43,23.26,0,23.55,15.47-.25,15.43-23.26,0-23.55Z"/>
    <path class="cls-3" d="m350,557.46c-1.15.72-2.06,1.7-2.89,2.75-.42-6.9-3.12-13.08-9.57-11.81-2.64.86-4.25,2.72-5.27,4.97-1.99,1.74-2.43,4.73-2.55,7.3-.4,4.14-1.26,8.33-.42,12.48,1.92,7.47,11.08,8.67,14.96,2,1.8-2.62,2.97-8.02,2.91-13.31.8-1.56,1.62-3.11,2.84-4.38Z"/>
    <path class="cls-3" d="m356.35,479.52c-15.47.25-15.43,23.26,0,23.55,15.47-.25,15.43-23.26,0-23.55Z"/>
    <path class="cls-3" d="m224.94,471.63c-2.12-3.68-5.94-5.22-9.74-4.97-.09,0-.17-.04-.26-.04-.29-.08-.55-.2-.87-.25-3.97-.02-6.53,2.36-8.11,5.53-.09.13-.18.24-.27.37-2.55,3.43-4.5,7.71-4.92,11.99-1.29,1.18-2.62,2.32-3.95,3.41,1.13-.58,2.43-1.17,3.77-1.8-.48,3.55,0,7.04,2.75,9.65,12.62,10.73,27.45-12.69,21.6-23.88Z"/>
    <path class="cls-3" d="m503.46,511.19c-1.93-2.35-4.45-3.2-6.93-2.87-.15-.34-.32-.67-.54-.98-1.93-2.84-6.69-2.49-8.31.51-1.72,2.32-1.57,5.43-1.46,8.19.99,5.99.77,12.29,2.22,18.13.77,2.08,2.41,3.45,4.31,4.16,4.34,4.1,11.17,3.24,13.46-5.77.28-.96.45-2.32.51-3.86,2.29-5.84,1.26-13.45-3.28-17.5Z"/>
    <path class="cls-3" d="m301.43,672.45c-1-7.97-11.35-9.24-15.63-3.17-2.86,3.93-4.83,11.97-3.51,18.03-.75,4.02-1.63,8.25-.75,12.26,3.14,7.89,10.21,6.78,14,1.92,2.9-3.42,3.48-8.14,4.47-12.38.81-5.49,2.29-11.11,1.41-16.66Z"/>
    <path class="cls-3" d="m186.89,592.87c2.7-2.92,4.76-6.07,5.4-8.92.18-.45.44-.87.59-1.34-.12.16-.27.29-.4.44.38-3.26-1.38-5.99-6.68-7.23-2.97.31-5.48,2.41-7.58,5.05-5.25-1.92-10.79,1.3-14.42,6.08-.87.58-1.7,1.21-2.39,1.9-3,2.78-3.82,6.68-3.11,10.31-2.48,2.81-2.35,6.63,2.25,8.03,1.11.3,2.25.34,3.38.21.98.58,2.05,1.04,3.23,1.29,7.39,1.93,14.01-3.02,16.91-9.54,1.15-1.65,2.06-3.4,2.64-5.13.12-.4.11-.78.18-1.17Z"/>
    <path class="cls-3" d="m166.97,464.6c-.34-8-6.28-18.92-15.55-17.3-.38.1-.71.26-1.06.4-.28-1.15-.6-2.29-1.03-3.4-.19-.28-.22-.37-.59-.58.29.34.41.73.36,1.18.17.78.04,2.04-.22,3.52-.44.27-.86.56-1.25.89-10.46,6.5-10.73,26.23.87,31.75,11,5.25,19.69-5.95,18.46-16.45Z"/>
    <path class="cls-3" d="m204.66,341.7c-.51.27-1.01.55-1.52.82-8.3,4.21-18.9,10.92-27.59,11.97-.29-.37-.61-.71-.98-1.01-1.54-1.82-3.81-2.79-7.06-2.22-5.19,1.11-7.86,5.95-9.47,10.6-1.33,3.91-3.05,8.38-1.11,12.36.85,2.04,2.16,3.42,3.69,4.3,1.07,1.93,3.21,2.91,7.02,2.18,1.83-.47,3.48-1.85,4.88-3.73,1.74-1.39,3.13-3.23,3.81-5.42,1.02-2.44,1.45-5.26,1.23-7.99,5.5-2.8,10.96-8.02,14.65-10.67,4.21-3.56,8.56-7.57,12.44-11.18Z"/>
    <path class="cls-3" d="m232.44,316.39c-.5.36-.82.84-1.17,1.3-.32.11-.62.32-.92.47.17-.03.35-.03.53-.04-1.12,1.86-1.43,4.25-1.98,6.39-.81-1.8-1.52-3.53-1.12-.89.21,1.12.2,2.51.41,3.78-.58,2.79-1.13,6.84-.88,6.76-.46,2.09-.43,4.72,1.51,6.06,1.71,1.45,4.81,1.25,6.1-.66.39-.88.72-1.84,1.07-2.78.99-.82,1.33-2.26,1.38-3.88.03-.23.03-.55.03-.86.6-2.6.88-5.24.82-7.84.17-1.03.34-2.1.53-3.32.82-3.46-3.31-6.39-6.31-4.5Z"/>
    <path class="cls-3" d="m142.58,347.36c-.04-.29-.26-.51-.53-.7-.03-.54-.1-1.08-.23-1.62-.47-1.63-1.17-2.93-2.03-3.95-.23-.57-.51-1.13-.88-1.65-.95-1-2.32-1.48-3.65-1.42-2.09-1.11-4.76-1.4-7.5-.52-8.1,1.9-12.98,12.52-8.39,18.58,2.45,3.78,7.58,5.91,12.12,3.93,0,0,0,0,0,0,2.71.23,5.52-.58,7.33-2.65,2.09-2.75,4.5-6.41,3.75-10Z"/>
    <path class="cls-3" d="m374.62,426.43c-1.02.32-2,.74-2.97,1.19,1.87-4.5,2.48-9.31-.07-13.2-4.55-4.93-10.59-1.57-14.99,2.13-1.74.67-3.39,1.6-4.57,2.42.75-.13,1.54-.29,2.36-.43,0,0-.01.01-.02.02-3.12,3.24-8.66,6.36-7.49,11.56,4.05,7.86,13.32,1.81,16.95-5.09-.42,2.06-1.22,4.82-1.96,6.43-.58,1.66-2.23,3.14-1.7,5.02,1.42,2.95,3.18,2.53,4.88,1.2.03.04.06.08.1.12.18-.19.35-.43.53-.64,1.21-1.11,2.37-2.56,3.32-3.46,1.99-1.76,3.78-3.76,5.81-5.47.25-.27.79-.52,1.18-.75.12.72.16,1.45.31,2.17.37-2.18,1.74-4.36-1.67-3.22Z"/>
    <path class="cls-3" d="m339.79,498.81c-.87-3.46-4.37-5.13-7.72-4.97-8.99.56-14.27,9.58-18.78,16.36-6.02,8.89-2.96,15.89,2.03,17.47,2.46,3.63,8.92-.64,11.41-3.68,4.28-5.18,7.72-10.99,10.98-16.85,1.21-2.59,2.94-5.4,2.08-8.34Z"/>
    <path class="cls-3" d="m245.35,655.87c-10.58,1.09-21,14.13-16.05,24.48,7.54,11.02,19.31.4,23.75-7.99.87-1.46,1.58-3.02,2.07-4.62,1.6-6.1-3.63-12.1-9.77-11.88Z"/>
    <path class="cls-3" d="m145.29,517.36c-.34-.55-.75-.98-1.2-1.37,0-.17.03-.33.02-.5-1.21-4.69-7.9-4.49-9.76-.38-.99,2.78-7.5,15.71-3.71,20.6.42.85,1.13,1.38,2.15,1.51,1.2.41,2.75.52,4.78.2,6.98-2.82,10.5-13.3,7.71-20.05Z"/>
    <path class="cls-3" d="m129.54,424.73c-1.93-3.67-4.6-3.87-7.07-2.44-.04-.52-.08-1.04-.12-1.55.63-2.78,1.2-5.62.95-8.35-.26-.44-.75-.73-1.26-.72-1.35.2-2.63,1.07-3.15,2.36-.56,1.68-.9,3.42-1.17,5.18-1.44.92-2.65,2.55-1.18,1.4.41-.25.75-.41,1.06-.5-.43,3.17-.64,6.39-.98,9.56-.1.25-.2.5-.28.75-.82,1.63-1.21,3.86-.4,5.42-.41,6.96.9,15.52,9.63,11.08,3.7-2.46,4.46-7.37,4.81-11.49.02-3.54.64-7.42-.86-10.72Z"/>
    <path class="cls-3" d="m84.37,413.06c1.04-2.52,2.24-4.91,3.68-6.97-2.07,1.44-3.8,3.19-5.43,5.05-.1-.09-.2-.15-.3-.24-.47-.71-1.02-1.34-1.67-1.83-.89-1.57-2.05-2.98-3.64-4.06-4.97-3.3-12.42-.92-15.05,4.31-3.32,7.94-6.66,25.6,2.22,30.77,1.89.81,3.56,1.08,5,.93.59.17,1.21.26,1.84.31,4.81,2.62,11.99.17,13.76-5.3,1.84-7.04,3.37-15.52.15-22.35-.18-.24-.36-.4-.54-.62Z"/>
    <path class="cls-3" d="m99.73,517.93c-.57-7.28-5.44-16.88-12.76-19.08-.25-.09-.49-.21-.75-.3-.27-.08-.53-.12-.8-.18-.23-.21-.41-.44-.67-.63-3.24-1.17-5.67-.44-7.43,1.41-6.1,2.82-10.2,10.33-9.57,17.2.77,8.15,6.25,16.4,13.92,19.59,5.09,2.9,12.04,2.3,14.66-3.78.18-.43.3-.9.45-1.35,2.55-3.62,3.77-8.38,2.95-12.87Z"/>
    <path class="cls-3" d="m141.6,630.51c2.35-.17,4.58-1.36,6.4-4.11,1.48-2.12,1.97-5.07,1.5-7.63,3-3.84,4.55-9.15,3.36-14.52-.81-4.29-3.69-7.62-7.32-9.64-1.86-2.38-4.64-3.91-8.39-3.73-3.8.31-6.79,2.09-8.97,4.63-.12.12-.22.24-.32.37-.37.46-.7.93-1.01,1.43-5.99,5.92-7.88,15.98-1.47,22.45.73.86,1.56,1.6,2.44,2.25,1.85,2.53,4.4,5.03,7.19,6.67.12.52.22,1.06.41,1.55,2.65,7.78,15.16,11.98,18.24,2.34-3.55,5.52-10.22,2.74-12.04-2.06Z"/>
    <path class="cls-3" d="m428.3,321.95c.05-.17.1-.35.16-.52,3.91-5.21,4.37-12.95,0-17.76-.3-.98-.68-1.94-1.15-2.88-3.72-6.14-10.54-6.61-15.63-3.55-.03-.31-.06-.64-.03-.83-.09.32-.1.64-.16.96-2.82,1.77-5.09,4.62-5.93,8.23-2.18,5.88-1.79,13.43,2.66,17.68.35,3.97,2.24,7.53,6.45,8.89,4.47,1.3,8.16-.85,10.67-4.16.13-.17.25-.35.37-.53,1.17-1.69,2.08-3.6,2.6-5.53Z"/>
    <path class="cls-3" d="m417.08,253.81c-.73-1.09-1.57-2.22-2.49-3.32.17-2.61-.27-5.13-1.53-7.11-.34-.32-.67-.59-1-.81-1.26-1.35-3.05-2.28-5.63-2.44-.23,0-.45.07-.68.1-.32-2.1-1.87-4.09-3.91-4.62-3.12,1.36-4.72,5.21-7.42,7.32,1.24-.64,5.28-2.49,6.96-3.69.28.61.38,1.26.12,1.99-.04.2-.09.4-.14.6-1.55,1.02-2.9,2.43-3.98,4.1-2.93,2.66-4.47,7.06-3.08,10.67-1.2,4.65-1.02,9.29,1.99,11.59,5.29,3.64,10.64.09,13.79-4.69,1.07-.97,1.97-2.12,2.58-3.41.91-2.42,1.96-5.41,1.87-8.17.94.63,1.82,1.27,2.54,1.89Z"/>
    <path class="cls-3" d="m327.62,207.96c-1.88-1.93-4.69-2.91-8.62-2.07-1.4.42-2.64,1.08-3.8,1.85-12.6,5.72-14.99,27.19-.52,30.42,2.91,1.52,6.27,2.11,9.54,1.23,15.52-5.06,15.57-25.86,3.4-31.43Z"/>
    <path class="cls-3" d="m312.67,138.6c-1.75-5.24-6.09-9.16-11.58-8.57.09-1.31-1.48-1.01-2.21-.51-.51.46-.97,1.02-1.45,1.54-.2.09-.4.15-.6.26-8.07,5.09-11.59,17.01-7.1,25.52,5.07,8.38,17.11,9.7,22.54.97,4.27-5.64,4.79-14.55.42-19.21Z"/>
    <path class="cls-3" d="m224.87,173.1c-5.65-7.4-14.98-2.71-17.18,5.27-.11.31-.19.65-.29.97-2.33,3.24-3.11,7.69-3.38,11.54.38,2.52,1.53,4.23,3.1,5.29.71,1.79,1.73,3.46,3.15,4.91,5.28,4.93,14.31,5,19.51-.08,8.66-8.75,7.43-28.9-4.9-27.91Z"/>
    <path class="cls-3" d="m514.63,284.37c-.12-3.99-.66-7.4-1.54-8.79-3.06-6.08-9.54-4.09-12.35.7-1.83,4.01-4.32,9.75-5.53,15.67-.26.87-.39,1.75-.44,2.63-.8,6.1.07,12.15,4.8,16.44,15.23,10.37,24.84-16.78,15.05-26.66Z"/>
    <path class="cls-3" d="m220.3,422.7c-3.15-5.99-11.8-7.78-16.38-2.39-1.28,1.24-2.41,3.26-3.21,5.55-.78.63-1.51,1.32-2.11,2.1-9.84,10.74,4.64,24.09,15.91,17.29,7.26-4.59,10.02-15.05,5.78-22.56Z"/>
    <path class="cls-3" d="m170.82,259.37c0-3.95-1.07-7.77-3.54-10.48-5.7-5.79-15.6-2.88-17.16,5.13-.96,4.04-1.26,8.68,1.19,12.26.46.68,1.05,1.25,1.64,1.81-.17.98-.29,1.98-.53,2.95.39-.55.67-1.16,1.02-1.72.79,4.98,3.61,8.8,10.01,6,1.94-1.33,3.55-3.27,4.77-5.52,1.52-1.17,2.73-2.83,3.34-5.12.58-2.06.17-3.86-.73-5.3Z"/>
    <path class="cls-3" d="m311.03,444.16c-3.96-2.83-7.95-5.62-11.9-8.46,2.32-4.89,2.84-10.9.43-16.38-2.03-3.11-4.95-4.3-7.93-4.23-1.34-5.3-8.56-7.81-12.63-3.53-7.14,7.42-11.24,21.6-3.65,29.99,1.04.85,2.08,1.52,3.12,2.09.5.37,1.06.6,1.65.74,7.35,3.01,14.21-.65,17.98-6.83,4.45,2.33,9.1,4.82,12.92,6.6Z"/>
    <path class="cls-3" d="m268.97,220.12c-.39-1-.88-1.95-1.65-2.77-.44-.45-.94-.79-1.46-1.07-.23-.22-.42-.46-.66-.67-1.14-.71-2.32-.99-3.48-1.06-1.49-6.57-2.3-13.46-4.17-19.67.22,6.53-.36,13.74-.11,20.75-2.36,1.44-4.09,4.09-4.25,7.1-.06.85-.11,1.74-.15,2.64-1.15,4.92-.89,10.36-.4,15.15,3.51,16.79,20.89,11.28,20.56-4.25-.1-5.39-1.31-11.4-4.23-16.16Z"/>
    <path class="cls-3" d="m431.89,457.47c-2.67-4.77-7.03-5.56-11.09-3.86-.59.1-1.19.19-1.77.42-10.63,4.06-24.55,22.77-12.34,31.85,17.87,8.68,29.94-20,25.2-28.41Z"/>
    <path class="cls-3" d="m501.79,469.85c-.72-2.83-4.12-4.21-6.75-3.19-.55-.06-1.13.08-1.67.51-.32.51-.55,1.08-.83,1.62-2.19,2.62-3.44,6.13-4.53,9.29-1.22,2.62-1.09,5.3-.08,7.04.68,3.7,4.31,6.18,8.23,3.74,3.98-3.21,4.66-9.05,5.43-13.82.13-2.83.57-2.24.2-5.19Z"/>
    <path class="cls-3" d="m539.79,443.01c-6.54-7.65-14.37,1.19-16.83,10.13-.01-1.15-.17-2.29-1.03-3.08-1.18-.01-2.34.75-3.34,1.36.42-.34,2.03-.21,2.67-.31.18,1.18-.41,2.27-.72,3.4-2.37,6.57,1.8,17.34,10.1,13.68,4.82-2.25,6.79-7.71,8.39-12.43,1.07-5.1,2.54-7.88.76-12.75Z"/>
    <path class="cls-3" d="m101.81,378.32c0-1.49-.08-2.98-.25-4.45-.41-1.03-.98-1.75-1.59-2.34,0-.66-.06-1.3-.15-1.93.27-1.48.47-2.97.32-4.45-.61-2.56-4.11-3.78-6.12-2.02-.27.27-.43.61-.65.92-6.41.89-9.35,12.9-6.22,17.81.63.91,1.51,1.44,2.47,1.73-1.71,1.6-3.41,3.18-5.21,4.37,2.21-.96,4.36-2.03,6.52-3.11,1.38,1.7,3.49,2.49,5.52,1.6,1.3,1.05,3.17,1.34,4.5.03,1.31-1.91,2.27-6.07.85-8.16Z"/>
    <path class="cls-3" d="m285.98,317.67c.35-2.14.44-4.3.01-6.38-1.1-3.38-5.05-5.82-8.53-4.63-3.88,1.45-6.19,5.36-8.18,8.78-13.27,22.57,7.7,32.04,17.15,8.61,1.16-1.97.95-4.73-.45-6.38Z"/>
    <path class="cls-3" d="m396.68,219.07c.24-5.04.12-10.98-2.3-8.72-.65,1.18-.93,2.53-1.35,3.81-3.62-7.42-9.48-5.39-13.34.75-1.96,3.64-2.3,7.83-2.88,11.85-.57,6.38-2.14,16.31,5.85,18.49,6.77,1.6,13.11-3.98,15.28-10.05,2.17-4.67,3.57-13.83-1.25-16.13Z"/>
    <path class="cls-3" d="m474.12,264.09c-2.53-4.69-6.13.56-7.49,3.32,1.88-1.34,5.56-5.09,4.78-.77-1.2,5.22-3.82,16.29-8.62,11.09-3.78-3.23-4.41-8.1-4.84-12.73-2.04-6.25-7.07.51-10.06,2.41,2.18-.55,4.18-1.68,6.36-2.19.12,0,.15-.02.25-.03.12.79.1,1.57-.17,2.39-3.09,14.5,14.77,27.55,19.97,8.94.8-3.98,1.37-8.6-.18-12.44Z"/>
    <path class="cls-2" d="m483.96,501.39c-.69-1.29-1.57-2.38-2.55-3.37-2.26-4.63-6.29-8-12.38-8.38-6.35.2-10.86,5.26-13.02,10.85-1.48,3.48-2.88,7.31-3.16,11.16-1.03,5.99-.06,12.09,3.39,15.86,1.69,6.23,5.66,11.01,12.16,11.39.78.93,1.87,1.55,3.35,1.52,3.76.44,6.04-1.91,7.52-5.44,8.7-7.77,9.41-23.52,4.68-33.59Z"/>
    <path class="cls-2" d="m403.93,492.76c-.4-1.31-.96-2.5-1.59-3.62-1.36-8.27-6.97-15.1-17.05-12.75-12.11,4.15-18.91,25.96-12.23,36.6,15.5,18.99,38.78,1.09,30.87-20.24Z"/>
    <path class="cls-2" d="m281.36,623.66c-.16-1.63-.38-3.2-.67-4.66-1.51-8.44-9.3-15.39-17.55-13.47-2.47-.1-5.07.44-7.78,1.84-1.82,1.61-3.13,3.72-3.97,6.1-3.1,2.34-5.53,5.92-6.43,10.08-3.64,13.06,4.09,30.71,18.66,32.16,3.73-.18,6.73-1.39,9.18-3.24,10.39-4.25,12.12-17.46,8.57-28.81Z"/>
    <path class="cls-2" d="m353.61,581.14c-1.49-2.39-3.98-4.04-7.88-4.16-7.94.25-15.29,7.56-19.86,16.48-1.59-.91-3.49-1.5-5.78-1.55-.1,0-.19.02-.29.03-.69-.73-1.42-1.37-2.25-1.81-3.73-1.54-9.03.66-11.42,3.73-1.26,2.12-2.17,4.51-2.78,7.03-.23.3-.46.54-.68.87-1.64,3.42-2.82,7.17-3.43,11.01-1.33-.53-2.82-.88-4.53-.91-15.47.25-15.43,23.26,0,23.55,3.45-.06,6.08-1.28,7.99-3.09,2.74,3.37,7.3,4.92,11.33,3.92-.03,5.61,3.5,11.22,10.68,11.77,1.46.52,3.12.9,5.19.97,14.78-1.55,19.99-14.74,17.67-27.18.24-.2.47-.41.7-.62,1.89-1.53,3.51-3.48,4.86-5.7,2.49-3.69,4.26-7.9,4.92-12.1,9.6-4.66,8.08-21.2-4.44-22.22Z"/>
    <path class="cls-2" d="m269.91,499.09c-1.57-3.39-4.93-5.67-8.7-6.11-3.04-5.25-8.78-7.32-14.25-2.4-4.19,3.07-7.28,11.57-6.44,18.13-.25.82-.55,1.56-.76,2.46-.13.49-.18.98-.27,1.47-.58-3.17-1.57-5.97-2.95-8.16.5-2.72.62-5.5.25-8.24-.8-10.35-12.24-14.94-20.41-8.96-2.24,1.82-4.04,3.94-5.48,6.27-6.97,2.23-12.21,8.62-11.46,19.23-.23,6.67,3.81,14.99,9.61,18.09,2.04,6.24,4.7,13.32,11.82,14.95,12.68,2.86,18.93-11.53,19.22-24.95,1.17,3.37,3.38,6.08,6.26,7.23.66.97,1.4,1.89,2.28,2.69,18.6,14.61,37.49-21.06,21.28-31.69Zm-41.68-6.71c2.56,1.14,4.05,3.97,4.71,7.42-2.92-3.03-6.41-5.09-10.03-6.2,1.35-1.31,3.09-1.9,5.32-1.22Z"/>
    <path class="cls-2" d="m215.13,432.46c-.26-.44-.55-.88-.87-1.31.18-8.61-2.1-17.29-6.54-22.16-2.13-2.44-4.82-3.88-7.65-4.59-2.01-4.81-4.61-9.36-7.87-13.36-1.88-1.96-3.74-4.56-6.1-6.09-.76-.67-1.58-1.25-2.58-1.51-2.59-.74-5.54.45-6.87,2.8-.27.59-.45,1.1-.61,1.61-1.9-.12-3.86.54-5.24,1.99-2.79,2.57-4.03,6.11-4.52,9.79-3.97,5.88-4.84,14.8,3,17.01,4.95.89,8.26-2.73,10.32-7.01.97.39,2.11.47,3.39.19,0,.01,0,.02,0,.03.04.24.06.4.09.58.05.37.08.74.13,1.1-.11.2-.27.34-.38.55-3.32,6.75-3.47,14.76-2.28,22.07.02.15.08.27.1.41.07,2.51.28,4.86.64,6.82.57,6.05,5.09,11.45,10.66,13.67.17.39.31.82.49,1.2,4.75,6.02,7.79,5.04,11.08,5.02,4.51-1.12,7.25-4.41,8.76-8.77,6.26-4.38,6.81-13.8,2.83-20.04Z"/>
    <path class="cls-2" d="m141.42,401.88c-.04-.79-.27-1.55-.9-2.25-.94-.95-2.22-1.02-3.32-.56-4.32-1.54-8.18-.9-11.45,1.14-.92-1.62-2-2.75-3.25-3.09.97,1.22,1.52,2.6,1.83,4.07-7.81,6.13-11.79,20.17-9.76,28.96,2.99,8.15,10.46,9.17,16.81,6.31,2.45.75,5.34.02,8.11-3.09,1.58-1.47,2.66-3.25,3.45-5.18.13.19.26.38.39.56-.12-.23-.21-.47-.32-.7,1.31-3.29,1.76-7.02,2.24-10.47.67-5.43-.06-11.7-3.83-15.7Z"/>
    <path class="cls-2" d="m118.78,348.4c-5.64-3.45-12.85-3.13-17.34,4.34-2.03,3.15-3.13,9.09-2.97,15.13-1.92,5.22-1.79,11.54-.1,16.53.66,2.55,1.98,4.84,3.65,6.76.21.93.59,1.82,1.27,2.67.49.41,1.29.4,2.13.27,3.74,2.35,8.38,2.93,12.83.36,7.84-5.56,9.79-15.97,11.82-24.79,2.68-10.14-.84-20.89-11.3-21.27Z"/>
    <path class="cls-2" d="m497.47,299.46c-.34-.45-.69-.83-1.05-1.18-.3-1.08-.66-2.15-1.14-3.19-.46-.81-.98-1.52-1.52-2.18-1.12-4.46-3.39-8.49-7.33-11.14-2.18-1.27-4.41-1.91-6.61-2.05-.86-1.58-2.02-2.97-3.69-4.02-3.17-2.1-7.9-3.26-10.16.72-3.82,5.89-4.8,12.69-5.22,19.56-.26,2.03-.52,4.17-.64,6.31-3.51,13.64-4.89,29.56,3.66,40.42.97.92,2.06,1.66,3.19,2.32-.5,5.09-1.34,10.16-2.29,15.19-6.57,1.99-10.25,9.97-11.72,17.75-.9,2.4-1.38,4.3-1.59,5.9-5.25-.05-10.58,2.07-15.08,7.06-9.54,6.11-15.31,18.29-12.32,29.6,1.07,3.6,2.84,6.53,5.03,8.85.81,2.25,1.9,4.31,3.27,6.14.43,2.02,1.11,3.87,2.11,5.49,6.6,10.79,22.15,8.97,29.96.48,7.98-8.52,11.4-20.68,10.39-32.24,2.05-1.42,3.77-3.29,4.89-5.55,4.28-7.82,5.12-22.46,1.21-32.91.67-2.64,1.31-5.26,2.02-7.75,1.46-3.42.93-7.71-1.21-10.26,2.17.74,4.58.98,7.25.54,9.18-2.84,12.21-13.13,12.52-21.79.9-10.66,1.52-22.49-3.96-32.08Zm-22.8,51.58c-1.51.49-2.76,1.33-3.85,2.34-.12-2.28-.29-4.61-.51-6.88,1.28.42,2.6.68,3.94.81,1.04,1.3,2.19,2.45,3.44,3.38-.92-.08-1.91-.02-3.02.35Z"/>
    <path class="cls-2" d="m536.45,284.89c-9.02-5.27-19.33.34-21.95,9.98-1.04,4.9-.98,10.12-.07,15.22-.03.35-.04.71-.06,1.07-.61,1.18-1.31,2.31-2.12,3.39.74-.54,1.39-1.18,2.05-1.8-.2,10.52,3.08,23.73,12.65,28.07.24,1.75.46,3.51.71,5.26.23-1.64.44-3.15.65-4.71,1.45.5,3.02.84,4.74.92,21.91-.22,18.05-49.41,3.39-57.4Z"/>
    <path class="cls-2" d="m540.03,464.81c0-3.77-.18-8.04-3.04-10.84-1.34-1.3-3.05-2.5-4.88-3.26-1.56-1.06-3.29-1.66-5.11-1.84-3.29-1.45-7.47-1.23-10.41.66-2.22,1.48-3.78,3.58-5.05,5.89-.69.03-1.38.31-1.9,1.02-1.44,3.23-2.16,6.9-3.11,10.33-.25,1.13-.45,2.28-.69,3.41-.61,2.27-1.08,4.57-1.39,6.9-.66,3.29-1.38,6.57-1.99,9.87-1.23,5.02-1.7,12.58,4.51,14.28,1.74.24,3.35.09,4.88-.27,4.39,2.65,10.25,2.94,14.7.11,4.07-2.79,6.48-7.07,8.03-11.72.8-1.65,1.47-3.37,1.92-5.1,2.06-6.27,3.17-12.88,3.55-19.46Z"/>
    <path class="cls-2" d="m423.54,656.13s-.08.01-.12.01c-1.61-5.81-6.58-8.11-11.74-7.6-2.46-.69-5.13-.78-7.74-.06-2.72.79-5.25,1.97-7.63,3.41-.51-.07-.99-.17-1.54-.2-13.39,1.17-23.44,12.39-30.22,23.13-3.34,4.91-4.03,10.48-2.62,15.28-1.92,4.42-1.81,9.22,2,14.06,9.41,7.36,19.9,1.86,28.24-6.25.08,0,.15.02.23.02,10.59-.35,20.2-8.35,25.96-18.36,3.12-3.24,5.54-7.32,6.88-11.3,1.02-3.51,2.95-10.65-1.7-12.13Zm-.05,9.29c.46-2.9.59-5.77.23-8.48-.01-.06-.04-.09-.05-.15,2.62,1.51,1.69,5.16-.17,8.63Z"/>
    <path class="cls-2" d="m320.95,670.23c-17.08.37-31.52,20.68-29.48,36.89.97,3.68,2.96,6.51,5.57,8.59.74,5.47,4.99,10.39,11.92,11.56,12.96,2.42,24.96-6.49,31.96-16.7,12.91-17.06,1.63-40.59-19.97-40.34Z"/>
    <path class="cls-2" d="m507.53,605.13c-.21.02-.4.09-.6.13-.22-.27-.51-.52-.8-.77,5-9.89,9.23-20.22,13.12-30.5-7.09,11.57-14.27,23.1-21.41,34.65-2.02.04-4.03.82-5.47,2.43-.14.18-.24.32-.37.48-1.47-.72-3.21-1.24-5.31-1.41-8.4.03-14.2,7.05-18.26,13.7-.7.68-1.36,1.38-2,2.11,1.26-6.15,1.33-12.61-.39-17.96.55-2.89.73-5.82.53-8.64,3.95-8.48,4.76-19.62-4.38-21.97-1.23-.04-2.32.29-3.28.88-.25-.17-.48-.33-.68-.47.17.15.37.33.59.54-1.79,1.15-3.08,3.19-3.79,5.34-2.01-.04-3.99.95-5.62,3.48-1.44,2.84-1.44,6.02-1.32,9.18-3.5-.61-7.44.33-11.18,3.3-.86.54-1.65,1.35-2.42,2.27-3.31,1.93-5.68,5.19-7.72,8.44-3.08,5.5-5.46,11.96-4.15,18.32.12.35.28.62.4.95-1.44,16.13,19.73,26.23,33.39,15.33.71-.56,1.36-1.3,2.03-2.01,0,.03-.01.06-.02.09.05,3.03,1.28,5.98,3.5,7.88h-.01s0,0,.01,0c.94.81,2.03,1.45,3.32,1.8,10.06,1.44,23.62-7.78,32.15-18.78,1.08-.95,2.04-1.99,2.78-3.01.56-.88,1.05-1.63,1.53-2.37,4.19-1.99,6.72-5.42,7.13-8.5.55-1.12.99-2.29,1.43-3.46-.12-.18.46-.71,1.6-3.53.2-.63.22-1.26.17-1.89.5-3.04-.41-5.8-4.52-6.03Z"/>
    <path class="cls-2" d="m413.86,534.13c1.6-4.31-.13-9.64-4.89-11.04-6.21-2.12-17.98,3.51-16.21,10.47-1.45,4.18.44,9.13,5.36,10.19,3.87.77,7.68-.74,10.72-3.22,2.58-1.44,4.46-3.83,5.02-6.4Z"/>
    <path class="cls-2" d="m240.08,588.57c-.32-2.34-2.31-4.42-4.92-5.75-5.85-4.93-13.68-6.68-15.35,2.7.08,3.4,1.93,6.16,4.51,8,5.14,7.27,18.24,11.64,17.53.21-.09-1.64-.76-3.42-1.77-5.15Z"/>
    <path class="cls-2" d="m188.96,661.01c-.46-1.51-1.21-2.91-2.16-4.17,0-.52-.56-1.02-1.26-1.43-1.59-1.62-3.53-2.92-5.63-3.82-5.03-2.74-11.25-3.58-15.19.37-5.67,7.64,3.66,16.01,10.74,18.21,6.54,2.75,15.35-1.17,13.5-9.16Z"/>
    <path class="cls-2" d="m106.67,425.76c-.56-.13-1.09-.21-1.61-.25-.88-.87-1.86-1.66-3.03-2.33-11.37-6.23-23.01,5.31-24.47,16.4-.91,5.13-1.09,11.57,3.9,14.65-.47,4.69,1.08,8.73,6.53,10.24,8.26,1.56,13.76-7.3,17.44-13.42,2.87-4.42,4.48-10.18,4.04-15.51,1.14-3.77,1.06-7.8-2.8-9.79Z"/>
    <path class="cls-2" d="m147.88,278.63c-.74-3.3-3.22-5.46-6.13-6.35-.72-.78-1.59-1.33-2.53-1.75-1.07-.82-2.18-1.13-3.28-.62-.35.02-.7.09-1.06.16-.58-.09-1.15-.19-1.79-.2-10.15.17-13.58,10.11-10.4,17.02-2.95,11.18-1.19,23.6,11.75,20.9,10.52-4.49,15.89-18.32,13.43-29.15Z"/>
    <path class="cls-2" d="m306.46,258.29c-2.68-12.72-17.2-19.1-27.06-9.47-8.37,8.36-14.58,23.65-9.18,34.99,4.22,7.22,11.5,8.99,17.92,6.96,2.52,2.21,5.9,3.27,10.48,2.37,14.36-5.02,10.38-23.34,7.85-34.85Z"/>
    <path class="cls-2" d="m181.73,163c-13.15,4.69-25.6,27.69-10.8,37.01,5.16,2.37,10.06,1.48,14.11-1.18.08-.02.14,0,.22-.02,15.95-3.94,18.96-43.54-3.52-35.81Z"/>
    <path class="cls-2" d="m401.16,100.28c-5.12-14.65-24.18-17.24-30.64-2.25-2.37,6.56-1.66,17.42,1.92,26.14,2.07,12.33,9.07,15.77,15.06,13.5,1.42.09,2.89.04,4.46-.35,8.04-2.51,11.54-10.32,11.7-18.73,1.28-6.05.13-12.89-2.51-18.31Z"/>
  </g>
</svg>