<?xml version="1.0" encoding="utf-8"?>
<!-- Generator: Adobe Illustrator 28.2.0, SVG Export Plug-In . SVG Version: 6.00 Build 0)  -->
<svg version="1.1" xmlns="http://www.w3.org/2000/svg" xmlns:xlink="http://www.w3.org/1999/xlink" x="0px" y="0px"
	 viewBox="0 0 612 792" style="enable-background:new 0 0 612 792;" xml:space="preserve">
<style type="text/css">
	.st0{fill:url(#Egg_00000168829528014721983250000003049006428406207127_);}
	.st1{fill:#762B1E;}
	.st2{fill:#B17B5C;}
	.st3{fill:#A66A49;}
	.st4{fill:url(#Egg_00000013904397306616436960000012808406752234254743_);}
	.st5{fill:none;stroke:#000000;stroke-width:0;stroke-linecap:round;stroke-linejoin:round;}
	.st6{fill:url(#Egg_00000065758515432989973840000009849460398828936587_);}
	.st7{fill:#492B13;}
	.st8{fill:#785B43;}
	.st9{fill:url(#SVGID_1_);}
	.st10{fill:url(#Egg_00000016035641694887074550000008983731727067472812_);}
	.st11{fill:#634F4D;}
	.st12{fill:#191923;}
	.st13{fill:none;stroke:#191923;stroke-width:0;stroke-linecap:round;stroke-linejoin:round;}
	.st14{fill:#755F4A;}
	.st15{fill:none;stroke:#755F4A;stroke-width:0;stroke-linecap:round;stroke-linejoin:round;}
	.st16{fill:url(#Egg_00000166649029783955863020000015710604823515097729_);}
</style>
<g id="Great-tit">
	
		<radialGradient id="Egg_00000066478148214829849700000001985099736906171317_" cx="306" cy="371.6923" r="228.2097" gradientTransform="matrix(1 0 0 1.1595 0 -59.2783)" gradientUnits="userSpaceOnUse">
		<stop  offset="0" style="stop-color:#C4B397"/>
		<stop  offset="0.5053" style="stop-color:#C2B195"/>
		<stop  offset="0.6938" style="stop-color:#BBAB90"/>
		<stop  offset="0.8293" style="stop-color:#AFA086"/>
		<stop  offset="0.9387" style="stop-color:#9E9077"/>
		<stop  offset="1" style="stop-color:#91836C"/>
	</radialGradient>
	<path id="Egg" style="fill:url(#Egg_00000066478148214829849700000001985099736906171317_);" d="M114.9,403.5
		c0-126.1,82-291.9,187.5-291.9s194.6,165.9,194.6,291.9S411.5,631.8,306,631.8S114.9,529.6,114.9,403.5z"/>
	<path class="st1" d="M223.9,286.9c-0.9-0.9-2.1-1.5-3.4-1.8c-0.9-0.8-2.2-1.2-3.5-1.1c0-0.1-0.1-0.3-0.3-0.2
		c-0.4,0.1-0.7,0.2-1.1,0.4c-2.2,0.5-4.4,1.9-5.8,4.3c-2.7,3.5-2.4,7.9,0.1,10.5c0.1,0.5,0.3,1,0.8,1.3c0.2,0.1,0.3,0.1,0.5,0.2
		c3.7,6.1,15.2,3.2,16.2-4.9C228.3,291.5,226.6,288.2,223.9,286.9z"/>
	<g id="Spots">
		<path class="st2" d="M455.8,498.9c-0.3-4.7-2.1-9.1-6-11.8c1.9-3.1,2.8-6.9,2.6-10.4c1-9.7-4.3-20-16.2-17
			c-5.8,1.9-9.8,7.2-11.4,13.2c-0.1,0.2-0.2,0.4-0.2,0.6c-0.7,2.1-0.8,4.2-0.5,6.2c0.2,4.1,1.6,8.1,4.4,11.1
			c0.1,0.1,0.3,0.2,0.4,0.3c-0.8,1.2-1.5,2.4-2,3.6c-0.2-0.5-0.3-1-0.6-1.5c-4.2-6.7-10.8-6.8-16-3.6c-2.2,0.6-4.4,1.8-6.8,3.7
			c-6,4.6-9.2,14.4-2.2,19.6c4.6,3.5,10.4,3.3,15.4,1.1c0.6-0.1,1.2-0.2,1.8-0.4c-1.6,7.8,2.9,16.9,13.6,17.2
			c8-0.2,12.5-5.3,13.6-11.1C453.3,516.6,458.5,507,455.8,498.9z"/>
		<path class="st2" d="M378.4,531.5c-3.6-0.8-7.6,0.1-10,2.9c-6.4,3.1-7.1,11.4-1.3,15.7c4.6,7.8,16.5,7.6,19.3-2.7
			C388.3,541.1,385.4,532.8,378.4,531.5z"/>
		<path class="st2" d="M245,547.4c-3.7-2.5-7.4-2.8-10.8-1.9c-9.5,1.2-16.2,13.9-7,20.9c4.8,3.8,12.6,5,17.6,0.9
			C251.2,562.6,252.1,551.7,245,547.4z"/>
		<path class="st2" d="M287.5,581.8c-13.3,0.3-17.1,14.4-11.3,22.6c0.1,1.5,0.4,3.1,1.2,4.7c1,1.9,2.6,3.3,4.5,4.3
			c0.4,0.9,0.9,1.7,1.8,2.5c9.2,7.1,18.9-5,16.7-14.2C303.7,593.4,299.4,582.1,287.5,581.8z"/>
		<path class="st2" d="M323.2,493.4c-5.3-13.8-19-24.5-34.9-22.1c-7.8-5-18.2-7.5-26.3-2.2c-9.3,6-10.8,19.6-6.1,28.9
			c0.3,0.5,0.6,0.9,0.9,1.4c0.6,5,3.3,9.4,7.2,12.5c1.1,2.3,2.6,4.5,4.7,6.4c2.5,2.4,5.5,4.3,8.8,5.6c0.3,0.4,0.6,0.8,0.9,1.2
			c1.4,3.3,3.6,6.3,6.3,8.8c3.5,4.1,8.5,7.1,14.9,7.8c1.3,1.3,3.3,2.2,6.2,2.4c0.2,0,0.5,0,0.7,0c2.4,0.4,4.9,0.1,7.1-1.2
			c0.8-0.4,1.6-1,2.3-1.6c5-3.2,8.5-8.7,8.4-14.5C329.7,516.6,329.6,503.1,323.2,493.4z"/>
		<path class="st2" d="M240.9,426c-2-6.9-6.8-12.4-12.7-15.7c-1.1-7.6-5.9-13.6-12.2-16.3c-9.5-7.5-25-5.3-31.5,6
			c-4.3,7.7-2.4,14.8,2.4,20.1c-0.2,3.7,0.6,7.4,2.3,10.7c-1.9,10,2,20.1,14.3,23.9c1,0.3,2,0.5,3,0.6c0.9,0.4,1.8,0.7,2.9,1
			C228.6,462.1,246.1,445.5,240.9,426z"/>
		<path class="st2" d="M400.5,398.5c-1.1-4.8-3.8-8.9-7.4-12.1c-4.4-10.9-13.3-14.4-20.8-10.5c-0.3-0.6-0.6-1.3-1-1.8
			c-1.6-1.4-3.8-1.9-5.8-1.6c-6.3-2.4-14.3,2.7-16.9,11c-0.3,0.9-0.5,1.7-0.5,2.6c-0.8,4.4,0,9,2.9,11.8
			c-7.8,1.9-13.2,8.5-15.1,16.2c-3.8,4.1-6.3,9.8-6.3,16.7c0.1,6.7,2.7,12.1,6.6,16c5.8,8,17.1,11.8,26,6.3c2.6-1.6,4.7-3.8,6.4-6.2
			c0.6-0.6,1.3-1.1,1.8-1.8c0.8-0.9,1.6-1.8,2.3-2.8c6.8-2.6,13-7.4,17.2-14C398.5,422.1,403.7,410.8,400.5,398.5z"/>
		<path class="st2" d="M443.3,245.2c-10.7-10.2-28.2-11.1-34.8,3.9c-4,8.9-1.6,18.2,3.4,26.1c0.4,3,1.5,5.8,3.1,8.4
			c0.1,0.3,0.1,0.6,0.1,0.8c0.6,3.1,2,5.8,3.8,8.1c0.6,6.1,3.5,12,8.9,14.8c9.7,5.4,20.8-2,23.3-12.1c0.6-2.4,0.9-4.9,0.9-7.4
			C461.4,275.1,454.5,255.1,443.3,245.2z"/>
		<path class="st2" d="M221.6,258.6c-0.4-0.5-0.9-1-1.4-1.5c-0.4-1.8-1.1-3.5-2.3-5.1c-0.3-0.5-0.9-0.9-1.5-0.8c0.9,1,1.1,2.5,1,4.2
			c-0.9-0.3-1.8-0.5-2.8-0.5c-3.6,0-6.5,2.3-8.3,5.2c-1.3,0.2-2.6,0.8-3.4,1.6c-3.9,5.6-6.7,13.9-5.6,21c2.7,7.1,11.2,6.3,16.9,2.8
			c0.8,0.1,1.5,0.3,2.4,0.3C233.5,285.5,235.1,263.3,221.6,258.6z"/>
		<path class="st2" d="M274.1,234.2c6.1-8.1,2.4-22.5-11.1-22.9c-18.7,0.5-18.6,27.8,0,28.3c4-0.1,7.2-1.5,9.4-3.6
			c1.1,2.1,2.1,4.2,2.8,6.5C275.3,239.7,274.8,236.9,274.1,234.2z"/>
		<path class="st2" d="M264.4,311.4c-3-6.6-12.3-5.8-15.2,0.5c-3.6,6.6-1.8,20.9,8.4,17.9c1.7-0.5,3.3-1.9,4.4-3.8
			C265.7,322.4,266.8,316.1,264.4,311.4z"/>
		<path class="st2" d="M336.7,322.8c0.6-0.5,1.2-1,1.9-1.3c-0.6,0-1.2,0.1-1.8,0.3c0.2-2.4-0.6-4.4-2.8-5c-3.9-2.7-8.5,1.8-9.4,6
			c-1,2-1.6,4.1-1.3,6.1c1.3,4.3,7.2,4.4,10,1.5c1.7-1.7,2.9-4.2,3.2-6.7C336.6,323.4,336.6,323.1,336.7,322.8z"/>
		<path class="st2" d="M449.9,365.6c-6-14.6-26.8,0.9-22.6,12.6c1.8,5.6,7.3,7.3,12.3,6c2.2,0.3,4.7-0.5,6.4-2.4
			C449.5,377.3,451,371.1,449.9,365.6z"/>
		<path class="st2" d="M178.1,466.3c-0.3-1.4-1.1-2.5-2-3.5c-0.2-0.3-0.3-0.7-0.6-0.9c-1.3-1.4-3.1-1.8-4.9-1.6
			c-1.3-0.1-2.5,0.1-3.8,0.6c-5.3,1.9-10,7.5-8.7,13.4c0.4,1.3,1.1,2.5,2.1,3.5c1,3.9,5.8,6.5,9.6,4.4
			C175.6,479.6,178.9,472.3,178.1,466.3z"/>
		<path class="st2" d="M177.5,326.4c-0.6-0.4-1.2-0.6-1.9-0.8c-0.1-0.1-0.3-0.1-0.5-0.1c-0.1,0-0.1,0-0.2,0
			c-0.4-0.1-0.7-0.1-1.1-0.2c-1.5-0.8-3.2-1-4.8-0.5c-3.4,0.9-5.9,3.6-7.3,6.7c-1.2,2.4-2.2,5.1-1.5,7.8c0.2,0.5,0.3,0.9,0.5,1.3
			c0.1,0.7,0.3,1.3,0.5,1.9c0,0.3-0.1,0.6-0.1,1c-0.1,0.9-0.1,1.8-0.3,2.6c0.2-0.3,0.4-0.7,0.6-1c0.9,2.2,4,2.3,5.9,1.3
			c0.2-0.1,0.4-0.4,0.6-0.5c0.9-0.2,1.9-0.5,3-1.1c0.3-0.2,0.5-0.4,0.8-0.7C179.1,341.2,185.6,332,177.5,326.4z"/>
		<path class="st2" d="M298.4,138.8c-2.1-6.4-9.9-5.2-12.9-0.2c-0.1,0.1-0.1,0.2-0.2,0.3c-0.9,1.2-1.7,2.7-2.2,4.3
			c-2.5,5.4-4.2,11.7,0.9,15.7c6.9,5,15.8-1.7,17.5-9C302.6,146.2,301.1,141.8,298.4,138.8z"/>
		<path class="st2" d="M342.7,220.7c-0.5-0.2-1.4-0.2-2.3,0c1.2-3.8,1.1-9-3.3-8.5c-2.5,0.5-4,2.7-4.7,5c-1.1,3.1-1.8,6-1.7,8.6
			c0.2,1.1,1.2,1.9,2.3,2.1c1,0.2,1.9-0.2,2.6-0.9c0.1-0.1,0.1-0.1,0.1-0.2c1.8-0.3,3.1-2.8,3.9-4.3c0.1-0.1,0.1-0.3,0.2-0.5
			C340.7,221.5,341.7,220.9,342.7,220.7z"/>
		<path class="st2" d="M342.6,571.4c-1.4,0.8-2.6,2.1-3.7,3.5c-15.6,10.8,2.1,25.5,14.3,14.9C361.8,581.4,354.9,565.1,342.6,571.4z"
			/>
		<path class="st2" d="M249.4,584.9c-2,0.2-3.6,2.4-4,4.6c-0.2-0.2-0.4-0.4-0.6-0.7c-0.6-0.8-0.4-2.1-1-2.8c-0.1,0-0.2,0.1-0.2,0.2
			c-0.1,0.3-0.1,0.7-0.3,0.9c0.1,0,0.2-0.1,0.2-0.2c-0.3,2.1,0,4.4,1.8,5.7c0.6,0.4,1.2,0.6,1.8,0.6c1.4,0.7,3.1,0.5,3.9-1.4
			c-0.5,0.4-1,0.6-1.5,0.6C252.5,590.5,254.1,585.3,249.4,584.9z"/>
		<path class="st2" d="M207.5,530.5c-0.7-4.8-7.7-7.1-10.5-2.7c-1.4,1.8-1.6,3.6-1.1,5.1c-0.5,1-0.4,2.3,0.4,3.3
			C200.5,541.9,208.6,536.8,207.5,530.5z M202.2,531.1c0.5,0.5,0,1.8-0.6,2.7c-0.5-0.8-1.3-1.5-2.2-1.9c0,0,0,0,0,0
			C200.8,529.5,201.3,530.2,202.2,531.1z"/>
		<path class="st2" d="M165.5,429.5c-1.1-1.8-2.7-2.5-4.4-2.4c-0.6-0.9-1.6-1.7-2.9-2.4c-8.7-3.7-13.9,9.5-7.9,15
			c3.9,3.5,10.3,2.1,13.3-2C165.5,435.5,167.2,432.3,165.5,429.5z"/>
		<path class="st2" d="M219.4,516.9c-0.3,0.1-0.6,0.1-0.9,0.2c-0.4-0.9-1.8-1-3.1,0.3c-0.2,0.2-0.4,0.4-0.5,0.6
			c-2.3,0.6-4.5,1.6-5,3.4c0.1,0.8,0.8,1.1,1.5,1.2c-0.1,0.2-0.2,0.3-0.3,0.5c0.3-0.1,0.6-0.2,0.9-0.4c2.4-0.4,4.6-2.1,6.4-3.7
			c0.3-0.6,0.3-1.1,0.2-1.5C218.9,517.2,219.2,517.1,219.4,516.9z"/>
		<path class="st2" d="M286.8,444.9c-1.7-8.5-12.2-7.2-16.2-0.5c-7.4,10.8,4.8,20,14.2,12.2C288.7,453.5,288.9,448.6,286.8,444.9z"
			/>
		<path class="st2" d="M482.1,414.6c-2.8-7.6-10.2-5.1-12.7,0.8c-2.6,2.2-4.6,7.7-4.8,10c-1.1,7.3,3.9,10.8,8.7,8.9
			c3.3-0.2,5.3-3.3,6.3-6.9C481.9,422.8,482.6,418.2,482.1,414.6z"/>
		<path class="st2" d="M403.8,553.3c-6.6,2.2-11.7,8.8-12.4,15.7c1.1,11.4,14.8,7.5,17.9-0.7c0.3-0.5,0.5-0.9,0.6-1.4
			c0.9-1.9,1.6-3.8,2-5.6C413.3,556.5,408.5,552,403.8,553.3z"/>
		<path class="st2" d="M206.4,563c-1.1-0.7-2.2-1.1-3.3-1.1c-1.1-0.6-2.3-1-3.7-0.9c-6.5,0.6-6.4,9.2-1.2,11.8
			c1.3,0.8,2.6,1.1,3.9,1c0,0,0,0,0.1,0c0,0,0.1,0,0.1,0C207.5,573.4,211.7,567.1,206.4,563z"/>
		<path class="st2" d="M215.6,367.4c1.8-6.7-2.5-13.2-8.8-12.7c-0.8-1.4-1.9-2.5-3.3-3.2c-0.8-0.3-1.6-0.4-2.3-0.5
			c-0.9-1.8-1.9-3.5-3-5.1c0.4,0.9,0.7,2.9,1.1,5.2c-5.5,1.2-8.4,9.1-6.7,14.6c0.4,2.1,1.3,4,2.6,5.6c1.7,6.5,9.5,10.6,19,6.1
			C218.7,374.8,218.3,370.2,215.6,367.4z"/>
		<path class="st2" d="M287.1,399c-1.6,0.5-2.5,2.1-3.1,3.6c-1.3,0.3-2.1,1.8-3.1,2.6c-1.1,1-2.4,2.2-2,3.8c0.2,1,0.7,1.6,1.4,1.9
			c-0.2,0.7-0.1,1.4,0.4,2.2c2.8,3.1,5.1-1.6,6.2-3.9c0.4-0.7,0.9-1.7,1.4-2.7c0.7-0.8,1.3-1.6,1.8-2.4
			C292,401.5,290.6,397.7,287.1,399z"/>
		<path class="st2" d="M376.8,336.1c-1-0.1-2,0.1-3,0.4c0.1-0.5,0-0.8,0-1c0.1-0.6-0.1-1.1-0.8-1.4c-0.3-0.1-0.6,0.1-0.8,0.3
			c-0.5,1-0.8,2.1-1,3.2c-0.3,0.7-0.7,1.3-1.1,1.9c0.1-0.1,0.3-0.2,0.5-0.3c-0.1,0.2-0.3,0.4-0.4,0.6c-0.6,1.3-0.9,2.8-0.2,4.1
			c0.5,1,2,1,2.6,0c0.9-1.6,1.1-3.5,1.2-5.3c0,0,0-0.1,0.1-0.1c1-0.9,3-2.5,4.3-1.3C377.8,336.5,377.4,336.1,376.8,336.1z"/>
		<path class="st1" d="M421,493.2c-18.7,0.5-18.6,27.8,0,28.3C439.6,521.1,439.6,493.7,421,493.2z"/>
		<path class="st1" d="M400.6,553.2c-18.7,0.5-18.6,27.8,0,28.3C419.2,581,419.2,553.7,400.6,553.2z"/>
		<path class="st1" d="M351.2,578.4c2-4.5,0.3-6.3-2.7-6.6c0,0,0-0.1,0-0.1c0-1.1-0.6-2-1.5-2.6c-0.7-1-1.9-1.7-3.2-2
			c-0.6-0.5-1.3-0.8-2.4-0.9c-0.7-0.1-1.4-0.1-2-0.2c0.5,0.3,1.2,0.6,1.9,0.9c-0.8,0.1-1.7,0.2-2.4,0.5c-3.2,1.1-6,4-6.7,7.3
			c-0.8,1.7-1.1,3.3-0.7,4.7c-7.1,7.9-3.6,23.4,10.4,23.8C356.7,602.9,359.7,585.8,351.2,578.4z"/>
		<path class="st1" d="M287.5,525.9c-18.7,0.5-18.6,27.8,0,28.3C306.2,553.8,306.1,526.4,287.5,525.9z"/>
		<path class="st1" d="M237.3,547.1c0.8-7.4-3.8-15.5-13.8-15.8c-17.2,0.4-18.5,23.5-4.1,27.6c-0.3,1.4-0.5,2.8-0.5,4.1
			c-0.1,0.3-0.2,0.7-0.3,1c-2.4,9,9.7,12.9,14.6,5.8c1.8-2.1,3.5-5.5,4.5-9.2c1.5-1.9,2.6-4.1,3.5-6.3
			C242.2,551.2,240.2,548.1,237.3,547.1z"/>
		<path class="st1" d="M290.2,504c-11.6,0.2-11.6,17.5,0,17.7C301.9,521.5,301.8,504.2,290.2,504z"/>
		<path class="st1" d="M335.9,498.5c-0.9,0.5-1.5,1.3-2.2,2.1c-0.3-5.2-2.3-9.8-7.2-8.9c-2,0.6-3.2,2-4,3.7
			c-1.5,1.3-1.8,3.6-1.9,5.5c-0.3,3.1-1,6.3-0.3,9.4c1.4,5.6,8.3,6.5,11.2,1.5c1.4-2,2.2-6,2.2-10
			C334.3,500.6,334.9,499.5,335.9,498.5z"/>
		<path class="st1" d="M340.6,440c-11.6,0.2-11.6,17.5,0,17.7C352.2,457.5,352.2,440.2,340.6,440z"/>
		<path class="st1" d="M241.9,434c-1.6-2.8-4.5-3.9-7.3-3.7c-0.1,0-0.1,0-0.2,0c-0.2-0.1-0.4-0.1-0.7-0.2c-3,0-4.9,1.8-6.1,4.2
			c-0.1,0.1-0.1,0.2-0.2,0.3c-1.9,2.6-3.4,5.8-3.7,9c-1,0.9-2,1.7-3,2.6c0.8-0.4,1.8-0.9,2.8-1.4c-0.4,2.7,0,5.3,2.1,7.2
			C235.2,460,246.3,442.5,241.9,434z"/>
		<path class="st1" d="M451.2,463.8c-1.4-1.8-3.3-2.4-5.2-2.2c-0.1-0.3-0.2-0.5-0.4-0.7c-1.4-2.1-5-1.9-6.2,0.4
			c-1.3,1.7-1.2,4.1-1.1,6.1c0.7,4.5,0.6,9.2,1.7,13.6c0.6,1.6,1.8,2.6,3.2,3.1c3.3,3.1,8.4,2.4,10.1-4.3c0.2-0.7,0.3-1.7,0.4-2.9
			C455.3,472.5,454.6,466.8,451.2,463.8z"/>
		<path class="st1" d="M299.4,584.9c-0.7-6-8.5-6.9-11.7-2.4c-2.1,3-3.6,9-2.6,13.5c-0.6,3-1.2,6.2-0.6,9.2
			c2.4,5.9,7.7,5.1,10.5,1.4c2.2-2.6,2.6-6.1,3.4-9.3C298.9,593.3,300,589.1,299.4,584.9z"/>
		<path class="st1" d="M213.3,525.1c2-2.2,3.6-4.6,4.1-6.7c0.1-0.3,0.3-0.7,0.4-1c-0.1,0.1-0.2,0.2-0.3,0.3c0.3-2.4-1-4.5-5-5.4
			c-2.2,0.2-4.1,1.8-5.7,3.8c-3.9-1.4-8.1,1-10.8,4.6c-0.7,0.4-1.3,0.9-1.8,1.4c-2.3,2.1-2.9,5-2.3,7.7c-1.9,2.1-1.8,5,1.7,6
			c0.8,0.2,1.7,0.3,2.5,0.2c0.7,0.4,1.5,0.8,2.4,1c5.6,1.5,10.5-2.3,12.7-7.2c0.9-1.2,1.6-2.6,2-3.9
			C213.3,525.7,213.3,525.4,213.3,525.1z"/>
		<path class="st1" d="M198.4,428.8c-0.3-6-4.7-14.2-11.7-13c-0.3,0.1-0.5,0.2-0.8,0.3c-0.2-0.9-0.4-1.7-0.8-2.6
			c-0.1-0.2-0.2-0.3-0.4-0.4c0.2,0.3,0.3,0.6,0.3,0.9c0.1,0.6,0,1.5-0.2,2.6c-0.3,0.2-0.6,0.4-0.9,0.7c-7.9,4.9-8.1,19.7,0.7,23.9
			C192.8,445.1,199.3,436.7,198.4,428.8z"/>
		<path class="st1" d="M226.7,336.4c-0.4,0.2-0.8,0.4-1.1,0.6c-6.2,3.2-14.2,8.2-20.7,9c-0.2-0.3-0.5-0.5-0.7-0.8
			c-1.2-1.4-2.9-2.1-5.3-1.7c-3.9,0.8-5.9,4.5-7.1,8c-1,2.9-2.3,6.3-0.8,9.3c0.6,1.5,1.6,2.6,2.8,3.2c0.8,1.4,2.4,2.2,5.3,1.6
			c1.4-0.4,2.6-1.4,3.7-2.8c1.3-1,2.4-2.4,2.9-4.1c0.8-1.8,1.1-4,0.9-6c4.1-2.1,8.2-6,11-8C220.5,342.2,223.7,339.1,226.7,336.4z"/>
		<path class="st1" d="M247.5,317.4c-0.4,0.3-0.6,0.6-0.9,1c-0.2,0.1-0.5,0.2-0.7,0.4c0.1,0,0.3,0,0.4,0c-0.8,1.4-1.1,3.2-1.5,4.8
			c-0.6-1.4-1.1-2.6-0.8-0.7c0.2,0.8,0.1,1.9,0.3,2.8c-0.4,2.1-0.8,5.1-0.7,5.1c-0.3,1.6-0.3,3.5,1.1,4.6c1.3,1.1,3.6,0.9,4.6-0.5
			c0.3-0.7,0.5-1.4,0.8-2.1c0.7-0.6,1-1.7,1-2.9c0-0.2,0-0.4,0-0.6c0.4-2,0.7-3.9,0.6-5.9c0.1-0.8,0.3-1.6,0.4-2.5
			C252.9,318.2,249.8,316,247.5,317.4z"/>
		<path class="st1" d="M180,340.7c0-0.2-0.2-0.4-0.4-0.5c0-0.4-0.1-0.8-0.2-1.2c-0.4-1.2-0.9-2.2-1.5-3c-0.2-0.4-0.4-0.8-0.7-1.2
			c-0.7-0.7-1.7-1.1-2.7-1.1c-1.6-0.8-3.6-1.1-5.6-0.4c-6.1,1.4-9.8,9.4-6.3,14c1.8,2.8,5.7,4.4,9.1,3c0,0,0,0,0,0
			c2,0.2,4.1-0.4,5.5-2C178.8,346.1,180.6,343.4,180,340.7z"/>
		<path class="st1" d="M354.4,400.1c-0.8,0.2-1.5,0.6-2.2,0.9c1.4-3.4,1.9-7-0.1-9.9c-3.4-3.7-8-1.2-11.3,1.6
			c-1.3,0.5-2.5,1.2-3.4,1.8c0.6-0.1,1.2-0.2,1.8-0.3c0,0,0,0,0,0c-2.3,2.4-6.5,4.8-5.6,8.7c3,5.9,10,1.4,12.7-3.8
			c-0.3,1.5-0.9,3.6-1.5,4.8c-0.4,1.2-1.7,2.4-1.3,3.8c1.1,2.2,2.4,1.9,3.7,0.9c0,0,0,0.1,0.1,0.1c0.1-0.1,0.3-0.3,0.4-0.5
			c0.9-0.8,1.8-1.9,2.5-2.6c1.5-1.3,2.8-2.8,4.4-4.1c0.2-0.2,0.6-0.4,0.9-0.6c0.1,0.5,0.1,1.1,0.2,1.6
			C355.9,400.9,356.9,399.2,354.4,400.1z"/>
		<path class="st1" d="M328.2,454.5c-0.7-2.6-3.3-3.9-5.8-3.7c-6.8,0.4-10.7,7.2-14.1,12.3c-4.5,6.7-2.2,11.9,1.5,13.1
			c1.8,2.7,6.7-0.5,8.6-2.8c3.2-3.9,5.8-8.3,8.3-12.7C327.5,458.8,328.8,456.7,328.2,454.5z"/>
		<path class="st1" d="M257.2,572.5c-7.9,0.8-15.8,10.6-12.1,18.4c5.7,8.3,14.5,0.3,17.8-6c0.7-1.1,1.2-2.3,1.6-3.5
			C265.8,576.8,261.9,572.3,257.2,572.5z"/>
		<path class="st1" d="M182.1,468.4c-0.3-0.4-0.6-0.7-0.9-1c0-0.1,0-0.2,0-0.4c-0.9-3.5-5.9-3.4-7.3-0.3c-0.7,2.1-5.6,11.8-2.8,15.5
			c0.3,0.6,0.8,1,1.6,1.1c0.9,0.3,2.1,0.4,3.6,0.2C181.5,481.4,184.2,473.5,182.1,468.4z"/>
		<path class="st1" d="M170.2,398.8c-1.5-2.8-3.5-2.9-5.3-1.8c0-0.4-0.1-0.8-0.1-1.2c0.5-2.1,0.9-4.2,0.7-6.3
			c-0.2-0.3-0.6-0.5-0.9-0.5c-1,0.2-2,0.8-2.4,1.8c-0.4,1.3-0.7,2.6-0.9,3.9c-1.1,0.7-2,1.9-0.9,1.1c0.3-0.2,0.6-0.3,0.8-0.4
			c-0.3,2.4-0.5,4.8-0.7,7.2c-0.1,0.2-0.1,0.4-0.2,0.6c-0.6,1.2-0.9,2.9-0.3,4.1c-0.3,5.2,0.7,11.7,7.2,8.3c2.8-1.8,3.3-5.5,3.6-8.6
			C170.9,404.2,171.4,401.3,170.2,398.8z"/>
		<path class="st1" d="M136.3,390c0.8-1.9,1.7-3.7,2.8-5.2c-1.6,1.1-2.9,2.4-4.1,3.8c-0.1-0.1-0.2-0.1-0.2-0.2
			c-0.4-0.5-0.8-1-1.3-1.4c-0.7-1.2-1.5-2.2-2.7-3.1c-3.7-2.5-9.3-0.7-11.3,3.2c-2.5,6-5,19.2,1.7,23.1c1.4,0.6,2.7,0.8,3.8,0.7
			c0.4,0.1,0.9,0.2,1.4,0.2c3.6,2,9,0.1,10.3-4c1.4-5.3,2.5-11.7,0.1-16.8C136.6,390.3,136.4,390.2,136.3,390z"/>
		<path class="st1" d="M147.8,468.8c-0.4-5.5-4.1-12.7-9.6-14.3c-0.2-0.1-0.4-0.2-0.6-0.2c-0.2-0.1-0.4-0.1-0.6-0.1
			c-0.2-0.2-0.3-0.3-0.5-0.5c-2.4-0.9-4.3-0.3-5.6,1.1c-4.6,2.1-7.7,7.8-7.2,12.9c0.6,6.1,4.7,12.3,10.5,14.7c3.8,2.2,9,1.7,11-2.8
			c0.1-0.3,0.2-0.7,0.3-1C147.5,475.8,148.5,472.2,147.8,468.8z"/>
		<path class="st1" d="M179.3,553.4c1.8-0.1,3.4-1,4.8-3.1c1.1-1.6,1.5-3.8,1.1-5.7c2.3-2.9,3.4-6.9,2.5-10.9
			c-0.6-3.2-2.8-5.7-5.5-7.2c-1.4-1.8-3.5-2.9-6.3-2.8c-2.9,0.2-5.1,1.6-6.7,3.5c-0.1,0.1-0.2,0.2-0.2,0.3c-0.3,0.3-0.5,0.7-0.8,1.1
			c-4.5,4.4-5.9,12-1.1,16.9c0.5,0.6,1.2,1.2,1.8,1.7c1.4,1.9,3.3,3.8,5.4,5c0.1,0.4,0.2,0.8,0.3,1.2c2,5.8,11.4,9,13.7,1.8
			C185.7,559.1,180.7,557,179.3,553.4z"/>
		<path class="st1" d="M394.7,321.6c0-0.1,0.1-0.3,0.1-0.4c2.9-3.9,3.3-9.7,0-13.3c-0.2-0.7-0.5-1.5-0.9-2.2
			c-2.8-4.6-7.9-5-11.7-2.7c0-0.2,0-0.5,0-0.6c-0.1,0.2-0.1,0.5-0.1,0.7c-2.1,1.3-3.8,3.5-4.5,6.2c-1.6,4.4-1.3,10.1,2,13.3
			c0.3,3,1.7,5.7,4.8,6.7c3.4,1,6.1-0.6,8-3.1c0.1-0.1,0.2-0.3,0.3-0.4C393.6,324.5,394.3,323,394.7,321.6z"/>
		<path class="st1" d="M386.3,270.4c-0.5-0.8-1.2-1.7-1.9-2.5c0.1-2-0.2-3.9-1.1-5.3c-0.3-0.2-0.5-0.4-0.8-0.6
			c-0.9-1-2.3-1.7-4.2-1.8c-0.2,0-0.3,0.1-0.5,0.1c-0.2-1.6-1.4-3.1-2.9-3.5c-2.3,1-3.5,3.9-5.6,5.5c0.9-0.5,4-1.9,5.2-2.8
			c0.2,0.5,0.3,0.9,0.1,1.5c0,0.1-0.1,0.3-0.1,0.4c-1.2,0.8-2.2,1.8-3,3.1c-2.2,2-3.4,5.3-2.3,8c-0.9,3.5-0.8,7,1.5,8.7
			c4,2.7,8,0.1,10.4-3.5c0.8-0.7,1.5-1.6,1.9-2.6c0.7-1.8,1.5-4.1,1.4-6.1C385.1,269.5,385.7,269.9,386.3,270.4z"/>
		<path class="st1" d="M319,236c-1.4-1.5-3.5-2.2-6.5-1.6c-1,0.3-2,0.8-2.9,1.4c-9.5,4.3-11.3,20.4-0.4,22.9
			c2.2,1.1,4.7,1.6,7.2,0.9C328.2,255.8,328.2,240.1,319,236z"/>
		<path class="st1" d="M307.8,183.8c-1.3-3.9-4.6-6.9-8.7-6.4c0.1-1-1.1-0.8-1.7-0.4c-0.4,0.3-0.7,0.8-1.1,1.2
			c-0.2,0.1-0.3,0.1-0.5,0.2c-6.1,3.8-8.7,12.8-5.3,19.2c3.8,6.3,12.9,7.3,16.9,0.7C310.7,194,311.1,187.3,307.8,183.8z"/>
		<path class="st1" d="M241.8,209.8c-4.2-5.6-11.3-2-12.9,4c-0.1,0.2-0.1,0.5-0.2,0.7c-1.8,2.4-2.3,5.8-2.5,8.7
			c0.3,1.9,1.2,3.2,2.3,4c0.5,1.3,1.3,2.6,2.4,3.7c4,3.7,10.7,3.8,14.7-0.1C252,224.2,251.1,209,241.8,209.8z"/>
		<path class="st1" d="M459.5,293.4c-0.1-3-0.5-5.6-1.2-6.6c-2.3-4.6-7.2-3.1-9.3,0.5c-1.4,3-3.2,7.3-4.2,11.8
			c-0.2,0.7-0.3,1.3-0.3,2c-0.6,4.6,0.1,9.1,3.6,12.4C459.7,321.2,466.9,300.8,459.5,293.4z"/>
		<path class="st1" d="M238.4,397.3c-2.4-4.5-8.9-5.8-12.3-1.8c-1,0.9-1.8,2.4-2.4,4.2c-0.6,0.5-1.1,1-1.6,1.6
			c-7.4,8.1,3.5,18.1,12,13C239.5,410.8,241.6,402.9,238.4,397.3z"/>
		<path class="st1" d="M201.2,274.6c0-3-0.8-5.8-2.7-7.9c-4.3-4.3-11.7-2.2-12.9,3.9c-0.7,3-0.9,6.5,0.9,9.2
			c0.3,0.5,0.8,0.9,1.2,1.4c-0.1,0.7-0.2,1.5-0.4,2.2c0.3-0.4,0.5-0.9,0.8-1.3c0.6,3.7,2.7,6.6,7.5,4.5c1.5-1,2.7-2.5,3.6-4.1
			c1.1-0.9,2.1-2.1,2.5-3.8C202.2,277,201.9,275.7,201.2,274.6z"/>
		<path class="st1" d="M306.6,413.4c-3-2.1-6-4.2-8.9-6.4c1.7-3.7,2.1-8.2,0.3-12.3c-1.5-2.3-3.7-3.2-6-3.2c-1-4-6.4-5.9-9.5-2.6
			c-5.4,5.6-8.4,16.2-2.7,22.5c0.8,0.6,1.6,1.1,2.3,1.6c0.4,0.3,0.8,0.5,1.2,0.6c5.5,2.3,10.7-0.5,13.5-5.1
			C300.2,410.2,303.7,412.1,306.6,413.4z"/>
		<path class="st1" d="M275,245.1c-0.3-0.8-0.7-1.5-1.2-2.1c-0.3-0.3-0.7-0.6-1.1-0.8c-0.2-0.2-0.3-0.3-0.5-0.5
			c-0.9-0.5-1.7-0.7-2.6-0.8c-1.1-4.9-1.7-10.1-3.1-14.8c0.2,4.9-0.3,10.3-0.1,15.6c-1.8,1.1-3.1,3.1-3.2,5.3c0,0.6-0.1,1.3-0.1,2
			c-0.9,3.7-0.7,7.8-0.3,11.4c2.6,12.6,15.7,8.5,15.4-3.2C278.1,253.2,277.2,248.7,275,245.1z"/>
		<path class="st1" d="M397.4,423.4c-2-3.6-5.3-4.2-8.3-2.9c-0.4,0.1-0.9,0.1-1.3,0.3c-8,3-18.4,17.1-9.3,23.9
			C391.9,451.3,400.9,429.7,397.4,423.4z"/>
		<path class="st1" d="M449.9,432.7c-0.5-2.1-3.1-3.2-5.1-2.4c-0.4,0-0.9,0.1-1.3,0.4c-0.2,0.4-0.4,0.8-0.6,1.2
			c-1.6,2-2.6,4.6-3.4,7c-0.9,2-0.8,4-0.1,5.3c0.5,2.8,3.2,4.6,6.2,2.8c3-2.4,3.5-6.8,4.1-10.4C449.8,434.5,450.2,434.9,449.9,432.7
			z"/>
		<path class="st1" d="M478.4,412.5c-4.9-5.8-10.8,0.9-12.6,7.6c0-0.9-0.1-1.7-0.8-2.3c-0.9,0-1.8,0.6-2.5,1c0.3-0.3,1.5-0.2,2-0.2
			c0.1,0.9-0.3,1.7-0.5,2.6c-1.8,4.9,1.4,13,7.6,10.3c3.6-1.7,5.1-5.8,6.3-9.3C478.7,418.3,479.8,416.2,478.4,412.5z"/>
		<path class="st1" d="M149.4,363.9c0-1.1-0.1-2.2-0.2-3.3c-0.3-0.8-0.7-1.3-1.2-1.8c0-0.5,0-1-0.1-1.4c0.2-1.1,0.4-2.2,0.2-3.3
			c-0.5-1.9-3.1-2.8-4.6-1.5c-0.2,0.2-0.3,0.5-0.5,0.7c-4.8,0.7-7,9.7-4.7,13.4c0.5,0.7,1.1,1.1,1.9,1.3c-1.3,1.2-2.6,2.4-3.9,3.3
			c1.7-0.7,3.3-1.5,4.9-2.3c1,1.3,2.6,1.9,4.2,1.2c1,0.8,2.4,1,3.4,0C149.7,368.6,150.5,365.5,149.4,363.9z"/>
		<path class="st1" d="M287.8,318.4c0.3-1.6,0.3-3.2,0-4.8c-0.8-2.5-3.8-4.4-6.4-3.5c-2.9,1.1-4.6,4-6.1,6.6
			c-10,17,5.8,24.1,12.9,6.5C289,321.7,288.8,319.6,287.8,318.4z"/>
		<path class="st1" d="M370.9,244.3c0.2-3.8,0.1-8.3-1.7-6.6c-0.5,0.9-0.7,1.9-1,2.9c-2.7-5.6-7.1-4.1-10,0.6
			c-1.5,2.7-1.7,5.9-2.2,8.9c-0.4,4.8-1.6,12.2,4.4,13.9c5.1,1.2,9.8-3,11.5-7.5C373.5,252.9,374.5,246,370.9,244.3z"/>
		<path class="st1" d="M429.1,278.1c-1.9-3.5-4.6,0.4-5.6,2.5c1.4-1,4.2-3.8,3.6-0.6c-0.9,3.9-2.9,12.2-6.5,8.3
			c-2.8-2.4-3.3-6.1-3.6-9.6c-1.5-4.7-5.3,0.4-7.6,1.8c1.6-0.4,3.1-1.3,4.8-1.6c0.1,0,0.1,0,0.2,0c0.1,0.6,0.1,1.2-0.1,1.8
			c-2.3,10.9,11.1,20.7,15,6.7C429.8,284.5,430.3,281,429.1,278.1z"/>
		<path class="st3" d="M436.5,456.4c-0.5-1-1.2-1.8-1.9-2.5c-1.7-3.5-4.7-6-9.3-6.3c-4.8,0.2-8.2,4-9.8,8.2
			c-1.1,2.6-2.2,5.5-2.4,8.4c-0.8,4.5,0,9.1,2.5,11.9c1.3,4.7,4.2,8.3,9.1,8.6c0.6,0.7,1.4,1.2,2.5,1.1c2.8,0.3,4.5-1.4,5.7-4.1
			C439.5,475.8,440.1,464,436.5,456.4z"/>
		<path class="st3" d="M376.4,449.9c-0.3-1-0.7-1.9-1.2-2.7c-1-6.2-5.2-11.3-12.8-9.6c-9.1,3.1-14.2,19.5-9.2,27.5
			C364.8,479.4,382.3,465.9,376.4,449.9z"/>
		<path class="st3" d="M284.3,548.3c-0.1-1.2-0.3-2.4-0.5-3.5c-1.1-6.3-7-11.6-13.2-10.1c-1.9-0.1-3.8,0.3-5.8,1.4
			c-1.4,1.2-2.3,2.8-3,4.6c-2.3,1.8-4.2,4.4-4.8,7.6c-2.7,9.8,3.1,23.1,14,24.2c2.8-0.1,5.1-1,6.9-2.4
			C285.7,566.7,287,556.8,284.3,548.3z"/>
		<path class="st3" d="M338.6,516.3c-1.1-1.8-3-3-5.9-3.1c-6,0.2-11.5,5.7-14.9,12.4c-1.2-0.7-2.6-1.1-4.3-1.2c-0.1,0-0.1,0-0.2,0
			c-0.5-0.5-1.1-1-1.7-1.4c-2.8-1.2-6.8,0.5-8.6,2.8c-0.9,1.6-1.6,3.4-2.1,5.3c-0.2,0.2-0.3,0.4-0.5,0.7c-1.2,2.6-2.1,5.4-2.6,8.3
			c-1-0.4-2.1-0.7-3.4-0.7c-11.6,0.2-11.6,17.5,0,17.7c2.6,0,4.6-1,6-2.3c2.1,2.5,5.5,3.7,8.5,2.9c0,4.2,2.6,8.4,8,8.8
			c1.1,0.4,2.3,0.7,3.9,0.7c11.1-1.2,15-11.1,13.3-20.4c0.2-0.2,0.4-0.3,0.5-0.5c1.4-1.1,2.6-2.6,3.7-4.3c1.9-2.8,3.2-5.9,3.7-9.1
			C349.1,529.5,348,517.1,338.6,516.3z"/>
		<path class="st3" d="M275.7,454.7c-1.2-2.5-3.7-4.3-6.5-4.6c-2.3-3.9-6.6-5.5-10.7-1.8c-3.2,2.3-5.5,8.7-4.8,13.6
			c-0.2,0.6-0.4,1.2-0.6,1.8c-0.1,0.4-0.1,0.7-0.2,1.1c-0.4-2.4-1.2-4.5-2.2-6.1c0.4-2,0.5-4.1,0.2-6.2c-0.6-7.8-9.2-11.2-15.3-6.7
			c-1.7,1.4-3,3-4.1,4.7c-5.2,1.7-9.2,6.5-8.6,14.4c-0.2,5,2.9,11.3,7.2,13.6c1.5,4.7,3.5,10,8.9,11.2c9.5,2.2,14.2-8.7,14.4-18.7
			c0.9,2.5,2.5,4.6,4.7,5.4c0.5,0.7,1,1.4,1.7,2C273.7,489.5,287.9,462.7,275.7,454.7z M244.4,449.6c1.9,0.9,3,3,3.5,5.6
			c-2.2-2.3-4.8-3.8-7.5-4.7C241.4,449.6,242.7,449.1,244.4,449.6z"/>
		<path class="st3" d="M234.5,404.6c-0.2-0.3-0.4-0.7-0.7-1c0.1-6.5-1.6-13-4.9-16.6c-1.6-1.8-3.6-2.9-5.7-3.4
			c-1.5-3.6-3.5-7-5.9-10c-1.4-1.5-2.8-3.4-4.6-4.6c-0.6-0.5-1.2-0.9-1.9-1.1c-1.9-0.6-4.2,0.3-5.2,2.1c-0.2,0.4-0.3,0.8-0.5,1.2
			c-1.4-0.1-2.9,0.4-3.9,1.5c-2.1,1.9-3,4.6-3.4,7.4c-3,4.4-3.6,11.1,2.3,12.8c3.7,0.7,6.2-2,7.8-5.3c0.7,0.3,1.6,0.4,2.5,0.1
			c0,0,0,0,0,0c0,0.2,0,0.3,0.1,0.4c0,0.3,0.1,0.6,0.1,0.8c-0.1,0.1-0.2,0.3-0.3,0.4c-2.5,5.1-2.6,11.1-1.7,16.6
			c0,0.1,0.1,0.2,0.1,0.3c0.1,1.9,0.2,3.6,0.5,5.1c0.4,4.5,3.8,8.6,8,10.3c0.1,0.3,0.2,0.6,0.4,0.9c3.6,4.5,5.9,3.8,8.3,3.8
			c3.4-0.8,5.4-3.3,6.6-6.6C237.1,416.4,237.5,409.3,234.5,404.6z"/>
		<path class="st3" d="M179.2,381.6c0-0.6-0.2-1.2-0.7-1.7c-0.7-0.7-1.7-0.8-2.5-0.4c-3.2-1.2-6.1-0.7-8.6,0.9
			c-0.7-1.2-1.5-2.1-2.4-2.3c0.7,0.9,1.1,2,1.4,3.1c-5.9,4.6-8.9,15.2-7.3,21.8c2.2,6.1,7.9,6.9,12.6,4.7c1.8,0.6,4,0,6.1-2.3
			c1.2-1.1,2-2.4,2.6-3.9c0.1,0.1,0.2,0.3,0.3,0.4c-0.1-0.2-0.2-0.4-0.2-0.5c1-2.5,1.3-5.3,1.7-7.9
			C182.5,389.4,182,384.7,179.2,381.6z"/>
		<path class="st3" d="M162.1,341.5c-4.2-2.6-9.7-2.4-13,3.3c-1.5,2.4-2.4,6.8-2.2,11.4c-1.4,3.9-1.3,8.7-0.1,12.4
			c0.5,1.9,1.5,3.6,2.7,5.1c0.2,0.7,0.4,1.4,1,2c0.4,0.3,1,0.3,1.6,0.2c2.8,1.8,6.3,2.2,9.6,0.3c5.9-4.2,7.4-12,8.9-18.6
			C172.7,349.8,170,341.8,162.1,341.5z"/>
		<path class="st3" d="M446.6,304.7c-0.3-0.3-0.5-0.6-0.8-0.9c-0.2-0.8-0.5-1.6-0.9-2.4c-0.3-0.6-0.7-1.1-1.1-1.6
			c-0.8-3.3-2.5-6.4-5.5-8.4c-1.6-1-3.3-1.4-5-1.5c-0.6-1.2-1.5-2.2-2.8-3c-2.4-1.6-5.9-2.4-7.6,0.5c-2.9,4.4-3.6,9.5-3.9,14.7
			c-0.2,1.5-0.4,3.1-0.5,4.7c-2.6,10.2-3.7,22.2,2.7,30.4c0.7,0.7,1.5,1.2,2.4,1.7c-0.4,3.8-1,7.6-1.7,11.4
			c-4.9,1.5-7.7,7.5-8.8,13.3c-0.7,1.8-1,3.2-1.2,4.4c-3.9,0-7.9,1.6-11.3,5.3c-7.2,4.6-11.5,13.7-9.3,22.2c0.8,2.7,2.1,4.9,3.8,6.6
			c0.6,1.7,1.4,3.2,2.5,4.6c0.3,1.5,0.8,2.9,1.6,4.1c5,8.1,16.6,6.7,22.5,0.4c6-6.4,8.6-15.5,7.8-24.2c1.5-1.1,2.8-2.5,3.7-4.2
			c3.2-5.9,3.8-16.9,0.9-24.7c0.5-2,1-4,1.5-5.8c1.1-2.6,0.7-5.8-0.9-7.7c1.6,0.6,3.4,0.7,5.4,0.4c6.9-2.1,9.2-9.9,9.4-16.4
			C450.3,320.8,450.8,311.9,446.6,304.7z M429.5,343.5c-1.1,0.4-2.1,1-2.9,1.8c-0.1-1.7-0.2-3.5-0.4-5.2c1,0.3,2,0.5,3,0.6
			c0.8,1,1.6,1.8,2.6,2.5C431.1,343.1,430.4,343.2,429.5,343.5z"/>
		<path class="st3" d="M475.9,293.8c-6.8-4-14.5,0.3-16.5,7.5c-0.8,3.7-0.7,7.6-0.1,11.4c0,0.3,0,0.5,0,0.8c-0.5,0.9-1,1.7-1.6,2.5
			c0.6-0.4,1-0.9,1.5-1.4c-0.2,7.9,2.3,17.8,9.5,21.1c0.2,1.3,0.3,2.6,0.5,3.9c0.2-1.2,0.3-2.4,0.5-3.5c1.1,0.4,2.3,0.6,3.6,0.7
			C489.8,336.7,486.9,299.8,475.9,293.8z"/>
		<path class="st3" d="M478.6,428.9c0-2.8-0.1-6-2.3-8.1c-1-1-2.3-1.9-3.7-2.4c-1.2-0.8-2.5-1.2-3.8-1.4c-2.5-1.1-5.6-0.9-7.8,0.5
			c-1.7,1.1-2.8,2.7-3.8,4.4c-0.5,0-1,0.2-1.4,0.8c-1.1,2.4-1.6,5.2-2.3,7.8c-0.2,0.9-0.3,1.7-0.5,2.6c-0.5,1.7-0.8,3.4-1,5.2
			c-0.5,2.5-1,4.9-1.5,7.4c-0.9,3.8-1.3,9.5,3.4,10.7c1.3,0.2,2.5,0.1,3.7-0.2c3.3,2,7.7,2.2,11,0.1c3.1-2.1,4.9-5.3,6-8.8
			c0.6-1.2,1.1-2.5,1.4-3.8C477.5,438.8,478.3,433.9,478.6,428.9z"/>
		<path class="st3" d="M391.1,572.7C391.1,572.7,391,572.7,391.1,572.7c-1.3-4.4-5-6.1-8.9-5.7c-1.9-0.5-3.9-0.6-5.8,0
			c-2,0.6-3.9,1.5-5.7,2.6c-0.4-0.1-0.7-0.1-1.2-0.2c-10.1,0.9-17.6,9.3-22.7,17.4c-2.5,3.7-3,7.9-2,11.5c-1.4,3.3-1.4,6.9,1.5,10.6
			c7.1,5.5,14.9,1.4,21.2-4.7c0.1,0,0.1,0,0.2,0c8-0.3,15.2-6.3,19.5-13.8c2.3-2.4,4.2-5.5,5.2-8.5
			C393.1,579.1,394.6,573.8,391.1,572.7z M391.1,579.6c0.3-2.2,0.4-4.3,0.2-6.4c0,0,0-0.1,0-0.1C393.2,574.3,392.5,577,391.1,579.6z
			"/>
		<path class="st3" d="M314,583.3c-12.8,0.3-23.7,15.5-22.1,27.7c0.7,2.8,2.2,4.9,4.2,6.5c0.6,4.1,3.8,7.8,9,8.7
			c9.7,1.8,18.8-4.9,24-12.5C338.7,600.7,330.3,583.1,314,583.3z"/>
		<path class="st3" d="M454.2,534.3c-0.2,0-0.3,0.1-0.4,0.1c-0.2-0.2-0.4-0.4-0.6-0.6c3.8-7.4,6.9-15.2,9.9-22.9
			c-5.3,8.7-10.7,17.4-16.1,26c-1.5,0-3,0.6-4.1,1.8c-0.1,0.1-0.2,0.2-0.3,0.4c-1.1-0.5-2.4-0.9-4-1.1c-6.3,0-10.7,5.3-13.7,10.3
			c-0.5,0.5-1,1-1.5,1.6c0.9-4.6,1-9.5-0.3-13.5c0.4-2.2,0.5-4.4,0.4-6.5c3-6.4,3.6-14.7-3.3-16.5c-0.9,0-1.7,0.2-2.5,0.7
			c-0.2-0.1-0.4-0.2-0.5-0.4c0.1,0.1,0.3,0.3,0.4,0.4c-1.3,0.9-2.3,2.4-2.8,4c-1.5,0-3,0.7-4.2,2.6c-1.1,2.1-1.1,4.5-1,6.9
			c-2.6-0.5-5.6,0.2-8.4,2.5c-0.6,0.4-1.2,1-1.8,1.7c-2.5,1.5-4.3,3.9-5.8,6.3c-2.3,4.1-4.1,9-3.1,13.8c0.1,0.3,0.2,0.5,0.3,0.7
			c-1.1,12.1,14.8,19.7,25.1,11.5c0.5-0.4,1-1,1.5-1.5c0,0,0,0,0,0.1c0,2.3,1,4.5,2.6,5.9l0,0c0,0,0,0,0,0c0.7,0.6,1.5,1.1,2.5,1.4
			c7.6,1.1,17.7-5.8,24.2-14.1c0.8-0.7,1.5-1.5,2.1-2.3c0.4-0.7,0.8-1.2,1.1-1.8c3.1-1.5,5.1-4.1,5.4-6.4c0.4-0.8,0.7-1.7,1.1-2.6
			c-0.1-0.1,0.3-0.5,1.2-2.7c0.1-0.5,0.2-0.9,0.1-1.4C458,536.6,457.3,534.5,454.2,534.3z"/>
		<path class="st3" d="M383.8,481c1.2-3.2-0.1-7.2-3.7-8.3c-4.7-1.6-13.5,2.6-12.2,7.9c-1.1,3.1,0.3,6.9,4,7.7
			c2.9,0.6,5.8-0.6,8.1-2.4C382,484.7,383.4,482.9,383.8,481z"/>
		<path class="st3" d="M253.3,521.9c-0.2-1.8-1.7-3.3-3.7-4.3c-4.4-3.7-10.3-5-11.5,2c0.1,2.6,1.4,4.6,3.4,6
			c3.9,5.5,13.7,8.7,13.2,0.2C254.5,524.5,254,523.2,253.3,521.9z"/>
		<path class="st3" d="M214.9,576.3c-0.3-1.1-0.9-2.2-1.6-3.1c0-0.4-0.4-0.8-0.9-1.1c-1.2-1.2-2.7-2.2-4.2-2.9
			c-3.8-2.1-8.5-2.7-11.4,0.3c-4.3,5.7,2.8,12,8.1,13.7C209.6,585.3,216.3,582.3,214.9,576.3z"/>
		<path class="st3" d="M153,399.6c-0.4-0.1-0.8-0.2-1.2-0.2c-0.7-0.7-1.4-1.2-2.3-1.8c-8.5-4.7-17.3,4-18.4,12.3
			c-0.7,3.9-0.8,8.7,2.9,11c-0.4,3.5,0.8,6.6,4.9,7.7c6.2,1.2,10.3-5.5,13.1-10.1c2.2-3.3,3.4-7.6,3-11.6
			C156,404.1,156,401.1,153,399.6z"/>
		<path class="st3" d="M184,289.1c-0.6-2.5-2.4-4.1-4.6-4.8c-0.5-0.6-1.2-1-1.9-1.3c-0.8-0.6-1.6-0.8-2.5-0.5
			c-0.3,0-0.5,0.1-0.8,0.1c-0.4-0.1-0.9-0.1-1.3-0.2c-7.6,0.1-10.2,7.6-7.8,12.8c-2.2,8.4-0.9,17.7,8.8,15.7
			C181.8,307.6,185.9,297.2,184,289.1z"/>
		<path class="st3" d="M303.1,273.8c-2-9.6-12.9-14.4-20.3-7.1c-6.3,6.3-11,17.8-6.9,26.3c3.2,5.4,8.6,6.8,13.5,5.2
			c1.9,1.7,4.4,2.5,7.9,1.8C308,296.2,305,282.4,303.1,273.8z"/>
		<path class="st3" d="M209.4,202.2c-9.9,3.5-19.2,20.8-8.1,27.8c3.9,1.8,7.6,1.1,10.6-0.9c0.1,0,0.1,0,0.2,0
			C224.1,226.1,226.3,196.4,209.4,202.2z"/>
		<path class="st3" d="M374.3,155.1c-3.8-11-18.2-12.9-23-1.7c-1.8,4.9-1.2,13.1,1.4,19.6c1.6,9.3,6.8,11.9,11.3,10.1
			c1.1,0.1,2.2,0,3.4-0.3c6-1.9,8.7-7.8,8.8-14.1C377.1,164.3,376.3,159.1,374.3,155.1z"/>
	</g>
</g>
<g id="Common-loon">
</g>
<g id="Layer_4">
</g>
<g id="Layer_5">
</g>
<g id="Layer_8">
</g>
<g id="Rock-bunting_1_">
</g>
<g id="Robin">
</g>
<g id="Common-murre">
</g>
<g id="Song-thrush">
</g>
</svg>
