<?xml version="1.0" encoding="utf-8"?>
<!-- Generator: Adobe Illustrator 28.2.0, SVG Export Plug-In . SVG Version: 6.00 Build 0)  -->
<svg version="1.1" xmlns="http://www.w3.org/2000/svg" xmlns:xlink="http://www.w3.org/1999/xlink" x="0px" y="0px"
	 viewBox="0 0 612 792" style="enable-background:new 0 0 612 792;" xml:space="preserve">
<style type="text/css">
	.st0{fill:url(#Egg_00000028316529352117352210000003964678875086723240_);}
	.st1{fill:#762B1E;}
	.st2{fill:#B17B5C;}
	.st3{fill:#A66A49;}
	.st4{fill:url(#Egg_00000154409527665065733420000004997896140722776748_);}
	.st5{fill:none;stroke:#000000;stroke-width:0;stroke-linecap:round;stroke-linejoin:round;}
	.st6{fill:url(#Egg_00000139253546131729912830000011931611370898041998_);}
	.st7{fill:#492B13;}
	.st8{fill:#785B43;}
	.st9{fill:url(#SVGID_1_);}
	.st10{fill:url(#Egg_00000067951592727932503020000010019366816316559010_);}
	.st11{fill:#634F4D;}
	.st12{fill:#191923;}
	.st13{fill:none;stroke:#191923;stroke-width:0;stroke-linecap:round;stroke-linejoin:round;}
	.st14{fill:#755F4A;}
	.st15{fill:none;stroke:#755F4A;stroke-width:0;stroke-linecap:round;stroke-linejoin:round;}
	.st16{fill:url(#Egg_00000017501791833426189830000005996971236819313319_);}
</style>
<g id="Great-tit">
</g>
<g id="Common-loon">
</g>
<g id="Layer_4">
</g>
<g id="Layer_5">
</g>
<g id="Layer_8">
</g>
<g id="Rock-bunting_1_">
	<g id="Rock-bunting">
		
			<radialGradient id="Egg_00000122708599871998194490000009892793725215992451_" cx="306" cy="336.0475" r="227.6598" gradientUnits="userSpaceOnUse">
			<stop  offset="0" style="stop-color:#D6BFA4"/>
			<stop  offset="0.3249" style="stop-color:#D2BCA1"/>
			<stop  offset="0.6217" style="stop-color:#C7B198"/>
			<stop  offset="0.9066" style="stop-color:#B5A088"/>
			<stop  offset="1" style="stop-color:#AD9982"/>
		</radialGradient>
		<path id="Egg_3_" style="fill:url(#Egg_00000122708599871998194490000009892793725215992451_);" d="M106,365.1
			c0-123.3,112.1-281.3,200-281.3c77.6,0,200,158,200,281.3s-89.5,223.3-200,223.3S106,488.4,106,365.1z"/>
		<g id="Dots_3_">
			<g>
				<g>
					<path class="st7" d="M265.3,523.4c-0.1,0.1-0.1,0.1-0.2,0.2C265.2,523.5,265.3,523.4,265.3,523.4z"/>
					<path class="st7" d="M391.5,558.2c0.1,0,0.1,0,0.2,0C391.8,558.2,391.7,558.2,391.5,558.2z"/>
					<path class="st7" d="M388.9,521C388.9,520.9,388.9,520.9,388.9,521C388.9,520.9,388.9,520.9,388.9,521
						C388.9,520.9,388.9,521,388.9,521C388.9,521,388.9,521,388.9,521z"/>
					<path class="st7" d="M389,521C389,521,389,521,389,521C389,521.1,389,521.1,389,521C389,521.1,389,521.1,389,521z"/>
					<g>
						<polygon class="st7" points="229.6,511.8 229.6,511.8 229.6,511.8 229.6,511.8 						"/>
						<path class="st7" d="M229.5,511.8C229.5,511.8,229.5,511.8,229.5,511.8C229.5,511.8,229.5,511.8,229.5,511.8
							C229.5,511.8,229.5,511.8,229.5,511.8C229.5,511.8,229.5,511.8,229.5,511.8z"/>
						<g>
							<path class="st7" d="M404.5,528.6C404.5,528.6,404.5,528.6,404.5,528.6C404.5,528.6,404.5,528.6,404.5,528.6
								C404.5,528.6,404.5,528.6,404.5,528.6C404.5,528.6,404.5,528.6,404.5,528.6c0.1,0,0.1,0.1,0.1,0.1
								C404.6,528.7,404.6,528.6,404.5,528.6C404.5,528.6,404.5,528.6,404.5,528.6C404.5,528.6,404.5,528.6,404.5,528.6z"/>
							<path class="st7" d="M404.4,528.6C404.5,528.6,404.5,528.6,404.4,528.6C404.5,528.6,404.4,528.5,404.4,528.6
								C404.4,528.5,404.4,528.6,404.4,528.6z"/>
							<path class="st7" d="M487,443.1c0.2,3.2,0.2,6.7-1.1,9.7c-1.6,3.2-3.8,5.2-5.5,6.5c-1,0.8-3.3,3.8-4.6,7.1
								c-2,3.6-5.7,11-8.4,15.9c-3.5-2.8-6.5,1.9-9.9,5.8c-1.8,1.9-2,2.2-4.2,3.4c-0.1,0.1-0.6,0.3-0.9,0.4
								c-0.1,0.1-0.3,0.1-0.4,0.1c-1.1-0.5-2-3.2-3.1-5.9c-1.8-3.7-2.6-7-4.5-10.5c0.2-1.9,0.4-3.5,0.8-4.3c1.2,0.4,4.1,3,6.7,3.2
								c5.9-0.1,10.8-5.2,11.2-11c0.2-2.4-0.5-4.9-1.4-7.2c-0.7-1.5-1.4-3.1-2.8-4.2c-4.9-2.2-10.8-0.8-15.6,1.3
								c4.5-1.2,10-1.6,14.2,0.3c1.2,1.1,2,3.7,2.4,6.5c0.6,1.9-0.6,6.4-2.1,7.8c-1.9,1.9-4.1,3.1-6.1,3.1c-1-0.2-0.4-0.1-1.4-0.5
								c-1.6-0.7-2.9-1.9-4.6-2.3c-2.4-0.6-3.5,1.5-3.9,3.5c-1-1.2-2.1-2.3-3.4-3.2c0.1-1.1-0.1-2.3-0.5-2.8
								c0.2,0.8,0.3,1.7,0.1,2.5c-1.5-1-3.2-1.8-5-2.4c-4.4-1-7-1-10.9-1.8c-2.2-0.4-4.4-0.6-6.6,0c-0.5,0.2-1,0.4-1.5,0.6
								c1.3-2.6,3.1-5,5.7-7.2c4-3.5,12.4-7.6,16.1-8.2c-0.2,0.5-0.8,0.9-1.1,1.3c-2.8,2.8-5.7,4.7-8.8,7c3.2-1.6,6.4-3.2,9.2-5.3
								c1.3-1,3.1-2.1,2.6-4c-1.3-3.7-13.7,2.3-16.1,3.7c-5.9,3.3-10.8,9-12.4,15.7c-1.4,1.1-2.7,2.3-3.8,3.7
								c-1.2,1.8-1.4,4-1.2,6.1c0,0.1,0,0.2,0,0.4c-1.2,0.4-2.4,0.8-3.5,1.2c-3.4,1-9,5.3-10.3,6.5c-3.4,2.5-4.9,2.6-9.1,2.8
								c-2.6,0.3-5.2,0.3-7.8,0.3c-0.9-0.4-1.7-0.9-2.5-1.3c-3.3-1.9-6.9-7.3-11.4-9.8c-1.8-0.9-3.6-1.9-5.4-3
								c0.2-0.1,0.3-0.3,0.5-0.4c3.1-2.5,4.3-1.2,10,1c1.1,0.2,2.3,0.2,3.1-0.5c1.5-1.4,2.1-3.4,2.9-4c1.4-1.7,2.8-2,4.8-4.2
								c2.4-3,4-6.1,6.3-7.5c1.6-0.7,1-0.5,3.3-1c0.3,0,0.4-0.1,0.4-0.1c1.1,0,2.2-0.9,2-2c-0.1-0.6-0.5-1.2-1.1-1.4
								c-1.9-0.9-3.6-2.2-5.5-3.2c-8.1-4.3-15.9-9.1-24.5-12.3c-4.4-1.8-9.3-3.5-14.1-2.3c-1.3,0.2-4.6,1.8-4.7,2.1
								c0.8-0.4,1.6-0.7,2.4-0.9c7.7-2.1,14.6,3.4,21.2,6.6c6.6,3.6,13.2,7.3,19.8,11c-3.2,1.4-5.1,4.6-7.1,7.3
								c-1.4,2.6-3.9,3-6.4,6.3c-0.6,0.8-1.1,1.6-1.6,2.5c0,0.1-0.1,0.1-0.1,0.2c0,0,0,0-0.1,0c-0.5,0.1-2-0.9-4.2-1.8
								c-4.2-2-7.5,0.1-10.5,2.5c-4.8-3-9.8-5.8-15.6-6c-3.8-0.5-8.8-0.6-11-1.1c-2.2-0.4-4.3-1.2-6.5-1.5c-0.9-0.1-1.8,0.2-2.8,0.2
								c0,0-0.1,0-0.1,0c-0.1,0-0.2-0.1-0.3-0.1c-1.9-0.9-2.8-2.3-5.1-4c-4.1-3.1-8.6-6-13.8-6.6c-1.4-0.2-2.9-0.4-4.4,0
								c-0.6,0.1-2.2,0.8-2.7,1.1c-4.1,1.1-8.8,4.9-11.3,5.8c-3.8,1.5-8,2.3-11.4,4.7c-4.4,3.1-6.7,8.9-9.5,11.7
								c-5.9,6.9-17.4,0.8-24.3-5.2c-3.9-3.5-6.9-6.8-9.6-10.1c-1.4-1.5-3.2-2.8-4.5-4.4c-1.6-2.7-1.5-5.9-1.9-10.2
								c-0.1-2.7,0.5-5.5,0-8.2c-1.1-7.4-6.1-13.5-11.2-18.8c-3.5-3.9-7.1-7.7-11.4-10.6c-5.4-2.3-10.8-6.1-16.8-6.1
								c-3.2,0.5-5,3.2-6.3,3.6c-0.3,0.1-0.6,0.2-0.9,0.2c-0.2,0-0.4,0-0.7,0c0,0,0,0,0,0c0,0,0,0-0.1,0c-0.2-0.1-0.6-0.3-0.8-0.5
								c-2.3-1.6-1.3-0.8-4-3.4c-6.9-6.4-10.4-16.8-15-26c-0.4-0.7-0.7-1.7-1-2.3c0.2,0.7,0.3,1.4,0.5,2c3.3,10.8,6,22.9,14.9,30.5
								c4,3.5,6.7,4.8,12,0.4c1.6-2.3,6.3-0.2,11.1,2.1c6.2,2.5,10,5.9,14.8,11.2c4.2,4.5,7,7.2,9.7,12.7c0.9,1.9,1.9,4.8,1.9,6.7
								c0,3.7-0.4,7.4,0.2,11.1c0.4,8.9,5.2,9.7,8.7,14.5c7.4,8.6,20,20.3,32.3,16.7c7.2-2.8,8.9-10.8,13.9-14.6
								c1.7-1.5,7.9-3.2,12.2-5c4.8-2.9,8.8-5.2,12.5-6.2c0.7-0.1,4.2,0.2,6.8,1.2c0.1,0.1,3.1,1.4,3.6,1.8c1,0.5,5,3.5,4.5,3.1
								c2,1.5,3.7,3.6,6.1,4.5c1.3,0.5,2.6,0.2,3.9,0.1c0.8,0,4.7,1.3,7.1,1.6c4.7,0.6,10.8,0.8,13.9,1.4c3.4,0.7,6.5,2.4,9.7,4.3
								c-0.8,0.7-1.6,1.2-2.4,1.6c-4.6,2.7-7.2,4.1-11.9,5.7c-4.1,1.7-8.1,3.5-12.4,4.8c-4.1,1.1-10.4,1.4-14,2
								c-4.7,0.5-9.4,0.6-14,2c-3.9,1-8.4,5-10.8,5.7c-3.1,1.1-8.5-0.5-13.1,0.1c-6.4,1.2-12.6,3.4-18.9,4.8
								c-5.6,1.8-11.2,3.7-16.9,4.8c-1,0.2-1.8,0.4-2.6,0.7c-2.4-2.3-4.9-4.5-7.7-6.3c-0.6-0.4-1.2-0.7-1.8-1c1.3,0.8,2.3,1.9,3.3,3
								c1.5,1.6,3,3.3,4.4,5c-7,2.9-3.1,7.3,2.8,11.9c3.2,2.7,5.9,5.9,8.8,9c1.8,1.8,2.4,3.1,4.5,5.5c2.9,3.2,5.2,6,8,10.1
								c0.5,0.9,0.9,0.7,1.6,1.2c1.6,0.9,3.1,1.9,4.6,2.9c4,2.9,8.5,7.3,13.3,10.1c0.3,0.1,0.6,0.3,0.8,0.4
								c-5.7,3.2-10.8,8-14.5,12.1c5-4.2,11.5-8.4,17.6-10.8c4.9,1.8,10.1,2.5,15.3,2.5c0.4,0,0.8,0,1.2,0c2.6,3.4,4.1,8,4.4,12.2
								c0,1.4,1.7,2.1,2.7,1.3c0.1,0,0.3-0.1,0.4-0.1c5.4-1.5,10.8-2.4,15.2-2.8c5.5,0,11.1-0.5,16.6-0.3c0.6,0,1.3,0.1,1.9,0.1
								c1.5,4.1,1.2,8.4-2.2,12.6c3.8-3.1,5.3-7.9,4.4-12.5c2.8,0.2,5.7,0.4,8.5,0.6c3.5,0.3,7.1,0.5,10.5-0.8
								c6.8-2.8,12.1-8.2,16.9-13.6c1.1-1.2,2.4-3.2,3.5-5.4c1,1.8,2.2,3.4,4,4.4c0.7,0.7,1.9,1.4,3.8,2.1c1.8,0.6,3.9,0.7,5.7,0.2
								c1-0.5,2.2-0.2,4-0.2c5.8,0.5,7.5-5.3,9.3-9.6c-1.9,2.7-3.1,6.6-6.5,7.6c-1.7,0.3-3.4-0.1-5.1-0.2c-0.1,0-0.2,0-0.3,0
								c-0.4-0.1-0.8-0.1-1.3,0c-0.9,0.2-0.6,0.2-0.9,0.2c-0.2,0.1-1.6,0-2-0.1c-2.8-0.6-3.2-1.1-5.4-3c-1.4-1-1.8-2.1-2.9-4.2
								c-0.2-0.3-0.4-0.8-0.6-1.3c0.6-1.6,0.9-2.8,0.7-3.3c-0.3,0.8-0.7,1.7-1.1,2.5c-0.9-2.2-1.7-5.3-0.8-7.1
								c1-2.7,6.9-7.9,10.6-11.9c1.2-1.4,2.4-2.7,3.3-4.3c2.7,0.3,5.4-0.7,7.8-1.7c0.6,2.8,2,6.7,4.2,7.7c2.3,0.8,4.9,0.1,7-0.9
								c2.3-1.5,4.5-3.2,7.1-4.3c6-2.9,13.2-5.5,15.7-12.3c1-2.2,1.1-4.6,1.8-6.9c0.9-2,0.9-4.2,1.7-6.2c0.7-1.1,4.4-5.9,5.4-8.5
								c1.5-3.1,1.9-6.5,2.2-9.9c1.3,3.3,2.8,6.7,4,9.5c1.6,3.2,3.9,4.2,7.2,2.2c3.2-1.6,5.3-4.7,7.6-7.3c0.7-0.7,1.3-1.5,2.1-2.2
								c0.1,0,0.1-0.1,0.2-0.1c0.1,0,0.2,0,0.3,0.1c0.1,0,0.2,0.1,0.3,0.2c0,0,0.1,0.1,0.1,0.2c0,0.1,0.1,0.1,0.1,0.2
								c-0.2-0.2,0-0.1,0.2,0.2c0,0,0,0,0,0c0,0,0,0,0,0c0,0,0,0.1,0.1,0.1c0.1,0.1,0.1,0.2,0.2,0.3c0.1,0.2,0.3,0.4,0.5,0.6
								c1.2,1,2.8-0.3,3.3-1.5c1.1-2.7,4-7.3,5.8-11.2c2-4.1,3.2-7.2,5.1-10.7c0.7-1.5,0.9-1.5,2-2.7c1.5-1.4,4.2-5,4.7-8.1
								C488,449.2,487.6,446.1,487,443.1z M412.7,469.3c2.6-1.7,4-2.5,6.6-2.3c1.4,0.1,4.3,0.7,6.8,1.1c3.3,0.5,4.7,0.4,7.8,1.5
								c0.8,0.3,1.8,0.9,2.8,1.7c-2,2.4-5.4,3.7-7.8,5.7c-1,0.9-2.1,1.8-2.7,3.1c-0.5,1.1-0.6,2.4-0.6,3.7c-0.1,3.2,0.1,6.4,1.2,9.4
								c0.4,1.4,0.8,3,0.5,4.5c-0.9-0.2-1.6-0.7-2.5-1c-1.4-0.5-2.8-0.7-4.2-0.8c0.2-0.7,0.2-1.5,0.1-2.3c-0.1-0.8-0.3-1.7-0.6-2.5
								c0.8-0.5,1.6-0.9,2.3-1.4c0.9-0.5,2-1.2,2.2-2.3c0.3-1.3-0.7-2.5-1.9-2.8c-0.4,0-1.8-0.6-2.2-0.8c-5.6-2.3-7.9-5.9-8.2-10.3
								C412.3,472.2,412.4,470.8,412.7,469.3z M419.8,487.4c-0.2,0.1-0.4,0.2-0.5,0.3c-0.1,0-0.2,0.1-0.2,0.1
								c-0.1-0.3-0.3-0.7-0.4-1C419,487.1,419.4,487.3,419.8,487.4z M407.9,474.4c0-0.5,0.4-1,0.9-1.6c-0.1,1.6,0.1,3.2,0.6,4.7
								c-0.5-0.1-1.1-0.1-1.6-0.1C407.7,476.3,407.7,475.3,407.9,474.4z M395.6,486.2c2.1-1.8,6.6-4.1,10-5c0.3,0.7,0.6,1.3,0.7,1.9
								c0.3,1.3,0.2,0.7,0.2,1.9c-0.8,3.8-7,4.8-13,5.2c-2,0.1-3.6,0.4-5.1,0.7C391.1,489.9,393.5,488.1,395.6,486.2z M242.4,508
								c6.1-1.9,12.1-3.8,18.4-5.3c3.4-0.7,8-2.4,10-2.5c3.9-0.4,7.8,0.6,11.7,0.2c2.6-0.4,4.8-2,7-3.4c3-1.9,4.1-2.5,7.5-3.3
								c4.1-1,9.3-0.9,14.6-1.8c3-0.5,6.5-0.4,10.6-1.4c4.8-1.3,9.2-3.5,13.8-5.2c5.7-1.9,10.8-4.8,15.6-8.4c2.5,1.6,5,3.2,7.7,4.5
								c1.7,1.1,5.1,4.9,7.9,7.4c-1.6,0-3.1,0-4.7,0.2c-4.7,0.4-9.3,1.1-13.8,2.4c-5.8,1.8-10.4,3.4-15.6,3.5
								c-2.6,0.2-5.3,0.2-7.9,0.8c-4.7,1.4-8.5,4.9-11.6,8.6c-2.4,2.8-3.7,6.3-5.3,9.5c-2.2,4.5-5.6,11.7-7.6,14.5
								c-3.5,4.5-9.4-3.4-17.2-6.4c-6.2-2.8-16-6.9-21.1-0.2c-1.2,1.9-2.5,2.9-3,3.1c-2.9,1-4.6,1-6.1,0.3c-2.7-1.4-4-3.3-6.9-5.6
								c-2.3-1.8-6.5-5-7.7-5.8c-1.4-1.1-2.7-2.3-4.1-3.5C237.2,509.2,240.1,508.7,242.4,508z M283.7,558.3c1.1-0.2,2.1-0.2,3.1-0.1
								c1,0.2,1.8,0.5,2.7,0.9C287.5,558.9,285.6,558.6,283.7,558.3z M319.3,569.6c-3.9-0.1-7.8,0.7-11.7,1.4
								c-2.1,0.4-4.3,0.8-6.4,1.4c0-0.1,0-0.2,0-0.3c-0.6-3.3-1.7-6.7-3.5-9.6c3-0.2,6.1-0.8,8.9-1.7c6.3-2.3,11.3-3.3,16.5-2
								c3.6,1,6.8,5.5,9.6,10.1c0.1,0.2,0.2,0.3,0.3,0.5C328.5,569.3,323.9,569.4,319.3,569.6z M398.3,510.2
								c-1.3,3.2-0.6,6.8,0,10.1c-2.1,1.2-4.3,1.8-6,1.9c0.3-1.4,0.1-3.2-1.3-3.9c-1.8-1-3.9,0.5-4.4,2.3c-0.6,1.5-0.1,2.9,1,3.8
								c-3.1,5.1-10.9,9.8-13.9,16.5c-1.3,3.7,0.1,7.8,1.8,11.1c0.1,0.2,0.1,0.3,0.2,0.5c-2.4,3.4-5.4,6.3-8.6,8.9
								c-3.3,2.7-8.9,6.9-12.4,8.1c-4,1.5-8.7,0.4-13.9,0.2c-1.7-0.2-3.4-0.3-5.1-0.4c-1.8-4.2-4-8.3-7.4-11.5
								c-5-4.7-12.8-3.6-18.8-1.9c-5.5,2-9.3,2.9-14.5,3.1c-1.7-1.7-3.7-3-6.1-3.8c-3.5-0.6-7.1,0-10.6,1.4c-2.3-0.9-4.4-2-6-3.3
								c-5-3.5-9.5-8.2-15.7-11.4c-0.1-0.1-0.2-0.3-0.6-0.9c-2.3-3.2-6.8-8.9-8.4-10.4c-3.5-4.6-7.9-9.3-12.1-13.2
								c-3-2.7-5.6-4.4-5.8-5.7c0.2-0.2,0.5-0.3,0.7-0.4c0.5-0.3,1.1-0.5,1.9-0.8c0.8,1,1.7,1.9,2.5,2.9c2.7,2.8,5.9,5.1,8.8,7.7
								c4.1,3.6,8.3,8.9,14.3,7.4c1.6-0.2,3.1-0.8,4.4-1.7c0.9-0.7,1.6-1.6,2.2-2.5c0.1-0.2,0.9-1.2,0.7-0.9c1-1.2,1.7-1.4,2.9-1.8
								c5-0.9,11.8,2,18.3,5.5c3.7,2.4,7.3,5.9,12,5.9c2.8-0.1,5.1-2.1,6.3-4.6c1.4-2.4,2.7-4.9,3.9-7.4c2.1-4,3.8-8.2,5.9-12.2
								c1.6-2.7,3.4-4.5,6.3-7.1c0.8-0.8,4.2-2.8,5.5-2.9c2.6-0.5,8.2-0.5,12.3-1.2c8.6-2.1,16.3-5.2,24.2-5.4
								c3.5-0.3,6.9-0.1,10.4,0c0.2,0.1,0.3,0.2,0.5,0.2c2.2,1,4.3,2.1,6.7,2.4c3.5,0.5,7-0.2,10.4-0.8c1.9-0.3,3.3-0.4,6.2-0.7
								c5.4-0.4,13.7-2.7,12.9-9.6c-0.2-1.2-0.4-2.1-0.7-2.8c0.1,0,0.1,0,0.2,0c1,0.3,3.5,2.9,4.5,4.3c0.9,1.4,1.6,2.8,2.2,4.2
								c-8.8,4.7-17,7.2-26.8,7.9c-3.9,0.5-5.4,1-9.2,0.9c-2.4,0-5.1-0.6-7,1.3c-1.5,1.6-2.9,3.4-4,5.3c-0.8,1.3-2.5,6-2.5,5.9
								c-3.7,7.3-6.6,17.9-8.8,24.1c-0.8,1.4-0.6,1.1-1.2,1.5c-0.1,0-0.2,0.1-0.2,0.1c-0.2,0.1-0.4,0.2-0.7,0.2
								c-2.1,0.3-8.1-0.1-11.7-0.3c-5.2-0.4-13-1.7-13.7-5.6c0,0,0-0.1,0-0.1c-0.2-1.2,0.3-2.1,0.5-3.9c0.2-1.6,0.8-3.3-0.1-4.8
								c-3.3-4.3-10.1-1-13.3,0.2c-2.9,1.3-5.7,2-8.8,4.2c-3,2.1-4.2,6.9-2.3,10c0,0.1,0.1,0.1,0.1,0.1c-1.2,0.4-2.6-0.1-3.8-0.4
								c-0.6-0.1-1.5-0.6-1.8-0.5c1.8,0.7,3.6,1.9,5.6,1.7c0.3,0,0.7-0.1,0.9-0.4c0.1-0.3-0.1-0.5-0.2-0.8c-1.3-2.2-0.5-5.2,0.9-7.2
								c1.4-1.5,3.5-2.3,5.5-2.9c5.6-1.8,12.8-4.5,14.7-2.4c0,0,0,0,0,0.1c0,0,0,0.1,0,0.2c0,0.3,0,1.9-0.2,2.4
								c-0.2,1.7-0.6,3.4-0.1,5.9c2.9,6.5,13.7,7,19.9,7.5c4.8,0.2,11.4,1.8,13.2-4.2c2.8-8.3,4.9-15.9,8.4-22.9
								c1.5-3.5,2.5-6.3,4.2-8.3c1.1-1.2,1.5-2,2.2-2.4c0.1,0,0.4-0.1,0.6-0.2c0,0,0,0,0,0c1.6,0,3.3,0.2,4.9,0.1
								c6.4-0.5,10.8-1.2,17.5-2.1c5.9-1.1,11.3-3.5,16.7-6c0.5-0.3,1-0.5,1.5-0.8c0.1,0.6,0.2,1.1,0.3,1.7c0.1,0.6-0.1,1.2-0.4,1.9
								c-2.7,0.6-5.2,1.9-7.4,3.3C405,502.4,400.8,505.7,398.3,510.2z M401.2,512c0-0.1,0.1-0.3,0.1-0.4c0-0.1,0.1-0.1,0.1-0.2
								c0.1-0.3,1.5-2.1,0.8-1.3c2.4-3.6,5.5-5.8,8.5-7.9c1.4-1.1,2.9-2,4.3-2.7c0,0,0,0,0,0.1c-1.8,3.8-2.4,6.1-5,9.8
								c-1.9,2.8-5.4,6.2-8.6,8.7C401,516,401,513.3,401.2,512z M440.7,483c-0.3,3.6-0.9,6.5-2.6,9.5c-1.3,2.7-3.4,4.8-4.8,7.4
								c-0.8,1.5-0.8,3.2-1.2,4.9c-1,2.2-1.1,4.7-1.9,7.1c-0.9,2.8-2.6,5.3-4.8,6.7c-4.4,2.8-9.2,4.6-13.7,7.1
								c-3.3,2.3-4.3,3.2-7.3,3c0,0,0.1,0,0.1,0c0.2,0.1,0.2,0.1,0.1,0.1c0,0,0,0-0.1-0.1c0,0,0,0,0,0c0,0,0,0-0.1,0c0,0,0,0,0.1,0
								c0,0,0,0,0,0c0,0,0,0,0,0c0,0,0,0,0,0c0,0,0,0,0,0c0,0-0.1-0.1-0.1-0.1c0,0,0.1,0,0.1,0c0,0-0.1-0.1-0.1-0.1c0,0,0,0,0,0
								c-0.2-0.3-0.4-0.6-0.5-0.9c-1-1.7-1.4-3.4-1.7-5.4c3.4-2.4,6.4-5.5,9.3-8.5c2.7-3.1,5.4-8.9,6.2-11.3
								c0.8-1.4,1.7-2.7,2.4-4.1c1.8-0.1,3.8,0.2,5.9,1.1c3,1.5,3.6-1.4,3.1-3.7c-0.4-2.6-1.6-5.1-1.6-7.8c0.1-2.2-0.3-4.7,0.7-6.8
								c2.4-3.6,7-5.3,9.3-8.9c1.5,1.3,2.9,2.9,3.9,4.7C441,478.8,440.9,480.9,440.7,483z"/>
						</g>
					</g>
				</g>
				<path class="st7" d="M465.8,485.3c0,0,0.1,0.1,0.2,0.2c0,0,0,0,0,0C465.9,485.4,465.8,485.4,465.8,485.3z"/>
			</g>
			<path class="st7" d="M399.1,545.5c-1.6,0-1.6,2.5,0,2.5C400.8,548,400.8,545.5,399.1,545.5z"/>
			<path class="st7" d="M400.5,548.2c-1.6,0-1.6,2.5,0,2.5C402.1,550.7,402.1,548.2,400.5,548.2z"/>
			<g>
				<path class="st7" d="M197.9,504.1C197.9,504.1,197.9,504.1,197.9,504.1C197.9,504.1,197.9,504.1,197.9,504.1
					C197.9,504.1,197.9,504.1,197.9,504.1z"/>
				<path class="st7" d="M497.4,420.3C497.4,420.3,497.4,420.3,497.4,420.3c0-0.2,0-0.4,0.1-0.7c0-0.3,0.1-0.9,0.2-1.6
					c-2,1.7-2.9,4.3-4.1,6.6c-1.3,3.1-3.1,5.9-4.9,8.7c-1.3,1.7-1.8,3.2-3,4.4c-1,1.2-3.9,2.7-4.9,2.6c-5.3,0.2-10.4-3.1-15.3-6.5
					c-2.9-1.6-6-4.9-9.6-4.4c-3.9,1.2-5.8,5.3-7.8,8.5c-2.4,3.5-3.9,7.3-6.8,9.6c-2.8,2.3-7.3,1.8-11.1-0.9c-2.2-1.4-4.3-3-6.7-4.1
					c-3.1-1.3-6.3-2.1-9.6-2.7c-6-1.2-12.3-2-18.4-1.1c-5.6,0.7-10,3.3-14.7,5c-4.3,1.3-8.8,2.3-13.3,3c-3,0.5-5.2,1.4-7.8,1.4
					c-8.1,0-15.5-6.1-23.6-9.7c-8.8-4.8-19.5-9.1-29.5-5.8c-7.6,3.6-16.4,5.7-25.2,7.3c-0.1,0-0.1,0-0.2,0c1.1-0.9,2.2-1.9,2.9-3.6
					c1.4-7.8,1.5-14.2,4.3-22.3c3.4-8.9,9.6-19.8,13.9-29.8c-0.7,1-1.3,2-2,3c-7.6,11.4-16.4,22.9-18,37c-0.9,4.2-1.3,11.2-1.8,11.5
					c-1.1,1.4-2.6,2-4.5,3.7c-0.8,0.7-1.5,1.4-2.2,2c-1.4,0.3-2.8,0.5-4.1,0.5c-5.6,0-10.7-0.9-15.4-3.4
					c-6.1-3.4-10.4-7.9-16.5-11.5c-5-3.1-10.7-4.9-15.8-7.8c-7.6-4.7-15-10-23.2-13.6c-1.8-0.8-4.3-0.6-5-1.6
					c-2.9-3.1-5.6-8.5-9.3-12.4c-3.3-3.8-7.9-5.9-12.2-8.4c-3.3-1.6-6.7-3.5-10.2-4.8c-0.2-1.8-0.2-3.5,0.1-5.1c1-9.6,2.6-19,6-28.4
					c-4.6,9.2-6.7,19.4-7.5,29.6c-0.1,1.2-0.1,2.3,0,3.5c-2.8-0.8-5.7-1.1-8.7-0.3c-4.6,1.1-8.3,4.5-11.2,8.2
					c-2.3,2.8-3.8,6-4.8,9.4c3-6.7,7.8-12.4,14.1-15.4c3.1-1.4,7-1.3,10.7-0.3c0.4,3.2,1.2,6.4,2.6,9.3c0.2,0.4,0.4,0.9,0.6,1.4
					c-0.8-0.1-1.5,0.2-1.8,1.1c-1.3,3.9-0.6,8.8,0,12.7c0.8,4.8-0.3,9.7-1.8,14.3c0.7-1.6,1.3-3.3,1.9-5c1.9-5.2,0.8-10.5,0.5-15.9
					c-0.1-2.4,0.5-6.3,1.1-5.9c-0.4-0.1,0.5,0.2,1,0.3c0.3,0.4,0.6,0.8,1,1.2c1.3,0.6,1.8-1.2,0.7-1.8c-0.2-0.1-0.4-0.3-0.6-0.4
					c-1.4-2.4-2.8-6.6-3.5-10.8c1.1,0.4,2.1,0.9,3.1,1.4c6.6,3.4,13.6,6.2,18.3,11.6c3.1,3.4,5.8,8.6,8.9,11.9
					c1.3,1.4,3.3,1.1,5,1.7c7.6,3.1,15.6,8.8,23.1,13.4c3.6,2.1,7.5,3.7,11.3,5.5c8.9,3.9,14.6,11.1,23.4,15.3
					c4.2,1.9,8.8,2.5,13.3,2.7c0.9,0,1.8-0.1,2.7-0.2c-1.1,1-2.1,1.9-3.2,2.5c-6.8,3.4-16.7,3.2-26.1,3c-5.5-0.2-11.3-1.3-16.7,0.3
					c-3,0.8-4.6,3.5-6.2,5.9c-0.5,0.9-1.9,2.5-3,2.9c-0.1,0-0.1,0.1-0.2,0.1c-1.2,0.5-2.5,0.6-3.8,0.6c-3.5-9.1-7.2-18-11.6-26.7
					c3.1,8.9,6.5,17.7,9.9,26.6c-1.8-0.2-3.7-0.5-5.8-0.5c-6.3-0.6-12.4-0.8-17.5-1.9c-2.9-0.6-4.8-0.3-6.8-1.1c0,0,0,0,0,0
					c-0.6-0.4-1.1-0.7-1.6-1.1c1.4-1.1,2.8-2.4,3.7-4.2c2.1-4.8,2.8-12.4-2.4-15.5c-7.8-4.1-16.2-4.5-22.8-10.1
					c-1.8-1.4-4.1-4-3.2-5c-0.3,0.2-0.5,0.5-0.5,0.9c0.2,0.9,0.6,1.7,1.1,2.5c3,4.5,7.6,7.8,12.6,9.7c4.5,2.1,9.2,3.4,12.1,5.9
					c0.8,1,1.5,5.4,0.5,8.5c-0.6,2.3-2,3.7-4,5.2c-0.5-0.4-1.2-0.8-1.9-1.2c-2.1-1.3-4.6-2-7-2.4c-2.8-0.2-5.7-0.5-8.5,0.3
					c-1.7,0.4-3.3,1-4.9,1.7c-0.3-1.2-0.7-2.4-1-3.6c-1-4-3-7.7-3.7-11.7c-0.5-5,0.8-12.9-1.2-18.6c-1-3.9-3.2-7.9-4.3-11.1
					c0,0,0-0.1,0-0.1c0,0,0,0,0,0c0.4-0.1,0.9-0.2,1.3-0.3c1.2-0.4,2.4-0.9,3.3-1.8c4.2-3.6,4.2-12.7,4.1-15.7
					c-0.6,3.7-1.1,8.1-2.6,11.1c-1.2,2.1-2,3.3-3.9,4.3c-0.1,0-0.2,0.1-0.2,0.1c-0.6,0.2-1.1,0.4-1.7,0.5c-1.1,0.1-2.3,1-2,2.2
					c1.2,3.7,2.9,6.3,4,10.2c2.1,5.8,1.1,11.6,1.3,18.1c0.2,3.6,1.8,6.9,2.9,10.3c0.8,2.3,1.4,4.6,2.1,7c-1.6,0.8-3.2,1.7-4.7,2.5
					c-1.1,0.6-2,1.4-2.6,2.2c-1.3-3.1-2.6-6.2-3.9-9.5c0.9,3.5,2,7,3.2,10.4c-2.4,4.3,0,10.1,2.5,14.5c-1.3-3.3-2.6-8.4-1.5-11.8
					c1.2,3.5,2.5,6.9,3.9,10.3c2.4,5.3,4.6,10.7,8.1,15.5c4,6.2,10.2,11.4,14.1,16.9c1.3,2.4,2.4,4.8,3.5,7.3
					c0.9,1.6,1.7,3.3,2.1,5.1c3.6,3.6,7,7.6,10.7,11.1c1.7,1.8,3.3,3.7,4.5,5.3c0.8,1.1,5.9,9.6,9,11.8c0.1,0.6,0.2,1.1,0.1,1
					c0,0.7-0.1,1.5,0.3,2.1c2.1,3.2,5.6,5.1,8.8,7.1c4.2,2.5,8.4,4.9,12.8,6.9c-6.4-4.6-15.6-11.1-18.7-15.2c0.5-1.4-1-6.2-1.5-9
					c0,0,0,0,0,0c0.8,0,2.1,0.9,3.1,1.8c8.5,7.2,14.9,20.7,27.7,19.6c2.8-0.4,5.6-0.9,8.7-0.6c1.9,0.3,5.9,1.6,7.8,2.5
					c4.9,2.6,9.9,5.2,15.1,7.2c3.4,1.4,6.9,2.9,10.6,2.6c3.7-0.4,7.3-1.6,10.9-2.5c4.5-0.9,9.2-2,13.6-3.4c0.4,0.1,0.8,0.2,1.3,0.2
					c2.8,0.4,5.7,0,8.5-0.2c3.9,0,7.7-0.4,11.5-1.1c5.2-1,10-3.3,15.1-4.6c10.8-2.7,22-0.8,32.6-6.3c3.2-1.8,3.3-5.4,2.4-8.6
					c-0.8-3-1.6-6-2.4-9c-0.3-1.6-1.5-5.1-1.7-5.9c0-1.1,0.1-1.2,0.2-2.4c0.6-3.9,1.9-7.6,2.6-11.5c1.1-4.6,2.1-10.9,3.9-14.5
					c0.3-0.5,0.5-1.1,0.8-1.6c2.5-0.4,4.8-1.7,6.8-4.3c1.7-2.2,2.5-4.8,3-7.5c2.3-2.4,4.7-4.9,7.2-7.1c1.4-1.3,2.9-2.4,4.4-3.6
					c0.3,0.2,0.6,0.4,1,0.6c4.4,2.7,8.8,5.5,14.1,5.7c1,0.1,2,0.2,3-0.1c-1.2,0.2-2.3-0.2-3.4-0.4c-5.2-0.7-9.1-4.2-13.4-6.9
					c0.3-0.3,0.7-0.6,1-1c1.5-1.6,1.4-3.9,1.4-5.9c0.2-3.8-0.5-9,0.2-12c1-9.6,6.4-10.8,15-7.6c6.2,2.1,11.9,4.4,17.8,7.3
					c-5.4-3.5-11.2-6.3-17.1-8.6c-8.3-3.3-15.5-2.7-17,7.4c-1.3,5.7,0.5,14.7-1.3,17.9c-0.5,0.5-1,1-1.5,1.5c-1.8-1-3.8-1.8-5.9-2.1
					c-5.2-0.5-5.1,4.5-6,8.3c-0.3,1.9-0.6,3.9-1,5.9c-0.2,0.2-0.4,0.4-0.6,0.7c-3,3.3-6.3,6.5-8.6,10.3c-0.7,0.1-1.4,0.1-2.2,0
					c-3-0.3-6.7-2.2-10.1-4.1c-4.5-2.3-8.6-5.2-12.6-8.1c-3.2-2.2-8.2-5.6-11.9-2.7c-0.9,1.2-0.6,2.8-0.8,4.2
					c-1.9-1.2-3.1-2.3-5.1-3.8c-3.1-2.2-6.4-4.2-9.6-6.2c-3.6-2.3-7.9-2.5-12-2.7c-5.7-0.6-11.4-0.3-17,0.8
					c-6.2,1-10.7,5.3-16.6,4.5c-0.9-0.1-2.4-0.2-2,1.1c2.8,7.5,2.3,15,1.2,23c-0.6,4.8-1.5,11.1-6.8,10.7c-2.6-0.2-6.7-2.2-9.4-3.1
					c-1.5-0.5-4.2-1.2-4.7,0.8c0,0.1,0,0.2-0.1,0.2c0,0,0,0.1,0,0.1c0,0-0.1,0.1-0.1,0.1c-5-0.7-10.1-4.2-13.9-8.8
					c-1.7-1.9-3.8-4.1-4.9-5.6c-1.4-1.9-2.5-4-3.9-5.9c-0.6-0.8-1.3-1.6-1.9-2.4c-0.6-0.6-1-1.6-2-1.4c-0.4,0.2-0.5,0.4-0.6,0.5
					c-0.3-0.1-0.8-0.3-1.2-0.7c0.3,0.3-0.8-0.7-1-1c-0.6-0.9-1.5-1.7-1.8-2.2c-4.6-6.7-6.7-13.5-9.4-21.1c1.1,0,2.1-0.2,3.1-0.6
					c4.4-1.1,7.2-7.9,8.5-8.5c3.6-2.2,11.1-1,17.5-0.7c8.1,0.2,16.5,0.3,24.3-2.1c3.9-1.2,6.9-4.1,9.7-7c0.3-0.4,0.6-0.7,1-1
					c0.8-0.2,1.6-0.3,2.4-0.5c6.1-1.3,12.3-2.2,18.2-4.3c3.7-0.9,6.6-2.7,9.7-3.7c6-1.5,12.2-0.4,18.5,1.9
					c4.7,1.9,10.3,4.9,15.4,7.6c4.9,2.6,9.7,5.7,15.3,6.2c3.5,0.6,6.9-0.6,10.2-1.2c3.9-0.6,7.7-1.5,11.5-2.4
					c5.9-1.6,11.6-5.2,16.8-5.6c8.8-1,17.1,0.5,25.6,3.2c4.2,1.4,8.4,6.2,13.6,7c5.2,0.9,9.1-2.6,11.4-7c2.1-3.3,3.9-6.7,6.2-9.9
					c2.9-3.4,4.2-3.7,8.8-0.5c5.4,3.6,10.8,7.8,17.4,8.7c5.3,0.6,9.1-3.9,11.4-8.1c2.4-3.6,4.4-7.2,5.7-10.8
					C496.3,422.2,496.7,421.2,497.4,420.3C497.4,419,497.4,419.8,497.4,420.3z M386.4,477.6c0.4-1.9,0.7-3.8,1.5-4.4
					c1.3-1.1,4.3-0.4,7.1,1c-1.1,0.9-2.2,1.7-3.2,2.7c-2.2,1.9-4.2,4-6.2,6C385.7,481.2,386,479.4,386.4,477.6z M382.5,488.5
					c-0.2,0.8-0.5,1.5-0.9,2.2c-1.3,2.3-3,4.1-5.2,5C378.1,493.1,380.2,490.9,382.5,488.5z M155.4,453.4c4.4-1.7,7.1-1.7,12-1.3
					c1.1,0.1,3.6,1,5.9,2.3c-2.4,2.1-4.2,4.9-4.5,8.2c-0.1,1.6-0.4,3.4,0.2,4.9c0.6,1.3,1.8,3.2,2.7,4.8c-1.2,1.7-2.3,3.6-3.2,5.8
					c-0.4,0.9-0.7,1.4-1.2,1.9c0,0,0,0,0,0c-0.2-0.1-0.3-0.1-0.4-0.2c-1.4-2.1-4.6-8.5-6.4-12.3c-2.5-4.5-4.1-9-5.5-13.8
					C155,453.6,155.2,453.5,155.4,453.4z M200.4,540.4c0.1,0.2,0.2,0.4,0.2,0.6c-1.6-1.8-3.7-4.6-5-6.6c-3.3-5.9-8.5-10.3-13.1-15.2
					c-1.1-1.1-2.2-2.2-3.2-3.4c-0.6-0.7-1.7-1.1-1.8-2.2c-0.8-2.8-1.7-4.3-2.6-6.6c-0.7-1.5-1.7-4.3-2.9-6.2
					c-5-6.4-10.8-11.5-15-18.2c-3.6-5.7-6-11.7-8.4-17.6c-0.9-2.3-1.9-4.5-2.8-6.8c0.4-0.5,0.8-1,1.4-1.3c2.3-1.5,3.9-2,5.9-2.8
					c0.6,2.2,1.3,4.4,2.1,6.5c1.6,3.9,3.6,7.6,5.4,11.3c1.8,3.2,5.5,14.7,9.1,7c0.8-1.9,1.8-3.6,2.8-5.1c0.2,0.4,0.3,0.7,0.4,0.8
					c1.2,3.1,0.7,4.5,2.2,7.7c1.5,4.2,5.6,10,10.6,13.1c2.4,0.9,2.3,2.5,4.6,5.4c2.2,2.6,4.7,7,8.7,5.9c1.4-0.2,6.1,0.5,7.2,1.1
					c2,1.1,2.7,2.3,4.3,5c0.1,0.1,0.1,0.3,0.1,0.4c0,0.1,0.1,0.3,0.1,0.5c0,0.2,0,0.5,0,0.8c-0.1,1-0.5,2.7-1.4,3.4
					c-1.6,1.7-3.5,3-4.9,4.9C200.3,527.7,197.9,534.2,200.4,540.4z M255.9,511.3c0-0.1,0.1-0.4,0.2-0.5c0,0,0,0,0,0
					c1.2-0.3,3.3,0.4,5.2,1.2c3.1,1.1,6.4,3.2,9.8,2c5.9-2.2,5.3-9.7,6.2-14.9c0.5-4.6,0.9-9.3,0-13.9c-0.1-0.8-0.9-4.3-1.4-5.7
					c0.3,0,0.6,0,0.7,0.1c5.1,0.7,9.1-2.4,12.9-3.5c6.2-1.9,12-2.3,18.6-1.8c4.3,0.3,8.3,0.3,11.4,1.9c3.8,2.1,7.4,4.6,11,7
					c1.7,1.2,3,2.5,5.2,3.8c1.3,1.1,2.3,0.6,2.3-1.1c0.2-0.7,0.2-3.1,0.3-3c0-0.1,0.1-0.4,0.1-0.5c0,0,0-0.1,0.1-0.1c0,0,0,0,0,0
					c2.4-1.4,6.2,0.6,9.5,3c3.9,2.8,7.8,5.6,12.1,7.9c3.9,2.4,8.5,4.7,12.9,4.8c-0.1,0.3-0.3,0.5-0.4,0.8c-2.3,5.1-3,10.7-4.3,16
					c-0.8,4.3-2.4,8.5-2.6,12.9c1.2,4.1,2.4,8.3,3.5,12.5c1,3.1,1.6,7,0.6,8.2c-1.7,2.1-4.3,2.5-7.3,3.5c-7.9,2.6-15.3,1.5-23.9,3.4
					c-4.8,0.9-9.2,2.8-13.9,4.3c-4.4,1.2-8,1.7-12.3,1.9c-3.1,0.2-5.8,0.4-8.2,0.4c0.9-0.4,1.9-0.8,2.8-1.2
					c-1.2,0.4-2.5,0.8-3.8,1.1c-4.4-0.2-8-1.6-12.1-5.9c-6-5.9-11.9-13-14.9-20c-1.5-3.8-1.5-8.1-3.9-11.5
					c-3.8-6.6-11.3-9.4-17.8-11.9C255.2,512.3,255.6,511.9,255.9,511.3z M265,519c3.1,1.9,6,5.5,7.3,8.5c1.1,2.7,1.3,5.8,2.4,8.6
					c2.4,5.5,5.8,10.5,9.8,14.9c4.2,4.6,8.5,10.1,14.6,11.9c-4.2,1-8.4,1.7-12.6,2.5c-3.1,0.8-6.2,1.7-9.3,2.3
					c-3.5,0.8-8.1-0.9-12.1-2.6c-5.3-1.9-10-4.7-15.3-7.2c-2.5-1-5.1-1.9-7.8-2.2c-2.8-0.2-5.6,0.2-8.4,0.7
					c-10.8,1.3-18.3-11.4-26.1-18.6c-1.4-1.4-3.3-2.7-4.6-2.7c0-0.2,0-0.3,0-0.4c-0.1-0.5,0.4-1.9,0.7-3.6c0.4-1.7,3.2-5.8,4.5-7.1
					c1.4-1.5,3.1-2.7,4.3-4.3c1.9-2.5,2.2-6.1,0.7-8.8c-1.7-2.5-3.7-5.2-6.8-6.1c-2.3-0.6-4.8-0.9-7.2-0.9c-0.4,0-0.7,0.1-1.1,0.2
					c0.2,0,0.3,0-0.1,0h0c0,0,0,0-0.1,0c0,0,0,0,0,0c0,0,0,0,0,0c0,0-0.1,0-0.1,0c-0.1,0-0.1,0-0.2,0c-1.6-0.5-5-4.6-6.4-7.4
					c-0.5-0.9-1.1-1.9-1.8-2.6c-0.9-0.8-2-1.2-3-1.9c-2.7-2.4-4.7-4.7-6.1-7c-1.6-3-2.5-5-3.6-9.4c-0.5-1.6-1.2-3-2-4.4
					c5-5.7,11.6-6.8,20.1-3c5.7,2.5,10.4,6.7,15.5,10.2c4.4,3,9.6,5.7,9.9,9.7c0,2.9-0.5,5.8,0.1,8.6c0.5,3,3.4,4.5,5.9,5.6
					c3.2,1.3,5.5,2,8.4,3.4c6.2,2.4,11.2,4.8,17.3,7.4C256.8,515.1,260.7,516.4,265,519z M224.9,487.9c0.7,0.5,1.9,1.3,2.8,1
					c0.1,0,0.2-0.1,0.3-0.2c0.1,0.1,0.2,0.2,0.2,0.3c1.4,1.6,2,2.5,3.2,4.2c2.1,3.8,5,7.1,8,10.2c1.4,1.6,2.8,3,4.4,4.3
					c-4-1.7-8-3.3-11.8-5c-3.3-1.2-6.6-2.1-8.7-4c-1.2-1.1-1.4-2.3-1.5-4.3c-0.1-2.2,0.2-4.3,0.1-6.5c-0.5-4.7-4.9-7.2-8.6-9.5
					c-5.5-3.6-10.4-8-16.3-11c-9.7-4.8-17.5-4-23.3,2.2c-0.4-0.7-0.8-1.4-1.2-2c-1.2-1.8-0.8-1.2-0.7-3.9c-0.1-2,1.3-4.5,2.3-5.7
					c0.5-0.6,1.2-1.1,1.9-1.7c1.1,0.9,3,2.4,4.8,2.7c4.5,0.5,6.8,1,11.5,1.7c4.8,0.5,9.6,0.8,14.4,1.2c1.8,0,3.6,0.4,5.4,0.5
					c0.1,0.2,0.1,0.3,0.2,0.5C215.3,471.6,218.1,481.2,224.9,487.9z"/>
			</g>
			<path class="st7" d="M314.7,173.2c1.5-4.5,2-9.4,0.4-13.8c1.4-5.7-0.5-12.5-3.9-17.1c-3.1-4.5-7.8-9.1-12.6-10.2
				c-1.2-0.8-2.4-1.6-3.7-2.2c-6.3-3.4-16.6-4.7-22.6-0.6c-4.7-2-10.7-2.7-14.6,1.1c-3.2,3.1-5.7,7.7-6.3,12.4
				c-3.8,2.2-5.8,7.1-4.7,11.4c0.9,3.4,3.6,5.8,6.4,7.8c0.5,0.3,1.1,0.7,1.7,1c0.8,0.8,1.6,1.6,2.6,2.2c0.8,0.5,1.6,0.9,2.5,1.4
				c2.5,2.6,6.3,3.9,9.9,4.3c0.1,0,0.3,0.1,0.4,0.1c0.9,0.6,1.9,1.1,2.9,1.5c1.9,2.2,4.3,4.1,6.6,5c2.3,1.1,4.8,1.9,7.3,2.3
				c2.1,3.7,4.6,8.1,7.7,11.1c0,0.1,0,0.1,0.1,0.2c4.7,10.2,18.9,2.3,21.6-5.6C317.9,181.3,316.9,176.9,314.7,173.2z"/>
			<path class="st7" d="M395.4,354.7c-1-6.4-4.8-11.8-9-16.6c-1.7-1.9-3.4-3.8-5.3-5.6c-0.1,0-0.1-0.1-0.2-0.1
				c0.3-0.4,0.3-1.1,0-1.7c-1.4-3.2-3.6-6.1-5.5-9c-4.3-6.1-9-12-14.9-16.6c4.7,4.6,8.6,10,12.4,15.4c2.2,3.2,5.7,8.2,6.8,10.9
				c-0.4-0.2-0.8-0.4-1.2-0.2c-0.7,0.6,0.1,1.7,0.8,1.9c0.1,0,0.2,0,0.2,0c4.6,4.1,9.3,9.6,12.5,15.4c1.2,2.6,2.1,7.1,3,10.5
				c0.5,2.1,0.7,3.7,0.8,6.1c0,1-0.7,1.8-1.5,2.3c-1.3,1.1-2.4,1.5-4,2c-0.4,0.2,0.6-0.2,0.8-0.2c0.5-0.1,1-0.2,1.4-0.3
				c0.8-0.3,1.6-0.8,2.4-1.2c1.4-0.7,2-2.3,1.8-3.8C396.8,360.8,396.1,357.8,395.4,354.7z"/>
			<path class="st7" d="M233.9,274.5c-0.4-1-0.8-2-1.4-2.9c-1.3-1.8-3.2-3.1-4.8-4.5c-3.2-2.8-5.4-7-9.5-7.6
				c-1.8-0.1-3.4-0.2-4.1-0.7c-4.4-4.3-6.5-13.2-6.9-20.2c-0.2-5.4-0.5-11,1-16.3c-4.2,10.6-3.4,29.5,5.1,37.8
				c1.5,0.9,3.4,0.7,5.1,0.9c2.6,0.3,6.3,5.8,10.2,8.3c1,0.9,2.8,1.8,3.8,3.4c0.4,0.7,0.9,1.4,1.2,2.2c0.5,1.2,0.5,3,0.5,3.9
				C234.2,277.3,234.3,275.9,233.9,274.5z"/>
			<path class="st7" d="M240,375.6c-4.2-5-8-11.6-10.1-17.9c-0.6-1.9-1.2-3.8-1.8-5.7c-0.5-1.7-1.8-7.1-4.2-4.6
				c-1.3,1.8-1.9,4-3.1,5.9c-1.1,2-2.4,3.4-3.9,3.3c-1.3-0.2-3.5-1.8-4.4-4.1c-2.7-7-1-16.9-0.2-25.3c-1.4,6.9-3.5,14-2.4,21
				c0.4,2.9,1.1,5.9,3.3,8c3.5,3.5,6.7,1.9,8.8-2c1.2-2.1,2.4-5.5,3.1-6.1c0,0,0.1,0.1,0.2,0.2c0,0.1,0.2,0.2,0.2,0.3
				c1.3,2.5,2,5.9,3,9c1.4,4,2.6,7.1,4.7,10.8c1.6,3.2,4.3,6.1,5.9,8.6c1.4,2.9,2.8,7.1,2.7,11c0.2,3.3-3.4,5-5,7.5
				c-0.4,0.4-1.5,1.9-0.5,0.7c1.6-1.8,3.6-3.1,5.3-4.9c1.5-1.4,1.3-3.6,1.3-5.4C242.7,382.1,241.7,378.5,240,375.6z"/>
			<path class="st8" d="M437.8,397.5c-0.8,0-0.8,1.3,0,1.3C438.6,398.8,438.6,397.5,437.8,397.5z"/>
			<path class="st8" d="M469.1,433.5c-3-0.7-5.7-0.5-8.3-1.1c-1.4-0.2-2.7-0.8-4.1-1.1c-3-0.2-6.1-0.2-9,0.9
				c-3.7,1.5-5.8,5.1-7.9,8.2c-0.7,1-1.4,2-2.2,3.1c-0.3-6.7-1-13.3-2.1-20c0.4,7.2,0.8,14.3,1,21.5c-3.7,5-8,10-13.5,10.1
				c-9.2,0.6-18.3-6.1-28.2-6.2c-7.9-0.6-15.8,0-23.5,1.7c-11.6,2.3-22.8,6.4-33.8,10.6c-4.5,1.7-7.8,3.7-12.6,4.7
				c-3.9,0.7-8.6,0.5-12.8-1.3c-1.9-0.8-5.6-3.5-7.8-5.3c-2.8-2.6-7.7-6.5-11.8-8.6c-4.3-2.9-9.8-4.2-14.6-2.1
				c-7.5,2.7-10.1,10.8-12.7,17.6c-1.2,2.6-2.9,7.6-5.2,8.1c-1.6,0.4-2.9-0.6-5-1.7c-6.1-3.3-10.9-8.6-17.2-11.4
				c-3.4-1.3-7-0.8-10.5-0.2c-3.9,0.4-9.1,1.4-13.8,1.4c-11.8,0.2-23.6-0.9-35.4-0.5c12.1,0.9,24.2,2.1,36.4,1.7
				c7.4,0.1,14.5-2.5,21-1.6c6.5,1.6,11.5,7.7,17.6,11.1c2.2,1.2,4.6,3.2,7.3,2.6c3.3-1.1,4.2-5.1,5.7-7.9
				c3.2-7.8,5.3-15.9,13.4-18.1c6.7-2.2,12.9,2.5,19,6.8c3.4,2.6,8.1,7.3,12.8,9.4c7.8,3.8,17.4,1.4,23.9-2.1
				c12.8-5,25.8-9.9,39.4-12.3c6.9-1.3,15-1.7,22.6-0.9c8,0.7,16.9,6.6,25.8,6c6-0.2,10.2-4.8,13.6-9.3c0.1,4.4,0.1,8.9-0.2,13.3
				c-0.1,2.4-0.1,4.5-1,6.2c-2,3.9-6.5,7-10.4,7.4c-2.2,0.2-4.2,0.3-5.9-0.1c-1.8-0.3-3.8-1.3-5.6-0.6c-3.1,1.2-4.5,4.4-6.1,7.1
				c-2.8,5-5.3,8.9-10.4,9.4c-5.4,0.4-11.3-3.6-17.3-3.6c-4.7,0.4-7.2,5.2-9.6,8.8c-3.1,4.6-4,10.5-6.2,14.8
				c-2.4,5.1-7.6,4.3-13,2.5c-4.6-1.6-9.3-4.6-14.3-6.6c-3.9-2.1-7.8-4.3-12.1-5.7c-3.8-1.5-7.3,1.5-10.3,3.4
				c-2.9,1.9-5.7,3.9-8.4,6c-3.2,2.5-6.7,6.5-9.3,8.5c-2.9,2.2-6.4,3.4-9.4,3.7c-4.9,0.4-9-1-13.9-2c-6.9-1.2-14.1-2.6-20.7-4.2
				c7,2.5,14.2,4.4,21.5,5.8c5.7,1.3,11.7,3,17.5,1c4.1-1.2,7.4-4.1,10.3-7.1c2.9-2.9,5.4-5,8.5-7.2c2.6-1.9,5.2-3.6,7.9-5.3
				c2.3-1.3,3.6-2,5.7-1.4c4.2,1.3,7.9,3.4,12,5.7c4.5,1.9,8.7,4.4,13.3,6.3c4.4,1.5,10.1,3.5,14.1,0.1c3-3,3.8-7.3,5.2-11.2
				c1.9-4.7,5.2-11.2,9.4-13.9c2-1.2,4.3-0.5,7.3,0.3c3.4,1,6.8,2.2,10.3,2.7c11.1,0.5,12-11.3,17.6-16.1c2-1.5,3.6-0.4,6.5,0.1
				c3.2,0.4,6.6,0.2,9.6-1c2.9-1.4,5.4-3.5,7.1-6.2c1.2-1.8,1.5-4,1.6-6.2c0.2-3,0.2-6,0.2-9.1c0-2.4,0-4.8-0.1-7.2
				c2.9-3.7,5.7-9,8.9-11.5c2.6-1.9,6.6-1.8,9.4-1.8c1.8,0.3,3.5,1.1,5.4,1.3c2.9,0.7,6.3,0.1,7.9,1.4c1.4,1.3,2,5,1.8,8.3
				c0.3,8.4-2.1,15.7-6.6,22.9c-5.6,9.2-14.8,15.3-23.3,21.8c-2.5,2.1-5.1,4.4-6.2,7.5c-1.3,2.6-1.4,5.6-2.6,8.3
				c-3.5,14.7-15.6,26.3-28.4,34.9c-11.8,8.6-22.5,16.9-37.1,15.5c-5.9-0.2-11.9-0.9-17.8-1c-6-0.2-12.3,0.5-18.1,1.1
				c6,0,12-0.1,18.1,0.3c7.5,0.3,15,1.4,22.6,1.3c13.2-0.1,23.7-9,33.9-16.2c12.8-8.6,24.8-20.6,28.4-35.5c1.1-2.8,1.3-6.2,2.6-8.3
				c1.2-3,3.3-4.6,5.8-6.9c4.9-3.8,11.4-8.3,16.3-13.1c6.7-6.8,12-15.5,13.6-25C472.6,446.5,474.3,435.9,469.1,433.5z"/>
			<path class="st8" d="M227.4,521.9c-7.4-3.3-15.6-7.6-23.8-5.2c-3.1,0.5-4.2,5.5-5.1,6.4c-0.4,0.3-0.8,0.1-2-0.5
				c-4.5-3-8.7-8-13.4-11.5c-8.2-6.5-17-13-24.1-21.4c-2.9-3.7-5.8-7-6.9-11.4c-1.1-3.1-1.4-5.8-0.1-7.1c0.1-0.5-0.3-0.9-0.6-1.2
				c-0.1-0.1-0.6-0.8-0.7-0.9c-1.5-2.3-2.7-4.9-4.3-7.3c-1.8-2.8-3.6-5.7-5.8-8.2c-1.7-1.9-3.8-3.3-5.7-5c-4.3-3.9-7.5-7.8-10-13.1
				c-1.7-4.1-3.3-10.8-3.8-15.2c-0.5-5.4,0.1-10.9,2-15.2c0.8-1.9,2.3-3.2,3.1-3.3c1.2,0.1,2.2,0.6,2.8,2c2.2,4.9,3.4,12.1,4.1,17.6
				c1,3.2,2.9,6.2,3.9,8.9c1.7,5.6,4.4,11.1,8.2,15.6c1,1.1,2.2,2.4,3.6,3.2c0.5,1.6,1,3.1,1.5,4.7c2.3,7.1,4.5,14.2,6.6,21.3
				c-1.4-6.2-2.9-12.5-4.8-18.6c-0.7-2.3-1.5-4.6-2.2-6.9c0.5,0.2,1,0.3,1.6,0.3c0.8-0.1,1.3-0.9,0.9-1.6c-0.4-1-3.2-3.3-3.8-1.7
				c-0.1,0.3-0.1,0.5-0.1,0.8c-3.5-2.7-6.1-7.6-8.3-11.9c-1.1-3-2.9-8.4-4.5-11.2c-1.5-2.9-1.6-5.4-2.1-8.9
				c-0.7-4.4-1.8-8.8-3.7-12.9c-0.8-1.3-2.5-2.4-4.1-2.1c-1.9,0.5-3,2.2-3.9,3.9c-1.8,3.8-2.3,8.1-2.5,12.2c0,4.6,0.9,9.1,2.2,13.5
				c1,5.2,3.6,10,6.9,14.1c3.3,4.6,8.4,7.5,12,11.8c1.6,2.2,4,5.8,5.7,8.7c1.4,2.2,2.4,4.6,4.1,6.6c-1.1,1.9-0.7,4.2-0.1,6.1
				c0.9,3.7,2.6,7,5,10c7.2,10,17.9,18,27,25.2c3.1,2.5,6.1,5.2,9,8c2.1,1.7,6.6,6.7,8.7,3.1c1-2,1.7-4.4,3.1-5
				c6.5-2.8,15.3,0.9,22.8,3.4c1.6,0.6,3.9,1.3,5.2,1.2C229.8,522.9,228.6,522.4,227.4,521.9z M151.1,448.1c0.1,0.1,0.2,0.4,0.2,0.4
				c0,0,0,0,0,0c-0.2,0.3-0.4,0.1-0.8,0.1c-0.4-0.2-0.8-0.4-1.2-0.7C149.1,446.6,149.6,446.4,151.1,448.1z"/>
			<g>
				<path class="st8" d="M420.1,392.1c0.1-0.2,0.3-0.4,0.4-0.5C420.4,391.7,420.2,391.9,420.1,392.1z"/>
				<path class="st8" d="M408.1,396.8c-3.1,0-6.5-1.1-9.9-1.9c-3.5-0.5-6.8-1.8-10.2-2.7c-6.6-0.8-12.1,1.2-18.6,1.8
					c-6.8,1.7-15-1-22.4,1c-8.4,2.4-15.3,7.7-23.5,9.7c-4.5,1.2-9.5,0.8-14.6,0.3c-5.7-0.5-11.5-1.5-16-4.1c-1.7-0.9-2.4-1.7-3.8-3
					c-2.1-1.3-1.8,0.9-1.4,2.2c0.4,2.8-0.7,8.7-1.9,11.6c-3.6,9.6-14.4,11.1-23.9,11.6c-12.8,0.5-25.6,1.1-38.3,2.9
					c11.1-0.2,22.2-0.7,33.3-1.3c18.3-0.3,32.4-3,32.1-24.7c0-0.2,0-0.4-0.1-0.7c0.2,0.2,0.5,0.5,0.8,0.7c1.4,1.2,2.9,2.1,4.6,2.8
					c4.3,2.1,9,2.8,13.7,3.3c5,0.5,10.1,1.1,15.1,0c8.6-1.9,15.7-7.3,23.6-9.7c6.5-2.1,14.1,0.4,21.2-0.8c6.6-0.8,11.8-2.3,18.1-2.2
					c2.6,0,5.7,1.7,8.8,2.2c4.5,0.7,8.9,2.5,13.4,2.2c4.3-0.6,9.2-2.1,11.6-6C418.1,394.6,412.2,396.9,408.1,396.8z"/>
			</g>
			<path class="st8" d="M439.6,348.7c0.4-0.4,0.6-0.9,0.8-1.8c0.1-3.8-2.2-7.2-4.1-10.4c-3-5.1-6.5-9.8-10.8-14
				c3.1,3.8,5.9,7.8,8.2,12c2,3.7,4.4,7,5.3,10.8c0.2,0.7,0.1,1.4-0.1,1.8c-1.4-3.1-3-6.3-5.5-8.7c-0.7-0.7-2.3-1.3-2.7,0
				c-0.1,1.1,0.6,2.1,1,3.1c0.9,1.9,1.8,3.9,3.3,5.5c0.5,0.7,1.2,1.3,1.9,1.7c0,0.2,0,0.3,0,0c0.5,0.3,1.1,0.4,1.5,0.3
				c0.5,0.5,1,1.5,1.6,1.5c0.3-0.1,0.1-0.5,0-0.7C440,349.5,439.8,349.1,439.6,348.7z M432.1,339.3c0,0,0-0.1,0-0.1
				c0.1,0,0.1,0.1,0.2,0.1c2.4,1.7,4.2,5.5,6.1,8.7c-0.1,0-0.3,0.1-0.4,0c-0.1,0-0.2-0.1-0.3-0.1c-0.2-0.3-0.5-0.6-0.6-0.4
				C435,345.9,433.2,341.8,432.1,339.3z"/>
		</g>
	</g>
</g>
<g id="Robin">
</g>
<g id="Common-murre">
</g>
<g id="Song-thrush">
</g>
</svg>
