<?xml version="1.0" encoding="UTF-8"?>
<svg id="Rock-bunting" xmlns="http://www.w3.org/2000/svg" xmlns:xlink="http://www.w3.org/1999/xlink" viewBox="0 0 612 792">
  <defs>
    <style>
      .cls-1 {
        fill: #785b43;
      }

      .cls-2 {
        fill: url(#radial-gradient);
      }

      .cls-3 {
        fill: #492b13;
      }
    </style>
    <radialGradient id="radial-gradient" cx="316.8" cy="394.95" fx="316.8" fy="394.95" r="303.25" gradientUnits="userSpaceOnUse">
      <stop offset="0" stop-color="#d6bfa4"/>
      <stop offset=".32" stop-color="#d2bba0"/>
      <stop offset=".62" stop-color="#c7b197"/>
      <stop offset=".91" stop-color="#b4a088"/>
      <stop offset="1" stop-color="#ad9982"/>
    </radialGradient>
  </defs>
  <g id="Rock-bunting-2" data-name="Rock-bunting">
    <path id="Egg" class="cls-2" d="m50.43,433.6c0-164.28,149.38-374.77,266.37-374.77,103.33,0,266.37,210.48,266.37,374.77s-119.26,297.46-266.37,297.46S50.43,597.89,50.43,433.6Z"/>
    <g id="Dots">
      <g>
        <g>
          <path class="cls-3" d="m262.64,644.47c-.08.1-.16.18-.25.29.13-.15.2-.24.25-.29Z"/>
          <path class="cls-3" d="m430.69,690.86c.08,0,.17.02.25.03.1,0,.07-.04-.25-.03Z"/>
          <path class="cls-3" d="m427.29,641.25s-.02-.05-.03-.07c0,.01,0,.04,0,.05,0,0,.02.03.02.04,0-.01,0-.02,0-.03Z"/>
          <path class="cls-3" d="m427.3,641.38s0,0,0,0c0,0,0,0,0,.01,0,0,0-.01,0-.02Z"/>
          <g>
            <polygon class="cls-3" points="215 629.02 215 629.02 215 629.02 215 629.02 215 629.02"/>
            <path class="cls-3" d="m214.94,629.08s-.03.04-.03.05c.02-.02.03-.04.05-.06,0,0,0,0,0-.01,0,0-.02.01-.02.02Z"/>
            <g>
              <path class="cls-3" d="m447.98,651.44s0,0-.01,0c0,0,0,0,.02,0,0,0,0,0,0,0,0,0,0,0,.02.01.06.04.11.07.16.08-.01-.02-.04-.04-.1-.08-.02,0-.06-.02-.09-.03,0,0,0,0,0,0Z"/>
              <path class="cls-3" d="m447.93,651.4s.02,0,.03,0c-.02-.02-.06-.03-.09-.05.02.02.03.03.05.05Z"/>
              <path class="cls-3" d="m557.86,537.59c.21,4.28.28,8.88-1.44,12.88-2.1,4.23-5.04,6.95-7.28,8.66-1.39,1.11-4.34,5.12-6.1,9.44-2.64,4.8-7.6,14.63-11.23,21.23-4.63-3.69-8.68,2.48-13.25,7.66-2.37,2.47-2.63,2.92-5.54,4.48-.17.13-.81.4-1.21.56-.18.07-.35.14-.53.2-1.44-.7-2.64-4.25-4.08-7.84-2.38-4.88-3.51-9.34-6.03-13.95.25-2.55.56-4.72,1.08-5.77,1.66.56,5.49,4.02,8.88,4.2,7.82-.07,14.44-6.9,14.98-14.6.22-3.24-.64-6.55-1.83-9.54-.9-2.03-1.86-4.19-3.7-5.54-6.56-2.99-14.42-1.08-20.76,1.69,6.06-1.64,13.39-2.19,18.93.44,1.64,1.52,2.65,4.91,3.22,8.7.83,2.5-.85,8.56-2.77,10.34-2.54,2.5-5.5,4.19-8.18,4.14-1.28-.31-.54-.12-1.91-.73-2.1-.91-3.84-2.59-6.12-3.07-3.22-.78-4.66,2.01-5.17,4.7-1.27-1.63-2.79-3.07-4.48-4.28.08-1.51-.19-3.04-.65-3.72.31,1.09.4,2.26.2,3.38-2.03-1.38-4.27-2.45-6.6-3.15-5.9-1.28-9.26-1.28-14.46-2.41-2.9-.47-5.87-.83-8.74,0-.68.21-1.34.48-1.97.79,1.7-3.46,4.19-6.67,7.55-9.59,5.35-4.69,16.51-10.08,21.4-10.97-.21.71-1.01,1.2-1.48,1.75-3.68,3.67-7.61,6.31-11.7,9.37,4.21-2.15,8.46-4.29,12.31-7.07,1.72-1.32,4.15-2.81,3.47-5.33-1.76-4.97-18.2,3.12-21.44,4.89-7.81,4.46-14.36,12-16.46,20.86-1.87,1.42-3.62,3.04-5.04,4.87-1.53,2.39-1.87,5.38-1.59,8.16,0,.17.04.32.05.49-1.59.48-3.15,1.07-4.64,1.58-4.53,1.32-12.05,7.04-13.73,8.68-4.58,3.29-6.49,3.41-12.08,3.67-3.48.37-6.96.42-10.44.4-1.15-.58-2.3-1.18-3.37-1.79-4.34-2.5-9.26-9.68-15.25-13.06-2.45-1.19-4.82-2.6-7.17-4.04.21-.17.43-.34.63-.51,4.09-3.3,5.78-1.59,13.31,1.39,1.41.33,3.02.32,4.18-.65,2.03-1.83,2.84-4.53,3.89-5.35,1.86-2.2,3.75-2.65,6.37-5.56,3.22-3.99,5.32-8.1,8.43-10.01,2.08-.95,1.27-.65,4.35-1.34.34-.05.48-.07.52-.07,1.44,0,2.92-1.14,2.61-2.69-.07-.84-.69-1.57-1.46-1.88-2.55-1.19-4.84-2.86-7.3-4.22-10.76-5.69-21.18-12.07-32.59-16.44-5.87-2.44-12.33-4.69-18.72-3.04-1.67.25-6.18,2.43-6.22,2.84,1.01-.5,2.07-.91,3.16-1.21,10.3-2.75,19.47,4.55,28.25,8.83,8.83,4.77,17.57,9.72,26.33,14.61-4.25,1.83-6.8,6.11-9.48,9.72-1.9,3.47-5.16,4.03-8.56,8.41-.83,1.02-1.46,2.19-2.13,3.32-.05.1-.1.18-.15.26-.03,0-.06,0-.09,0-.66.13-2.72-1.21-5.61-2.36-5.56-2.61-10.04.12-14.01,3.29-6.44-3.98-13-7.66-20.83-7.94-5.01-.63-11.66-.76-14.7-1.44-2.91-.48-5.68-1.63-8.61-2.01-1.23-.14-2.45.29-3.68.22-.05,0-.09,0-.14,0-.16-.05-.3-.1-.39-.12-2.5-1.25-3.7-3.09-6.84-5.3-5.43-4.11-11.45-7.97-18.36-8.8-1.93-.29-3.89-.54-5.81-.06-.85.09-2.94,1.1-3.56,1.41-5.41,1.53-11.78,6.48-15.05,7.75-5.07,2.06-10.67,3.11-15.19,6.31-5.81,4.18-8.86,11.88-12.67,15.61-7.86,9.16-23.19,1.03-32.38-6.86-5.24-4.64-9.13-9.06-12.82-13.45-1.93-2.02-4.23-3.67-6.02-5.82-2.18-3.64-2.05-7.83-2.57-13.6-.11-3.65.64-7.31-.02-10.93-1.47-9.88-8.16-18.02-14.87-25.01-4.6-5.17-9.48-10.2-15.21-14.11-7.17-3.05-14.37-8.17-22.36-8.07-4.25.68-6.6,4.27-8.35,4.77-.4.15-.82.23-1.24.31-.21,0-.55,0-.87-.02,0,0-.02,0-.02-.01.02,0-.03-.03-.13-.06-.33-.16-.87-.44-1.05-.6-3.07-2.17-1.72-1.13-5.39-4.56-9.14-8.56-13.82-22.37-20.02-34.65-.55-.99-.87-2.22-1.3-3.06.21.9.39,1.81.61,2.7,4.38,14.39,7.93,30.44,19.86,40.65,5.33,4.68,8.98,6.45,16.04.49,2.11-3.01,8.36-.21,14.83,2.76,8.21,3.31,13.32,7.91,19.66,14.95,5.55,6.04,9.26,9.63,12.86,16.86,1.21,2.51,2.52,6.35,2.54,8.86-.04,4.93-.53,9.85.26,14.76.48,11.88,6.89,12.92,11.63,19.26,9.88,11.48,26.67,26.99,43.06,22.21,9.62-3.71,11.86-14.44,18.49-19.5,2.29-1.96,10.51-4.22,16.22-6.66,6.36-3.91,11.67-6.86,16.6-8.25.98-.12,5.62.21,9.1,1.66.1.08,4.13,1.93,4.77,2.4,1.4.68,6.62,4.63,6.04,4.14,2.71,1.95,4.91,4.73,8.07,5.98,1.68.65,3.45.21,5.18.11,1.09.01,6.27,1.74,9.39,2.17,6.21.75,14.32,1.02,18.52,1.92,4.46.91,8.69,3.16,12.95,5.76-1.1.87-2.16,1.65-3.22,2.19-6.07,3.58-9.64,5.5-15.83,7.54-5.44,2.26-10.85,4.64-16.49,6.34-5.47,1.41-13.88,1.8-18.64,2.62-6.22.7-12.59.83-18.6,2.72-5.26,1.38-11.14,6.63-14.34,7.65-4.07,1.44-11.37-.61-17.41.18-8.48,1.64-16.74,4.46-25.19,6.34-7.44,2.43-14.86,4.92-22.57,6.37-1.27.29-2.4.59-3.42.91-3.26-3-6.57-5.95-10.26-8.43-.77-.51-1.57-.99-2.42-1.36,1.68,1.07,3.03,2.55,4.44,3.93,2.06,2.15,4,4.41,5.93,6.69-9.39,3.91-4.16,9.74,3.67,15.91,4.32,3.56,7.83,7.91,11.69,11.93,2.38,2.43,3.26,4.07,6.01,7.26,3.81,4.28,6.9,8.04,10.59,13.51.64,1.15,1.14.87,2.15,1.58,2.1,1.19,4.07,2.58,6.11,3.86,5.34,3.85,11.38,9.72,17.76,13.49.36.2.73.35,1.1.54-7.56,4.29-14.45,10.68-19.38,16.1,6.64-5.59,15.38-11.17,23.42-14.33,6.48,2.43,13.44,3.29,20.38,3.35.51,0,1.03,0,1.55,0,3.47,4.48,5.41,10.7,5.89,16.19,0,1.81,2.22,2.81,3.6,1.78.15-.05.34-.1.5-.14,7.18-1.94,14.42-3.2,20.23-3.74,7.37-.04,14.73-.72,22.1-.43.84.04,1.67.1,2.51.15,2.06,5.49,1.64,11.25-2.94,16.85,5.01-4.16,7.09-10.56,5.88-16.68,3.78.23,7.56.5,11.34.8,4.68.46,9.52.68,13.99-1.03,9.02-3.7,16.09-10.98,22.46-18.16,1.46-1.54,3.17-4.31,4.65-7.19,1.28,2.39,2.94,4.53,5.35,5.92.96.99,2.47,1.8,5.1,2.79,2.45.78,5.13.94,7.63.3,1.3-.61,2.97-.21,5.3-.31,7.67.67,9.95-7.03,12.33-12.78-2.47,3.58-4.19,8.74-8.66,10.19-2.24.42-4.53-.08-6.78-.32-.07,0-.21,0-.39-.05-.56-.09-1.13-.14-1.68-.01-1.15.22-.84.27-1.25.28-.28.12-2.1-.05-2.64-.1-3.7-.81-4.3-1.49-7.23-3.98-1.86-1.35-2.36-2.79-3.8-5.62-.23-.46-.52-1.05-.82-1.73.79-2.07,1.21-3.73,1-4.37-.42,1.13-.92,2.21-1.45,3.28-1.2-2.97-2.32-7-1.06-9.45,1.28-3.63,9.23-10.5,14.08-15.86,1.54-1.81,3.19-3.64,4.39-5.68,3.54.41,7.15-.87,10.39-2.29.82,3.71,2.62,8.87,5.56,10.29,3.01,1.06,6.51.17,9.31-1.16,3.12-1.96,6.03-4.24,9.47-5.68,8-3.89,17.61-7.34,20.88-16.44,1.33-2.93,1.48-6.14,2.33-9.2,1.22-2.66,1.14-5.63,2.2-8.32.89-1.45,5.83-7.8,7.22-11.38,1.96-4.12,2.58-8.65,2.92-13.15,1.8,4.37,3.69,8.9,5.34,12.64,2.19,4.31,5.22,5.54,9.63,2.89,4.32-2.09,7-6.2,10.08-9.7.93-.96,1.76-2.02,2.8-2.87.07-.03.16-.09.27-.15.12.03.24.05.36.09.14.07.28.13.4.22.06.06.12.13.15.21.06.08.13.13.2.2-.21-.24.03-.07.2.21.01.01.02.03.04.04-.01-.01-.02-.02-.03-.03.03.05.06.11.08.17.08.13.19.22.29.34.16.3.36.59.65.77,1.6,1.35,3.72-.4,4.34-2.01,1.51-3.66,5.31-9.71,7.73-14.93,2.69-5.52,4.21-9.55,6.77-14.27.94-2.03,1.23-1.95,2.68-3.54,2.04-1.81,5.57-6.7,6.31-10.85.62-4,.11-8.16-.8-12.08Zm-98.86,34.93c3.47-2.25,5.31-3.32,8.75-3.08,1.86.07,5.67.94,9.07,1.5,4.45.71,6.22.49,10.33,2.06,1.07.45,2.39,1.26,3.74,2.31-2.68,3.24-7.18,4.98-10.39,7.65-1.39,1.18-2.82,2.43-3.64,4.08-.7,1.51-.73,3.23-.76,4.86-.07,4.24.12,8.56,1.61,12.57.53,1.93,1.12,4.04.72,6.03-1.16-.24-2.19-.96-3.34-1.29-1.9-.65-3.76-.97-5.59-1.01.22-.99.28-2.02.1-3.12-.2-1.1-.44-2.21-.74-3.32,1.05-.61,2.09-1.23,3.1-1.91,1.23-.71,2.6-1.62,2.89-3.11.42-1.67-.96-3.28-2.52-3.69-.51-.06-2.46-.84-3-1.06-7.42-3.1-10.53-7.9-10.97-13.69.01-1.99.23-3.92.63-5.79Zm9.4,24.1c-.24.15-.49.3-.72.46-.1.06-.2.11-.3.17-.18-.44-.37-.87-.56-1.31.53.23,1.05.47,1.58.68Zm-15.81-17.39c.03-.62.5-1.39,1.16-2.18-.08,2.13.16,4.25.85,6.26-.71-.12-1.42-.17-2.13-.15-.22-1.38-.22-2.69.12-3.93Zm-16.4,15.79c2.79-2.41,8.74-5.46,13.33-6.65.42.94.81,1.77.94,2.5.36,1.7.25.87.23,2.49-1.04,5.09-9.3,6.43-17.31,6.96-2.62.19-4.77.57-6.78.93,3.55-1.36,6.7-3.76,9.58-6.23Zm-204.14,28.97c8.11-2.53,16.18-5.08,24.46-7.03,4.52-.95,10.66-3.2,13.32-3.29,5.21-.49,10.43.84,15.62.25,3.52-.52,6.45-2.65,9.36-4.54,3.99-2.55,5.47-3.37,10-4.43,5.46-1.31,12.4-1.26,19.47-2.44,4.03-.69,8.72-.58,14.1-1.91,6.36-1.74,12.31-4.63,18.45-6.97,7.54-2.5,14.45-6.45,20.79-11.19,3.3,2.1,6.69,4.23,10.27,5.97,2.22,1.5,6.79,6.48,10.55,9.79-2.09,0-4.18.06-6.26.21-6.22.53-12.43,1.41-18.42,3.19-7.75,2.34-13.88,4.54-20.83,4.7-3.5.33-7.06.31-10.52,1.03-6.29,1.93-11.33,6.53-15.46,11.5-3.21,3.72-4.92,8.33-7.01,12.7-2.96,6.03-7.44,15.64-10.11,19.31-4.63,6.01-12.52-4.49-22.95-8.59-8.32-3.77-21.32-9.22-28.12-.31-1.63,2.51-3.33,3.87-4.02,4.09-3.89,1.4-6.13,1.34-8.08.35-3.6-1.85-5.31-4.4-9.18-7.52-3.03-2.41-8.62-6.61-10.28-7.78-1.86-1.48-3.64-3.05-5.4-4.65,3.31-.79,7.18-1.52,10.26-2.45Zm55.08,66.95c1.43-.2,2.8-.27,4.06-.19,1.28.22,2.46.63,3.57,1.17-2.6-.17-5.17-.49-7.64-.98Zm47.42,15.12c-5.25-.1-10.41.87-15.55,1.82-2.83.59-5.75,1-8.53,1.82-.02-.13-.03-.27-.05-.4-.75-4.42-2.28-8.93-4.69-12.79,4.05-.31,8.06-1.02,11.92-2.3,8.44-3.11,15.01-4.41,21.92-2.67,4.74,1.39,9,7.33,12.85,13.51.15.23.3.46.44.69-6.1-.13-12.2.08-18.31.31Zm105.21-79.14c-1.76,4.3-.85,9.05-.02,13.5-2.81,1.64-5.76,2.42-7.97,2.54.41-1.89.17-4.24-1.72-5.21-2.35-1.33-5.22.7-5.82,3.08-.84,2-.07,3.88,1.39,5.1-4.14,6.82-14.58,13.02-18.5,21.97-1.74,4.94.09,10.38,2.42,14.82.09.21.19.41.28.62-3.15,4.51-7.18,8.43-11.42,11.9-4.35,3.62-11.83,9.25-16.5,10.85-5.36,2.02-11.61.59-18.55.25-2.26-.22-4.52-.37-6.77-.48-2.44-5.64-5.39-11.12-9.92-15.35-6.64-6.27-17.02-4.74-25.09-2.54-7.26,2.62-12.41,3.93-19.33,4.08-2.24-2.25-4.94-4.02-8.15-5.03-4.66-.81-9.44.05-14.1,1.91-3.07-1.15-5.81-2.62-8.01-4.43-6.62-4.67-12.63-10.92-20.94-15.22-.12-.18-.29-.45-.78-1.23-3.06-4.23-9.07-11.86-11.21-13.89-4.63-6.13-10.49-12.43-16.18-17.59-3.94-3.57-7.4-5.92-7.72-7.66.31-.21.63-.42.96-.6.66-.37,1.52-.7,2.51-1.01,1.1,1.29,2.21,2.56,3.35,3.81,3.63,3.77,7.87,6.86,11.78,10.31,5.41,4.79,11,11.81,19.11,9.86,2.08-.28,4.14-1.03,5.85-2.27,1.2-.9,2.07-2.13,2.99-3.3.15-.32,1.25-1.61.96-1.25,1.32-1.58,2.2-1.86,3.8-2.39,6.72-1.16,15.73,2.63,24.35,7.37,4.97,3.14,9.69,7.87,15.93,7.87,3.77-.15,6.75-2.85,8.41-6.07,1.86-3.2,3.57-6.49,5.19-9.82,2.77-5.34,5.03-10.93,7.84-16.24,2.16-3.63,4.55-5.97,8.42-9.46,1.07-1.03,5.58-3.67,7.29-3.92,3.47-.64,10.91-.72,16.36-1.54,11.49-2.76,21.75-6.87,32.28-7.2,4.62-.37,9.23-.16,13.85-.06.21.11.42.21.62.32,2.87,1.27,5.73,2.79,8.87,3.22,4.65.66,9.31-.3,13.88-1.1,2.54-.41,4.45-.49,8.22-.88,7.21-.55,18.22-3.64,17.18-12.74-.23-1.63-.59-2.78-.99-3.77.08.02.17.03.25.06,1.35.45,4.6,3.83,5.97,5.76,1.17,1.82,2.14,3.76,2.89,5.66-11.78,6.22-22.64,9.57-35.66,10.52-5.24.6-7.24,1.27-12.27,1.2-3.2-.04-6.83-.78-9.37,1.7-1.97,2.19-3.86,4.5-5.31,7.07-1.1,1.76-3.4,8.01-3.38,7.84-4.91,9.74-8.81,23.8-11.74,32.07-1.04,1.89-.74,1.41-1.56,2.05-.11.05-.23.1-.33.15-.29.11-.59.2-.9.26-2.77.39-10.75-.07-15.53-.4-6.86-.56-17.27-2.26-18.2-7.49,0-.05,0-.08,0-.13-.22-1.61.4-2.74.66-5.18.26-2.07,1.02-4.42-.1-6.36-4.42-5.76-13.47-1.27-17.7.22-3.9,1.74-7.56,2.66-11.72,5.62-3.95,2.79-5.64,9.14-3.04,13.32.05.07.1.13.13.19-1.63.58-3.52-.09-5.12-.55-.86-.11-2.02-.74-2.43-.72,2.39.99,4.75,2.48,7.43,2.28.4-.05.97-.16,1.19-.55.11-.35-.1-.72-.24-1.04-1.69-2.97-.71-6.93,1.2-9.57,1.91-2.05,4.7-3.02,7.3-3.9,7.42-2.36,17.1-6.03,19.6-3.2.01.02.03.05.04.07,0,.05.01.12.04.23-.03.45-.05,2.58-.23,3.2-.27,2.25-.84,4.55-.11,7.82,3.9,8.67,18.21,9.28,26.5,10.05,6.38.26,15.17,2.37,17.52-5.63,3.68-10.99,6.51-21.24,11.15-30.55,1.94-4.67,3.27-8.35,5.59-10.99,1.46-1.63,2-2.66,2.98-3.15.19-.06.49-.16.78-.23.01,0,0,0,.02,0,2.19.04,4.38.25,6.57.17,8.53-.7,14.42-1.6,23.35-2.85,7.81-1.47,15.09-4.72,22.3-7.95.67-.34,1.35-.69,2.02-1.03.16.77.29,1.52.35,2.2.12.77-.11,1.56-.59,2.49-3.57.83-6.89,2.51-9.86,4.43-5.84,3.41-11.44,7.75-14.79,13.74Zm3.88,2.35c.05-.18.11-.35.18-.53.04-.08.08-.16.12-.24.07-.43,1.98-2.83,1.08-1.69,3.24-4.75,7.34-7.76,11.27-10.56,1.92-1.46,3.8-2.7,5.71-3.63-.02.02-.03.04-.04.07-2.43,5.01-3.15,8.09-6.63,13.09-2.5,3.79-7.22,8.27-11.47,11.65-.57-2.75-.55-6.4-.22-8.17Zm52.55-38.61c-.33,4.73-1.15,8.64-3.4,12.7-1.67,3.56-4.58,6.36-6.41,9.81-1,2.03-1.06,4.32-1.58,6.48-1.38,2.99-1.48,6.32-2.52,9.4-1.22,3.75-3.5,7.06-6.39,8.9-5.8,3.67-12.26,6.07-18.23,9.42-4.33,3.02-5.66,4.25-9.71,4.03.04.03.07.05.1.06.25.09.24.13.1.08.03.04-.05,0-.16-.08,0,0-.01,0-.02-.01-.02,0-.06-.02-.09-.03.03,0,.05.01.08.02,0,0,0,0,0,0,0,0,.01,0,.02,0-.01-.01-.03-.03-.04-.04,0,0-.02,0-.02,0-.04-.03-.09-.07-.13-.11.04.02.07.04.1.06-.05-.05-.1-.11-.15-.19-.01-.01-.02-.03-.03-.04-.27-.39-.49-.81-.73-1.22-1.33-2.23-1.84-4.47-2.26-7.22,4.56-3.23,8.56-7.3,12.37-11.34,3.56-4.14,7.25-11.89,8.23-15,1.01-1.84,2.31-3.62,3.24-5.52,2.45-.16,5.05.25,7.9,1.4,3.97,1.94,4.8-1.81,4.18-4.95-.48-3.5-2.18-6.75-2.15-10.34.11-2.99-.35-6.25.92-9.01,3.23-4.77,9.26-7.06,12.35-11.91,1.96,1.67,3.88,3.84,5.23,6.28-.3,2.78-.53,5.58-.78,8.36Z"/>
            </g>
          </g>
        </g>
        <path class="cls-3" d="m529.62,593.78c.05.05.11.12.2.21,0,0,0,0,0,0-.07-.06-.14-.14-.2-.21Z"/>
      </g>
      <path class="cls-3" d="m440.87,673.92c-2.2,0-2.19,3.35,0,3.36,2.2,0,2.19-3.35,0-3.36Z"/>
      <path class="cls-3" d="m442.65,677.49c-2.2,0-2.19,3.35,0,3.36,2.2,0,2.19-3.35,0-3.36Z"/>
      <g>
        <path class="cls-3" d="m172.84,618.77s-.06,0-.09.01c0,0,.01,0,.02,0,.02,0,.05,0,.07-.01Z"/>
        <path class="cls-3" d="m571.69,507.16s0,0,0,0c.02-.21.04-.49.08-.93.03-.41.13-1.21.25-2.1-2.63,2.26-3.9,5.69-5.42,8.73-1.73,4.09-4.13,7.85-6.55,11.55-1.68,2.33-2.42,4.23-4,5.84-1.39,1.59-5.24,3.54-6.51,3.52-7.04.21-13.91-4.11-20.42-8.61-3.9-2.17-8.03-6.53-12.78-5.89-5.19,1.65-7.78,7-10.41,11.34-3.13,4.6-5.2,9.7-9.01,12.84-3.79,3.01-9.78,2.44-14.85-1.2-2.99-1.81-5.77-4.03-8.95-5.5-4.08-1.76-8.42-2.86-12.81-3.55-8.05-1.66-16.33-2.71-24.51-1.41-7.4.88-13.27,4.4-19.56,6.65-5.79,1.72-11.71,3.05-17.67,3.99-3.95.69-6.99,1.85-10.4,1.89-10.85.03-20.68-8.09-31.43-12.88-11.76-6.37-25.93-12.12-39.31-7.75-10.16,4.74-21.84,7.65-33.62,9.77-.09.02-.19.04-.28.06,1.51-1.17,2.89-2.55,3.87-4.81,1.9-10.38,1.96-18.97,5.74-29.67,4.48-11.88,12.74-26.43,18.56-39.76-.87,1.32-1.73,2.65-2.6,3.97-10.13,15.21-21.91,30.53-23.98,49.26-1.21,5.6-1.73,14.91-2.38,15.34-1.51,1.9-3.41,2.68-6.03,4.99-1.02.9-1.98,1.82-2.91,2.72-1.9.34-3.74.6-5.5.7-7.42-.02-14.25-1.14-20.46-4.54-8.19-4.55-13.82-10.59-21.99-15.35-6.67-4.1-14.22-6.47-21-10.39-10.14-6.29-19.95-13.29-30.91-18.11-2.44-1-5.79-.83-6.65-2.11-3.85-4.16-7.5-11.28-12.32-16.46-4.37-5.02-10.51-7.91-16.2-11.14-4.38-2.16-8.9-4.73-13.6-6.35-.24-2.39-.25-4.72.07-6.81,1.34-12.82,3.41-25.27,7.94-37.8-6.16,12.2-8.9,25.86-9.95,39.4-.09,1.54-.08,3.08.01,4.61-3.73-1.05-7.58-1.42-11.56-.4-6.19,1.45-11.12,6.01-14.86,10.96-3.1,3.67-5,8.03-6.39,12.58,3.95-8.89,10.43-16.5,18.8-20.57,4.15-1.91,9.31-1.79,14.2-.4.49,4.3,1.65,8.51,3.44,12.45.24.59.48,1.21.74,1.83-1.04-.07-1.98.26-2.39,1.46-1.67,5.16-.81,11.67-.06,16.86,1.03,6.44-.41,12.89-2.39,19.01.96-2.16,1.8-4.38,2.51-6.63,2.55-6.86,1.01-14.05.66-21.11-.07-3.21.66-8.38,1.41-7.8-.49-.12.7.21,1.4.43.37.57.78,1.11,1.3,1.54,1.79.76,2.33-1.58.91-2.46-.25-.17-.54-.34-.85-.5-1.83-3.22-3.78-8.8-4.65-14.4,1.45.53,2.86,1.15,4.19,1.87,8.81,4.57,18.14,8.25,24.43,15.4,4.13,4.58,7.78,11.43,11.84,15.83,1.75,1.88,4.46,1.53,6.72,2.3,10.19,4.1,20.83,11.68,30.82,17.9,4.8,2.82,9.94,4.96,14.99,7.28,11.83,5.15,19.44,14.75,31.14,20.36,5.55,2.5,11.74,3.31,17.77,3.57,1.22-.04,2.43-.14,3.64-.29-1.44,1.35-2.83,2.52-4.23,3.27-9.03,4.51-22.18,4.3-34.77,4.01-7.39-.24-15.02-1.79-22.25.4-3.96,1.01-6.12,4.66-8.24,7.84-.69,1.16-2.56,3.3-4.02,3.91-.1.04-.18.08-.26.11-1.63.67-3.33.85-5.12.81-4.62-12.07-9.55-24.04-15.52-35.52,4.17,11.87,8.61,23.63,13.14,35.37-2.41-.23-4.98-.64-7.77-.69-8.41-.74-16.54-1.04-23.29-2.5-3.83-.81-6.44-.47-9.01-1.41-.02-.01-.02,0-.04-.02-.82-.5-1.5-.98-2.14-1.44,1.91-1.46,3.74-3.16,4.97-5.55,2.82-6.38,3.68-16.5-3.14-20.6-10.44-5.49-21.56-5.93-30.32-13.42-2.35-1.81-5.5-5.36-4.27-6.6-.39.26-.72.67-.62,1.16.24,1.2.78,2.33,1.44,3.35,4.03,5.98,10.17,10.33,16.85,12.89,6.01,2.79,12.31,4.48,16.13,7.88,1.09,1.29,1.99,7.26.65,11.26-.74,3.08-2.65,4.87-5.31,6.93-.72-.5-1.53-1.02-2.53-1.59-2.85-1.69-6.1-2.72-9.39-3.14-3.77-.3-7.62-.6-11.32.39-2.23.57-4.39,1.38-6.49,2.32-.46-1.59-.91-3.19-1.38-4.85-1.38-5.29-3.96-10.24-4.9-15.64-.63-6.63,1.04-17.18-1.56-24.82-1.39-5.24-4.24-10.47-5.7-14.77,0-.04,0-.08-.01-.11,0-.02.01-.04.02-.05.55-.19,1.13-.24,1.69-.39,1.56-.58,3.21-1.16,4.37-2.41,5.57-4.73,5.65-16.97,5.49-20.92-.86,4.93-1.42,10.85-3.43,14.77-1.6,2.81-2.68,4.44-5.19,5.69-.11.03-.25.08-.33.13-.76.27-1.51.58-2.32.67-1.51.12-3,1.33-2.6,2.98,1.58,4.99,3.81,8.42,5.34,13.65,2.84,7.75,1.52,15.49,1.74,24.05.26,4.8,2.41,9.18,3.85,13.7,1.03,3.07,1.93,6.19,2.82,9.3-2.14,1.05-4.24,2.21-6.3,3.38-1.51.84-2.64,1.84-3.51,2.94-1.74-4.16-3.46-8.32-5.15-12.61,1.26,4.69,2.72,9.31,4.28,13.89-3.2,5.67-.05,13.5,3.3,19.28-1.74-4.35-3.5-11.21-2.06-15.71,1.65,4.62,3.39,9.2,5.21,13.75,3.22,7.05,6.17,14.31,10.79,20.59,5.34,8.21,13.62,15.23,18.74,22.52,1.72,3.16,3.16,6.46,4.7,9.71,1.14,2.18,2.22,4.37,2.82,6.77,4.79,4.82,9.27,10.09,14.22,14.81,2.2,2.41,4.44,4.89,6.03,7.11,1.07,1.45,7.92,12.74,11.98,15.78.14.82.22,1.4.2,1.3,0,.95-.09,1.93.39,2.79,2.77,4.22,7.49,6.82,11.66,9.48,5.57,3.27,11.16,6.54,17.07,9.17-8.59-6.18-20.73-14.72-24.92-20.26.63-1.82-1.27-8.27-2.02-12.01,0,0,0-.02,0-.03,1.1.01,2.81,1.16,4.12,2.36,11.26,9.6,19.88,27.59,36.9,26.15,3.67-.53,7.43-1.19,11.58-.75,2.57.33,7.89,2.07,10.37,3.3,6.57,3.51,13.19,6.93,20.18,9.55,4.46,1.87,9.16,3.88,14.1,3.49,4.96-.51,9.72-2.13,14.54-3.34,6.02-1.2,12.21-2.66,18.11-4.59.56.11,1.12.2,1.7.26,3.77.47,7.57.02,11.34-.27,5.14-.04,10.24-.52,15.29-1.52,6.9-1.27,13.28-4.41,20.07-6.1,14.33-3.65,29.36-1.04,43.38-8.35,4.31-2.37,4.33-7.14,3.22-11.4-1.05-4.02-2.15-8.02-3.2-12.04-.46-2.16-2.01-6.78-2.33-7.81-.03-1.5.14-1.59.33-3.18.74-5.19,2.49-10.16,3.41-15.32,1.5-6.12,2.75-14.55,5.17-19.27.33-.72.69-1.41,1.06-2.08,3.32-.52,6.45-2.23,9.09-5.79,2.26-2.98,3.33-6.44,4.05-10.04,3.09-3.26,6.22-6.49,9.55-9.5,1.82-1.75,3.87-3.24,5.82-4.84.43.26.86.53,1.27.81,5.8,3.62,11.78,7.36,18.84,7.54,1.33.12,2.68.28,3.97-.15-1.53.28-3.03-.21-4.52-.51-6.87-.95-12.14-5.62-17.87-9.16.46-.42.94-.83,1.37-1.29,1.96-2.12,1.8-5.15,1.86-7.85.27-5.01-.6-12.05.31-15.97,1.34-12.82,8.58-14.34,19.99-10.06,8.22,2.84,15.87,5.9,23.66,9.74-7.17-4.64-14.85-8.43-22.84-11.43-11.01-4.4-20.64-3.56-22.59,9.87-1.76,7.53.65,19.52-1.76,23.91-.61.7-1.27,1.33-1.97,1.94-2.46-1.35-5.04-2.41-7.91-2.79-6.99-.7-6.84,6.05-8.02,11-.43,2.49-.83,5.25-1.35,7.86-.28.29-.56.59-.84.88-4,4.34-8.35,8.61-11.41,13.7-.95.09-1.92.11-2.97-.04-3.97-.34-8.99-2.93-13.43-5.5-5.94-3.09-11.45-6.88-16.83-10.84-4.27-2.97-10.88-7.41-15.82-3.64-1.14,1.6-.83,3.73-1.11,5.61-2.51-1.61-4.13-3.07-6.77-5.02-4.18-2.89-8.51-5.54-12.79-8.28-4.75-3.04-10.46-3.37-15.93-3.65-7.6-.75-15.2-.41-22.69,1.04-8.3,1.36-14.3,7.1-22.07,6.01-1.13-.15-3.26-.22-2.66,1.52,3.78,10.04,3,19.92,1.57,30.64-.79,6.34-1.96,14.72-9.05,14.2-3.45-.32-8.91-2.9-12.46-4.14-1.97-.65-5.6-1.61-6.32,1.09,0,.09-.05.22-.1.32-.03.06-.05.1-.06.13-.03.04-.07.08-.11.11-6.63-.92-13.47-5.58-18.55-11.76-2.26-2.49-5.11-5.41-6.59-7.49-1.88-2.52-3.31-5.32-5.17-7.85-.79-1.11-1.69-2.13-2.52-3.2-.77-.73-1.36-2.15-2.61-1.85-.52.24-.67.52-.77.72-.37-.14-1.07-.37-1.6-.87.46.36-1.06-.92-1.29-1.3-.86-1.18-2-2.24-2.4-2.9-6.1-8.91-8.98-17.95-12.53-28.07,1.4-.06,2.79-.26,4.15-.77,5.88-1.48,9.56-10.47,11.36-11.27,4.78-2.99,14.79-1.29,23.25-.98,10.78.26,21.94.38,32.34-2.84,5.24-1.6,9.21-5.52,12.95-9.33.41-.47.84-.89,1.28-1.28,1.05-.23,2.1-.46,3.15-.68,8.15-1.71,16.4-2.95,24.26-5.79,4.9-1.24,8.84-3.54,12.97-4.89,7.93-2.06,16.28-.47,24.69,2.55,6.2,2.54,13.73,6.59,20.51,10.1,6.49,3.46,12.93,7.6,20.43,8.29,4.62.85,9.13-.79,13.63-1.64,5.16-.8,10.25-1.97,15.31-3.26,7.8-2.17,15.45-6.9,22.41-7.46,11.72-1.33,22.75.7,34.06,4.24,5.57,1.87,11.23,8.23,18.14,9.39,6.92,1.2,12.09-3.5,15.17-9.26,2.78-4.34,5.16-8.96,8.22-13.12,3.87-4.58,5.57-4.92,11.78-.71,7.23,4.77,14.42,10.33,23.24,11.58,7.06.84,12.1-5.23,15.14-10.85,3.22-4.77,5.82-9.63,7.58-14.39.4-1.16,1-2.43,1.76-3.58.2-1.82.12-.78.07-.11Zm-147.82,76.39c.48-2.47.9-5.09,1.93-5.9,1.77-1.45,5.7-.47,9.43,1.4-1.47,1.15-2.97,2.26-4.31,3.54-2.91,2.54-5.64,5.27-8.32,8.06.37-2.4.72-4.8,1.27-7.09Zm-5.23,14.47c-.33,1.05-.7,2.04-1.15,2.89-1.74,3.13-4.06,5.5-6.99,6.64,2.33-3.42,5.13-6.34,8.13-9.53Zm-302.46-46.72c5.86-2.27,9.45-2.28,15.95-1.69,1.5.2,4.81,1.27,7.82,3.04-3.21,2.82-5.66,6.55-5.98,10.91-.09,2.17-.57,4.49.25,6.56.84,1.67,2.35,4.24,3.56,6.35-1.57,2.25-3.02,4.81-4.32,7.76-.5,1.26-.99,1.93-1.62,2.48,0,0,0,0,0,0-.2-.09-.41-.18-.58-.32-1.92-2.84-6.18-11.3-8.56-16.36-3.32-6.03-5.46-12.01-7.38-18.37.29-.12.56-.23.86-.35Zm59.96,115.9c.11.24.21.54.3.85-2.15-2.41-4.89-6.19-6.69-8.75-4.44-7.88-11.3-13.77-17.4-20.29-1.47-1.48-2.9-3-4.24-4.59-.84-.97-2.25-1.48-2.36-2.9-1-3.71-2.29-5.68-3.52-8.74-.94-1.98-2.26-5.72-3.88-8.19-6.7-8.57-14.45-15.36-19.97-24.28-4.8-7.6-7.99-15.53-11.17-23.38-1.25-3.06-2.5-6.03-3.74-9,.48-.72,1.09-1.34,1.88-1.78,3.08-1.95,5.21-2.68,7.82-3.66.86,2.91,1.76,5.82,2.83,8.66,2.14,5.16,4.77,10.1,7.23,15.11,2.46,4.24,7.38,19.6,12.15,9.27,1.13-2.56,2.36-4.81,3.67-6.81.26.49.45.87.53,1.1,1.56,4.08.97,5.94,2.98,10.19,1.97,5.62,7.44,13.31,14.08,17.43,3.21,1.26,3.11,3.38,6.1,7.15,2.93,3.48,6.27,9.33,11.61,7.82,1.85-.23,8.11.61,9.56,1.41,2.63,1.5,3.66,3.04,5.67,6.6.07.19.14.42.16.56.03.15.08.42.12.63.04.33.06.67.06,1-.11,1.3-.7,3.61-1.81,4.54-2.12,2.23-4.67,4.03-6.55,6.49-5.6,6.54-8.81,15.2-5.44,23.55Zm73.91-38.86c.02-.12.16-.51.21-.66,0,0,0-.01,0-.01,1.58-.39,4.37.56,6.92,1.64,4.15,1.44,8.59,4.29,13.08,2.67,7.87-2.93,7.12-12.96,8.25-19.86.68-6.18,1.16-12.43-.02-18.58-.07-1.01-1.16-5.72-1.81-7.62.37,0,.74.01,1,.07,6.82.89,12.13-3.24,17.24-4.61,8.31-2.57,15.93-3.02,24.79-2.41,5.7.39,11.03.35,15.2,2.53,5.03,2.82,9.82,6.09,14.6,9.32,2.29,1.64,4.05,3.36,6.9,5.11,1.72,1.41,3.08.78,3.11-1.51.25-.97.29-4.19.36-4,.02-.16.13-.49.18-.64.03-.06.06-.11.08-.14,0-.01.01-.01.02-.02,3.26-1.8,8.29.79,12.72,4,5.2,3.8,10.45,7.51,16.16,10.51,5.22,3.18,11.39,6.3,17.17,6.39-.18.36-.37.7-.53,1.07-3.12,6.75-3.98,14.2-5.75,21.36-1.1,5.74-3.23,11.35-3.4,17.24,1.57,5.52,3.23,11.04,4.64,16.61,1.35,4.12,2.19,9.34.8,10.86-2.24,2.86-5.74,3.35-9.79,4.73-10.49,3.47-20.38,2.04-31.85,4.49-6.34,1.24-12.31,3.78-18.47,5.66-5.87,1.6-10.62,2.3-16.32,2.48-4.17.29-7.72.57-10.92.5,1.26-.5,2.5-1.01,3.71-1.57-1.66.56-3.33,1.06-5.02,1.53-5.87-.33-10.63-2.12-16.08-7.82-7.96-7.92-15.82-17.32-19.91-26.64-1.94-5.03-2-10.75-5.14-15.31-5.05-8.76-15.06-12.47-23.77-15.86.72-.18,1.31-.63,1.64-1.51Zm12.1,10.34c4.08,2.46,8.06,7.34,9.68,11.27,1.53,3.66,1.75,7.71,3.19,11.4,3.15,7.3,7.77,13.94,13.08,19.84,5.53,6.13,11.32,13.39,19.42,15.8-5.54,1.29-11.16,2.3-16.74,3.38-4.13,1.04-8.21,2.33-12.42,3.03-4.71,1.09-10.75-1.22-16.08-3.51-7.03-2.53-13.33-6.2-20.42-9.6-3.34-1.36-6.83-2.5-10.42-2.89-3.74-.23-7.48.3-11.17.89-14.4,1.78-24.41-15.18-34.81-24.78-1.86-1.85-4.38-3.55-6.1-3.55,0-.2,0-.38,0-.47-.11-.72.47-2.59.96-4.81.58-2.27,4.26-7.73,6-9.48,1.8-2.01,4.08-3.56,5.72-5.72,2.52-3.27,2.98-8.13.92-11.74-2.23-3.39-4.94-6.93-9.02-8.07-3.13-.77-6.42-1.14-9.64-1.17-.5.05-.98.17-1.48.27.25-.03.44,0-.07.01h0s-.05.01-.08.02c0,0,0,0,0,0,.02,0,.04-.01.07-.02-.06,0-.11,0-.14,0-.09-.02-.19-.03-.28-.07-2.11-.69-6.66-6.14-8.5-9.81-.65-1.26-1.41-2.47-2.46-3.43-1.16-1.08-2.71-1.59-3.96-2.57-3.62-3.26-6.32-6.24-8.16-9.37-2.19-3.99-3.36-6.72-4.8-12.58-.63-2.07-1.56-4.02-2.6-5.92,6.71-7.57,15.49-9.03,26.82-3.94,7.64,3.31,13.91,8.93,20.71,13.61,5.84,4,12.83,7.53,13.16,12.95.04,3.83-.63,7.72.17,11.51.67,3.97,4.53,6.02,7.93,7.42,4.31,1.7,7.28,2.63,11.25,4.48,8.29,3.26,14.94,6.37,23.04,9.91,6.37,2.55,11.54,4.24,17.23,7.72Zm-53.39-41.5c.98.72,2.47,1.76,3.73,1.29.14-.06.29-.17.43-.29.11.11.22.22.32.34,1.87,2.15,2.68,3.38,4.23,5.65,2.82,5.1,6.67,9.44,10.65,13.65,1.81,2.07,3.73,4.05,5.83,5.79-5.36-2.29-10.64-4.44-15.71-6.65-4.41-1.66-8.74-2.86-11.58-5.29-1.62-1.44-1.84-3.1-2-5.7-.15-2.87.32-5.75.15-8.62-.7-6.24-6.58-9.64-11.4-12.66-7.34-4.75-13.89-10.71-21.71-14.7-12.9-6.45-23.32-5.27-31.05,2.94-.55-.91-1.1-1.82-1.66-2.71-1.54-2.38-1.04-1.58-.96-5.14-.2-2.65,1.68-5.96,3.04-7.65.7-.8,1.57-1.52,2.51-2.22,1.49,1.2,4.02,3.26,6.33,3.55,6.06.66,9.07,1.4,15.32,2.22,6.37.65,12.77,1.1,19.16,1.61,2.36.06,4.78.47,7.18.61.08.22.17.44.25.65,4.2,11.66,7.84,24.45,16.95,33.33Z"/>
      </g>
      <path class="cls-3" d="m328.35,178.1c2-5.94,2.69-12.55.6-18.35,1.86-7.58-.73-16.64-5.17-22.84-4.1-6.04-10.42-12.17-16.8-13.64-1.59-1.1-3.25-2.1-4.96-2.97-8.42-4.51-22.15-6.23-30.15-.85-6.26-2.73-14.21-3.55-19.5,1.47-4.23,4.07-7.54,10.31-8.36,16.58-5.04,2.97-7.67,9.42-6.26,15.21,1.22,4.54,4.76,7.79,8.53,10.34.71.46,1.45.89,2.21,1.31,1.03,1.12,2.19,2.12,3.47,2.95,1.07.62,2.18,1.26,3.34,1.87,3.35,3.46,8.43,5.26,13.24,5.67.18.04.37.07.56.11,1.23.79,2.55,1.45,3.93,1.99,2.53,3,5.69,5.43,8.86,6.69,3.1,1.52,6.36,2.47,9.7,3.1,2.83,4.9,6.09,10.78,10.24,14.83.03.08.05.16.08.24,6.27,13.53,25.17,3.11,28.77-7.48,1.93-5.52.69-11.37-2.33-16.22Z"/>
      <path class="cls-3" d="m435.85,419.85c-1.36-8.55-6.35-15.74-11.95-22.13-2.27-2.54-4.57-5.08-7.08-7.39-.09-.05-.17-.13-.26-.19.4-.59.43-1.43-.06-2.29-1.87-4.32-4.82-8.06-7.34-12.01-5.67-8.14-12.03-15.94-19.86-22.1,6.29,6.15,11.41,13.32,16.47,20.47,2.98,4.32,7.54,10.91,9.04,14.46-.5-.32-1.01-.49-1.55-.21-.94.77.13,2.25,1.06,2.49.11.02.2,0,.31.02,6.1,5.42,12.34,12.77,16.59,20.57,1.62,3.5,2.75,9.45,4.04,14,.71,2.83.87,4.97,1.01,8.09.06,1.34-.94,2.38-1.99,3.08-1.7,1.45-3.23,1.93-5.28,2.66-.52.3.75-.27,1.03-.24.64-.13,1.29-.2,1.91-.41,1.12-.36,2.11-1.04,3.13-1.61,1.92-.95,2.6-3,2.46-5.03.2-4.16-.76-8.2-1.68-12.22Z"/>
      <path class="cls-3" d="m220.81,313c-.58-1.32-1.11-2.68-1.85-3.93-1.7-2.42-4.26-4.07-6.42-6.04-4.25-3.69-7.2-9.3-12.66-10.16-2.35-.19-4.46-.22-5.52-.91-5.86-5.75-8.65-17.55-9.22-26.87-.3-7.23-.66-14.71,1.32-21.73-5.56,14.13-4.51,39.24,6.8,50.35,2.04,1.16,4.49.98,6.76,1.23,3.52.44,8.36,7.68,13.6,11.04,1.36,1.13,3.73,2.44,5,4.47.49,1,1.18,1.88,1.64,2.88.66,1.56.61,3.94.69,5.23.16-1.84.38-3.76-.15-5.56Z"/>
      <path class="cls-3" d="m228.84,447.61c-5.57-6.66-10.64-15.45-13.42-23.85-.75-2.54-1.66-5.03-2.38-7.59-.67-2.24-2.36-9.39-5.62-6.1-1.77,2.41-2.57,5.36-4.12,7.9-1.46,2.64-3.16,4.55-5.2,4.44-1.77-.21-4.6-2.43-5.85-5.44-3.64-9.34-1.34-22.49-.24-33.68-1.91,9.18-4.63,18.6-3.2,28.03.51,3.83,1.52,7.84,4.4,10.6,4.63,4.6,8.99,2.53,11.72-2.69,1.61-2.74,3.15-7.36,4.1-8.1.04.04.11.12.21.24.06.08.2.29.26.41,1.78,3.37,2.62,7.88,4.04,12.05,1.8,5.35,3.51,9.45,6.3,14.35,2.1,4.21,5.76,8.18,7.89,11.42,1.9,3.8,3.69,9.43,3.6,14.71.31,4.45-4.55,6.63-6.66,9.98-.5.59-2.03,2.49-.65.98,2.11-2.45,4.85-4.17,7.03-6.55,1.95-1.87,1.71-4.76,1.76-7.25-.31-5.13-1.63-9.91-3.98-13.84Z"/>
      <path class="cls-1" d="m492.31,476.81c-1.09-.02-1.09,1.69,0,1.68,1.09.02,1.09-1.69,0-1.68Z"/>
      <path class="cls-1" d="m534.12,524.83c-3.97-.93-7.65-.71-11.07-1.46-1.87-.22-3.6-1.06-5.42-1.45-3.97-.33-8.19-.24-11.97,1.15-4.88,1.99-7.68,6.82-10.56,10.97-.92,1.29-1.89,2.68-2.9,4.09-.44-8.9-1.38-17.78-2.75-26.58.48,9.53,1.03,19.08,1.27,28.63-4.87,6.64-10.72,13.28-18.01,13.45-12.3.74-24.41-8.18-37.52-8.31-10.49-.75-21.09.04-31.36,2.31-15.47,3.04-30.31,8.57-45.02,14.15-6.02,2.23-10.4,4.95-16.74,6.24-5.21.9-11.44.66-17.09-1.76-2.5-1.01-7.5-4.61-10.42-7-3.69-3.46-10.32-8.6-15.74-11.5-5.69-3.85-13-5.55-19.5-2.74-10,3.61-13.46,14.4-16.9,23.45-1.59,3.46-3.87,10.16-6.87,10.84-2.11.57-3.86-.81-6.73-2.32-8.08-4.36-14.49-11.48-22.92-15.15-4.49-1.78-9.36-1-13.99-.29-5.16.54-12.15,1.81-18.33,1.81-15.71.32-31.4-1.21-47.12-.67,16.11,1.2,32.26,2.8,48.43,2.29,9.91.08,19.29-3.3,27.95-2.13,8.61,2.14,15.3,10.28,23.51,14.78,2.9,1.61,6.17,4.32,9.69,3.46,4.34-1.45,5.66-6.76,7.55-10.46,4.2-10.38,7.05-21.18,17.89-24.17,8.86-2.98,17.23,3.38,25.37,9.11,4.51,3.49,10.78,9.7,16.99,12.53,10.34,5.01,23.24,1.83,31.9-2.8,17.07-6.72,34.4-13.15,52.5-16.4,9.14-1.7,19.96-2.2,30.07-1.2,10.61.92,22.52,8.77,34.4,8.06,7.97-.29,13.64-6.43,18.08-12.43.1,5.92.07,11.83-.21,17.75-.17,3.17-.18,5.98-1.35,8.21-2.72,5.17-8.68,9.38-13.89,9.83-2.9.3-5.58.45-7.87-.11-2.44-.44-5.04-1.72-7.49-.77-4.14,1.57-5.95,5.88-8.09,9.42-3.73,6.69-7.13,11.92-13.88,12.46-7.24.54-15.07-4.73-23.02-4.82-6.31.59-9.58,6.99-12.73,11.73-4.09,6.13-5.37,13.95-8.32,19.74-3.14,6.8-10.06,5.76-17.31,3.38-6.14-2.14-12.37-6.1-19.02-8.85-5.21-2.85-10.43-5.75-16.1-7.62-5.06-1.96-9.71,1.99-13.73,4.58-3.82,2.53-7.58,5.15-11.13,8.05-4.23,3.29-8.97,8.61-12.44,11.33-3.85,2.98-8.54,4.6-12.59,4.96-6.47.59-11.92-1.36-18.51-2.64-9.2-1.61-18.76-3.52-27.64-5.62,9.32,3.32,18.9,5.84,28.61,7.74,7.6,1.71,15.65,3.98,23.3,1.27,5.47-1.64,9.79-5.43,13.71-9.43,3.83-3.85,7.21-6.62,11.3-9.65,3.41-2.47,6.93-4.81,10.47-7.09,3.04-1.71,4.79-2.69,7.6-1.82,5.54,1.77,10.53,4.54,16.02,7.59,6.01,2.55,11.65,5.89,17.66,8.41,5.81,2.01,13.5,4.67,18.73.1,4.01-3.95,5.1-9.74,6.87-14.88,2.59-6.32,6.95-14.94,12.49-18.52,2.68-1.56,5.75-.69,9.67.45,4.53,1.31,9.03,2.92,13.72,3.55,14.83.64,15.96-15.05,23.44-21.39,2.7-2.04,4.79-.54,8.72.17,4.24.56,8.78.27,12.78-1.33,3.82-1.81,7.23-4.7,9.52-8.27,1.61-2.43,1.96-5.38,2.07-8.22.2-4.02.33-8.04.33-12.06.02-3.19-.03-6.37-.14-9.56,3.83-4.91,7.58-12.01,11.86-15.29,3.41-2.57,8.84-2.36,12.58-2.36,2.4.45,4.67,1.52,7.13,1.71,3.84.89,8.33.13,10.55,1.81,1.81,1.78,2.66,6.59,2.46,11.06.33,11.25-2.77,20.95-8.82,30.44-7.45,12.23-19.68,20.39-31.05,29.05-3.35,2.84-6.75,5.82-8.29,10.06-1.78,3.5-1.93,7.51-3.43,11.1-4.62,19.57-20.8,35.05-37.85,46.5-15.69,11.48-29.94,22.52-49.47,20.61-7.91-.29-15.8-1.2-23.71-1.38-7.96-.29-16.37.62-24.05,1.45,8.02.05,16.05-.15,24.05.46,10.03.45,20.02,1.84,30.07,1.71,17.56-.15,31.58-11.94,45.19-21.63,17.04-11.5,33.06-27.44,37.77-47.26,1.46-3.7,1.78-8.25,3.4-11.07,1.55-4.01,4.35-6.18,7.72-9.14,6.47-5.1,15.24-11,21.72-17.47,8.86-9.11,16.04-20.6,18.07-33.3.51-6.34,2.73-20.53-4.13-23.64Z"/>
      <path class="cls-1" d="m212.06,642.46c-9.84-4.35-20.72-10.18-31.74-6.97-4.16.69-5.62,7.32-6.84,8.58-.57.45-1.01.14-2.66-.7-5.96-3.98-11.53-10.62-17.88-15.33-10.94-8.66-22.7-17.25-32.04-28.5-3.83-4.91-7.72-9.32-9.25-15.21-1.44-4.12-1.81-7.69-.11-9.45.18-.68-.44-1.17-.82-1.64-.17-.11-.8-1-.95-1.21-2.05-3.13-3.64-6.55-5.71-9.67-2.42-3.74-4.75-7.6-7.71-10.95-2.25-2.53-5.09-4.41-7.57-6.69-5.76-5.15-10.01-10.42-13.29-17.44-2.23-5.46-4.37-14.41-5.07-20.28-.71-7.13.07-14.51,2.69-20.31,1.12-2.49,3.07-4.32,4.18-4.42,1.56.09,2.91.8,3.76,2.7,2.94,6.58,4.52,16.07,5.45,23.45,1.29,4.29,3.89,8.3,5.19,11.92,2.26,7.51,5.8,14.78,10.93,20.76,1.39,1.43,2.95,3.18,4.76,4.27.67,2.08,1.34,4.16,2,6.24,3.05,9.42,6,18.88,8.75,28.39-1.84-8.32-3.9-16.6-6.43-24.73-.95-3.09-1.94-6.17-2.92-9.25.66.23,1.35.39,2.08.37,1.03-.1,1.7-1.24,1.25-2.18-.53-1.31-4.21-4.38-5.06-2.2-.13.35-.15.72-.14,1.08-4.66-3.58-8.13-10.1-11.04-15.86-1.5-4.05-3.88-11.16-5.98-14.9-2.06-3.84-2.09-7.16-2.76-11.87-.95-5.87-2.37-11.75-4.88-17.16-1.09-1.79-3.33-3.17-5.45-2.8-2.53.6-4.06,2.99-5.22,5.14-2.43,5.01-3.09,10.73-3.28,16.23-.03,6.09,1.25,12.09,2.9,17.93,1.39,6.97,4.74,13.36,9.22,18.84,4.41,6.16,11.19,9.93,15.99,15.68,2.17,2.88,5.36,7.74,7.64,11.56,1.82,2.92,3.16,6.16,5.46,8.76-1.41,2.46-.95,5.57-.16,8.18,1.17,4.89,3.46,9.38,6.62,13.28,9.64,13.35,23.81,23.95,35.97,33.52,4.16,3.34,8.08,6.98,11.98,10.61,2.74,2.27,8.8,8.96,11.64,4.16,1.35-2.67,2.32-5.82,4.14-6.62,8.69-3.77,20.41,1.14,30.39,4.58,2.14.81,5.18,1.71,6.88,1.64-1.72-.19-3.33-.87-4.91-1.53Zm-101.55-98.3c.11.07.27.47.32.57,0,0,0,.02,0,.02-.25.34-.58.16-1,.08-.57-.25-1.11-.56-1.65-.89-.35-1.69.24-1.96,2.33.21Z"/>
      <g>
        <path class="cls-1" d="m468.82,469.57c.19-.24.35-.48.48-.73-.14.26-.32.48-.48.73Z"/>
        <path class="cls-1" d="m452.86,475.88c-4.12.04-8.63-1.5-13.21-2.47-4.66-.73-9.05-2.43-13.57-3.65-8.81-1.07-16.11,1.55-24.77,2.39-9.07,2.25-20-1.4-29.86,1.35-11.23,3.26-20.4,10.3-31.24,12.95-6.02,1.56-12.71,1.08-19.45.34-7.54-.61-15.31-2.01-21.25-5.52-2.2-1.24-3.18-2.27-5.07-4.03-2.75-1.68-2.34,1.14-1.88,2.99.59,3.72-.98,11.65-2.54,15.46-4.83,12.76-19.19,14.83-31.8,15.39-17.04.65-34.1,1.52-51.01,3.88,14.79-.2,29.56-.89,44.33-1.75,24.43-.35,43.22-3.95,42.82-32.86-.01-.3-.05-.59-.11-.88.29.3.61.64,1.01.97,1.83,1.57,3.92,2.85,6.14,3.79,5.71,2.83,12.04,3.69,18.31,4.34,6.68.72,13.47,1.44,20.1-.05,11.45-2.54,20.88-9.71,31.49-12.86,8.63-2.82,18.73.5,28.25-1.11,8.81-1.11,15.72-3.02,24.17-2.98,3.47.04,7.6,2.26,11.76,2.98,5.95.99,11.79,3.37,17.89,2.96,5.69-.76,12.27-2.84,15.45-7.93-2.64,3.42-10.57,6.41-15.96,6.3Z"/>
      </g>
      <path class="cls-1" d="m494.74,411.78c.48-.5.84-1.25,1.02-2.34.1-5.06-3-9.58-5.46-13.8-3.99-6.79-8.69-13.11-14.32-18.63,4.07,5.06,7.85,10.32,10.95,16.03,2.71,4.96,5.9,9.27,7.05,14.43.24.98.16,1.84-.08,2.46-1.91-4.18-3.94-8.38-7.26-11.58-.96-.94-3.03-1.71-3.58.04-.16,1.47.78,2.86,1.35,4.17,1.26,2.55,2.45,5.16,4.34,7.31.68.97,1.58,1.75,2.5,2.21-.01.32,0,.44.06.03.7.33,1.4.48,2.05.39.72.61,1.33,2.04,2.11,1.99.4-.18.2-.68.06-.98-.27-.57-.54-1.15-.8-1.72Zm-9.91-12.5s-.04-.11-.06-.18c.09.04.18.08.26.13,3.18,2.27,5.6,7.3,8.11,11.61-.16.06-.33.09-.51.03-.13-.05-.27-.12-.4-.19-.32-.43-.61-.77-.77-.47-2.78-2.08-5.27-7.55-6.63-10.93Z"/>
    </g>
  </g>
</svg>