<?xml version="1.0" encoding="utf-8"?>
<!-- Generator: Adobe Illustrator 28.2.0, SVG Export Plug-In . SVG Version: 6.00 Build 0)  -->
<svg version="1.1" xmlns="http://www.w3.org/2000/svg" xmlns:xlink="http://www.w3.org/1999/xlink" x="0px" y="0px"
	 viewBox="0 0 612 792" style="enable-background:new 0 0 612 792;" xml:space="preserve">
<style type="text/css">
	.st0{fill:url(#Egg_00000140724965523262151050000002652929470021759920_);}
	.st1{fill:#762B1E;}
	.st2{fill:#B17B5C;}
	.st3{fill:#A66A49;}
	.st4{fill:url(#Egg_00000011016913422195493390000004241805020299034547_);}
	.st5{fill:none;stroke:#000000;stroke-width:0;stroke-linecap:round;stroke-linejoin:round;}
	.st6{fill:url(#Egg_00000133513126421281061070000006698356659485009834_);}
	.st7{fill:#492B13;}
	.st8{fill:#785B43;}
	.st9{fill:url(#SVGID_1_);}
	.st10{fill:url(#Egg_00000035496644075433512790000011136151536442717885_);}
	.st11{fill:#634F4D;}
	.st12{fill:#191923;}
	.st13{fill:none;stroke:#191923;stroke-width:0;stroke-linecap:round;stroke-linejoin:round;}
	.st14{fill:#755F4A;}
	.st15{fill:none;stroke:#755F4A;stroke-width:0;stroke-linecap:round;stroke-linejoin:round;}
	.st16{fill:url(#Egg_00000124851768282827782880000007122025570328328090_);}
</style>
<g id="Great-tit">
</g>
<g id="Common-loon">
</g>
<g id="Layer_4">
</g>
<g id="Layer_5">
</g>
<g id="Layer_8">
</g>
<g id="Rock-bunting_1_">
</g>
<g id="Robin">
</g>
<g id="Common-murre">
</g>
<g id="Song-thrush">
	<g id="Dots">
		
			<radialGradient id="Egg_00000057144635702556016820000018284810419596799649_" cx="306" cy="396" r="180.0288" gradientTransform="matrix(1 0 0 1.2367 0 -93.7505)" gradientUnits="userSpaceOnUse">
			<stop  offset="0" style="stop-color:#9DD2C8"/>
			<stop  offset="0.249" style="stop-color:#98CCC2"/>
			<stop  offset="0.5923" style="stop-color:#8ABAB1"/>
			<stop  offset="0.9888" style="stop-color:#749D95"/>
			<stop  offset="1" style="stop-color:#739C94"/>
		</radialGradient>
		<path id="Egg_4_" style="fill:url(#Egg_00000057144635702556016820000018284810419596799649_);" d="M156.4,417.7
			c0-101.8,67-227.7,149.6-227.7s149.6,125.9,149.6,227.7S388.6,602,306,602S156.4,519.5,156.4,417.7z"/>
		<path d="M380.6,474.8c-0.2-0.2-0.3-0.5-0.5-0.7c-0.4-0.2-0.9-0.1-1.3,0.2c-2.3-0.7-5-0.2-6.7,1.7c-0.1,0.1-0.1,0.1-0.1,0.2
			c-2.9,2.1-5,6.1-3.9,9.6c0.4,1.6,1.3,2.8,2.4,3.6c3.2,6,12.1,4.7,14.1-2.4C386.8,482.4,384.8,476.2,380.6,474.8z"/>
		<path d="M219.5,506.3c-0.1-2.4-1.3-4-2.7-4.9c-1.3-2-3.4-3.1-6-1.7c-4,2.9-4.8,10.1-1.7,13.9C214.1,518.4,220.2,511.9,219.5,506.3
			z"/>
		<path d="M193.9,402.6c0.4-2.8-0.2-5.6-2.2-7.5c-0.1-0.1-0.3-0.2-0.4-0.3c-1.5-2.4-4-3.9-7.4-3.1c-7.2,1.5-8,16.2-2,19.5
			c1.4,2.5,4.2,4.3,7.1,3c2.9-1.4,4.5-4.7,4.8-8.2C194,404.9,194.1,403.8,193.9,402.6z"/>
		<path d="M312.3,569.2c-3.6,0.3-8.1,2-9.2,5.7c-0.6,3,1,4.9,3.2,5.8c2.6,6.7,11.8,1.7,12.7-3.8
			C320.1,572.8,316.4,569.1,312.3,569.2z"/>
		<path d="M310.8,484c-0.2-2-1.3-4-3.1-5.1c0,0,0,0,0,0c-1.1-0.6-2.3-1-3.8-0.9c-2.3,0-4.2,1.3-5.4,3c-1.1,1.1-1.9,2.6-2,4.3
			c0,1.8,0.8,3.2,2,4.1c0.2,0.2,0.5,0.5,0.8,0.7c1.7,1.5,4,2.3,6.7,1.7C309.2,490.9,311.2,487.2,310.8,484z"/>
		<path d="M410.1,416c0-2.3-1.9-3.7-3.9-3.3c-0.1,0-0.1,0-0.2,0c-0.3,0.1-0.6,0.2-0.9,0.3c0,0-0.1,0-0.1,0.1c-0.1,0-0.1,0.1-0.1,0.1
			c-0.2,0.1-0.4,0.2-0.5,0.3c-0.5,0.5-1.1,1.1-1.5,1.8c-1,1.4-1.4,2.8-1.3,4c0,0,0,0.1,0,0.1c0,0.1,0,0.2,0.1,0.4
			c0.1,1.1,0.6,2.2,1.7,2.9C407.2,424.9,411,419.8,410.1,416z"/>
		<path d="M427.8,497.3c3.7-5.5,4.6-13-3-12.7c-2.9,0.9-4.6,3.9-5.6,6.6c-0.4,1-0.8,2-1.1,3.1c-1.8,3.4-3.2,8.2,2.1,8.6
			c2,0,4.1-1.3,5.8-3.2C426.7,499,427.3,498.2,427.8,497.3z"/>
		<path d="M258.8,405.8c-0.1-0.5-0.2-1-0.4-1.3c-1.2-2.1-4-1.5-5,0.3c-0.2,0.1-0.4,0.2-0.7,0.3c-1.9,1.5-2.7,4.4-2,6.7
			c-0.1,0.3-0.2,0.5-0.3,0.8c-0.7,2.2,2.1,3.8,4,2.7c0.1-0.1,0.2-0.2,0.3-0.3c0.1,0.1,0.1,0.3,0.2,0.4c1.7,1,3.4-0.8,3.2-2.6
			c0,0,0,0,0,0C259.8,410.9,260.3,407.8,258.8,405.8z"/>
		<path d="M221.4,274.2c-1.6-2.9-3.7-2.3-5.1-0.4c-4.1,1.7-6.3,8-3.4,11.5c2,1.9,4.3,1.6,6.1,0.4c0.6-0.2,1.1-0.4,1.5-1
			c0.1-0.1,0.1-0.2,0.2-0.4C224.3,281.8,224.8,276.3,221.4,274.2z"/>
		<path d="M388.1,259.7c-0.4-1.5-1.3-2.5-2.4-3.1c-0.4-0.3-0.8-0.5-1.2-0.6c-4.7-2.7-8.3,5.3-6,9c0.8,1.2,1.7,1.9,2.6,2.3
			c3.3,2.6,6.7-0.1,7.1-3.6C388.6,262.5,388.6,261.1,388.1,259.7z"/>
		<path d="M422.5,349.9c-1.7-5.2-7.9-3.6-8.7,1.3c-0.8,3.4-0.7,8,2.6,10c4.4,2,6.6-2.9,6.5-6.6C423.1,352.9,423,351.2,422.5,349.9z"
			/>
	</g>
</g>
</svg>
