<?xml version="1.0" encoding="UTF-8"?>
<svg id="Song-thrush" xmlns="http://www.w3.org/2000/svg" xmlns:xlink="http://www.w3.org/1999/xlink" viewBox="0 0 612 792">
  <defs>
    <style>
      .cls-1 {
        fill: url(#radial-gradient);
      }
    </style>
    <radialGradient id="radial-gradient" cx="300.22" cy="389.56" fx="300.22" fy="389.56" r="302.03" gradientTransform="translate(0 -93.75) scale(1 1.24)" gradientUnits="userSpaceOnUse">
      <stop offset="0" stop-color="#9dd2c8"/>
      <stop offset=".25" stop-color="#98cbc1"/>
      <stop offset=".59" stop-color="#8ab9b0"/>
      <stop offset=".99" stop-color="#739c94"/>
      <stop offset="1" stop-color="#739c94"/>
    </radialGradient>
  </defs>
  <g id="Dots">
    <path id="Egg" class="cls-1" d="m49.2,424.42c0-170.78,112.38-381.98,251.02-381.98s251.02,211.2,251.02,381.98-112.38,309.22-251.02,309.22S49.2,595.2,49.2,424.42Z"/>
    <path d="m425.44,520.19c-.27-.41-.43-.9-.81-1.23-.73-.36-1.58-.15-2.21.34-3.86-1.2-8.38-.36-11.28,2.78-.09.1-.13.23-.22.34-4.94,3.61-8.37,10.21-6.49,16.13.75,2.64,2.17,4.63,3.94,6.06,5.35,10.07,20.31,7.93,23.66-4.04,3.68-7.61.32-18.03-6.6-20.37Z"/>
    <path d="m155.16,573.03c-.22-4.08-2.13-6.76-4.55-8.21-2.18-3.3-5.7-5.12-10.13-2.93-6.68,4.94-8.08,16.88-2.93,23.34,8.55,8.2,18.64-2.8,17.61-12.2Z"/>
    <path d="m112.21,399.04c.64-4.66-.37-9.34-3.75-12.5-.24-.2-.48-.33-.72-.51-2.56-4-6.76-6.46-12.46-5.26-12.07,2.47-13.38,27.15-3.34,32.72,2.4,4.23,7.03,7.15,11.89,4.97,4.94-2.33,7.57-7.92,8.03-13.79.45-1.66.58-3.55.35-5.63Z"/>
    <path d="m310.84,678.6c-5.98.51-13.6,3.27-15.4,9.6-1,4.96,1.65,8.15,5.43,9.74,4.37,11.27,19.8,2.87,21.23-6.42,1.69-6.84-4.47-13.16-11.26-12.92Z"/>
    <path d="m308.28,535.66c-.31-3.43-2.22-6.67-5.26-8.49-.03-.01-.05-.02-.08-.03-1.79-1.06-3.93-1.65-6.29-1.47-3.88.03-6.98,2.15-8.98,5.06-1.9,1.92-3.25,4.36-3.43,7.29.03,3.07,1.42,5.31,3.4,6.9.4.41.85.77,1.35,1.09,2.79,2.55,6.79,3.93,11.17,2.87,5.4-1.62,8.79-7.78,8.13-13.23Z"/>
    <path d="m474.8,421.63c-.04-3.78-3.11-6.23-6.48-5.61-.09.01-.17.06-.27.07-.5.12-1,.29-1.5.55-.08.05-.17.04-.25.09-.09.07-.15.15-.24.22-.31.19-.62.33-.91.58-.91.8-1.78,1.86-2.53,3.03-1.71,2.38-2.35,4.7-2.21,6.69,0,.04,0,.09,0,.13.02.2.06.4.09.59.18,1.89.99,3.63,2.89,4.84,6.65,3.64,12.93-4.9,11.41-11.19Z"/>
    <path d="m504.56,557.99c6.17-9.2,7.76-21.86-5.11-21.32-4.94,1.5-7.66,6.49-9.41,11.01-.59,1.63-1.31,3.37-1.85,5.14-3.1,5.66-5.35,13.78,3.51,14.42,3.34-.06,6.82-2.24,9.79-5.38,1.17-1.1,2.22-2.42,3.07-3.87Z"/>
    <path d="m221.04,404.49c-.08-.9-.27-1.7-.63-2.22-2.03-3.58-6.79-2.54-8.47.52-.38.19-.73.28-1.13.56-3.26,2.49-4.46,7.44-3.28,11.19-.16.44-.35.89-.47,1.33-1.1,3.74,3.54,6.39,6.63,4.61.22-.13.38-.33.58-.48.15.19.2.44.37.62,2.88,1.62,5.69-1.36,5.32-4.29,0-.01,0-.03,0-.04,2.72-3.32,3.54-8.51,1.08-11.79Z"/>
    <path d="m158.22,183.73c-2.71-4.85-6.15-3.79-8.54-.68-6.83,2.87-10.5,13.48-5.69,19.32,3.3,3.11,7.17,2.75,10.21.7.99-.25,1.9-.73,2.54-1.66.16-.19.18-.41.3-.61,6.05-4.35,6.93-13.59,1.19-17.07Z"/>
    <path d="m437.98,159.32c-.73-2.55-2.24-4.24-4.04-5.25-.6-.48-1.26-.85-1.98-1.09-7.96-4.52-13.89,8.9-10.03,15.17,1.42,2.08,2.92,3.27,4.41,3.8,5.46,4.38,11.21-.15,11.83-5.97.63-1.99.69-4.27-.19-6.66Z"/>
    <path d="m495.73,310.72c-2.86-8.77-13.29-6.06-14.67,2.11-1.26,5.67-1.1,13.35,4.36,16.75,7.4,3.43,11.09-4.83,10.85-11.16.42-2.77.27-5.59-.54-7.71Z"/>
  </g>
</svg>